<svg xmlns="http://www.w3.org/2000/svg" fill="none" viewBox="0 0 42 42">
  <defs/>
  <path fill="#A4A8B4" d="M25.6 13.3H33V15h-7.4v-1.8zm.7 11.5c0 1 .3 2 1 2.6.6.6 1.5 1 2.3.8.7 0 1.4-.1 2-.5.4-.3.8-.7 1-1.1h3.3a6.6 6.6 0 01-2.5 3.3 7.8 7.8 0 01-6.7.5 6.1 6.1 0 01-3.5-3.6 8 8 0 01-.4-3c0-1 0-1.9.4-2.8.3-.8.8-1.6 1.4-2.3a6.8 6.8 0 015-2c1 0 2 .2 3 .7.8.4 1.5 1 2 1.8.6.8 1 1.7 1.3 2.6v3h-9.6zm1.6-4.9l-1 .8c-.2.2-.3.6-.4 1l-.1.8h6c0-.8-.4-1.6-1-2.2-.5-.5-1.3-.7-2-.7l-1.5.3zm-7 7.7c-.3.7-.8 1.3-1.4 1.7-.7.5-1.4.8-2.1 1-.8.2-1.6.3-2.5.3H6V12h8.7a9 9 0 014.3 1c.6.3 1 .8 1.2 1.4.3.7.4 1.4.3 2.1 0 .9-.1 1.7-.6 2.4-.5.6-1.2 1.2-1.9 1.5 1 .3 2 .9 2.5 1.7.6.9 1 2 1 3 0 .8-.2 1.7-.5 2.5zm-6.5-5.3H10v5.2h4.3l1.1-.1a2.3 2.3 0 001.6-1.2l.3-1.2a2.6 2.6 0 00-.8-2c-.6-.5-1.4-.7-2.1-.7zM16 19c.5-.4.7-1 .6-1.7 0-.3 0-.7-.2-1a2 2 0 00-.6-.7c-.2-.2-.5-.3-.8-.3h-5v4.3H14A3 3 0 0016 19z"/>
</svg>
