<svg xmlns="http://www.w3.org/2000/svg" fill="none" viewBox="0 0 42 42">
  <defs/>
  <path fill="#A4A8B4" d="M15.4 18.4a1 1 0 00-.6-.2h-1v5.6h1c.2 0 .4 0 .6-.2.2-.2.3-.4.3-.7V19c0-.3 0-.5-.3-.7zM30.6 9H11.4C10 9 9 10 9 11.3v19.4C9 32 10 33 11.4 33h19.2c1.3 0 2.4-1 2.4-2.3V11.3C33 10 32 9 30.6 9zM17.3 22.9c0 1-.7 2.5-2.6 2.5h-2.5v-8.8h2.5c2 0 2.6 1.5 2.6 2.5v3.8zm5.4-4.8h-2.9v2h1.7v1.7h-1.7v2h2.9v1.6h-3.4a1 1 0 01-1-1v-6.7c-.1-.6.4-1.1 1-1.1h3.4V18zm5.5 6.2c-.7 1.7-2 1.3-2.5 0l-2.1-7.7h1.7l1.6 6 1.6-6h1.8l-2 7.7z"/>
</svg>
