<svg xmlns="http://www.w3.org/2000/svg" fill="none" viewBox="0 0 42 42">
  <defs/>
  <path fill="#A4A8B4" d="M17 28.3c0 .1 0 .2-.2.2s-.3 0-.3-.2c0 0 .1-.2.3-.2l.2.2zm-1.5-.2c0 .1 0 .2.2.2h.3c0-.2 0-.3-.2-.3l-.3.1zm2.2 0c-.2 0-.3 0-.3.2h.3c.2 0 .3 0 .2-.1l-.2-.2zM20.8 9C14.1 9 9 14.2 9 21.1c0 5.5 3.4 10.2 8.2 11.9.6 0 .8-.3.8-.6v-3s-3.4.7-4-1.5c0 0-.6-1.5-1.4-1.9 0 0-1.1-.7 0-.7 0 0 1.3 0 2 1.3 1 1.9 2.8 1.3 3.5 1 0-.8.4-1.4.7-1.7-2.7-.3-5.4-.7-5.4-5.5 0-1.3.4-2 1.1-2.9 0-.3-.5-1.6.2-3.4 1-.3 3.3 1.4 3.3 1.4a11.1 11.1 0 016 0s2.4-1.7 3.4-1.4c.7 1.8.3 3 .1 3.4.8.9 1.3 1.6 1.3 3 0 4.7-2.9 5.1-5.6 5.4.5.4.9 1.2.9 2.3v4.2c0 .3.2.7.8.6C29.7 31.3 33 26.6 33 21A12 12 0 0020.8 9zm-7.1 17.1v.3h.3v-.2h-.3zm-.5-.4v.2h.3l-.1-.2h-.2zm1.5 1.8l.1.3h.3v-.3c-.1 0-.3-.1-.4 0zm-.5-.7v.2c0 .2.2.2.3.2v-.3c-.1-.2-.2-.2-.3-.1z"/>
</svg>
