<svg xmlns="http://www.w3.org/2000/svg" fill="none" viewBox="0 0 42 42">
  <defs/>
  <path fill="#A4A8B4" d="M21 9h-5c-1.2.1-2.1.3-2.9.6-.7.3-1.4.7-2 1.4-.8.7-1.2 1.4-1.5 2.1-.3.8-.5 1.7-.5 3a85.2 85.2 0 00.5 12.8c.3.7.7 1.4 1.4 2 .7.8 1.4 1.2 2.1 1.5.8.3 1.7.5 3 .5a85.1 85.1 0 0012.8-.5c.7-.3 1.4-.7 2-1.4.8-.7 1.2-1.4 1.5-2.1.3-.8.5-1.7.5-3a85.1 85.1 0 00-.5-12.8c-.3-.7-.7-1.4-1.4-2-.7-.8-1.4-1.2-2.1-1.5-.8-.3-1.7-.5-3-.5L21 9zm0 2.2h4.8c1.2 0 1.9.3 2.3.4.5.3 1 .5 1.4 1 .4.4.6.8.9 1.3.1.4.3 1 .4 2.3a83.3 83.3 0 01-.4 11.9c-.3.5-.5 1-1 1.4-.4.4-.8.6-1.3.9-.4.1-1 .3-2.3.4a83.3 83.3 0 01-11.9-.4c-.5-.3-1-.5-1.4-1-.4-.4-.6-.8-.9-1.3-.1-.4-.3-1-.4-2.3a83.3 83.3 0 01.4-11.9c.3-.5.5-1 1-1.4.4-.4.8-.6 1.3-.9.4-.1 1-.3 2.3-.4H21z"/>
  <path fill="#A4A8B4" d="M21 25a4 4 0 110-8 4 4 0 010 8zm0-10.2a6.2 6.2 0 100 12.4 6.2 6.2 0 000-12.4zm7.8-.2a1.4 1.4 0 11-2.8 0 1.4 1.4 0 012.8 0z"/>
</svg>
