<svg width="40" height="40" viewBox="0 0 40 40" fill="none" xmlns="http://www.w3.org/2000/svg">
<g clip-path="url(#clip0)">
<path d="M19.0392 2C11.8304 2 6 7.83039 6 15.0392C6 18.2804 6.93137 21.3167 8.62647 24.0549C10.3961 26.9235 12.7245 29.3824 14.5127 32.251C15.3882 33.648 16.0216 34.952 16.6922 36.4608C17.1765 37.4853 17.5676 39.2549 19.0392 39.2549C20.5108 39.2549 20.902 37.4853 21.3676 36.4608C22.0569 34.952 22.6716 33.648 23.5471 32.251C25.3353 29.401 27.6637 26.9422 29.4333 24.0549C31.1471 21.3167 32.0784 18.2804 32.0784 15.0392C32.0784 7.83039 26.248 2 19.0392 2ZM19.0392 20.1618C16.4686 20.1618 14.3824 18.0755 14.3824 15.5049C14.3824 12.9343 16.4686 10.848 19.0392 10.848C21.6098 10.848 23.6961 12.9343 23.6961 15.5049C23.6961 18.0755 21.6098 20.1618 19.0392 20.1618Z" fill="#EC1C24"/>
</g>
<defs>
<clipPath id="clip0">
<rect width="40" height="40" fill="white"/>
</clipPath>
</defs>
</svg>
