<svg width="40" height="41" viewBox="0 0 40 41" fill="none" xmlns="http://www.w3.org/2000/svg">
<path d="M20 4.12842C10.8 4.12842 3.33331 11.5951 3.33331 20.7951C3.33331 29.9951 10.8 37.4618 20 37.4618H28.3333V34.1284H20C12.7666 34.1284 6.66665 28.0284 6.66665 20.7951C6.66665 13.5618 12.7666 7.46175 20 7.46175C27.2333 7.46175 33.3333 13.5618 33.3333 20.7951V23.1784C33.3333 24.4951 32.15 25.7951 30.8333 25.7951C29.5166 25.7951 28.3333 24.4951 28.3333 23.1784V20.7951C28.3333 16.1951 24.6 12.4618 20 12.4618C15.4 12.4618 11.6666 16.1951 11.6666 20.7951C11.6666 25.3951 15.4 29.1284 20 29.1284C22.3 29.1284 24.4 28.1951 25.9 26.6784C26.9833 28.1618 28.85 29.1284 30.8333 29.1284C34.1166 29.1284 36.6666 26.4618 36.6666 23.1784V20.7951C36.6666 11.5951 29.2 4.12842 20 4.12842ZM20 25.7951C17.2333 25.7951 15 23.5618 15 20.7951C15 18.0284 17.2333 15.7951 20 15.7951C22.7666 15.7951 25 18.0284 25 20.7951C25 23.5618 22.7666 25.7951 20 25.7951Z" fill="#EC1C24"/>
</svg>
