<svg width="40" height="40" viewBox="0 0 40 40" fill="none" xmlns="http://www.w3.org/2000/svg">
<path d="M33.5 12.8332L31.8333 14.4998C34.8333 17.4998 34.8333 22.1665 31.8333 25.3332L33.5 26.9998C37.6666 23.1665 37.6666 16.8332 33.5 12.8332ZM30 16.3332L28.3333 17.9998C29.1666 19.1665 29.1666 20.6665 28.3333 21.8332L30 23.4998C32 21.4998 32 18.4998 30 16.3332ZM23.3333 1.6665H6.66665C4.83331 1.6665 3.33331 3.1665 3.33331 4.99984V34.9998C3.33331 36.8332 4.83331 38.3332 6.66665 38.3332H23.3333C25.1666 38.3332 26.6666 36.8332 26.6666 34.9998V4.99984C26.6666 3.1665 25.1666 1.6665 23.3333 1.6665ZM23.3333 33.3332H6.66665V6.6665H23.3333V33.3332Z" fill="#EC1C24"/>
</svg>
