<svg xmlns="http://www.w3.org/2000/svg" fill="none" viewBox="0 0 42 42">
  <defs/>
  <path fill="#96969C" fill-rule="evenodd" d="M21 9a11.9 11.9 0 018.5 3.5 11.8 11.8 0 013.5 8.4 12 12 0 01-17.7 10.4L9 33l1.7-6.2a11.8 11.8 0 01-1.6-6A12 12 0 0121.1 9zm0 21.8a10 10 0 0010-9.9 9.8 9.8 0 00-3-7 9.9 9.9 0 00-7-2.9 10 10 0 00-8.4 15.2l.3.3-1 3.7 3.7-1 .4.2a10 10 0 005 1.4z" clip-rule="evenodd"/>
  <path fill="#96969C" fill-rule="evenodd" d="M21 30.8a10 10 0 01-5-1.4l-.4-.2-3.7 1 1-3.7-.3-.3a9.8 9.8 0 01-1.5-5.3 10 10 0 0110-9.9 9.9 9.9 0 017 3 9.8 9.8 0 012.9 6.9 10 10 0 01-10 9.9zm3.5-8.4l2 1 .6.3-.2 1.4c-.3.7-1.4 1.4-2 1.5-.5 0-1.2 0-1.9-.2l-1.7-.6c-3-1.3-5-4.3-5.1-4.5a5.8 5.8 0 01-1.2-3c0-1.5.7-2.2 1-2.5a1.1 1.1 0 01.8-.4h.6c.2 0 .4 0 .7.5l.9 2.2v.5c0 .2-.1.4-.3.5l-.4.6c-.2.1-.3.3-.2.6a9 9 0 001.7 2c1.1 1 2.1 1.4 2.4 1.5.3.2.5.1.6 0l1-1.2c.2-.3.4-.3.7-.2z" clip-rule="evenodd"/>
</svg>
