<svg width="23" height="23" viewBox="0 0 23 23" fill="none" xmlns="http://www.w3.org/2000/svg">
  <path fill-rule="evenodd" clip-rule="evenodd" d="M14.272 19H13.9422C13.9064 17.6063 13.8612 15.6048 13.8367 13.9408L16.0341 13.8967L16.4525 11.4045L13.8254 11.5962C13.8725 9.56027 14.2438 9.17685 15.5441 9.17685C15.9512 9.17685 16.3696 9.17685 16.6466 9.17685V6.58495C15.9226 6.48762 15.1926 6.44341 14.4624 6.45267C11.7863 6.45267 10.9514 8.15313 10.9514 11.5253V11.7822L9.60018 11.8761L9.58133 14.0232L10.9458 13.9964C10.9458 15.7678 10.9307 17.6389 10.925 18.9502C9.77356 18.9252 8.63716 18.9003 7.72126 18.9003C4.27062 18.9003 3.33398 16.8241 3.33398 14.1843C3.33398 11.5445 3.38487 8.62473 3.38487 7.62401C3.38487 4.65828 4.6758 3.0115 7.8758 3.0115C9.05931 3.0115 13.5107 3 15.0259 3C17.9375 3 19.334 4.2231 19.334 7.80422C19.334 8.68799 19.2699 10.3424 19.2699 14.93C19.2643 17.8152 17.9243 19 14.272 19Z" fill="#A0A0A1"/>
</svg>
