<svg width="23" height="23" viewBox="0 0 23 23" fill="none" xmlns="http://www.w3.org/2000/svg">
  <path fill-rule="evenodd" clip-rule="evenodd" d="M14.7225 19.0001C12.7776 19.0001 10.0111 18.9004 8.16609 18.9004C4.71544 18.9004 3.77881 16.8242 3.77881 14.1844C3.77881 11.5446 3.82969 8.62485 3.82969 7.62413C3.82969 4.6584 5.12062 3.01162 8.32062 3.01162C9.50413 3.01162 13.9555 3.00012 15.4707 3.00012C18.3823 3.00012 19.7788 4.22322 19.7788 7.80434C19.7788 8.68812 19.7147 10.3426 19.7147 14.9301C19.7147 17.8154 18.3748 19.0001 14.7225 19.0001ZM11.8014 6.81704C6.37009 6.81704 6.10814 15.2254 11.8938 15.2254C17.1781 15.2254 17.212 6.81704 11.8014 6.81704ZM16.7107 5.15109C15.1409 5.15109 15.0655 7.56854 16.739 7.56854C18.2655 7.5647 18.2768 5.15109 16.7107 5.15109Z" fill="#A0A0A1"/>
</svg>
