<svg width="14" height="16" viewBox="0 0 14 16" fill="none" xmlns="http://www.w3.org/2000/svg">
<path fill-rule="evenodd" clip-rule="evenodd" d="M11.1409 6.74125L10.9953 7.72845L8.3521 7.86125L8.0321 13.1125C9.23929 13.0399 10.392 12.5848 11.3233 11.8133L10.8609 10.8725L13.4001 10.9445C10.4881 17.2661 2.1169 16.4549 0.600098 9.32685L2.9841 10.0133L2.4385 10.8277C3.1105 11.7589 4.2113 12.4597 5.4593 12.8325L6.3729 7.66125L3.7489 6.93165L3.8945 5.94125L6.7073 5.82445L6.8673 4.86445C4.8593 3.89485 5.6513 0.501249 8.1745 0.821249C10.6977 1.14125 10.5169 4.54765 8.5201 5.06125L8.4625 6.02125L11.1409 6.74125ZM7.9921 2.15725C6.9409 2.02925 6.6945 3.62125 7.8129 3.75725C8.8353 3.88525 9.0417 2.28685 7.9921 2.15725Z" fill="#EC1C24"/>
</svg>
