<svg width="19" height="18" viewBox="0 0 19 18" fill="none" xmlns="http://www.w3.org/2000/svg">
<path d="M1.14062 16.1294C0.730469 16.5396 0.71875 17.2544 1.14062 17.6646C1.5625 18.0747 2.26562 18.0747 2.67578 17.6646L9.67188 10.6685L16.6562 17.6646C17.0781 18.0747 17.7812 18.0864 18.1914 17.6646C18.6016 17.2427 18.6016 16.5396 18.1914 16.1294L11.1953 9.1333L18.1914 2.14893C18.6016 1.72705 18.6133 1.02393 18.1914 0.61377C17.7695 0.203613 17.0781 0.203613 16.6562 0.61377L9.67188 7.60986L2.67578 0.61377C2.26562 0.203613 1.55078 0.191895 1.14062 0.61377C0.730469 1.03564 0.730469 1.73877 1.14062 2.13721L8.13672 9.1333L1.14062 16.1294Z" fill="#404143"/>
</svg>
