<svg width="25" height="24" viewBox="0 0 25 24" fill="none" xmlns="http://www.w3.org/2000/svg">
<path d="M10.5376 19.4312C12.5811 19.4312 14.4795 18.7852 16.0483 17.6909L21.8096 23.4521C22.1128 23.7554 22.5083 23.9004 22.9302 23.9004C23.8135 23.9004 24.4463 23.2148 24.4463 22.3447C24.4463 21.936 24.3145 21.5537 24.0112 21.2505L18.2896 15.5156C19.4893 13.9072 20.2012 11.9165 20.2012 9.76758C20.2012 4.44141 15.8506 0.104004 10.5376 0.104004C5.22461 0.104004 0.874023 4.42822 0.874023 9.76758C0.874023 15.0806 5.21143 19.4312 10.5376 19.4312ZM10.5376 17.1768C6.46387 17.1768 3.11523 13.8281 3.11523 9.76758C3.11523 5.70703 6.46387 2.3584 10.5376 2.3584C14.5981 2.3584 17.9468 5.70703 17.9468 9.76758C17.9468 13.8281 14.5981 17.1768 10.5376 17.1768Z" fill="#fff"/>
</svg>
