<svg width="48" height="41" fill="none" xmlns="http://www.w3.org/2000/svg"><g clip-path="url(#a)" filter="url(#b)"><path d="m13.34 21.32.978-7.393-8.49-5.924 7.757 2.64 1.832-2.825 6.69-4.172 14.747 8.166.765 12.46-6.57 9.176-5.193.8 2.685-4.941V24.55l-1.952-3.714-1.984-1.321-3.052 3.162v3.346l-2.382 2.242-3.026.368-1.34.763-2.199-.705-.916-3.315 1.65-2.33V21.32z" fill="#fff"/><path d="M26.898 7.94c-1.618-.338-3.387-.248-3.387-.248s-.581 2.7-4.183 3.41c.026 0 4.759 1.625 7.57-3.163zM28.363 32.432c1.953-1.536 3.419-3.651 4.094-6.045.032-.09.304-.248.487-.369.303-.184.612-.336.67-.584.12-.705.183-1.441.183-2.178 0-.273-.277-.552-.55-.826-.214-.184-.429-.4-.429-.552-.303-2.794-1.586-5.404-3.633-7.303l-.214.215c1.984 1.873 3.266 4.42 3.544 7.12.031.246.272.488.518.736.215.184.46.463.46.584 0 .705-.062 1.41-.183 2.115-.031.12-.303.247-.518.368-.303.153-.581.305-.639.553a11.341 11.341 0 0 1-4.643 6.356c.398-.858 1.65-3.652 2.32-5.067l-.121-4.541-3.88-3.773-2.198.306-2.413 3.93s1.13 1.442-.46 3.13c-1.556 1.658-2.78 2.026-2.78 2.026l-1.131-.615c.335-.432 1.01-1.074 1.528-1.505.885-.737 1.77-.8 1.77-1.594.036-1.663-1.738-1.205-1.738-1.205l-.644.615-.272 2.273-1.34 1.69-.152-.032-2.199-.49s1.345-.705 1.56-1.504c.215-.768-.43-3.315-.46-3.468.03.032.643.553.915 1.41.487-1.352 1.131-2.64 1.314-2.762.184-.12 2.654-1.442 2.654-1.442l-.821 2.179.612-.337 1.466-3.62s1.434-.705 2.502-.705c1.921-.032 4.764-2.394 3.481-6.63.367.153 6.717 3.347 7.816 9.608.822 4.814-1.895 9.324-6.476 11.933z" fill="#94A6C3"/><path d="M21.098 8.613c.701-.83.429-2.057.429-2.057L19.48 9.597c-.031 0 .728.032 1.617-.984zM14.224 25.218l.246-1.226s-1.01 1.779-1.1 2.026c-.093.279.064.768.456.737.398-.032.885-.616.885-1.042 0-.553-.487-.495-.487-.495z" fill="#1B314F"/><path d="M32.363 5.698s1.529.063 3.115.247c-3.576-2.825-6.963-3.651-9.711-3.651-3.785 0-6.35 1.568-6.507 1.657l1.194-1.905s-4.764-.463-6.445 4.604c-.429-1.073-.821-2.641-.821-2.641s-2.477 2.184-1.314 5.804c-2.843-1.042-6.9-2.49-7.057-2.515-.215-.032-.277.063-.277.063s-.063.09.12.247c.34.268 6.753 5.03 8.161 5.95-.303 1.106-.303 1.627 0 2.148.43.705.456 1.073.398 1.594-.063.52-.612 5.035-.733 5.588-.12.552-1.403 2.515-1.345 3.099.063.584.853 3.067 1.56 3.346.518.184 1.8.584 2.654.584.303 0 .58-.063.701-.184.519-.458.67-.553 1.037-.553h.089c.152 0 .335.032.55.032.486 0 1.13-.095 1.586-.52.67-.674 1.832-1.595 2.198-2.027a2.86 2.86 0 0 0 .581-2.178c-.094-.736.304-1.384.765-2.026.58-.768 1.649-2.146 1.649-2.146 2.11 1.589 3.423 4.014 3.423 6.713 0 4.789-4.151 8.656-9.281 8.656-.796 0-1.555-.09-2.32-.274 2.351.826 4.335 1.105 5.958 1.105 3.45 0 5.282-1.258 5.282-1.258s-.639.832-1.68 1.779h.031c5.711-.8 8.491-5.525 8.491-5.525s-.215 1.537-.487 2.579c7.596-5.74 6.313-12.923 6.282-13.165.063.09.827 1.01 1.22 1.505C42.655 9.78 32.363 5.698 32.363 5.698zm-11.695 20.2c-.12.152-.638.615-1.005.951-.366.337-.764.674-1.068.984-.12.122-.366.185-.733.185h-.916c.46-.616 1.801-2.026 2.262-2.331.55-.369.827-.737.487-1.379-.335-.647-1.22-.49-1.22-.49s.518-.215.979-.215c-.581-.152-1.314 0-1.65.337-.366.337-.303 1.536-.455 2.3-.151.799-.67 1.199-1.465 1.935-.43.4-.733.521-.98.521a10.39 10.39 0 0 1-1.56-.4c-.303-.4-.764-1.72-.884-2.273.089-.305.455-.952.639-1.32.366-.705.58-1.105.643-1.473.12-.521.519-3.747.67-5.094.398.521.948 1.384.822 1.937.885-1.258.246-2.49-.062-2.978-.273-.49-.639-1.474-.335-2.515.303-1.042 1.402-3.93 1.402-3.93s.367.646.885.52c.518-.121 4.701-6.445 4.701-6.445s1.13 2.483-.063 4.298c-1.22 1.81-2.413 2.147-2.413 2.147s1.68.305 3.235-.831c.639 1.505 1.251 3.067 1.283 3.283-.095.216-1.314 3.162-1.435 3.346-.062.063-.486.184-.795.248-.519.152-.822.247-.948.336-.215.184-1.193 2.884-1.649 4.204-.55.153-1.1.463-1.497 1.074.215-.153.885-.248 1.377-.305.43-.032 1.738.673 2.078 1.994v.063c.068.484-.084.947-.33 1.315zm-2.869.367c.278-.4.247-1.073.278-1.289.031-.215.089-.615.335-.673.246-.063.827.031.827.458 0 .4-.43.489-.733.768-.22.21-.649.673-.707.736zM29.981 20.4c.304-1.563.335-2.915.246-4.02 1.188 1.594 1.921 3.53 2.136 5.525.031.247.272.489.518.736.215.184.46.432.46.584 0 .705-.062 1.41-.182 2.12-.032.09-.304.248-.519.369-.303.153-.58.305-.638.552a11.44 11.44 0 0 1-4.031 5.925c2.837-2.978 4.209-7.892 2.01-11.791zM28.06 32.464c1.984-1.537 3.513-3.683 4.183-6.11.03-.088.303-.246.486-.367.304-.153.613-.337.67-.584.12-.705.184-1.442.184-2.179 0-.273-.278-.552-.55-.826-.152-.184-.398-.4-.398-.552a12.068 12.068 0 0 0-2.502-6.109c-.613-3.683-3.052-4.82-3.115-4.851.063.095 1.65 2.394.55 5.093-1.13 2.73-4.031 2.305-4.277 2.331-.246 0-1.188 1.226-2.382 3.499-.152-.063-.796-.216-1.528-.09.55-1.536 1.376-3.714 1.528-3.898.063-.064.518-.184.827-.274.581-.152.853-.247.948-.368.063-.095.366-.8.67-1.537.277 0 .979-.063 1.036-.094.063-.063.644-1.563.644-1.747 0-.153-1.193-3.13-1.649-4.267.215-.248.43-.553.639-.89 6.26.68 11.15 6.02 11.15 12.492 0 4.972-2.9 9.302-7.114 11.328z" fill="#1B314F"/><path d="M19.935 15.89c.581-.674.278-1.931-.795-2.147.277-.642.67-1.93.67-1.93s-3.115 4.908-3.387 5.003c-.278.095-.55-.984-.55-.984-.58 2.241.979 2.547 1.162 1.842.854-.221 2.32-1.142 2.9-1.784z" fill="#1B314F"/><path d="m17.276 17.084 1.586-2.73s.916.463.456 1.2c-.576.857-2.042 1.53-2.042 1.53z" fill="#FFD923"/><path d="M36.912 29.733c-.46.615-.979 1.257-1.586 1.873 3.937-7.614.183-14.58.031-14.854.278.28.55.585.796.858 3.02 3.373 3.387 8.44.76 12.123zM40.576 19.941c-1.376-3.715-3.329-6.877-7.632-9.729-4.151-2.762-8.611-2.546-8.858-2.515h-.062c.151-.063.303-.094.455-.12.948-.306 2.167-.553 3.392-.706 3.24-.468 6.507.637 8.737 3.005l.063.063c2.534 2.699 3.848 6.072 3.905 10.002zM31.965 4.746c-4.55-.858-7.48-.432-9.59.368-.063-.247-.278-.737-.461-1.136a49.365 49.365 0 0 0-1.733 2.273c-1.162.8-1.649 1.568-1.649 1.568.67-2.305 2.628-4.02 5.01-4.452.67-.12 1.403-.184 2.199-.184 2.104.032 4.209.553 6.224 1.563zM15.14 10.639c-3.57-.121-2.382-4.299-2.319-4.54 0 .03.241 3.282 2.32 4.54zM18.653 3.12c-2.749 1.658-2.199 5.614-2.199 5.614-2.628-4.014 1.984-5.519 2.199-5.614z" fill="#5A9DED"/><path d="M14.135 11.744c.183.152.367.431.152.831-.12.216-.304.184-.581.063-.367-.184-2.565-1.473-4.55-2.794 2.262.8 4.55 1.658 4.916 1.842 0 0 .032.031.063.058z" fill="#fff"/></g><defs><clipPath id="a"><path fill="#fff" transform="translate(4.534 2.036)" d="M0 0h37v35H0z"/></clipPath><filter id="b" x="-7.466" y="-5.964" width="61" height="59" filterUnits="userSpaceOnUse" color-interpolation-filters="sRGB"><feFlood flood-opacity="0" result="BackgroundImageFix"/><feColorMatrix in="SourceAlpha" values="0 0 0 0 0 0 0 0 0 0 0 0 0 0 0 0 0 0 127 0" result="hardAlpha"/><feOffset dy="4"/><feGaussianBlur stdDeviation="6"/><feComposite in2="hardAlpha" operator="out"/><feColorMatrix values="0 0 0 0 0 0 0 0 0 0 0 0 0 0 0 0 0 0 0.1 0"/><feBlend in2="BackgroundImageFix" result="effect1_dropShadow_160_14402"/><feBlend in="SourceGraphic" in2="effect1_dropShadow_160_14402" result="shape"/></filter></defs></svg>