<svg width="40" height="41" fill="none" xmlns="http://www.w3.org/2000/svg"><g clip-path="url(#a)"><path d="M28 36.793h12l-19.2-16c-.263 5.811 2.295 11.497 7.2 16z" fill="url(#b)"/><path d="M4 28.793v12l16-19.2a18.099 18.099 0 0 0-.816-.018c-5.525 0-10.892 2.543-15.184 7.218z" fill="url(#c)"/><path d="m0 4.793 19.2 16c.264-5.811-2.295-11.497-7.2-16H0z" fill="url(#d)"/><path d="m36 .793-16 19.2c5.811.264 11.497-2.295 16-7.2v-12z" fill="url(#e)"/><path d="M20 20.793c-1.793 4.65-1.522 9.388.8 14 2.4 1.2 4.4 2 7.2 2-4.905-4.503-7.463-10.189-7.2-16H20z" fill="url(#f)"/><path d="M6 21.593c-1.2 2.4-2 4.4-2 7.2 4.503-4.905 10.189-7.464 16-7.2v-.8c-2.023-.78-4.062-1.17-6.1-1.17-2.648 0-5.294.657-7.9 1.97z" fill="url(#g)"/><path d="M19.2 20.793h.8c1.793-4.65 1.523-9.389-.8-14-2.4-1.2-4.4-2-7.2-2 4.905 4.503 7.464 10.189 7.2 16z" fill="url(#h)"/><path d="M20 19.993v.8c4.65 1.794 9.388 1.523 14-.8 1.2-2.4 2-4.4 2-7.2-4.503 4.905-10.189 7.464-16 7.2z" fill="url(#i)"/><path d="m11.2 26.793 9.6 8c-2.323-4.611-2.594-9.35-.8-14a3.064 3.064 0 0 0-.962-.137c-2.75 0-7.485 2.6-7.838 6.137z" fill="url(#j)"/><path d="M6 21.593c4.612-2.323 9.35-2.594 14-.8.8-2.4-2-8.4-6-8.8l-8 9.6z" fill="url(#k)"/><path d="M20 20.793c2.4.8 8.4-2 8.8-6l-9.6-8c2.323 4.611 2.594 9.35.8 14z" fill="url(#l)"/><path d="M20 20.793c-.8 2.4 2 8.4 6 8.8l8-9.6c-4.612 2.322-9.351 2.593-14 .8z" fill="url(#m)"/><path d="M20 19.793a1 1 0 1 1 0 2 1 1 0 0 1 0-2z" fill="#000"/></g><defs><radialGradient id="h" cx="0" cy="0" r="1" gradientUnits="userSpaceOnUse" gradientTransform="matrix(-9.16968 0 0 -16 -20.857 -3.207)"><stop stop-color="#8E1400"/><stop offset="1" stop-color="#4B0B00"/></radialGradient><radialGradient id="b" cx="0" cy="0" r="1" gradientUnits="userSpaceOnUse" gradientTransform="matrix(19.2185 0 0 16 17.302 30.79)"><stop stop-color="#00C812"/><stop offset="1" stop-color="#006E00"/></radialGradient><radialGradient id="d" cx="0" cy="0" r="1" gradientUnits="userSpaceOnUse" gradientTransform="matrix(-19.2185 0 0 -16 -15.714 -2.537)"><stop stop-color="#DF1F00"/><stop offset="1" stop-color="#560D00"/></radialGradient><radialGradient id="e" cx="0" cy="0" r="1" gradientUnits="userSpaceOnUse" gradientTransform="matrix(0 -16.0001 19.2184 0 16.026 -28.892)"><stop stop-color="#00FFFD"/><stop offset="1" stop-color="#00DAFF"/></radialGradient><radialGradient id="f" cx="0" cy="0" r="1" gradientUnits="userSpaceOnUse" gradientTransform="matrix(9.16968 0 0 16 18.83 36.793)"><stop stop-color="#008200"/><stop offset="1" stop-color="#007500"/></radialGradient><radialGradient id="g" cx="0" cy="0" r="1" gradientUnits="userSpaceOnUse" gradientTransform="matrix(0 16 -9.16968 0 -18.83 4.793)"><stop stop-color="#3166D4"/><stop offset="1" stop-color="#1A509E"/></radialGradient><radialGradient id="c" cx="0" cy="0" r="1" gradientUnits="userSpaceOnUse" gradientTransform="matrix(0 16.0001 -19.2185 0 -17.301 4.123)"><stop stop-color="#56AFFD"/><stop offset="1" stop-color="#04A3FF"/></radialGradient><radialGradient id="i" cx="0" cy="0" r="1" gradientUnits="userSpaceOnUse" gradientTransform="matrix(0 -15.9999 9.16974 0 21.17 -34.894)"><stop stop-color="#0090C4"/><stop offset="1" stop-color="#005D8C"/></radialGradient><radialGradient id="j" cx="0" cy="0" r="1" gradientUnits="userSpaceOnUse" gradientTransform="matrix(9.59999 0 0 14.1368 11.2 34.793)"><stop stop-color="#00CD1C"/><stop offset="1" stop-color="#00E950"/></radialGradient><radialGradient id="k" cx="0" cy="0" r="1" gradientUnits="userSpaceOnUse" gradientTransform="matrix(0 14.1368 -9.6 0 -11.2 6.793)"><stop stop-color="#B1C8FD"/><stop offset="1" stop-color="#7EC3FD"/></radialGradient><radialGradient id="l" cx="0" cy="0" r="1" gradientUnits="userSpaceOnUse" gradientTransform="matrix(-9.60001 0 0 -14.1368 -28.487 -5.207)"><stop stop-color="#E12A00"/><stop offset="1" stop-color="#B62F00"/></radialGradient><radialGradient id="m" cx="0" cy="0" r="1" gradientUnits="userSpaceOnUse" gradientTransform="matrix(0 -14.1366 9.60016 0 28.8 -32.895)"><stop stop-color="#00B6DD"/><stop offset="1" stop-color="#0FF"/></radialGradient><clipPath id="a"><path fill="#fff" transform="translate(0 .793)" d="M0 0h40v40H0z"/></clipPath></defs></svg>