<svg width="41" height="41" fill="none" xmlns="http://www.w3.org/2000/svg"><g clip-path="url(#a)" fill="#0C0C0E"><path d="M33.749 25.643 21.17 4.26a.696.696 0 0 0-.607-.35.713.713 0 0 0-.611.342l-3.768 6.408a1.36 1.36 0 0 0 0 1.38l8.203 13.95c.123.21.3.384.515.505.213.12.456.184.703.184h7.535a.715.715 0 0 0 .608-.346.682.682 0 0 0 .001-.69zM.708 36.717 13.284 15.33a.696.696 0 0 1 .609-.344.713.713 0 0 1 .608.344l3.768 6.402a1.365 1.365 0 0 1 0 1.382l-8.2 13.951c-.123.21-.3.384-.514.506a1.424 1.424 0 0 1-.703.184H1.318a.712.712 0 0 1-.613-.346.68.68 0 0 1 .003-.693zM14.445 37.756h25.257a.727.727 0 0 0 .352-.091.693.693 0 0 0 .258-.249.66.66 0 0 0 0-.679l-3.779-6.302a1.385 1.385 0 0 0-.517-.497 1.453 1.453 0 0 0-.706-.182H18.84c-.247 0-.491.062-.706.182-.215.119-.393.29-.517.497l-3.782 6.302a.658.658 0 0 0-.001.68c.062.102.15.188.258.248.107.06.229.091.353.091z"/></g><defs><clipPath id="a"><path fill="#fff" transform="translate(.406 .833)" d="M0 0h40v40H0z"/></clipPath></defs></svg>