<svg width="66" height="21" fill="none" xmlns="http://www.w3.org/2000/svg"><g clip-path="url(#a)" fill="#EE1E23"><path d="M3.086 20.194a5.928 5.928 0 0 1-.493-.277c-.44-.275-.564-.328-.846-.36-.311-.035-.423-.107-.688-.444a2.958 2.958 0 0 0-.402-.404c-.497-.395-.603-.613-.653-1.336-.018-.26-.05-.653-.073-.871l-.04-.397.115-.307c.275-.728.575-1.215.988-1.604.344-.324.65-.49.846-.458.121.019.147.007.303-.137.24-.223.328-.259.841-.342.25-.04.582-.111.736-.157.155-.047.393-.096.528-.11.136-.013.326-.054.423-.09.12-.045.268-.066.469-.066.349 0 .561-.075 1.087-.38l.344-.2.34.008c.39.01.498-.02.57-.157.132-.256.232-1.198.166-1.573-.045-.261-.171-.576-.26-.649-.031-.026-.236-.07-.454-.098-.284-.036-.448-.076-.573-.14-.213-.11-.371-.113-.725-.015-.34.094-.407.09-.591-.034-.13-.089-.19-.105-.371-.105-.12 0-.308-.024-.42-.053a1.116 1.116 0 0 0-.72.02c-.262.09-.428.24-.428.388 0 .06.07.224.163.385l.163.281-.02.343c-.023.412-.153.853-.308 1.049-.25.314-.486.389-.926.292-.227-.05-.314-.053-.482-.022-.174.032-.23.028-.374-.026-.238-.09-.545-.305-.682-.478-.208-.262-.35-.85-.349-1.44.001-.855.288-1.4.918-1.744.179-.098.36-.245.61-.495.194-.195.423-.398.507-.45a7.4 7.4 0 0 0 .366-.253l.212-.156.55.008c.442.007.59-.003.76-.054.116-.034.427-.083.69-.108.452-.043.492-.053.691-.174.235-.143.312-.152.602-.077.11.028.397.076.639.105.54.067.616.088.871.243.111.067.353.181.536.253.323.127.348.145.706.508.464.47.695.776.893 1.18.222.454.299.74.354 1.32.026.28.075.585.107.678a.453.453 0 0 1 .02.324c-.05.198-.049.379.003.68.034.196.03.328-.017.73-.032.27-.076.8-.097 1.177-.022.377-.056.75-.076.827-.067.254-.072.566-.013.769.08.274.07.427-.049.726a1.422 1.422 0 0 0-.105.43c-.002.254.28.943.405.991.031.012.119.022.195.022.129 0 .147-.014.313-.242.198-.272.334-.356.576-.356.286 0 1.509.14 1.916.219.444.086.48.079.577-.117.093-.187.127-.39.259-1.524.155-1.336.157-1.398.052-1.54-.079-.107-.08-.127-.06-.572.017-.323.037-.647.061-.97a7.276 7.276 0 0 0-.058-1.635c-.075-.509-.07-.833.02-1.177.118-.46.112-.506-.098-.847-.223-.362-.232-.478-.075-.936.115-.337.116-.395.014-.762L14 6.996l.082-.176c.106-.226.089-.332-.133-.831a7.851 7.851 0 0 1-.234-.58c-.106-.33-.188-.375-.44-.247-.19.097-.332.089-.593-.035-.256-.121-.31-.127-.424-.048a.625.625 0 0 1-.453.086 1.12 1.12 0 0 1-.281-.169 4.814 4.814 0 0 0-.514-.326c-.407-.225-.655-.463-.802-.77-.213-.443-.117-.974.282-1.562.275-.406.542-.676.785-.798.277-.139.44-.139.832 0 .514.181.766.221 1.784.28.348.021.744.061.88.089.323.067.373.065.655-.026l.238-.077.257.127c.375.186.447.275.508.63.1.587.405 1.599.58 1.927.147.275.14.526-.025.978-.193.527-.191.516-.225 1.18-.03.59-.039.638-.148.897l-.116.274v2.85l.154.384.154.384-.128.39c-.071.215-.129.452-.128.526 0 .075.05.295.11.49.111.356.111.357.067.703-.058.455-.054.563.032.836.09.289.09.402 0 .832-.057.262-.076.485-.08.91-.004.622.037.887.178 1.15.1.187.114.193.669.332.359.09.41.095.563.055.093-.024.295-.127.45-.229.527-.345.482-.337 1.583-.277.6.032 1.38.056 1.518.046.11-.009.263-.636.363-1.488.04-.341.114-.814.165-1.05.098-.458.096-.478-.063-.676-.077-.096-.078-.1-.036-.687.06-.842.054-1.965-.016-2.598l-.058-.531.093-.42c.128-.574.124-.616-.071-.93-.207-.331-.229-.492-.115-.831.094-.281.107-.597.036-.917-.045-.206-.043-.225.027-.345.108-.183.094-.33-.07-.714-.092-.218-.18-.438-.266-.658-.148-.39-.202-.475-.3-.475a.509.509 0 0 0-.21.092l-.133.092-.283-.057a3.007 3.007 0 0 0-.474-.057c-.186 0-.194-.004-.296-.152-.146-.212-.167-.225-.45-.264a.854.854 0 0 1-.411-.143 1.577 1.577 0 0 1-.51-.602c-.127-.266-.131-.737-.01-1.126.115-.372.364-.84.552-1.035.16-.167.462-.337.599-.337.04 0 .24.062.444.14.204.076.464.148.578.16.114.011.302.055.418.097.187.068.27.075.739.066.496-.01.543-.005.77.081l.241.091.314-.092.313-.092.22.106c.271.132.329.179.376.303.02.054.131.479.246.943.176.71.238.903.39 1.214.168.34.181.384.162.55-.011.099-.086.354-.166.567-.139.369-.148.418-.191 1.02-.04.56-.059.669-.157.933-.135.36-.175.733-.176 1.619-.001.888.045 1.358.174 1.76.169.528.172.689.022 1.105l-.126.35.127.371.127.372-.024.53c-.024.516-.022.54.07.804l.093.271-.109.57c-.154.808-.18.992-.18 1.305 0 .255.011.297.146.555.17.329.2.349.72.474.434.104.558.1 1.034-.033.387-.108.996-.179 1.25-.144.33.044.563.209.735.517.163.294.226.604.168.827-.098.382-.431.912-.652 1.038-.047.027-.228.044-.48.046-.32.002-.479.022-.758.095l-.354.094-.28-.069c-.392-.095-.73-.12-1.028-.073-.192.03-.402.029-.845-.003-.942-.067-1.244-.06-1.604.039-.34.093-.347.092-.78-.068-.197-.073-.228-.075-.493-.034l-.282.043-.218-.11c-.12-.06-.26-.11-.311-.11-.052 0-.173.058-.274.132l-.18.132-.343-.01a2.234 2.234 0 0 0-.717.082c-.357.088-.388.09-.678.047-.182-.027-.677-.046-1.236-.048a25.63 25.63 0 0 1-1.302-.031c-.356-.027-.381-.024-.676.077l-.307.106-.256-.111c-.245-.107-.276-.111-.655-.103-.393.01-.401.008-.651-.116-.21-.103-.277-.12-.394-.103a4.264 4.264 0 0 0-.801.229c-.115.052-.23.068-.507.068-.197 0-.48.018-.628.038-.596.083-1.062-.087-1.472-.537-.279-.306-.503-.468-.697-.503-.145-.027-.223.005-.44.18a4.58 4.58 0 0 1-.604.342 5.006 5.006 0 0 0-.593.33c-.074.058-.17.124-.212.146-.095.05-.924.11-1.542.11-.655.001-.967.046-1.344.192-.179.069-.377.125-.44.125-.064 0-.211-.045-.328-.1zm1.172-2.13c.276-.138.389-.16 1.004-.193.512-.028.598-.041.643-.098.028-.036.152-.208.276-.382.312-.44.383-.504 1.035-.94.478-.32.584-.406.628-.513.065-.154.108-1.189.058-1.377a.404.404 0 0 0-.125-.19c-.093-.07-.094-.07-.403.005-.17.042-.5.132-.731.2-.36.107-.502.13-.985.16-.987.058-1.292.125-1.852.405-.166.083-.474.224-.686.314-.212.09-.421.198-.466.24-.115.107-.275.46-.325.72-.131.673.184 1.234.793 1.411.148.043.383.133.522.2.3.143.393.15.614.038z"/><path d="M38.492 19.904a4.972 4.972 0 0 0-.669-.14c-.25-.03-.435-.085-.848-.248-.687-.272-.681-.27-.807-.45-.06-.085-.145-.2-.19-.255l-.082-.1-.147.075c-.08.041-.495.308-.92.594l-.775.519-.958.042-.957.042-.212-.095c-.182-.082-.237-.092-.38-.068-.092.016-.302.03-.467.032-.26.002-.325-.01-.5-.097-.698-.342-1.768-1.926-2.242-3.321-.255-.747-.254-.738-.269-3.037-.007-1.132-.03-2.288-.052-2.569-.038-.5-.128-1.044-.206-1.245-.04-.1-.042-.1-.26-.077-.277.03-.65-.028-.824-.128-.405-.232-.767-.614-.869-.918-.066-.196-.074-.66-.02-1.134.044-.377.115-.504.413-.739.411-.324.828-.384 1.345-.193.314.115.519.136.55.054.021-.055.162-.107.384-.141.673-.104 1.795.599 2.136 1.338.07.154.08.226.076.614-.003.413-.012.465-.139.845-.125.373-.136.435-.135.791 0 .438.042.581.296 1.008.202.34.211.434.068.706l-.167.322c-.069.135-.176.557-.204.802-.02.185-.013.214.114.44l.136.241.017 1.411.018 1.411.139.173c.366.456.755.812 1 .915.088.037.304.06.692.074l.563.02.26-.277c.437-.468 1.38-1.703 1.687-2.21.16-.265.416-.908.507-1.274l.075-.306-.083-.303c-.114-.418-.122-.57-.055-1.06.065-.475.063-.493-.11-1.033-.078-.246-.114-.417-.1-.479.011-.052.1-.184.197-.293.211-.237.258-.366.19-.527-.071-.172-.151-.225-.437-.29a4.55 4.55 0 0 1-.598-.2c-.32-.133-.352-.14-.62-.123-.57.034-.991-.11-1.35-.461-.357-.35-.396-.539-.194-.932.216-.42.994-1.268 1.31-1.43.18-.09.277-.09.684 0 .464.105.71.106.932.002l.18-.084.24.088c.289.107.358.118 1.11.185.693.062.922.132 1.141.35.16.159.193.252.252.724.02.164.064.434.097.598.073.368.083 1.92.018 2.808-.043.59-.097.852-.27 1.31-.09.235-.1.309-.101.686 0 .324.017.487.075.703.065.243.078.412.096 1.215.012.567.005 1.14-.02 1.465-.038.505-.036.54.029.65.09.153.289.228.799.297.633.086 1.038.254 1.216.503.173.243.224.968.085 1.203-.032.055-.226.21-.431.345-.205.135-.514.358-.689.495-.174.137-.34.248-.37.247a4.388 4.388 0 0 1-.4-.106zm3.003-.2c-.461-.335-.717-.88-.623-1.33.118-.561.472-.867 1.008-.87.137 0 .366.02.508.046.232.042.277.04.44-.015.244-.083.55-.294.632-.434.088-.152.235-.883.235-1.17 0-.126-.017-.37-.038-.543-.03-.242-.025-.636.021-1.724.08-1.888.063-4.07-.033-4.328-.086-.229-.276-.406-.685-.636-.534-.3-.469-.291-.849-.124-.371.164-.529.18-.774.084-.559-.22-1.09-.768-1.277-1.32a.497.497 0 0 1-.021-.308c.117-.521.518-.915 1.114-1.096.244-.073.303-.076 1.39-.064 1.093.013 1.14.016 1.283.092.184.097.261.097.524.004.418-.148.959-.085 1.282.149.172.124.24.265.408.833.137.467.26.7.383.731.178.045.324-.045.943-.585.331-.288.585-.42.806-.42.152 0 .187-.019.433-.228.44-.374.88-.547 1.392-.547.177 0 .338.024.473.07.113.04.242.071.288.071a.643.643 0 0 0 .222-.07c.228-.116.306-.097.527.132.107.111.426.544.71.96l.514.759.024.332c.043.601.092 1.03.165 1.441.115.639.036.955-.317 1.272-.224.2-.907.667-1.206.822l-.2.103-.31-.143a16.594 16.594 0 0 0-.47-.209c-.371-.152-.817-.617-1.043-1.087-.147-.306-.153-.511-.03-.994.098-.385.106-.495.048-.622-.056-.123-.119-.137-.33-.076-.133.039-.26.12-.461.292-.153.132-.438.369-.635.528-.407.328-.525.46-.684.762-.283.54-.414.725-.775 1.102-.305.318-.407.452-.526.692l-.147.298.057.398c.07.488.072.84.007 1.842-.028.426-.062 1.06-.075 1.408l-.025.634.225.196c.297.26.527.422.805.565l.229.118h2.194l.188.161c.493.426.523.928.087 1.498-.213.279-.457.38-1.176.486-.492.073-.894.068-1.245-.015-.256-.062-.3-.064-.38-.02-.324.181-.286.176-1.217.177h-.88l-.206-.097c-.246-.115-.352-.119-.656-.026-.28.085-.627.09-.985.013-.26-.056-.274-.055-.564.024-.467.126-.555.127-.722.006zm17.562.286c-.681-.045-.973-.157-1.331-.508-.288-.283-.346-.314-.596-.314-.59 0-1.208-.28-1.851-.838-.29-.252-.37-.379-.476-.763-.12-.428-.211-.625-.638-1.375-.664-1.166-.723-1.312-.911-2.25-.174-.867-.183-.999-.09-1.334.068-.25.073-.326.05-.76-.029-.579-.016-.636.336-1.46.133-.31.275-.69.316-.845.188-.706.374-1.13.673-1.535.2-.272.332-.38.609-.503.17-.075.209-.11.268-.245.093-.209.248-.34 1.065-.893l.687-.466.223-.001c.452-.002.96-.065 1.002-.123a.727.727 0 0 1 .23-.132c.173-.07.26-.077 1.157-.089l.97-.012.377.198c.207.109.586.274.842.367.82.297 1.446.645 1.786.993.125.13.35.318.5.419.328.222.396.321.726 1.055.363.81.504 1.252.513 1.618.007.268.024.334.159.634.208.46.22.627.07 1.038-.063.174-.16.451-.218.615a2.32 2.32 0 0 1-.203.44 1.79 1.79 0 0 1-.872.655c-.233.08-.354.083-.746.012-.332-.06-.544-.047-1.029.058-.388.085-.584.085-1.453-.005-.386-.04-.885-.075-1.107-.078-.375-.005-.432.004-.763.114l-.358.12-.33-.065c-.313-.061-.35-.062-.68-.008a3.135 3.135 0 0 1-.74.036c-.371-.02-.398-.017-.603.075a1.224 1.224 0 0 0-.312.198l-.098.103.064.343c.136.728.324 1.37.485 1.657.203.36.403.505.882.635.295.08.377.123.623.323.227.185.349.239.677.3.34.062.566.13.843.251l.2.088.468-.127c.258-.07.564-.144.68-.164.35-.061.447-.104.7-.31.298-.242.632-.618 1.033-1.16.403-.545.629-.806.761-.879.09-.049.208-.06.655-.06.631 0 .738.027.945.236.42.423.362 1.294-.153 2.324-.192.385-.356.62-.517.74a3.045 3.045 0 0 1-.468.234c-.194.08-.574.27-.845.422-.638.358-1.185.63-1.596.793-.28.112-.355.129-.51.111-.583-.065-.819-.063-1.185.008-.425.084-.65.106-.896.09zm2.047-8.634c.228-.061.457-.12.686-.18.164-.041.423-.3.54-.54.185-.378.152-1.03-.064-1.25-.252-.26-1.004-.672-1.389-.76a2.35 2.35 0 0 1-.5-.202c-.254-.142-.276-.147-.564-.145-.22.002-.382.028-.614.099-.698.213-1.08.42-1.274.69-.25.348-.252.35-.571.405-.529.092-.725.243-.977.751-.104.21-.137.321-.147.502-.03.519.205.63 1.1.52.3-.038.356-.035.63.034.338.085.515.093.811.038.22-.04.303-.028.831.126.428.125.771.104 1.502-.089z"/></g><defs><clipPath id="a"><path fill="#fff" transform="translate(0 .793)" d="M0 0h65.714v20H0z"/></clipPath></defs></svg>