<svg width="68" height="15" fill="none" xmlns="http://www.w3.org/2000/svg"><path d="M11.205 0C9.12.075 7.37 1.206 6.38 2.926L0 14.724l4.828-.004 1.132-2.553h3.61l-.138 2.557h4.832L13.704 0h-2.5zm7.659 0L15.15 14.724h4.187L23.063 0h-4.2zm6.18.146-3.018 11.87c-.322 1.198-.225 1.97.285 2.323.456.346 1.32.51 2.599.498.736 0 1.525-.035 2.369-.105l.629-2.476h-.699c-.697.008-.977-.284-.833-.876l1.336-5.317h1.756l.625-2.5H28.35l.89-3.417h-4.195zM10.07 3.202l-.343 6.14H7.21l2.86-6.14zm48.063.052c-1.536 0-2.731.556-3.587 1.666h-.049l.335-1.362H50.6L47.777 14.72h4.199l1.863-7.364c.23-.894.75-1.335 1.56-1.321.802-.014 1.082.429.841 1.325l-1.862 7.36h4.187l1.862-7.364c.235-.894.767-1.335 1.598-1.321.81-.014 1.088.427.841 1.32l-1.854 7.365h1.85c1.313 0 2.562-.862 2.855-2.043l1.614-6.379c.281-1.17.157-1.982-.372-2.44-.546-.41-1.314-.609-2.304-.604-.666 0-1.318.13-1.96.381-.665.262-1.253.709-1.77 1.342-.102-.579-.367-1.013-.796-1.301-.436-.28-1.102-.422-1.997-.422zm-26.49.312L28.83 14.724h4.183l2.822-11.158h-4.195zm6.098 0-2.124 8.43c-.273 1.165-.132 1.964.42 2.383.518.43 1.259.632 2.223.62 1.527 0 2.712-.538 3.558-1.62h.049l-.331 1.349h4.183l2.81-11.162h-4.19l-1.864 7.365c-.232.894-.753 1.337-1.572 1.329-.791.008-1.067-.435-.825-1.33l1.858-7.364H37.74z" fill="#000"/></svg>