<svg width="40" height="41" viewBox="0 0 40 41" fill="none" xmlns="http://www.w3.org/2000/svg">
<path d="M1.82477 23.0361H3.08077L3.59277 21.7801H5.96077L6.47277 23.0361H7.76077L5.36077 17.3961H4.22477L1.82477 23.0361ZM4.03277 20.6921L4.77677 18.8761L5.52077 20.6921H4.03277ZM8.34508 23.0361H9.56108V19.4761L12.2731 23.0361H13.3211V17.4361H12.1051V20.8841L9.48108 17.4361H8.34508V23.0361ZM17.0094 23.1321C18.0894 23.1321 18.7294 22.7961 19.3054 22.1801L18.5214 21.3401C18.0814 21.7401 17.6894 21.9961 17.0494 21.9961C16.0894 21.9961 15.4254 21.1961 15.4254 20.2361C15.4254 19.2601 16.1054 18.4761 17.0494 18.4761C17.6894 18.4761 18.0574 18.7081 18.4894 19.1001L19.2254 18.2521C18.7054 17.7401 18.1134 17.3401 17.0574 17.3401C15.3374 17.3401 14.1374 18.6441 14.1374 20.2361C14.1374 21.8601 15.3614 23.1321 17.0094 23.1321ZM20.0116 23.0361H21.2436V20.7881H23.5156V23.0361H24.7476V17.4361H23.5156V19.6521H21.2436V17.4361H20.0116V23.0361ZM28.5298 23.1321C30.2578 23.1321 31.5138 21.8281 31.5138 20.2361C31.5138 18.6281 30.2738 17.3401 28.5458 17.3401C26.8178 17.3401 25.5618 18.6441 25.5618 20.2361C25.5618 21.8441 26.8018 23.1321 28.5298 23.1321ZM28.5458 21.9961C27.5538 21.9961 26.8498 21.1961 26.8498 20.2361C26.8498 19.2601 27.5378 18.4761 28.5298 18.4761C29.5218 18.4761 30.2258 19.2761 30.2258 20.2361C30.2258 21.2121 29.5378 21.9961 28.5458 21.9961ZM32.3266 23.0361H33.5586V21.2441H34.5106L35.7266 23.0361H37.1666L35.7986 21.0361C36.5106 20.7721 36.9986 20.2041 36.9986 19.3001C36.9986 18.7561 36.8306 18.3161 36.5186 18.0041C36.1506 17.6361 35.5986 17.4361 34.8866 17.4361H32.3266V23.0361ZM33.5586 20.1561V18.5481H34.7826C35.3826 18.5481 35.7506 18.8201 35.7506 19.3481C35.7506 19.8361 35.4066 20.1561 34.8066 20.1561H33.5586Z" fill="black"/>
</svg>
