<svg width="26" height="26" fill="none" xmlns="http://www.w3.org/2000/svg"><path d="M1.813 20.718c-.894 0-1.813.717-1.813 1.97 0 1.147.808 1.957 1.813 1.957.83 0 1.2-.557 1.2-.557v.243c0 .114.108.242.242.242h.6v-3.77h-.842v.48s-.373-.565-1.2-.565zm.15.771c.736 0 1.122.647 1.122 1.2 0 .614-.458 1.198-1.12 1.198-.554 0-1.108-.448-1.108-1.207 0-.685.477-1.191 1.106-1.191zM5.026 24.573a.236.236 0 0 1-.243-.242v-3.527h.843v.466c.19-.287.563-.553 1.136-.553.935 0 1.434.746 1.434 1.443v2.413H7.61a.258.258 0 0 1-.257-.257v-1.97c0-.387-.237-.856-.784-.856-.591 0-.943.558-.943 1.084v2h-.6zM10.651 20.718c-.894 0-1.813.717-1.813 1.97 0 1.147.808 1.957 1.813 1.957.83 0 1.2-.557 1.2-.557v.242c0 .115.108.243.242.243h.6V18.92h-.842v2.363s-.373-.564-1.2-.564zm.15.771c.736 0 1.122.647 1.122 1.2 0 .614-.458 1.198-1.12 1.198-.554 0-1.108-.448-1.108-1.207 0-.685.477-1.191 1.106-1.191zM13.864 24.573a.236.236 0 0 1-.243-.242v-3.527h.842v.628a1.038 1.038 0 0 1 1.014-.671c.155 0 .3.029.3.029v.87s-.18-.07-.4-.07c-.59 0-.914.558-.914 1.084v1.9h-.6zM20.888 24.573a.236.236 0 0 1-.243-.242v-3.527h.843v3.77h-.6zM23.958 20.718c-.894 0-1.813.717-1.813 1.97 0 1.147.808 1.957 1.813 1.957.83 0 1.2-.557 1.2-.557v.242c0 .115.108.243.242.243h.6V18.92h-.843v2.363s-.373-.564-1.2-.564zm.15.771c.736 0 1.122.647 1.122 1.2 0 .614-.459 1.198-1.12 1.198-.554 0-1.108-.448-1.108-1.207 0-.685.477-1.191 1.106-1.191zM21.06 19.99a.557.557 0 1 0 0-1.114.557.557 0 0 0 0 1.115zM18 20.717c-.937 0-1.966.699-1.966 1.965 0 1.153.876 1.963 1.963 1.963 1.34 0 1.993-1.077 1.993-1.956A1.957 1.957 0 0 0 18 20.717zm.002.787c.648 0 1.13.521 1.13 1.18 0 .67-.512 1.187-1.128 1.187-.572 0-1.127-.465-1.127-1.176 0-.722.528-1.192 1.125-1.192z" fill="#D7DDE1"/><path d="M19.346 6.34 21.5 2.606a.438.438 0 0 0-.159-.597.432.432 0 0 0-.593.159L18.565 5.95a13.317 13.317 0 0 0-5.558-1.186c-2.017 0-3.892.425-5.558 1.186L5.265 2.168a.435.435 0 0 0-.596-.159.435.435 0 0 0-.159.597L6.665 6.34C2.95 8.354.431 12.116.015 16.52h25.983c-.416-4.404-2.933-8.166-6.652-10.18zM7.042 12.87a1.09 1.09 0 1 1 0-2.178 1.09 1.09 0 0 1 0 2.179zm11.927 0a1.09 1.09 0 1 1 .001-2.178 1.09 1.09 0 0 1 0 2.179z" fill="#32DE84"/></svg>