<svg width="26" height="26" fill="none" xmlns="http://www.w3.org/2000/svg"><g clip-path="url(#a)"><path d="m2.619 20.576 10.312 5.668 10.366-5.745L25.23 4.472 12.918.244.686 4.549l1.933 16.027z" fill="#B3B3B3"/><path d="m12.89 24.89 9.318-5.158L24.01 5.4 12.89 1.607V24.89z" fill="#A6120D"/><path d="M12.889 24.89V1.605L2.058 5.466 3.714 19.8l9.175 5.09z" fill="#DD1B16"/><path d="m15.95 14.001-3.06 1.432H9.662l-1.516 3.793-2.82.052L12.89 2.452l3.06 11.55zm-.296-.72L12.91 7.847l-2.252 5.34h2.231l2.765.094z" fill="#F2F2F2"/><path d="M15.464 13.191h-2.569l-.005 2.238 3.552.004 1.66 3.846 2.7.05L12.89 2.452l.02 5.395 2.554 5.344z" fill="#B3B3B3"/></g><defs><clipPath id="a"><path fill="#fff" d="M0 0h26v26H0z"/></clipPath></defs></svg>