<svg width="24" height="24" fill="none" xmlns="http://www.w3.org/2000/svg"><path d="M9.465.911C5.383 1.782 1.938 5.175.95 9.296.625 10.648.6 12.884.898 14.314c.832 4.056 4.056 7.397 8.242 8.554 1.21.338 4.264.338 5.525 0 5.304-1.404 8.814-6.227 8.476-11.635-.104-1.573-.377-2.639-1.014-4.017-1.508-3.25-4.433-5.603-7.917-6.33C13.04.637 10.674.65 9.465.91zm3.237 4.485c.182.3 4.524 10.7 4.693 11.245.104.351-.429.95-.845.95-.143 0-1.534-1.015-3.224-2.38-1.625-1.313-3.016-2.418-3.107-2.47-.09-.065-.455.702-1.105 2.314l-.949 2.405H6.41l.208-.48c.104-.274 1.222-2.965 2.483-5.994 1.261-3.029 2.366-5.59 2.47-5.694.3-.286.91-.234 1.131.104z" fill="#96969C"/><path d="M11.376 9.4c-.377.936-.676 1.742-.676 1.807 0 .13 4.03 3.315 4.108 3.237.052-.065-2.509-6.474-2.665-6.643-.052-.052-.403.663-.767 1.6z" fill="#96969C"/></svg>