<svg width="26" height="26" fill="none" xmlns="http://www.w3.org/2000/svg"><g clip-path="url(#a)"><path d="M20.483 2.568C17.357-.12 10.44-1.452 5.255 2.408.392 5.655.151 11.59.151 11.59c.829 3.247 4.115 6.36 10.448 4.844-.748-4.365.719-15.41 9.884-13.866z" fill="#00ACD2"/><path d="M17.227 13.125C13.806 15.953 3.392 20.268.152 11.59c-.774 4.04 1.374 10.766 7.321 13.308 5.255 2.571 10.732-.407 10.732-.407 2.409-2.338 3.508-6.662-.978-11.366z" fill="#C8E9EB"/><path d="M11.048 9.159c4.17 1.537 13.082 8.198 7.157 15.332 3.9-1.352 8.474-6.528 7.71-12.93-.39-5.818-5.431-8.993-5.431-8.993-3.238-.909-7.589.37-9.436 6.59z" fill="#662D91"/></g><defs><clipPath id="a"><path fill="#fff" d="M0 0h26v26H0z"/></clipPath></defs></svg>