<svg fill="none" xmlns="http://www.w3.org/2000/svg" viewBox="0 0 41 40"><g clip-path="url(#clip0)"><path d="M36.49 31.17c-.6 1.4-1.32 2.69-2.15 3.87a19.64 19.64 0 01-2.77 3.35A5.37 5.37 0 0128 39.96c-.92 0-2.01-.26-3.3-.79a9.44 9.44 0 00-3.53-.78c-1.13 0-2.35.26-3.64.78a9.8 9.8 0 01-3.15.83c-1.22.05-2.43-.49-3.64-1.61a20.63 20.63 0 01-2.9-3.47 23.97 23.97 0 01-3.06-6.09 22.29 22.29 0 01-1.29-7.25c0-2.68.58-5 1.74-6.93a10.2 10.2 0 013.64-3.68 9.8 9.8 0 014.93-1.4c.96 0 2.23.3 3.8.9 1.58.58 2.59.88 3.03.88.33 0 1.45-.35 3.35-1.05 1.8-.64 3.31-.91 4.55-.8 3.37.27 5.9 1.6 7.58 3.98-3.01 1.83-4.5 4.38-4.47 7.66a8.44 8.44 0 002.77 6.36 9.11 9.11 0 002.77 1.82c-.22.64-.45 1.26-.7 1.85zM28.77.8c0 2-.73 3.87-2.19 5.6-1.76 2.05-3.88 3.24-6.19 3.05-.03-.24-.05-.49-.05-.75 0-1.93.84-3.98 2.32-5.66A8.93 8.93 0 0125.5.92 8.43 8.43 0 0128.73 0c.03.27.04.54.04.8z" fill="#111213"/></g><defs><clipPath id="clip0"><path fill="#fff" transform="translate(.5)" d="M0 0h40v40H0z"/></clipPath></defs></svg>