<svg width="26" height="26" fill="none" xmlns="http://www.w3.org/2000/svg"><g clip-path="url(#a)"><path d="M23.392 20.262a14.134 14.134 0 0 1-1.398 2.513c-.735 1.048-1.337 1.774-1.801 2.177-.72.66-1.49 1-2.314 1.019-.593 0-1.307-.169-2.138-.51-.834-.34-1.6-.51-2.301-.51-.736 0-1.524.17-2.367.51-.845.341-1.525.52-2.045.537-.791.034-1.58-.315-2.367-1.046-.502-.439-1.13-1.19-1.883-2.254-.807-1.136-1.471-2.454-1.991-3.956-.558-1.622-.837-3.193-.837-4.715 0-1.742.377-3.245 1.13-4.504A6.632 6.632 0 0 1 5.45 7.128a6.37 6.37 0 0 1 3.201-.904c.629 0 1.452.195 2.476.576 1.022.384 1.677.578 1.965.578.214 0 .943-.227 2.177-.68 1.168-.42 2.153-.594 2.96-.526 2.188.177 3.831 1.039 4.924 2.593-1.956 1.185-2.924 2.845-2.905 4.975.018 1.659.62 3.04 1.803 4.136a5.923 5.923 0 0 0 1.8 1.18c-.144.42-.296.821-.459 1.206zM18.375.52c0 1.3-.475 2.515-1.422 3.639-1.143 1.335-2.525 2.107-4.024 1.986-.019-.156-.03-.32-.03-.493 0-1.248.543-2.584 1.508-3.677.482-.553 1.095-1.013 1.838-1.38.741-.36 1.443-.56 2.102-.595.02.174.028.348.028.52z" fill="#D7DDE1"/></g><defs><clipPath id="a"><path fill="#fff" d="M0 0h26v26H0z"/></clipPath></defs></svg>