<svg width="49" height="15" fill="none" xmlns="http://www.w3.org/2000/svg"><path d="M11.02.395h3.28v14.168h-3.28v-1.477C9.574 14.771 7.82 15 6.81 15 2.476 15 0 11.36 0 7.469 0 2.85 3.137.02 6.851.02c1.032 0 2.848.27 4.168 2.018V.395zM3.363 7.552c0 2.434 1.527 4.515 3.9 4.515 2.063 0 3.982-1.52 3.982-4.473 0-3.1-1.898-4.577-3.982-4.577-2.373-.021-3.9 2.018-3.9 4.535zM18.2.395h3.28v1.27c.372-.438.909-.916 1.362-1.186.64-.375 1.26-.479 2.002-.479.805 0 1.672.125 2.58.666l-1.342 2.996c-.743-.479-1.341-.5-1.671-.5-.702 0-1.403.104-2.043.77-.908.978-.908 2.33-.908 3.266v7.365H18.18L18.2.395zm11.328 0h3.281v1.311C33.904.354 35.204.021 36.277.021c1.465 0 2.848.707 3.632 2.08 1.176-1.685 2.93-2.08 4.168-2.08 1.713 0 3.199.811 4.004 2.226.268.478.742 1.519.742 3.578v8.759h-3.28v-7.78c0-1.582-.166-2.227-.31-2.518-.206-.541-.702-1.249-1.878-1.249-.805 0-1.506.437-1.94 1.04-.577.812-.64 2.019-.64 3.225v7.303h-3.28V6.803c0-1.581-.165-2.226-.31-2.517-.206-.541-.702-1.249-1.878-1.249-.805 0-1.506.437-1.94 1.04-.577.812-.64 2.019-.64 3.225v7.303H29.53V.395z" fill="#0091BD"/></svg>