<svg width="76" height="29" fill="none" xmlns="http://www.w3.org/2000/svg"><path d="M3.64 24.817a2.123 2.123 0 0 0-.689-.484 2.023 2.023 0 0 0-.822-.169 2.017 2.017 0 0 0-.823.163c-.26.115-.495.278-.689.484-.2.2-.357.435-.46.695A2.283 2.283 0 0 0 0 26.33c-.006.284.049.562.158.822.108.26.266.496.465.695a2.019 2.019 0 0 0 1.512.635 2.089 2.089 0 0 0 1.511-.635c.206-.193.363-.43.472-.69.109-.26.163-.537.163-.821 0-.285-.054-.563-.163-.823a2.068 2.068 0 0 0-.478-.695zm25.303-4.91c-.03 1.355.037 2.715.194 4.064h-.073c-.17-.333-.544-.95-1.118-1.85L14.16.48H9.978v27.625h3.216V8.136a28.394 28.394 0 0 0-.151-3.791h.12c.23.605.527 1.185.877 1.73L28.2 28.105h3.96V.481h-3.216v19.427zm25.025 5.164H42.601V15.5h9.946v-2.914h-9.946V3.408h10.672V.48H39.306v27.625H53.95l.018-3.035zm2.46-24.59v2.927h7.921v24.698h3.217V3.408h8.01V.48H56.43z" fill="#621EE5"/></svg>