<svg fill="none" xmlns="http://www.w3.org/2000/svg" viewBox="0 0 40 41"><path d="M11.83 19.09a1.12 1.12 0 0 0-1-.44 1.1 1.1 0 0 0-.9.65L.28 38.92a1.19 1.19 0 0 0 .47 1.54c.17.1.36.15.56.15h13.44a1.1 1.1 0 0 0 1.03-.65c2.9-6.09 1.14-15.35-3.95-20.87z" fill="url(#a)"/><path d="M18.91 1.24a26.17 26.17 0 0 0-1.48 25.55l6.48 13.17a1.17 1.17 0 0 0 1.03.65h13.44a1.14 1.14 0 0 0 .98-.55 1.19 1.19 0 0 0 .05-1.14L20.88 1.24a1.1 1.1 0 0 0-.99-.63 1.08 1.08 0 0 0-.98.63z" fill="#2684FF"/><defs><linearGradient id="a" x1="17.12" y1="22.11" x2="6.68" y2="39.9" gradientUnits="userSpaceOnUse"><stop stop-color="#0052CC"/><stop offset=".92" stop-color="#2684FF"/></linearGradient></defs></svg>