<svg width="49" height="41" fill="none" xmlns="http://www.w3.org/2000/svg"><g clip-path="url(#a)"><g clip-path="url(#b)"><path d="M15.912 17.75c0 .487.053.882.145 1.171.105.29.237.606.42.948.067.105.093.21.093.302 0 .132-.08.264-.25.395l-.83.553a.63.63 0 0 1-.341.118c-.132 0-.263-.066-.395-.184a4.07 4.07 0 0 1-.474-.619 10.173 10.173 0 0 1-.407-.776c-1.027 1.21-2.316 1.816-3.869 1.816-1.105 0-1.987-.316-2.632-.947C6.728 19.895 6.4 19.053 6.4 18c0-1.118.395-2.026 1.197-2.71.803-.684 1.869-1.026 3.224-1.026.447 0 .908.039 1.395.105.486.066.986.17 1.513.29v-.961c0-1-.21-1.698-.619-2.106-.42-.408-1.131-.605-2.144-.605-.46 0-.935.053-1.421.171-.487.119-.961.263-1.422.448a3.77 3.77 0 0 1-.46.17.808.808 0 0 1-.21.04c-.185 0-.277-.132-.277-.408v-.644c0-.211.026-.369.092-.461.066-.092.184-.184.369-.276a7.576 7.576 0 0 1 1.658-.592 7.978 7.978 0 0 1 2.052-.25c1.566 0 2.71.355 3.447 1.065.724.71 1.093 1.79 1.093 3.237v4.263h.026zm-5.342 2c.434 0 .881-.079 1.355-.236a2.932 2.932 0 0 0 1.25-.843c.21-.25.368-.526.447-.842.08-.316.132-.697.132-1.145v-.552c-.381-.092-.79-.171-1.21-.224a9.92 9.92 0 0 0-1.237-.079c-.882 0-1.527.171-1.96.527-.435.355-.646.855-.646 1.513 0 .618.158 1.079.487 1.395.316.328.777.486 1.382.486zm10.566 1.421c-.237 0-.395-.04-.5-.131-.106-.08-.198-.263-.277-.513l-3.092-10.171c-.079-.264-.118-.435-.118-.527 0-.21.105-.329.316-.329h1.29c.25 0 .42.04.512.132.105.079.184.263.263.513l2.21 8.71 2.054-8.71c.065-.263.144-.434.25-.513.105-.08.289-.132.526-.132h1.052c.25 0 .422.04.527.132.105.079.197.263.25.513l2.079 8.816 2.276-8.816c.079-.263.171-.434.263-.513.105-.08.277-.132.513-.132h1.224c.21 0 .329.106.329.33 0 .065-.013.13-.026.21-.014.079-.04.184-.092.329l-3.172 10.17c-.078.264-.17.435-.276.514-.105.079-.276.131-.5.131h-1.131c-.25 0-.421-.039-.527-.131-.105-.092-.197-.263-.25-.526l-2.04-8.487-2.025 8.474c-.066.263-.145.434-.25.526-.106.092-.29.131-.527.131h-1.131zm16.908.356a8.707 8.707 0 0 1-2.027-.237c-.658-.158-1.17-.33-1.513-.526-.21-.119-.355-.25-.408-.369a.928.928 0 0 1-.079-.368v-.671c0-.277.105-.408.303-.408.079 0 .158.013.237.04.079.026.197.078.329.13a7.16 7.16 0 0 0 1.447.461c.526.105 1.04.158 1.566.158.829 0 1.474-.145 1.92-.434.448-.29.685-.71.685-1.25 0-.369-.118-.671-.355-.921s-.684-.474-1.33-.684l-1.907-.592c-.96-.303-1.671-.75-2.105-1.342-.434-.58-.658-1.224-.658-1.908 0-.553.118-1.04.355-1.461.237-.421.553-.79.947-1.079a4.176 4.176 0 0 1 1.369-.684 5.734 5.734 0 0 1 1.658-.224c.29 0 .592.013.881.053.303.04.58.092.856.145.263.065.513.131.75.21.236.079.42.158.552.237.184.105.316.21.395.329.079.105.118.25.118.434v.618c0 .277-.105.422-.302.422-.105 0-.277-.053-.5-.158-.75-.342-1.592-.514-2.527-.514-.75 0-1.342.119-1.75.369-.407.25-.618.631-.618 1.171 0 .368.132.684.395.934s.75.5 1.447.724l1.869.592c.947.303 1.631.724 2.039 1.263.408.54.605 1.158.605 1.842 0 .566-.118 1.08-.342 1.527a3.54 3.54 0 0 1-.96 1.157c-.408.33-.895.566-1.46.737a6.257 6.257 0 0 1-1.883.277z" fill="#252F3E"/><path fill-rule="evenodd" clip-rule="evenodd" d="M40.53 27.922c-4.328 3.197-10.618 4.894-16.026 4.894-7.579 0-14.408-2.802-19.566-7.46-.408-.369-.04-.869.448-.58 5.579 3.238 12.46 5.198 19.579 5.198 4.802 0 10.079-1 14.934-3.052.724-.33 1.342.473.631 1z" fill="#F90"/><path fill-rule="evenodd" clip-rule="evenodd" d="M42.333 25.869c-.552-.71-3.658-.342-5.066-.171-.42.052-.486-.316-.105-.592 2.474-1.737 6.54-1.237 7.013-.658.474.592-.131 4.658-2.447 6.605-.355.303-.697.145-.54-.25.527-1.303 1.698-4.237 1.145-4.934z" fill="#F90"/></g></g><defs><clipPath id="a"><path fill="#fff" transform="translate(.95 .637)" d="M0 0h47.619v40H0z"/></clipPath><clipPath id="b"><path fill="#fff" transform="translate(4.5 1)" d="M0 0h40v40H0z"/></clipPath></defs></svg>