<svg width="40" height="25" fill="none" xmlns="http://www.w3.org/2000/svg"><g clip-path="url(#a)"><path d="M11.368 9.237c0 .488.053.884.145 1.174.105.29.237.607.421.95a.574.574 0 0 1 .092.303c0 .132-.079.264-.25.395l-.829.554a.63.63 0 0 1-.342.119c-.131 0-.263-.066-.395-.185a4.078 4.078 0 0 1-.473-.62 10.223 10.223 0 0 1-.408-.777c-1.026 1.213-2.316 1.82-3.868 1.82-1.106 0-1.987-.317-2.632-.95s-.974-1.477-.974-2.532c0-1.12.395-2.03 1.198-2.716.802-.686 1.868-1.029 3.223-1.029.448 0 .908.04 1.395.105.487.066.987.172 1.513.29v-.962c0-1.002-.21-1.701-.618-2.11-.421-.409-1.132-.607-2.145-.607-.46 0-.934.053-1.421.172s-.96.264-1.421.448a3.77 3.77 0 0 1-.46.172.806.806 0 0 1-.211.04c-.184 0-.276-.133-.276-.41v-.646c0-.21.026-.369.092-.461.065-.093.184-.185.368-.277A7.565 7.565 0 0 1 4.75.903a7.96 7.96 0 0 1 2.053-.25c1.565 0 2.71.356 3.447 1.068.724.712 1.092 1.793 1.092 3.244v4.272h.026zm-5.342 2.005c.435 0 .882-.08 1.356-.238a2.932 2.932 0 0 0 1.25-.843c.21-.251.368-.528.447-.844.079-.317.132-.7.132-1.148v-.554c-.382-.092-.79-.171-1.211-.224a9.893 9.893 0 0 0-1.237-.079c-.881 0-1.526.172-1.96.528-.435.356-.645.857-.645 1.516 0 .62.158 1.082.487 1.398.316.33.776.488 1.381.488zm10.566 1.424c-.237 0-.395-.04-.5-.132-.105-.079-.197-.264-.276-.514L12.724 1.826c-.08-.263-.119-.435-.119-.527 0-.211.105-.33.316-.33h1.29c.25 0 .42.04.513.132.105.08.184.264.263.514l2.21 8.73 2.053-8.73c.066-.263.145-.435.25-.514.105-.079.29-.132.526-.132h1.053c.25 0 .421.04.526.132.105.08.198.264.25.514l2.08 8.836 2.276-8.836c.079-.263.17-.435.263-.514.105-.079.276-.132.513-.132h1.224c.21 0 .329.106.329.33 0 .066-.014.132-.027.211-.013.08-.04.185-.092.33L25.25 12.033c-.079.264-.171.435-.276.514-.106.08-.277.132-.5.132h-1.132c-.25 0-.421-.04-.526-.132-.105-.092-.198-.263-.25-.527l-2.04-8.506-2.026 8.493c-.066.263-.145.435-.25.527-.105.092-.29.132-.526.132h-1.132zm16.908.356c-.684 0-1.368-.08-2.026-.237-.658-.159-1.171-.33-1.514-.528-.21-.118-.355-.25-.407-.369a.933.933 0 0 1-.08-.37v-.672c0-.277.106-.409.303-.409.08 0 .158.014.237.04.08.026.197.08.33.132.447.198.933.356 1.447.461.526.106 1.039.159 1.565.159.83 0 1.474-.145 1.921-.435.448-.29.684-.713.684-1.253 0-.37-.118-.673-.355-.923s-.684-.475-1.329-.686l-1.908-.593c-.96-.304-1.67-.752-2.105-1.346-.434-.58-.658-1.226-.658-1.912 0-.553.119-1.041.355-1.463.237-.422.553-.792.948-1.082a4.172 4.172 0 0 1 1.368-.685 5.723 5.723 0 0 1 1.658-.225c.29 0 .592.014.882.053.302.04.579.093.855.145.263.066.513.132.75.211.237.08.421.159.553.238.184.105.316.21.394.33.08.105.119.25.119.434v.62c0 .277-.105.422-.303.422-.105 0-.276-.053-.5-.158-.75-.343-1.592-.514-2.526-.514-.75 0-1.342.118-1.75.369-.408.25-.619.633-.619 1.174 0 .369.132.685.395.936.263.25.75.5 1.448.725l1.868.593c.947.304 1.632.726 2.04 1.266.407.541.605 1.16.605 1.847 0 .567-.119 1.08-.342 1.53a3.544 3.544 0 0 1-.96 1.16c-.409.33-.896.567-1.461.738a6.242 6.242 0 0 1-1.882.277z" fill="#252F3E"/><path fill-rule="evenodd" clip-rule="evenodd" d="M35.987 19.43c-4.33 3.205-10.619 4.906-16.027 4.906-7.578 0-14.407-2.809-19.565-7.477-.408-.369-.04-.87.447-.58 5.58 3.244 12.46 5.209 19.579 5.209 4.803 0 10.079-1.002 14.934-3.06.724-.33 1.342.475.632 1.003z" fill="#F90"/><path fill-rule="evenodd" clip-rule="evenodd" d="M37.79 17.374c-.553-.712-3.658-.343-5.066-.172-.421.053-.487-.316-.106-.593 2.474-1.74 6.54-1.24 7.014-.66.473.594-.132 4.668-2.448 6.62-.355.303-.697.145-.54-.25.527-1.306 1.698-4.246 1.145-4.945z" fill="#F90"/></g><defs><clipPath id="a"><path fill="#fff" transform="translate(0 .481)" d="M0 0h40v24H0z"/></clipPath></defs></svg>