<svg width="26" height="26" fill="none" xmlns="http://www.w3.org/2000/svg"><g clip-path="url(#a)"><path d="m7.585 16.372-2.38 1.03 2.205.947 2.557-.947-2.382-1.03zm-3.58 1.286-.08 4.632 3.485 1.543v-4.807l-3.405-1.368zm7.16 0-3.147 1.206V23.4l3.149-1.286v-4.456h-.001zm3.76-14.408-2.398 1.03 2.222.948 2.557-.949-2.382-1.029h.001zM11.6 4.617v4.631l2.974.87.096-4.215-3.07-1.286zm6.652.258-2.815 1.206v4.55l2.814-1.286v-4.47zM3.659 9.768l-2.38 1.03 2.205.949 2.557-.95-2.382-1.029zM.08 11.054 0 15.687l3.485 1.543v-4.807L.08 11.054zm7.161 0-3.148 1.207v4.534l3.15-1.286v-4.455H7.24zm4.094-1.457-2.382 1.03 2.205.948 2.558-.949-2.381-1.029zm-3.582 1.287-.08 4.631 3.485 1.544v-4.808l-3.405-1.367zm7.162 0-3.149 1.206v4.535l3.15-1.287v-4.454zM22.42 3.25l-2.382 1.03 2.206.948 2.558-.949-2.382-1.029zm-3.58 1.286-.08 4.631 3.485 1.544V5.904L18.84 4.536zm7.162 0-3.15 1.207v4.535L26 8.99V4.536h.001z" fill="#F7A80D"/></g><defs><clipPath id="a"><path fill="#fff" d="M0 0h26v26H0z"/></clipPath></defs></svg>