<svg width="26" height="26" fill="none" xmlns="http://www.w3.org/2000/svg"><path d="M26 0H0v26h26V0z" fill="#FCD100"/><path d="M12.95 9.835c-.22.152-.47.309-.75.46l.004.046c.017 0 .043-.012.076-.033.034-.004.051.012.056.041l.046-.024h.021v.02c.005.025-.173.156-.52.395l.025.05h-.021l-.055-.021c0 .016-.022.029-.072.033v.02l.055.066a.19.19 0 0 1-.08-.02c-.115.008-.225.09-.335.238l.025.046c.098-.087.152-.132.17-.132l.004.07c-.017 0-.043.012-.076.033l.063.086c.114-.123.241-.226.377-.313.068.021.106.042.106.062l.05-.004a4.146 4.146 0 0 1 1.123-.584l.004.045c-.068.099-.114.148-.14.152a.229.229 0 0 0 .03.09c.004.063-.161.474-.5 1.235-.775 1.765-1.423 3.073-1.948 3.92 0 .017.013.042.034.07a.638.638 0 0 0 .246-.09h.02l.005.045.055-.004.047-.024c0 .012.017.02.05.016l.005.05c.004.044-.026.114-.08.213-.056.058-.115.181-.174.366l.004.025.05-.004c.213-.23.37-.453.48-.675.613-.177 1.08-.345 1.405-.514.33-.029.576-.111.745-.247l-.004-.024-.127.037-.025.004-.005-.025c.242-.033.407-.087.496-.156.466-.35.817-.597 1.059-.74.736-.527 1.084-1.03 1.041-1.515-.004-.05-.165-.247-.487-.592-.004-.066.106-.16.33-.284l.644-.543c.144-.177.229-.465.254-.864l-.008-.09c-.026-.276-.233-.498-.623-.671-.232-.152-.648-.235-1.245-.251-.482.033-1.13.206-1.93.51zm3.446.033-.025.05-.711-.293c.478.02.724.099.736.243zm-2.888 1.925c.051-.259.106-.403.166-.436l.537-1.168c-.004-.07.106-.128.34-.169l.075-.008.005.07a6.69 6.69 0 0 1 .427-.062c.424-.037.644.05.66.247l.052-.004-.009-.111.051-.004c.123.066.186.144.195.238.004.066-.03.148-.102.247-.034.004-.05-.02-.055-.066l-.05.004-.018.14c-.216.317-.368.477-.465.486-.085.115-.14.173-.165.173-.068.078-.25.214-.551.399-.102.008-.47.148-1.11.42-.03-.013-.067-.017-.101-.013l-.004-.045c-.009-.087.034-.198.123-.338zm2.956-1.44.004.05c-.025 0-.072-.074-.148-.222l-.004-.046c.047-.004.097.07.148.218zm-4.685.56.004.05c-.018 0-.045.025-.081.058h-.023l-.004-.091.104-.017zm1.558-.037.005.07c-.029 0-.062.037-.104.098L13.233 11c.047-.053.07-.094.07-.123h.034zm-.212.485.021.104-.065.005-.021-.104.065-.005zm-.08.169c-.005.078-.03.12-.077.123l-.031.005c.036-.054.051-.095.046-.124l.062-.004zm-.119.243.005.026-.047.078-.057.004-.005-.026c.057-.004.085-.03.08-.082h.024zm-.055.218-.039.119h-.05l-.019-.12h.108zm2.547.086.106.062c.004.029-.013.05-.046.05-.047-.03-.08-.042-.106-.038v-.07l.046-.004zm-2.038.263.004.092-.104.017-.004-.092.104-.017zm1.644.17c.072.032.106.061.11.086v.021c-.067.004-.13-.029-.19-.104l.08-.004zm-2.121.505c.288-.025.741-.156 1.363-.395l.157-.012c.313-.025.546.033.703.177l.008.09c-.114.321-.24.51-.38.568l-.64.502c-.479.304-.737.457-.78.46-.761.408-1.236.618-1.422.634l-.025.004c.017-.086.355-.76 1.016-2.028zm.692-.267.005.065-.104.021-.005-.065.104-.021zm2.311-.103.019.19c-.027.044-.05.069-.077.073l-.032-.32c.059.016.09.036.09.057zm-3.91 1.613c-.035.156-.07.238-.105.238v-.02c-.013-.075.022-.149.106-.219zm.636.88c.186-.033.699-.292 1.537-.782l.004.046c0 .02-.068.082-.216.18-.423.206-.677.342-.753.412-.462.156-.69.255-.686.292-.411.156-.678.271-.81.346-.029.004-.075-.009-.13-.037-.009-.083.03-.145.11-.194a.479.479 0 0 1 .203.029c.076-.037.207-.078.398-.128l-.004-.045-.157.013c.017-.03.165-.095.44-.202l.077-.008v.02c-.132.013-.204.05-.22.115.004.03.02.046.054.042.106-.05.153-.087.153-.1zm-.736-.564v.03c.01.049-.027.079-.098.079l-.009-.037c0-.03.036-.06.107-.072zm1.147.321c-.06.004-.174.054-.343.144l-.026.004-.004-.045a.52.52 0 0 0 .318-.14c.034-.004.05.008.055.037zm-1.245.345.076-.016.004.047c-.017 0-.042.023-.076.054l-.05.008c-.005-.047.012-.078.046-.093zm-.513.268.051.02c-.017.145-.063.219-.131.223a.335.335 0 0 0-.157-.033l-.004-.07c-.004-.025.013-.041.046-.05.034-.004.051.021.056.066a1 1 0 0 1 .14-.156zM2.981 9.63a9.097 9.097 0 0 1-.986.605l.004.062c.025 0 .055-.017.097-.037.043-.004.068.012.068.053l.068-.037.034-.004.004.029c.004.029-.229.206-.69.522l.038.058-.034.004-.072-.025c0 .021-.03.033-.097.037l.004.033.076.083a.278.278 0 0 1-.102-.02c-.148.011-.296.118-.44.316l.038.057c.127-.11.2-.168.22-.168l.009.09a.299.299 0 0 0-.098.037l.08.116c.153-.161.319-.297.505-.408.093.025.14.05.14.082l.067-.004a5.423 5.423 0 0 1 1.474-.773l.004.062c-.089.131-.152.197-.186.201a.245.245 0 0 0 .046.12c.009.082-.211.62-.66 1.624-1.025 2.329-1.88 4.049-2.57 5.168 0 .02.016.053.038.09.169-.041.28-.078.326-.12l.038-.003.004.061.064-.004.067-.037c0 .02.026.03.068.025l.004.062c.004.061-.03.156-.11.284-.072.078-.144.238-.224.48l.004.03.063-.005c.276-.3.487-.596.631-.884.81-.23 1.423-.457 1.85-.679.429-.037.759-.144.98-.325l-.005-.033-.161.046-.038.004-.004-.033c.313-.046.533-.115.652-.206.614-.46 1.075-.786 1.389-.979.97-.691 1.427-1.358 1.372-1.991-.005-.066-.22-.325-.64-.778-.008-.086.14-.21.436-.374l.843-.72c.186-.235.3-.613.339-1.135l-.013-.124c-.034-.366-.305-.662-.821-.888-.305-.202-.852-.309-1.64-.321-.647.057-1.502.28-2.553.674zm4.54.054-.026.062-.94-.383c.627.025.949.132.966.32zm-3.803 2.534c.064-.337.136-.53.216-.576l.703-1.534c-.008-.095.14-.17.449-.218l.102-.009.008.087c.305-.046.491-.07.563-.078.56-.046.847.061.873.329l.063-.005-.013-.156.068-.004c.165.086.254.193.263.321.008.086-.038.193-.144.32-.043.005-.068-.024-.072-.086l-.068.005-.017.185c-.284.411-.487.62-.614.633-.114.153-.186.23-.216.235-.089.103-.33.28-.728.526-.132.013-.619.194-1.461.552a.248.248 0 0 0-.136-.021l-.004-.058c-.008-.119.042-.267.165-.448zm3.892-1.892.004.057c-.034.004-.097-.094-.19-.292l-.005-.057c.06-.009.123.09.19.292zm-6.183.732.005.044c-.022 0-.055.026-.098.058l-.034.006-.004-.089.131-.02zm2.046-.05.008.091c-.03.004-.072.045-.123.132l-.004-.062c.06-.07.089-.123.089-.16h.03zm-.269.642.03.124-.08.004-.029-.124.08-.004zm-.125.222c-.009.103-.034.157-.09.16l-.033.005c.038-.07.06-.12.055-.156l.068-.009zm-.14.321.004.03-.059.098-.063.004-.005-.029c.064-.004.093-.037.09-.099l.033-.004zm-.1.288-.028.152-.058.005-.021-.153.108-.004zm3.39.111.14.083c.004.04-.017.066-.06.07a.288.288 0 0 0-.139-.054l-.008-.09.067-.009zm-2.689.35.005.09-.132.018-.004-.089.131-.019zm2.168.214c.094.041.14.082.144.115l.005.029c-.09.008-.17-.037-.246-.136l.097-.008zm-2.794.666c.38-.032.982-.205 1.8-.518l.198-.016c.415-.033.724.04.928.23l.012.123c-.152.428-.321.675-.503.753l-.847.654c-.631.403-.97.605-1.02.61-1.004.538-1.631.814-1.873.834l-.038.005c.034-.116.479-1.004 1.343-2.675zm.914-.35.005.077-.136.032-.004-.076.135-.032zm3.04-.13.022.242c-.03.066-.06.099-.093.099l-.038-.428c.072.029.105.057.11.086zm-5.153 2.122c-.042.21-.089.317-.135.32l-.004-.028c-.009-.107.038-.202.14-.292zm.847 1.16c.246-.045.92-.39 2.024-1.029l.005.058c.004.025-.094.103-.284.239-.563.267-.894.452-.991.547-.61.206-.91.333-.906.383-.542.21-.898.361-1.067.456a.4.4 0 0 1-.174-.045c-.008-.107.038-.194.148-.263a.554.554 0 0 1 .271.04c.102-.049.275-.106.525-.164l-.004-.061-.199.016c.025-.033.216-.12.58-.263l.102-.009.004.03c-.17.012-.267.065-.288.151.004.037.026.058.068.054.123-.082.186-.128.186-.14zm-1.001-.745.007.032c.007.045-.028.072-.1.077l-.006-.032c-.008-.04.028-.068.099-.077zm1.543.42c-.08.008-.228.07-.453.193l-.034.005-.004-.062c.16-.013.3-.074.415-.185.047-.009.072.012.076.049zm-1.643.448.102-.012.004.048c-.025 0-.055.024-.097.054l-.064.006c-.004-.042.013-.078.055-.096zm-.673.363.072.028c-.025.185-.08.28-.178.288a.445.445 0 0 0-.207-.04l-.009-.091c-.004-.037.017-.058.064-.07.042-.005.067.024.072.086.114-.136.177-.201.186-.201zm18.784-8.084-.055-.021-.902.136a.234.234 0 0 0-.122-.02c-.051.003-.127.02-.242.049l-.436.176.034.054c.021 0 .05-.012.089-.033l.152.012-.021.14c-.14.062-.224.152-.246.272-.211.09-.317.156-.317.197l.004.025.034-.004.06-.029.067.078.009.107c.004.033-.356.77-1.076 2.205-.623 1.383-.949 2.14-.982 2.275-.212.058-.34.144-.373.255.004.037.068.058.19.07l.005.054-.055.09.008.107c.004.058.161.099.466.132 0-.02.008-.029.03-.033.004.066-.013.197-.06.395l.034-.004c.127-.169.186-.284.182-.35l.026-.004c.03-.004.063.033.101.107-.038.016-.173.313-.402.893l.034.053.034-.004c.283-.695.461-1.082.533-1.156.373-.033 1.012-.095 1.927-.19l.055-.032c0 .02.013.029.034.025l.06-.005.054-.033c0 .021.013.03.034.025l.69-.057c.182-.017.271-.07.263-.16-.004-.026.106-.054.326-.083.021 0 .05.004.093.016 0-.016.106-.033.326-.053.004-.111.043-.173.11-.177l-.004-.054a.989.989 0 0 0-.212.046 1.144 1.144 0 0 1-.275-.033.22.22 0 0 1-.089.033l-.483.016-.059.029c0-.016-.013-.025-.034-.02l-.025.004-.064.028c0-.016-.05-.028-.152-.04l-.06.032-.118.008-.004-.028c.618-.066.927-.149.919-.247.038-.005.059.016.063.053l.182-.045-.004-.054-1.482.041c0 .021-.009.03-.03.033l-.182-.016a.2.2 0 0 0-.114.041l-.068-.025a2.202 2.202 0 0 0-.42.066 2.925 2.925 0 0 0-.423.004l-.334.03-.152-.017c-.009-.095.181-.564.575-1.407.115-.284.22-.461.318-.527.021 0 .05.004.093.02l.237-.077.123.02c.203-.016.44-.074.711-.168a.402.402 0 0 1 .153.012l.182-.041.538-.046c.228-.02.478-.07.745-.148l-.004-.053c-.102.008-.153-.008-.157-.045-.008-.074-.08-.103-.22-.09l-.004-.054.148-.041.39-.033-.005-.054c-.017 0-.093 0-.241-.004l-.004-.058.152-.012c.038-.004.06-.025.055-.058-.203.005-.305-.004-.305-.028-1.41.066-2.113.078-2.117.037-.021 0-.05.012-.089.037l-.038-.058c.373-.77.593-1.16.656-1.164.005.029-.012.078-.046.144l.004.025.06-.005c.147-.345.27-.522.376-.53.44-.037-.063-.066.885-.21.038.016.068.025.085.02.372-.074.89-.148 1.554-.226l-.004-.053-.356.033-.004-.054a.185.185 0 0 0 .106-.041l.004.029c.021 0 .046-.013.08-.037.06-.004.106 0 .14.016.123-.033.22-.05.296-.057l.22-.02c.056-.034.081-.063.077-.091v-.025a.84.84 0 0 1-.195-.012c-.004-.03.013-.05.05-.058l.412-.037.19-.045c0 .02.013.028.026.028.02 0 .046-.012.08-.037.097.013.157.017.17.013a.825.825 0 0 1 .262-.165c-.042-.04-.064-.074-.068-.103l-.275.025c0-.02-.013-.045-.03-.082 0-.025.06-.05.187-.074l.055.02.05-.028c0 .016.013.024.03.02l.051-.029c0 .017.013.025.03.02l.025-.003-.004-.054c-.038.004-.14.004-.3 0l-.052.033-.004-.029c-1.291.103-2.024.16-2.198.177-.02 0-.114 0-.27-.004 0 .02-.018.033-.056.033l-.055-.025-.19.046c-.043.004-.119 0-.225-.009a.22.22 0 0 1-.106.042c-.042.004 1.025-.058.991-.075l-.165.046-.025.004a1.392 1.392 0 0 1-.254-.008.26.26 0 0 1-.136.04.19.19 0 0 1-.11-.02 5.618 5.618 0 0 1-.41.087zm.068.164c0 .022.021.03.055.026l.004.056-.055.005a.18.18 0 0 1-.11-.022.192.192 0 0 1-.106.043h.017l-.152-.017-.004-.026c.186-.013.245-.035.351-.065zm.154-.01.038-.006.005.094-.108.014c0-.05.016-.087.065-.101zm.312-.035.004.038a.913.913 0 0 0-.241.065l-.03.005.026-.076.24-.032zm-2.405.314.104-.015-.005-.093-.104.014.005.094zm.665-.103.033-.005.064.03c.004.043-.017.068-.055.068l-.093.01-.005-.035c-.004-.034.017-.054.056-.068zm2.13.118v.065l-.191.043v-.065l.19-.043zm-.547.078.004.076-.11.022-.004-.076.11-.022zm.525.041.381-.061.195.008.004.029a.954.954 0 0 0-.241.049c0-.02-.038-.037-.114-.045l-.301.082c-.06-.033-.089-.058-.089-.074l.165.012zm-.377.083c.038-.007.055.02.06.08l-.161.027-.005-.087.106-.02zm-.334.004.004.042.991-.066-.004-.042-.991.066zm.06.053v.06l-.217.049v-.06l.216-.049zm-1.42 1.09.006.03.077-.005c0-.02.005-.05.026-.086l-.005-.054c-.042.004-.078.041-.103.115zm-2.14 3.078.007.03c.008.047-.028.073-.099.078l-.007-.031c-.007-.041.028-.062.1-.077zm-.095.115c.004.053-.034.185-.11.399l-.094.008c-.004-.037.047-.169.144-.399l.06-.008zm1.02.86c.005.033-.046.07-.144.108l-.186-.014-.06.005-.004-.062.394-.037zm.182.016.005.065-.153.033-.004-.065.152-.033zm5.675-5.924c-.068.3-.178.522-.327.67l-.105-.065c.114-.284.17-.449.165-.49l-.03-.045c-.038.004-.089.103-.152.3l-.055.004a.227.227 0 0 0-.03-.094l-.025.004c-.5 1.353-.724 1.983-1.186 3.024-.085.267-.157.415-.22.444.004.029.021.045.055.041a.648.648 0 0 1-.093.387c-.216.596-.356.925-.428.983l.047.284c.004.029-.013.05-.047.05l-.05.003c-.01-.078-.039-.115-.09-.11l-.025.003a1.179 1.179 0 0 0-.148.346l.05-.004c.068-.041.098-.09.094-.152l.101-.009.055.02c-.046.07-.067.129-.063.17l.025.045-.063.148.004.025a.322.322 0 0 1 .19.053.372.372 0 0 0 .153-.058c.06-.004.27-.008.643-.008l.187-.061c.229-.005.262.004.461-.013l.08-.008.043-.029.005.025c.203-.016.22-.004.38.016l.005.025-.114.008.004.046a.166.166 0 0 0 .089-.033c.03-.005.046.012.05.045a.894.894 0 0 0-.156.033l-.051-.017c-.08.02-.064.025-.114.03l-.08-.017c0 .012-.005.02-.018.024.005.03.017.046.047.042l.097-.009-.042-.016c0 .012.008.02.025.02l.42-.037.16-.033c0 .013.009.021.022.021l.076-.029.144-.012c.114-.008.11-.017.351-.054 0-.012.005-.02.017-.02v.02c.462-.074.42-.07.517-.103l-.021-.049c-.132.029-.127.013-.195.02l-.352.017-.004-.024.195-.025.072-.004.038-.03.004.026c.276-.025.373.045 1.656-.218.068-.005.063-.062.106-.177a.127.127 0 0 1-.068-.017c-.106.041-.16.02-.364.054-.017 0-.03-.013-.038-.046v-.02l.195.008c.033-.004.11-.008.211-.066.021.013-.017.025.005.02l.033-.003c.022 0 .03-.017.03-.05l-.021-.045c-.131.013-.195.017-.3.074l-.005-.024-.16.016c-.005-.05-.018-.07-.04-.07l-.084.008c-.097.008-.144.004-.19.041 0-.016-.009-.024-.017-.024l-.093.008-.055.029c0-.017-.009-.025-.017-.025l-.034.029-.005-.025-.127-.008-.03.004.005.045.068.017.06-.004a.142.142 0 0 0 .071.016l.055-.025v.021c-.3.074-.3.058-.508.095-.025-.017-.042-.021-.05-.021-.022.02.025.004.012.004-.034.004-.05-.012-.055-.041l.106-.012c.008 0 .012.008.072.02.084-.04.089-.057.135-.062l-.004-.045c-.297.058-.178.02-.55.05h-.017l-.005-.046c.479-.057.318-.024.479-.07 0 .017.008.025.017.025a.102.102 0 0 1 .067-.029l.034-.004c.166-.012.225.02.555-.07v.02l.055-.024.05-.004c-.003-.05.073-.053.094-.058l-.004-.049c-.58.115-.733.082-.894.128v-.021c-.152.029-.156.012-.194.016-.013 0-.03.013-.047.03 0-.017-.009-.025-.021-.025-.026 0-.013.008-.034.028l.034-.028-.504.078c0-.013-.008-.02-.021-.02-.254.053-.187.06-.53.09a.125.125 0 0 0-.063.024c0-.012-.009-.02-.026-.02l-.211.016-.14.033c0-.012-.008-.02-.025-.02-.08.02-.149.032-.204.037h-.004c-.034.004.017-.009-.008-.02l-.043.024c-.063.004-.03-.004-.241 0-.373.045-.33.05-.373.053l-.14-.008c0 .012-.004.02-.02.025-.157-.02-.238-.046-.242-.074.021-.144.055-.218.11-.227l.026-.004-.026.05.026-.005c.05-.024.072-.049.072-.073l-.005-.05-.05.004-.005-.045a.173.173 0 0 1 .013-.095l.114-.177.005.046.055-.004-.005-.046-.03-.045c.039-.033.073-.053.098-.053l-.004-.025-.072.004-.004-.07c.144-.296.216-.469.211-.514l.051.02c.034-.004.051-.02.047-.053l-.051.004v-.02a.188.188 0 0 1 .017-.1c.08-.077.114-.16.106-.246.017 0 .025.008.025.025.068-.037.119-.136.157-.3.118-.21.288-.63.508-1.256.423-1.106.406-1.225.466-1.485l-.051.005a.15.15 0 0 1-.021.094.289.289 0 0 0-.08-.02v-.021c-.01-.095.033-.21.126-.346h.021l.043.16.05-.003c0-.013.013-.074.039-.194-.004-.024-.021-.037-.06-.04l-.046.028c-.004-.033 0-.12.004-.263l-.046.008zm-.605.712.027-.004c-.04.066-.072.104-.104.108l-.004-.07a.213.213 0 0 0 .08-.034zm-.217.493c.05-.201.102-.316.148-.345l.005.024c-.026.19-.068.284-.128.293l.009.119c-.047.062-.068.111-.064.148l-.025.004-.013-.164c.026-.005.051-.03.068-.079zm-.057.268c.005.029-.022.094-.07.193l-.033.004-.005-.07c.038-.082.075-.123.108-.127zm-1.416 3.004.035.066c.054-.006.078-.03.072-.072l-.006-.036-.036.006-.066.036zm.669.525v.021c.038-.004.076-.07.11-.197l-.051-.017a.853.853 0 0 0-.06.194zm4.294.147v.023l-.052.054.099-.031h.01l-.005-.05h-.02l-.037.027c0-.014.108-.04.026-.054-.016.022.026.027-.02.031zm.156.209.114-.02c-.004-.069-.076-.089-.101-.089h-.017l.004.109zm-2.024-.022.034.067c0-.02.004-.033.017-.033l.025.074-.106-.02c-.008-.054.005-.082.03-.088zm-.347.037c.038-.008.063.042.063.108h-.118v-.042a.16.16 0 0 0 .055-.066zm.277-.013.005.065-.104.022-.005-.065.104-.022zm-.989.101c0 .014.009.022.026.022.156-.03.14-.035.216-.044.025-.005.038.013.042.044l-.436.04.042.023-.004-.027-.165.014-.004-.027.148-.014.135-.03zm.45-.039v.05c-.014 0 .041.01.016.059-.093-.02-.097-.04-.165-.03v-.05l.148-.029zm.137-.012v.054l-.108.022v-.054l.108-.022zm-2.689.42.009.107a.096.096 0 0 1-.109-.07v-.031l.1-.007zm3.576-.062.004.045.085-.008-.034-.02.004.024.085-.033c.58-.062.648-.037.64-.103v-.02c-.585.127-.661.102-.784.115zm.907-.044.103.029-.005-.08-.103-.029.005.08zm-2.508.13c.026.02-.03.042.005.035l.296-.043.004.043c-.084.015-.14.036-.156.065 0-.029-.009-.043-.026-.043l-.127.022-.004-.044c.034-.007-.017-.007.008-.036zm1.372-.023.026.07c.097-.032.042-.026.067-.058 0 .026.009.039.017.039l.068-.007-.004-.076-.178-.007.004.039zm-1.644.226h-.043l-.01-.108h.043l.01.108zm-1.358.094.004.025.78-.062-.005-.046-.622.05-.132-.017-.025.05zm.875.017h.021l-.01-.108h-.022l.01.108zM10.04 11.098c-.55.638-.834.987-.855 1.057-.224.227-.335.362-.322.408-.06.037-.085.074-.076.115-.017.004-.03-.004-.034-.02a.661.661 0 0 1-.428.291l-.199.046c-.025.004-.038.024-.038.057l.004.025.077-.017.004.02-.17.063-.3.066-.157.008c-.02.02.123-.004.068.012l-.195.045c-.118.03-.186.017-.195-.028l-.02.004c.012.045 0 .074-.035.082l.038-.008-.016-.07-.356.082.038.016c-.004-.016-.021-.02-.055-.012l-.047.037-.055-.012a.418.418 0 0 1-.093.045l-.055-.012c-.148.082-.038.082-.047.082l.013.045.085-.02.131-.009-.013.054c-.482.123-.13.053-.262.082l-.026.004.013.046.076-.017.005.025c-.098.02-.153.04-.17.062l-.004-.025c-.127.029-.254.123-.381.28.021.09-.254.201 1.042-.09.089-.005.14-.005.152-.01-.004-.016.004-.024.021-.028.144-.016.076.008.165-.012l.28-.062-.06.033c-.004-.012.005-.02.018-.025a.233.233 0 0 0 .105-.004l.017.07-1.105 1.703-.245.296-.12.391.022-.004.119-.05-.038.153.012.045.034.041c-.017.005-.021.013-.017.03l.004.024.051-.012c.072-.062.102-.12.093-.17.08.013.132.017.157.013l.004.025c-.046.012-.072.05-.076.11l.004.026.026-.005c.402-.423 1.38-1.876 2.168-2.863-.026-.107.385-.255 1.232-.444l.025-.004c.03.127-.033.44-.194.938-.106.3-.153.465-.149.49-.135.398-.199.612-.19.645l-.3.955a8.297 8.297 0 0 0-.445 1.547.202.202 0 0 1 .08.008l.042-.037c.005.016.013.02.034.02l-.017-.07.132-.004c.038-.008.072-.057.097-.144-.004-.127.021-.197.08-.214.081-.304.132-.46.149-.465.076-.304.131-.477.17-.522.113-.395.194-.6.249-.613l.013.05-.08.21c-.145.62-.293 1.114-.441 1.476l.042.181.026-.004c.36-.749.872-2.23 1.545-4.443a.58.58 0 0 1 .288-.453l-.038-.037-.004-.02c.076-.017.131-.046.16-.087-.004-.016-.071-.04-.203-.074l.399-1.653c.118-.494.199-.926.24-1.305l-.003-.024a.908.908 0 0 1-.233-.21v-.099l-.004-.02-.022.004c-.245.362-.736.991-1.46 1.888zm.564.374c.02.087-.013.247-.098.482-.025.296-.135.465-.326.51l-.004-.025-.17.062-.076.016a.185.185 0 0 1-.106-.004l-.017-.066c-.004-.024.238-.353.737-.983l.06.008zm-.39 1.029.055-.012.013.045c-.267.078-.415.12-.445.127a.194.194 0 0 0-.072.041c-.004-.016-.038-.016-.106-.004-.012-.045.174-.11.555-.197zm-2.623.738.089-.022-.02-.087-.088.022.019.087zm.768-.245.013.092-.127.017-.004-.05.118-.059zm-1.46.474.006.065-.103.043-.005-.065.103-.043zm-.17.306.004.049-.097.05-.013-.11.106.01zm.233-.055.004.036-.178.072-.004-.036.178-.072zm.309-.05.004.025-.466.103-.012-.046c.27-.045.241-.028.474-.082zm2.333-.526.038.04a.264.264 0 0 0-.118.05l-.055-.008a1.49 1.49 0 0 1-.22.07l-.051.012c-.03.008-.051-.004-.064-.033l.352-.078.118-.053zm.25-.054.25-.057.004.024a1.433 1.433 0 0 0-.317.099l-.005-.025a.177.177 0 0 0 .068-.04zm-2.625.691.118-.024.013.045c-.05.012-.013.012-.076.041-.123.012-.098-.004-.292.041l-.005-.024.242-.079zm.321-.051c.034-.015.056.008.06.069l-.072.03c-.03.015-.051-.008-.064-.069l.076-.03zm-1.324 2.616.01.033c.08-.011.11-.033.09-.076l-.01-.033c-.07.011-.1.033-.09.076zm.1.407c.01.037.028.053.065.042.037-.01.05-.032.041-.074l-.004-.031-.055.016-.046.047zm2.706.695c.038-.011.057.005.066.044l.005.033-.109.028a.248.248 0 0 0 .005-.1l.033-.005z" fill="#000"/></svg>