<svg width="26" height="26" fill="none" xmlns="http://www.w3.org/2000/svg"><g clip-path="url(#a)" fill="#D7DDE1"><path d="M11.844 25.994a11.54 11.54 0 0 1-4.234-.671c-3.722-1.308-5.569-4.11-6.1-7.872-.564-3.989.01-7.834 1.7-11.498.415-.901.982-1.71 1.61-2.485 1.28-1.58 3.07-1.965 4.94-2.176.857-.097 1.718-.155 2.575-.242.594-.06 1.222.143 1.63-.64.207-.395.92-.546 1.403-.27 1.688.955 3.536 1.597 5.098 2.813 4.192 3.262 5.784 7.517 4.913 12.685-.839 4.992-4.044 7.942-8.648 9.565-1.572.557-3.208.83-4.887.791zm-8.94-11.791c.017 1.116.08 2.232.298 3.333.423 2.166 1.313 4.145 3.307 5.197 2.362 1.245 4.97 1.686 7.665 1.443 2.13-.192 4.047-.886 5.63-2.346 2.376-2.196 3.641-4.962 4-8.151.47-4.178-1.314-7.702-4.844-9.627-.271-.147-.557-.462-.87-.298-.873.459-1.523-.054-2.229-.404-.542-.269-1.08-.578-1.656-.733-2.25-.611-4.338.08-6.415.864-1.617.61-2.712 1.848-3.37 3.296a16.73 16.73 0 0 0-1.516 7.426z"/><path d="M13.434 19.474c-2.447-.074-4.61-.805-6.242-2.737-.534-.63-.768-1.385-.835-2.197-.02-.217-.122-.517.166-.563.159-.026.356.187.455.42.36.858.853 1.541 1.727 2.048 1.551.901 3.157 1.365 4.938 1.334 1.969-.035 3.62-.766 4.977-2.181.216-.227.416-.579.775-.335.358.242.085.576-.02.847-.622 1.573-1.84 2.482-3.409 2.957-.82.25-1.654.463-2.532.407zM18.161 10.818c-.13.55-.25 1.176-1.013 1.162-.793-.013-.944-.617-.964-1.26-.023-.728.445-1.066 1.072-1.047.629.02.983.433.905 1.145zM10.155 10.775c-.2.345-.067 1.037-.847 1.027-.752-.01-1.164-.39-1.191-1.154-.023-.65.22-1.215.928-1.122.555.073 1.076.45 1.11 1.25z"/></g><defs><clipPath id="a"><path fill="#fff" d="M0 0h26v26H0z"/></clipPath></defs></svg>