<svg width="26" height="26" fill="none" xmlns="http://www.w3.org/2000/svg"><path d="M23.961 14.95h-5.633a.758.758 0 0 0-.488.167.694.694 0 0 0-.252.431 4.379 4.379 0 0 1-1.551 2.717A4.78 4.78 0 0 1 13 19.352L14.525 26c2.678-.333 5.153-1.538 7.007-3.412 1.853-1.874 2.971-4.3 3.165-6.87a.672.672 0 0 0-.19-.54.768.768 0 0 0-.547-.229zM14.23 14.78l8.258-6.764a.711.711 0 0 0 .193-.242.68.68 0 0 0-.193-.836L14.231.174a.774.774 0 0 0-.793-.112.736.736 0 0 0-.317.26.688.688 0 0 0-.121.382v13.528c0 .136.04.27.116.386a.738.738 0 0 0 .315.265.778.778 0 0 0 .8-.103z" fill="#2684FF"/><path d="M1.95 16.387c.358 2.66 1.675 5.1 3.707 6.868A11.202 11.202 0 0 0 13 26v-6.69a4.426 4.426 0 0 1-3.112-1.274 4.366 4.366 0 0 1-1.293-3.086L1.95 16.387z" fill="url(#a)"/><path d="M1.95 14.837v.113h6.688c.002-1.238.462-2.424 1.28-3.298.818-.874 1.927-1.364 3.082-1.363L11.566 3.25c-2.637.368-5.06 1.742-6.827 3.87-1.766 2.13-2.757 4.869-2.789 7.717z" fill="url(#b)"/><defs><linearGradient id="a" x1="7.475" y1="4.09" x2="7.475" y2="19.175" gradientUnits="userSpaceOnUse"><stop stop-color="#0052CC"/><stop offset="1" stop-color="#2684FF"/></linearGradient><linearGradient id="b" x1="277.206" y1="169.741" x2="277.206" y2="652.249" gradientUnits="userSpaceOnUse"><stop stop-color="#0052CC"/><stop offset="1" stop-color="#2684FF"/></linearGradient></defs></svg>