<svg width="26" height="26" fill="none" xmlns="http://www.w3.org/2000/svg"><g clip-path="url(#a)"><path d="M23.433 15.91c-.556 0-.988-.434-1.05-.991-.37-5.324-3.271-12.814-8.642-12.814-4.445 0-7.779 3.095-9.94 9.224-.184.557-.802.866-1.357.619-.556-.186-.865-.805-.618-1.3C4.296 3.59 8.308 0 13.741 0c7.099 0 10.37 9.038 10.741 14.795.062.557-.37 1.114-.988 1.114h-.061z" fill="#000"/><path opacity=".4" d="m25.902 17.953-18.52 7.676L.036 7.8 3.37 6.438 18.618.186l7.284 17.766z" fill="#FFE000"/><path d="M25.038 19.995 5.407 24.081 1.517 5.2l3.272-.681 16.36-3.405 3.889 18.881z" fill="#FFE000"/><path d="M13.494 19.81c-3.58 0-7.038-1.548-9.445-4.272-.309-.248-.37-.68-.247-1.052.679-1.796 2.47-5.943 4.753-6.005 1.173 0 2.037.929 2.716 1.671.186.248.494.558.741.743.556-.557 1.605-2.29 2.408-4.085.247-.558.864-.743 1.42-.496.555.248.74.867.494 1.424-2.47 5.386-3.766 5.386-4.26 5.386-.988 0-1.667-.743-2.346-1.486-.309-.31-.926-.99-1.173-.99-.555.062-1.728 1.98-2.53 4.023a10.513 10.513 0 0 0 7.654 3.096c2.47 0 6.852-.434 8.643-3.096-.494-5.323-3.396-12.504-8.643-12.504-.556 0-1.05-.496-1.05-1.053C12.63.557 13.125 0 13.742 0c7.1 0 10.37 9.038 10.741 14.795 0 .186-.061.434-.123.62-1.667 2.847-5.433 4.456-10.618 4.456-.062-.061-.185-.061-.247-.061z" fill="#000"/></g><defs><clipPath id="a"><path fill="#fff" transform="translate(.036)" d="M0 0h25.928v26H0z"/></clipPath></defs></svg>