<svg width="42" height="34" fill="none" xmlns="http://www.w3.org/2000/svg"><g clip-path="url(#a)"><path d="M4.633 5.106C4.554 2.862 6.327.793 8.723.793H33.28c2.396 0 4.17 2.069 4.09 4.313-.076 2.155.023 4.947.735 7.223.715 2.284 1.92 3.727 3.895 3.912v2.103c-1.974.186-3.18 1.63-3.895 3.913-.712 2.276-.811 5.068-.735 7.223.08 2.244-1.694 4.313-4.09 4.313H8.723c-2.396 0-4.169-2.069-4.09-4.313.076-2.155-.023-4.947-.735-7.223C3.183 19.973 1.974 18.53 0 18.344v-2.103c1.974-.185 3.183-1.628 3.898-3.912.712-2.276.811-5.068.735-7.223z" fill="url(#b)"/><g filter="url(#c)"><path d="M21.911 26.065c3.88 0 6.218-1.873 6.218-4.962 0-2.336-1.668-4.026-4.145-4.294v-.097c1.82-.292 3.248-1.959 3.248-3.82 0-2.651-2.123-4.378-5.359-4.378h-7.28v17.551h7.318zM17.425 10.74h3.766c2.047 0 3.21.9 3.21 2.53 0 1.739-1.352 2.712-3.804 2.712h-3.172V10.74zm0 13.1v-5.778h3.74c2.68 0 4.07.973 4.07 2.87 0 1.898-1.352 2.907-3.905 2.907h-3.905z" fill="url(#d)"/><path d="M21.911 26.065c3.88 0 6.218-1.873 6.218-4.962 0-2.336-1.668-4.026-4.145-4.294v-.097c1.82-.292 3.248-1.959 3.248-3.82 0-2.651-2.123-4.378-5.359-4.378h-7.28v17.551h7.318zM17.425 10.74h3.766c2.047 0 3.21.9 3.21 2.53 0 1.739-1.352 2.712-3.804 2.712h-3.172V10.74zm0 13.1v-5.778h3.74c2.68 0 4.07.973 4.07 2.87 0 1.898-1.352 2.907-3.905 2.907h-3.905z" stroke="#fff"/></g></g><defs><linearGradient id="b" x1="6.241" y1="1.666" x2="42.54" y2="30.89" gradientUnits="userSpaceOnUse"><stop stop-color="#9013FE"/><stop offset="1" stop-color="#6610F2"/></linearGradient><linearGradient id="d" x1="15.874" y1="9.669" x2="23.907" y2="23.448" gradientUnits="userSpaceOnUse"><stop stop-color="#fff"/><stop offset="1" stop-color="#F1E5FC"/></linearGradient><clipPath id="a"><path fill="#fff" transform="translate(0 .793)" d="M0 0h42v33H0z"/></clipPath><filter id="c" x="-1.906" y="-3.986" width="46.535" height="50.551" filterUnits="userSpaceOnUse" color-interpolation-filters="sRGB"><feFlood flood-opacity="0" result="BackgroundImageFix"/><feColorMatrix in="SourceAlpha" values="0 0 0 0 0 0 0 0 0 0 0 0 0 0 0 0 0 0 127 0" result="hardAlpha"/><feOffset dy="4"/><feGaussianBlur stdDeviation="8"/><feColorMatrix values="0 0 0 0 0 0 0 0 0 0 0 0 0 0 0 0 0 0 0.15 0"/><feBlend in2="BackgroundImageFix" result="effect1_dropShadow"/><feBlend in="SourceGraphic" in2="effect1_dropShadow" result="shape"/></filter></defs></svg>