<svg width="26" height="26" fill="none" xmlns="http://www.w3.org/2000/svg"><g clip-path="url(#a)"><path d="M24.485 19.5c.185-.314.3-.668.3-.985V7.485c0-.317-.114-.67-.3-.985L13 13l11.485 6.5z" fill="#384AA6"/><path d="m14.022 25.762 9.744-5.515c.28-.159.536-.433.72-.747L13.002 13 1.516 19.5c.185.314.44.588.72.747l9.744 5.515c.562.317 1.48.317 2.042 0z" fill="#23358F"/><path d="M24.486 6.5c-.185-.314-.44-.588-.721-.747L14.021.238c-.562-.317-1.48-.317-2.041 0L2.235 5.753c-.56.317-1.02 1.097-1.02 1.733v11.028c0 .318.115.672.3.986L13 13l11.486-6.5z" fill="#5D6DBC"/><path d="M13 20.701c-4.332 0-7.856-3.454-7.856-7.701S8.668 5.299 13 5.299c2.795 0 5.402 1.474 6.804 3.848l-3.4 1.929A3.96 3.96 0 0 0 13 9.149c-2.166 0-3.928 1.728-3.928 3.851s1.762 3.85 3.929 3.85a3.96 3.96 0 0 0 3.403-1.926l3.4 1.929c-1.4 2.374-4.008 3.848-6.803 3.848z" fill="#fff"/></g><defs><clipPath id="a"><path fill="#fff" transform="translate(1.215)" d="M0 0h23.571v26H0z"/></clipPath></defs></svg>