<svg width="41" height="41" fill="none" xmlns="http://www.w3.org/2000/svg"><g clip-path="url(#a)"><g clip-path="url(#b)"><path d="M2.005 24.506c-.753-1.232-1.098-2.565-1.083-4 .204-.173.447-.126.675-.126h28.188c.134 0 .259-.008.392 0 .322.024.573-.047.596-.431 0-.047.04-.094.079-.134.259.024.188.228.196.37.031.454-.024.909.04 1.372.125.87.36 1.71.76 2.502.078.156.25.329.04.517-.174.07-.362.063-.542.063H2.648c-.22-.008-.447.024-.643-.133z" fill="#B5DD64"/><path d="M2.005 24.506h29.953c.164.031.227.165.306.282 1.239 1.875 2.964 3.035 5.16 3.498.142.032.353-.023.4.212-.133 0-.258.008-.392.008-9.553 0-19.098.023-28.65-.008-2.926-.008-5.146-1.396-6.73-3.843-.016-.047-.024-.102-.047-.15zM30.93 19.8c-.023.03-.055.062-.055.101-.094.612-.094.612-.73.612H.93a7.11 7.11 0 0 1 1.075-4c.204-.157.447-.126.682-.126h28.408c.259 0 .525-.047.769.095.14.133.086.29.015.43-.439.832-.674 1.734-.823 2.66-.024.078-.04.164-.126.227z" fill="#A8CB54"/><path d="M31.895 16.592c-.15-.157-.345-.086-.518-.086H2.012c1.193-2.063 2.981-3.31 5.287-3.828a6.938 6.938 0 0 1 1.616-.172h28.604c.133 0 .258.008.392.008-.016.204-.18.157-.29.172-2.314.424-4.102 1.64-5.397 3.6-.086.134-.14.298-.33.306z" fill="#B5DD64"/><path d="M31.895 16.592c.69-1.098 1.53-2.07 2.627-2.784 1.004-.652 2.087-1.099 3.287-1.232.031 0 .062-.04.094-.063.517.016 1.043-.086 1.553.071.957.298 1.56 1.223 1.427 2.196-.125.973-.988 1.71-2.016 1.718-2.211.015-3.968 1.882-3.968 4 0 2.117 1.749 3.984 3.96 4 1.154.008 2.032.894 2.024 2.031-.008 1.098-.91 1.96-2.047 1.969-.337 0-.682-.008-1.02-.008-.65-.204-1.325-.314-1.968-.58a8.032 8.032 0 0 1-3.624-2.989l-.282-.423c-.84-1.46-1.122-3.044-1.02-4.706a7.82 7.82 0 0 1 .785-2.816c.078-.117.125-.25.188-.384z" fill="#DCF3A3"/></g></g><defs><clipPath id="a"><path fill="#fff" transform="translate(.5 .637)" d="M0 0h40v40H0z"/></clipPath><clipPath id="b"><path fill="#fff" transform="translate(.907 .495)" d="M0 0h40v40H0z"/></clipPath></defs></svg>