<svg width="26" height="26" fill="none" xmlns="http://www.w3.org/2000/svg"><path fill-rule="evenodd" clip-rule="evenodd" d="M12.765.051c7.267 0 13.16 5.8 13.16 12.95 0 7.15-5.892 12.948-13.159 12.948-6.13 0-11.282-4.127-12.743-9.712A.6.6 0 0 1 0 16.083c0-.34.28-.616.627-.616h5.305a.625.625 0 0 1 .579.382 6.9 6.9 0 0 0 6.254 3.934c3.807 0 6.892-3.037 6.892-6.783 0-3.746-3.086-6.783-6.893-6.783a6.898 6.898 0 0 0-6.254 3.935l-.011.02a.624.624 0 0 1-.568.36H.626A.622.622 0 0 1 0 9.916a.65.65 0 0 1 .022-.153C1.484 4.18 6.634.051 12.765.051zm0 16.033c-1.73 0-3.133-1.38-3.133-3.084 0-1.703 1.403-3.083 3.133-3.083s3.133 1.38 3.133 3.083c0 1.703-1.403 3.083-3.133 3.083v.001z" fill="#D7DDE1"/></svg>