<svg width="26" height="26" fill="none" xmlns="http://www.w3.org/2000/svg"><path d="M3.712 17.32H.02V26h8.64v-3.732H3.71V17.32zm18.577.04v4.908H17.34v-.04V26h8.64v-8.68h-3.732l.04.04zM.02 8.68h3.731l-.04-.04V3.732H8.66V0H.02v8.68zM17.34 0v3.732h4.948V8.68h3.69V0H17.34z" fill="#446CA9"/><path d="m16.854 8.68-4.949-4.948h5.435V0H8.66v3.732L13.61 8.68h3.245zm-4.462 8.64H9.147l4.097 4.096.81.852H8.66V26h8.68v-3.772l-2.474-2.434-2.474-2.474zm9.897-8.64v5.395l-.852-.852-4.097-4.097v3.286l2.434 2.434 2.474 2.474h3.732V8.68h-3.691zM8.66 13.588 3.752 8.68H.021v8.64h3.69v-5.395l4.95 4.949v-3.286z" fill="#76C4D5"/></svg>