<svg width="26" height="26" fill="none" xmlns="http://www.w3.org/2000/svg"><path d="M17.909 17.504c.162-.54.108-1.079-.162-1.402a1.669 1.669 0 0 0-1.133-.594L7.228 15.4c-.054 0-.108-.053-.162-.053-.054-.054-.054-.108 0-.162.054-.108.108-.162.216-.162l9.44-.108c1.133-.054 2.32-.971 2.751-2.05l.54-1.402c0-.054.053-.108 0-.162C19.418 8.55 16.937 6.5 14.024 6.5c-2.697 0-5.017 1.726-5.826 4.153a2.945 2.945 0 0 0-1.942-.539c-1.294.108-2.32 1.187-2.481 2.481-.054.324 0 .648.054.971A3.939 3.939 0 0 0 0 17.504c0 .216 0 .378.054.593 0 .108.108.162.162.162H17.53c.108 0 .216-.054.216-.162l.162-.593z" fill="#E7863C"/><path d="M20.875 11.463h-.27c-.053 0-.107.054-.161.107l-.378 1.295c-.161.54-.107 1.079.162 1.403.27.323.647.539 1.133.593l1.996.108c.054 0 .108.054.162.054.054.054.054.108 0 .162-.054.107-.108.162-.216.162l-2.05.107c-1.133.054-2.32.971-2.75 2.05l-.109.486c-.054.054 0 .161.108.161h7.12c.108 0 .162-.053.162-.161.108-.432.216-.917.216-1.403 0-2.805-2.32-5.124-5.125-5.124z" fill="#F1AF55"/></svg>