<svg width="23" height="26" fill="none" xmlns="http://www.w3.org/2000/svg"><path d="m22.75 17.869-11.37-1.684L0 17.871l11.375 4.253 11.375-4.255z" fill="#B7CA9D"/><path d="m2.277 17.672 1.922.607.176-.201V4.508l-.176-.23-1.922.74v12.653" fill="#4B612C"/><path d="m11.005 17.073-6.806 1.205v-14l6.806 1.543v11.252z" fill="#759C3E"/><path d="m7.97 19.446-2.652-.826V1.338L7.97 0l.232.256V19.16l-.232.285" fill="#4B612C"/><path d="m17.059 17.294-9.09 2.15V0l9.09 3.575v13.72z" fill="#759C3E"/><path d="M11.372 21.94 0 17.87v2.361l11.372 5.736V21.94z" fill="#4B612C"/><path d="m22.75 20.228-11.378 5.74V21.94l11.378-4.072v2.36z" fill="#759C3E"/><path d="M19.554 13.959h-2.757l-7.86.54 2.438.453 8.18-.993z" fill="#B7CA9D"/><path d="m8.938 19.717 2.436.736.07-.076-.002-5.545-.07-.068-2.434-.265v5.216" fill="#4B612C"/><path d="m19.555 13.959-8.183.805.002 5.69 8.18-2.485v-4.01z" fill="#759C3E"/></svg>