<svg width="26" height="26" fill="none" xmlns="http://www.w3.org/2000/svg"><path fill="#759C3E" d="M3.531 7.48H6.58v11.714H3.531z"/><path fill="#4B612C" d="M19.42 7.48h3.049v11.714H19.42z"/><path d="M13 7.163 6.58 8.51l-2.969-.475 9.39-2.928 9.308 2.928-2.97.475L13 7.163z" fill="#3C4929"/><path d="m13 20.856-9.389-2.85 2.97-.474L13 19.114l6.419-1.582 3.05.474-9.47 2.85z" fill="#B7CA9D"/><path fill-rule="evenodd" clip-rule="evenodd" d="M2.167 5.343 13 .04V26L2.167 20.54V5.343zm1.444 12.663V8.034l6.18-1.9v13.772l-6.18-1.9z" fill="#4B612C"/><path fill-rule="evenodd" clip-rule="evenodd" d="M23.833 5.343 13 .04V26l10.833-5.461V5.343zm-1.444 12.663V8.034l-6.18-1.9v13.772l6.18-1.9z" fill="#759C3E"/></svg>