<svg width="41" height="41" fill="none" xmlns="http://www.w3.org/2000/svg"><g clip-path="url(#a)"><path d="M2.455 30.352c-.406.663-.862 1.432-1.25 2.044a1.25 1.25 0 0 0 .42 1.7l8.124 5a1.25 1.25 0 0 0 1.731-.425c.325-.544.744-1.25 1.2-2.006 3.22-5.313 6.457-4.663 12.294-1.875l8.057 3.831a1.25 1.25 0 0 0 1.68-.625l3.87-8.75a1.25 1.25 0 0 0-.626-1.637c-1.7-.8-5.08-2.394-8.124-3.863-10.95-5.319-20.257-4.975-27.375 6.606z" fill="url(#b)"/><path d="M38.887 10.496c.406-.662.862-1.431 1.25-2.044a1.25 1.25 0 0 0-.42-1.7l-8.124-5a1.25 1.25 0 0 0-1.781.413c-.325.544-.744 1.25-1.2 2.006-3.22 5.313-6.457 4.663-12.294 1.875L8.287 2.234a1.25 1.25 0 0 0-1.682.625l-3.868 8.75a1.25 1.25 0 0 0 .625 1.637c1.7.8 5.08 2.394 8.125 3.862 10.975 5.313 20.28 4.957 27.4-6.612z" fill="url(#c)"/></g><defs><linearGradient id="b" x1="38.362" y1="41.677" x2="13.78" y2="27.552" gradientUnits="userSpaceOnUse"><stop offset=".18" stop-color="#0052CC"/><stop offset="1" stop-color="#2684FF"/></linearGradient><linearGradient id="c" x1="2.98" y1="-.835" x2="27.568" y2="13.296" gradientUnits="userSpaceOnUse"><stop offset=".18" stop-color="#0052CC"/><stop offset="1" stop-color="#2684FF"/></linearGradient><clipPath id="a"><path fill="#fff" transform="translate(.406 .29)" d="M0 0h40v40H0z"/></clipPath></defs></svg>