<svg width="40" height="40" fill="none" xmlns="http://www.w3.org/2000/svg"><path fill-rule="evenodd" clip-rule="evenodd" d="M13.035 0h26.78v26.905C39.816 34.107 33.95 40 26.782 40H13.035C5.865 40 0 34.107 0 26.905v-13.81C0 5.893 5.866 0 13.035 0z" fill="url(#a)"/><path fill-rule="evenodd" clip-rule="evenodd" d="M30.02 31.307c.224-.232.644-.653.906-.904.261-.251.365-.332.46-.38a.411.411 0 0 1 .249-.05c.066.012.113.05.146.094a.435.435 0 0 1 .069.187c.017.09.034.22.06.402.025.183.06.42.087.628.027.208.045.386.043.507a.4.4 0 0 1-.075.254 1.03 1.03 0 0 1-.192.198.48.48 0 0 1-.207.102.967.967 0 0 1-.264.005 5.34 5.34 0 0 1-.334-.039c-.113-.016-.218-.035-.324-.053a28.372 28.372 0 0 0-.336-.053 7.934 7.934 0 0 1-.358-.06.436.436 0 0 1-.192-.07.244.244 0 0 1-.073-.123.327.327 0 0 1-.012-.151.578.578 0 0 1 .063-.168c.028-.052.059-.094.284-.326zM11.36 8.294c.834-.768 1.56-.862 2.251-.329 10.917 10.967 16.41 16.426 16.41 16.426.695.644 1.109 1.318 1.241 2.021.094.644.178 1.273.25 1.888.015.122-.024.199-.075.31-.163.36-.48.73-.953 1.112l-1.62 1.585c-.318.36-1.083.183-1.632.072-1.243-.252-1.357-.05-2.377-1.016L8.508 13.94c-.523-.47-.777-.832-.764-1.084a1.966 1.966 0 0 1 .003-.36c.042-.392.328-.811.565-1.123.175-.231.392-.47.651-.72a71.306 71.306 0 0 1 2.398-2.359z" fill="#FEFEFE"/><path fill-rule="evenodd" clip-rule="evenodd" d="M10.052 9.593a.378.378 0 0 0-.034.237c.01.077.031.152.063.227.032.075.074.15.132.232.059.08.133.167.41.453.277.285.756.768 1.168 1.188.413.418.759.773 1.155 1.172.396.4.842.843 1.093 1.09.252.246.308.295.335.319.026.023.024.02.5-.464l1.91-1.934c.478-.482.48-.481.478-.483l-.608-.61-2.395-2.404c-.598-.6-.596-.6-.629-.624a1.554 1.554 0 0 0-.43-.256 1.282 1.282 0 0 0-.606-.088 1.435 1.435 0 0 0-.549.165 3.318 3.318 0 0 0-.642.448c-.092.081-.177.16-.285.263a85.47 85.47 0 0 0-.815.785c-.123.12-.208.203-.25.284z" fill="url(#b)"/><path fill-rule="evenodd" clip-rule="evenodd" d="M31.437 28.61a2.263 2.263 0 0 1-.294.467 20.132 20.132 0 0 1-1.445-.132c-.69-.032-1.494-.497-2.412-1.395L15.741 15.918l-2.619 2.659-.592-.595 5.523-5.557 12.33 12.334c.446.47.738 1.022.879 1.654l.238 1.782a.54.54 0 0 1-.063.416z" fill="url(#c)"/><defs><linearGradient id="a" x1="7.945" y1="8.114" x2="44.792" y2="45.126" gradientUnits="userSpaceOnUse"><stop stop-color="#85E31C"/><stop offset=".369" stop-color="#2CC02B"/><stop offset="1" stop-color="#298822"/></linearGradient><linearGradient id="b" x1="12.033" y1="8.812" x2="17.116" y2="13.834" gradientUnits="userSpaceOnUse"><stop stop-color="#C6C6C6"/><stop offset=".612" stop-color="#E2E2E2"/><stop offset="1" stop-color="#FEFEFE"/></linearGradient><linearGradient id="c" x1="18.334" y1="14.776" x2="30.62" y2="27.902" gradientUnits="userSpaceOnUse"><stop stop-color="#C6C6C6"/><stop offset=".671" stop-color="#E2E2E2"/><stop offset="1" stop-color="#FEFEFE"/></linearGradient></defs></svg>