<svg width="46" height="37" fill="none" xmlns="http://www.w3.org/2000/svg"><g clip-path="url(#a)"><path d="M41.412 11.023V3.23H4.06v7.794H1.137v15.972h43.14V11.023h-2.865z" fill="red"/><path d="M.357 27.334v-17.09H3.28V2.448h38.911v7.794h2.866v17.091H.357zm1.22-.614 42.104.037-.182-14.954h-2.867V4.008H4.839v7.795H1.916l-.285 14.423-.055.494z" fill="#EB1019"/><path d="M6.006 2.384v3.513l1.331 1.8 3.914-1.328-.016-5.304-5.23 1.32h.001z" fill="#fff"/><path d="m6.817 20.302 8.831 1.996 22.97-2.14.006 6.966H6.799l.018-6.822zM33.1 15.358l-2.4-.995-4.992-3.408-5.964 1.815-12.933-.98v4.588l8.2 2.353 23.433-2.081v-4.786L33.1 15.358z" fill="#BD101D" stroke="#BD101D" stroke-width=".5"/><path d="M3.277 8.746 1.799 10.31v4.193l2.087.888V12.97l.888.695v-1.654H6.81l3.77 5.676 1.39.38 1.888 7.823.98.406.693 2.863h5.463L18.368 18.3l7.422-4.819 4.036 3.411.98-.384.373 1.014 7.265-.652-.63-1.61-4.088-1-7.402-6.03-8.064 3.06-2.478-3.262 3.733-3.795h3.558l1.404 1.182V4.233h2.796l-.675-1.57-8.192-1.297-7.561 4.843-7.568 2.537z" fill="#fff"/></g><defs><clipPath id="a"><path fill="#fff" transform="translate(.23 .975)" d="M0 0h45v35.856H0z"/></clipPath></defs></svg>