<svg width="49" height="41" fill="none" xmlns="http://www.w3.org/2000/svg"><g clip-path="url(#a)"><path d="M10.021 32.594 7.109-3l34.782.072-3.08 35.522-14.18 4.106-14.61-4.106z" fill="#1B73BA"/><path d="M24.631 33.262V.39l14.324.047L36.4 29.848l-11.77 3.414z" fill="#1C88C7"/><path d="M35.398 4.592H13.363l.597 4.297h10.456l-10.289 4.416.597 4.154h15.16l-.55 5.8-5.133 1.003-4.654-1.193-.359-3.295h-4.273l.573 6.852 9.167 2.554 8.785-2.793 1.122-13.392h-9.286l10.122-4.202V4.592z" fill="#fff"/></g><defs><clipPath id="a"><path fill="#fff" transform="translate(.95 .161)" d="M0 0h47.619v40H0z"/></clipPath></defs></svg>