<svg width="29" height="33" fill="none" xmlns="http://www.w3.org/2000/svg"><path d="m28.339.076-2.582 28.922-11.605 3.217-11.573-3.213L0 .077h28.339z" fill="#264DE4"/><path d="m23.547 27.156 2.206-24.715H14.169v27.315l9.378-2.6z" fill="#2965F1"/><path d="m5.912 13.17.318 3.547h7.94V13.17H5.911zM14.17 5.99H5.272l.323 3.547h8.573V5.99zM14.17 26.075v-3.692l-.016.005-3.951-1.067-.253-2.83H6.389l.497 5.57 7.267 2.018.016-.005z" fill="#EBEBEB"/><path d="m18.525 16.718-.412 4.601-3.956 1.068v3.691l7.273-2.016.053-.6.834-9.339.086-.953.64-7.18h-8.886v3.547h4.999l-.323 3.633h-4.676v3.548h4.368z" fill="#fff"/></svg>