<svg width="26" height="26" fill="none" xmlns="http://www.w3.org/2000/svg"><g clip-path="url(#a)"><path fill-rule="evenodd" clip-rule="evenodd" d="M18.723 2.036a9.118 9.118 0 0 0-.604-.333 9.124 9.124 0 0 0-.853-.374c-.192-.072-.385-.15-.583-.209a10.904 10.904 0 1 0-5.474 21.066v3.123c6.527-.985 12.308-6.166 12.739-12.97.26-4.092-1.782-8.271-5.225-10.303z" fill="#23D96C"/><path d="M10.62 25.993V22.66A11.491 11.491 0 1 1 16.866.563c.154.045.314.106.469.165l.135.05c.092.037.161.064.232.094a9.476 9.476 0 0 1 1.32.66c3.575 2.11 5.789 6.467 5.511 10.846-.427 6.737-5.994 12.42-13.238 13.512l-.675.103zm2.684-24.825h-.014a10.316 10.316 0 0 0-1.97 20.442l.475.093v2.908c6.369-1.248 11.187-6.328 11.565-12.308.25-3.948-1.733-7.87-4.937-9.76l-.005-.003a8.388 8.388 0 0 0-1.355-.658l-.146-.056c-.14-.053-.272-.103-.4-.14a10.26 10.26 0 0 0-3.213-.518z" fill="#173647"/><path fill-rule="evenodd" clip-rule="evenodd" d="M11.112 5.953a1.008 1.008 0 0 1 .885.34c.168.183.305.392.407.619.361.794.574 1.935.128 2.574a3.538 3.538 0 0 1-2.225-1.726 1.809 1.809 0 0 1-.195-.748 1.094 1.094 0 0 1 1-1.06zM8.49 8.665c.061-.005.121-.005.181 0 .279.005.553.067.806.18.803.345 1.697 1.185 1.87 1.93-.688.458-1.927.42-2.73.077a4.319 4.319 0 0 1-.68-.412.987.987 0 0 1 .554-1.775zM9.475 14.397c-.252.12-.527.182-.806.18a1.016 1.016 0 0 1-.788-1.772 1.96 1.96 0 0 1 .68-.413c.296-.125.612-.192.932-.197.522-.009 1.418-.125 1.852.164-.115.744-1.068 1.694-1.87 2.038zM12.783 16.242c-.11.24-.241.467-.394.681-.573.746-1.902.222-1.845-.752.005-.255.067-.506.18-.734.344-.803 1.28-1.789 2.082-1.96.458.687.32 2.02-.023 2.765zM14.187 6.892c.11-.239.242-.467.395-.68a1.025 1.025 0 0 1 .895-.359 1.07 1.07 0 0 1 1.003 1.093 1.81 1.81 0 0 1-.18.753 3.322 3.322 0 0 1-2.067 1.769c-.514-.63-.39-1.773-.046-2.576zM14.688 16.924a2.317 2.317 0 0 1-.394-.627c-.343-.803-.331-2.004.127-2.634.802.172 1.643 1.025 1.986 1.828.113.234.175.49.18.752.058.86-1.268 1.369-1.899.68zM18.2 14.523a2.048 2.048 0 0 1-.806-.18c-.803-.344-1.682-1.148-1.854-1.893.44-.289 1.255-.32 1.782-.31.32.004.637.071.932.197.238.11.466.241.68.393.802.575.298 1.85-.734 1.793z" fill="#173647"/></g><defs><clipPath id="a"><path fill="#fff" d="M0 0h26v26H0z"/></clipPath></defs></svg>