<svg width="26" height="26" fill="none" xmlns="http://www.w3.org/2000/svg"><g clip-path="url(#a)" fill="#0069FF"><path d="M12.995 26v-4.992c5.34 0 9.47-5.243 7.431-10.812a7.507 7.507 0 0 0-4.493-4.454C10.319 3.72 5.034 7.815 5.033 13.11c0 0 0 .002-.002.002H0C0 4.673 8.22-1.898 17.136.863c3.897 1.206 6.993 4.277 8.21 8.142C28.129 17.848 21.504 26 12.996 26"/><path d="M13.006 21.021H7.988v-4.975h5.018v4.975zm-5.019 3.824H4.133V21.02h3.855v3.824zm-3.852-3.824H.902v-3.203s0-.003.003-.003h3.23v3.207z"/></g><defs><clipPath id="a"><path fill="#fff" d="M0 0h26v26H0z"/></clipPath></defs></svg>