<svg width="41" height="40" fill="none" xmlns="http://www.w3.org/2000/svg"><g clip-path="url(#a)"><g clip-path="url(#b)" fill="#2BA977"><path d="M18.895.643h6.53v29.925c-3.345.633-5.807.881-8.471.881-7.975-.008-12.126-3.57-12.126-10.413 0-6.592 4.404-10.87 11.227-10.87 1.059 0 1.865.082 2.84.332V.643zm.229 15.248c-.765-.25-1.395-.333-2.202-.333-3.302 0-5.21 2.014-5.21 5.544 0 3.438 1.824 5.335 5.168 5.335.723 0 1.311-.04 2.244-.165V15.89z"/><path d="M36.101 10.969v14.983c0 5.16-.386 7.641-1.52 9.78-1.06 2.057-2.454 3.354-5.337 4.787l-6.058-2.855c2.882-1.34 4.277-2.523 5.168-4.33.932-1.847 1.226-3.986 1.226-9.613V10.969h6.521zM28.922.643h6.53v6.634h-6.53V.643z"/></g></g><defs><clipPath id="a"><path fill="#fff" transform="translate(.5)" d="M0 0h40v40H0z"/></clipPath><clipPath id="b"><path fill="#fff" transform="translate(.907 -.142)" d="M0 0h40v40H0z"/></clipPath></defs></svg>