<svg width="46" height="27" fill="none" xmlns="http://www.w3.org/2000/svg"><path d="M35.58 5.792h-.022L26.826.71l-8.62 5.016L9.362.597 0 6.04v9.896l18.071 10.526 8.642-4.993 8.867 5.128 9.43-5.443v-9.896l-9.43-5.466zm-.045 10.144-7.404-4.296 7.472-4.363 7.404 4.34-7.472 4.319zM18.004 7.209l7.471 4.319-7.381 4.295-7.45-4.34 7.36-4.274zm16.248-.675-7.314 4.251-7.449-4.318 7.337-4.273 7.426 4.34zM16.812 6.4l-1.509.878-6.099 3.44L1.935 6.4l7.45-4.318L16.81 6.4zM1.304 7.48l7.314 4.408v7.782l-7.314-4.453V7.48zm8.777 5.173 7.314 4.34v7.76l-7.314-4.34v-7.76zm17.396.09 7.45 4.386v7.692l-7.45-4.43v-7.648z" fill="#000"/><path opacity=".5" d="m10.082 20.434 7.314 4.296v-7.737l-7.314-4.341v7.782zm-8.777-5.24 7.314 4.453v-7.76L1.305 7.48v7.715zM27.48 20.41l7.449 4.431v-7.714l-7.45-4.386v7.67z" fill="#000"/></svg>