<svg width="36" height="27" fill="none" xmlns="http://www.w3.org/2000/svg"><path d="M35.002 10.723c-.8-.563-2.632-.774-4.065-.492-.166-1.408-.932-2.639-2.265-3.73l-.766-.563-.533.81c-.666 1.055-1 2.533-.9 3.94.034.493.2 1.372.7 2.146-.466.282-1.432.633-2.698.633H.391l-.067.282c-.233 1.407-.233 5.805 2.498 9.183 2.066 2.568 5.13 3.87 9.161 3.87 8.728 0 15.19-4.257 18.222-11.962 1.199.035 3.764 0 5.063-2.64.033-.07.1-.21.333-.738l.133-.281-.732-.458zM19.645.802H15.98V4.32h3.665V.802zm0 4.222H15.98v3.518h3.665V5.024zm-4.33 0H11.65v3.518h3.664V5.024zm-4.331 0H7.319v3.518h3.665V5.024zm-4.33 4.222H2.988v3.518h3.664V9.246zm4.33 0H7.319v3.518h3.665V9.246zm4.33 0H11.65v3.518h3.664V9.246zm4.33 0h-3.663v3.518h3.664V9.246zm4.331 0h-3.664v3.518h3.664V9.246z" fill="#2396ED"/></svg>