<svg width="40" height="31" fill="none" xmlns="http://www.w3.org/2000/svg"><path d="M33.816 8.517a13.16 13.16 0 0 0-3.39-5.132C28.087 1.207 25.056 0 21.903 0c-2.727 0-5.331.883-7.528 2.551a12.737 12.737 0 0 0-2.737 2.836 10.079 10.079 0 0 0-1.449-.108c-2.717 0-5.284 1.099-7.206 3.09C1.061 10.362 0 13.012 0 15.838c0 2.62.938 5.131 2.633 7.074a10.097 10.097 0 0 0 5.01 3.14c.832 2.57 3.18 4.425 5.936 4.425 3.457 0 6.27-2.914 6.27-6.495 0-.206-.01-.422-.029-.628l8.797-4.789-1.922-3.454-8.409 4.573c-1.146-1.354-2.832-2.208-4.707-2.208-2.717 0-5.037 1.806-5.909 4.317-2.215-1.01-3.768-3.296-3.768-5.965 0-3.591 2.812-6.515 6.287-6.515a6.1 6.1 0 0 1 3.334.99c1.165-3.64 4.479-6.27 8.38-6.27 4.546 0 8.277 3.553 8.779 8.115.16-.02.322-.03.483-.03 2.718 0 4.924 2.287 4.924 5.103 0 2.669-1.98 4.857-4.498 5.083h-2.813a1.68 1.68 0 0 0-.388-.04c-1.089 0-1.97.913-1.97 2.041 0 1.07.796 1.943 1.81 2.032v.02H31.76l.17-.02c2.198-.197 4.234-1.227 5.73-2.915a9.323 9.323 0 0 0 2.339-6.2c0-4.063-2.604-7.537-6.184-8.704zM13.58 21.469c1.336 0 2.425 1.128 2.425 2.512 0 1.383-1.09 2.511-2.425 2.511-1.335 0-2.424-1.128-2.424-2.511 0-1.384 1.09-2.512 2.425-2.512z" fill="#58F"/></svg>