<svg width="41" height="41" fill="none" xmlns="http://www.w3.org/2000/svg"><g clip-path="url(#a)"><path d="M16.814 15.048h1.623v4.786l4.672-4.786h2.143l-5.127 5.273 5.45 6.085H23.5l-5.062-5.679v5.68h-1.623V15.047z" fill="url(#b)"/><path d="m21.897 10.54 7.992 4.615c.136.079.22.224.22.381v9.229c0 .157.084.302.22.381l7.132 4.118a.44.44 0 0 0 .662-.382V10.91a.441.441 0 0 0-.22-.381L22.337 1.54a.441.441 0 0 0-.662.382v8.236c0 .157.084.303.22.382z" fill="url(#c)"/><path d="m28.773 27.077-7.991 4.614a.44.44 0 0 1-.441 0l-9.107-5.258a.442.442 0 0 1-.22-.381V15.536c0-.158.084-.303.22-.382l7.992-4.614a.44.44 0 0 0 .22-.382V1.923a.441.441 0 0 0-.661-.382L3.22 10.527a.441.441 0 0 0-.22.382v19.77c0 .157.084.302.22.381l17.12 9.885a.44.44 0 0 0 .442 0l15.564-8.986a.441.441 0 0 0 0-.764l-7.131-4.118a.44.44 0 0 0-.442 0z" fill="url(#d)"/></g><defs><linearGradient id="b" x1="24.302" y1="26.114" x2="17.331" y2="14.628" gradientUnits="userSpaceOnUse"><stop stop-color="#4F66B9"/><stop offset="1" stop-color="#484FAB"/></linearGradient><linearGradient id="c" x1="39.862" y1="27.731" x2="24.06" y2=".522" gradientUnits="userSpaceOnUse"><stop stop-color="#4F66B9"/><stop offset="1" stop-color="#484FAB"/></linearGradient><linearGradient id="d" x1="24.155" y1="38.846" x2="6.925" y2="8.426" gradientUnits="userSpaceOnUse"><stop stop-color="#4C68BB"/><stop offset="1" stop-color="#5180C9"/></linearGradient><clipPath id="a"><path fill="#fff" transform="translate(0 .79)" d="M0 0h40.468v40H0z"/></clipPath></defs></svg>