<svg width="41" height="41" fill="none" xmlns="http://www.w3.org/2000/svg"><g clip-path="url(#a)"><path d="M29.156 15.229h-9.289c.045.222.133.444.178.622.311 1.066.489 2.178.578 3.333.044.444.044.933.044 1.378 0 .444 0 .933-.044 1.378-.09 1.155-.267 2.266-.578 3.333-.045.222-.133.444-.178.622h9.29c2.932 0 5.288-2.4 5.288-5.333 0-2.934-2.356-5.334-5.289-5.334z" fill="#00A9E5"/><path d="M20.623 21.94c.044-.445.044-.934.044-1.378 0-.445 0-.934-.044-1.378-.09-1.155-.267-2.267-.578-3.333-.044-.223-.133-.445-.178-.623H5.512a17.607 17.607 0 0 0-.8 5.334c0 1.866.266 3.644.8 5.333h14.355c.045-.222.134-.444.178-.622.311-1.067.489-2.178.578-3.333z" fill="#353535"/><path d="M30.756 27.673H19.201A18.28 18.28 0 0 1 18 29.94c-.667 1.11-1.467 2.088-2.356 3.022-.311.31-.622.577-.933.889-.623.577-1.334 1.066-2.045 1.555 2.8 1.867 6.178 2.934 9.778 2.934 6.178 0 11.6-3.156 14.8-7.912a9.064 9.064 0 0 0-6.489-2.755z" fill="#00BFB3"/><path d="M18 29.94a18.28 18.28 0 0 0 1.2-2.267H6.179c1.378 3.155 3.645 5.866 6.534 7.733a22.535 22.535 0 0 0 2.044-1.555c.311-.267.622-.578.934-.89A17.522 17.522 0 0 0 18 29.94z" fill="#019B8F"/><path d="M15.645 8.162c-.311-.31-.622-.578-.933-.889-.623-.577-1.334-1.066-2.045-1.555-2.844 1.866-5.11 4.578-6.533 7.733h13.022c-.355-.8-.755-1.555-1.2-2.267a13.976 13.976 0 0 0-2.311-3.022z" fill="#F9B110"/><path d="M22.445 2.784c-3.6 0-6.978 1.067-9.778 2.934.711.488 1.378.977 2.045 1.555.31.267.622.578.933.889.889.933 1.689 1.911 2.356 3.022a18.28 18.28 0 0 1 1.2 2.267h11.555a9.064 9.064 0 0 0 6.489-2.756c-3.2-4.755-8.622-7.91-14.8-7.91z" fill="#FED10A"/></g><defs><clipPath id="a"><path fill="#fff" transform="translate(.356 .784)" d="M0 0h40v40H0z"/></clipPath></defs></svg>