<svg width="26" height="26" fill="none" xmlns="http://www.w3.org/2000/svg"><path d="M25.956 13.639a5.126 5.126 0 0 0-3.379-4.837 7.46 7.46 0 0 0 .132-1.399c0-4.065-3.291-7.37-7.328-7.37a7.31 7.31 0 0 0-5.946 3.052 3.87 3.87 0 0 0-2.381-.816A3.904 3.904 0 0 0 3.159 6.18c0 .474.088.937.242 1.367A5.176 5.176 0 0 0 0 12.394a5.14 5.14 0 0 0 3.39 4.847 7.378 7.378 0 0 0-.132 1.4c0 4.054 3.28 7.348 7.317 7.348a7.285 7.285 0 0 0 5.936-3.063c.68.54 1.514.838 2.38.838a3.904 3.904 0 0 0 3.895-3.912c0-.473-.088-.936-.242-1.366a5.186 5.186 0 0 0 3.412-4.847z" fill="#fff"/><path d="m10.203 11.215 5.682 2.6 5.727-5.046a6.05 6.05 0 0 0 .12-1.267c0-3.547-2.874-6.434-6.406-6.434a6.38 6.38 0 0 0-5.277 2.799l-.954 4.968 1.108 2.38z" fill="#FED10A"/><path d="M4.323 17.253c-.088.418-.12.848-.12 1.289 0 3.558 2.884 6.444 6.428 6.444a6.416 6.416 0 0 0 5.31-2.82l.943-4.946-1.262-2.424-5.704-2.611-5.595 5.068z" fill="#24BBB1"/><path d="m4.289 7.381 3.895.926.855-4.44a3.047 3.047 0 0 0-1.865-.628A3.08 3.08 0 0 0 4.29 7.38z" fill="#EF5098"/><path d="M3.95 8.318a4.348 4.348 0 0 0-2.952 4.087 4.322 4.322 0 0 0 2.765 4.032l5.463-4.958-.998-2.148-4.279-1.013z" fill="#17A8E0"/><path d="M16.928 22.166a3.074 3.074 0 0 0 1.854.639 3.08 3.08 0 0 0 3.072-3.085c0-.374-.066-.738-.187-1.069l-3.884-.914-.855 4.429z" fill="#93C83E"/><path d="m17.717 16.713 4.278 1.002c1.745-.573 2.951-2.247 2.951-4.098a4.308 4.308 0 0 0-2.764-4.021l-5.595 4.924 1.13 2.193z" fill="#0779A1"/></svg>