<svg width="19" height="30" fill="none" xmlns="http://www.w3.org/2000/svg"><path fill-rule="evenodd" clip-rule="evenodd" d="M10.315.073C8.187.828 6.132 3.03 4.151 6.68 1.18 12.154-2.658 19.933 2.627 26.093c2.444 2.85 6.48 4.53 11.778 1.867 4.256-2.14 5.44-8.28 3.912-11.165-3.152-5.953-6.35-7.42-7.206-11.112-.57-2.461-.836-4.331-.796-5.61z" fill="url(#a)"/><path fill-rule="evenodd" clip-rule="evenodd" d="M10.315 0c-2.14.762-4.194 2.964-6.164 6.606C1.196 12.07-2.658 19.86 2.627 26.02c2.444 2.85 6.429 3.77 8.64 2.08 1.441-1.101 2.422-2.151 2.986-4.364.63-2.464.147-5.78-.184-7.305-.418-1.928-.555-4.044-.41-6.349l-.115-.139c-1.15-1.409-2.04-2.636-2.433-4.332-.57-2.461-.836-4.331-.796-5.61z" fill="url(#b)"/><path fill-rule="evenodd" clip-rule="evenodd" d="M8.544.958C6.55 2.533 5.07 5.174 4.099 8.882 2.644 14.445 2.486 19.574 3 22.557c.995 5.784 6.155 7.98 11.448 5.287 3.257-1.657 4.613-5.213 4.541-9.073-.074-3.997-7.797-8.526-9.165-11.862C8.91 4.686 8.485 2.702 8.543.958z" fill="url(#c)"/><path fill-rule="evenodd" clip-rule="evenodd" d="M13.595 11.386c2.39 3.065 2.91 5.198 1.563 6.4-2.022 1.804-6.966 2.98-10.042.799-2.05-1.454-2.826-4.574-2.327-9.358a42.97 42.97 0 0 0-2.147 5.372c-.585 1.814-.756 3.712-.513 5.694.733 1.483 2.516 2.474 5.347 2.971 4.247.747 8.267.378 10.965-.982 1.798-.906 2.649-1.808 2.552-2.707.064-1.326-.345-2.59-1.228-3.788-.883-1.2-2.273-2.666-4.17-4.4z" fill="url(#d)"/><path fill-rule="evenodd" clip-rule="evenodd" d="M4.257 8.326c-.02 2.213.549 4.318 1.707 6.312 1.738 2.993 3.765 5.95 6.8 8.4 2.023 1.634 3.64 2.162 4.85 1.583-.994 1.779-2.05 2.65-3.17 2.615-1.68-.053-3.728-.787-7.009-4.73-2.187-2.629-3.683-5.115-4.489-7.46.128-.93.263-1.856.406-2.778.144-.923.445-2.237.905-3.942z" fill="url(#e)"/><path fill-rule="evenodd" clip-rule="evenodd" d="M9.39 11.364c.185 1.803.887 4.687 0 6.607-.888 1.92-4.986 5.39-3.855 8.446 1.131 3.056 3.888 2.37 5.618.961 1.729-1.408 2.655-3.698 2.86-5.309.205-1.61-.491-4.71-.717-7.404-.151-1.797-.05-3.338.307-4.623l-.53-.666-3.12-.924c-.5.739-.687 1.71-.564 2.912z" fill="url(#f)"/><path fill-rule="evenodd" clip-rule="evenodd" d="M10.503 2.433c-1.01.426-1.966 1.271-2.87 2.535C6.278 6.864 5.588 8 6.1 11.758c.34 2.506.584 4.81.731 6.915L11.2 5.98c-.16-.646-.294-1.23-.4-1.752a26.823 26.823 0 0 1-.296-1.795z" fill="url(#g)"/><path fill-rule="evenodd" clip-rule="evenodd" d="M11.19 5.955c-1.108.647-1.968 1.973-2.577 3.978-.61 2.005-1.168 4.808-1.674 8.409.675-2.29 1.123-3.95 1.343-4.976.33-1.541.444-3.72 1.321-5.2.586-.987 1.115-1.723 1.588-2.21z" fill="#330A4C" fill-opacity=".316"/><path fill-rule="evenodd" clip-rule="evenodd" d="M6.056 27.438c1.825.26 2.779.492 2.862.695.126.304-.23.582-1.244.396-.675-.125-1.215-.489-1.618-1.091z" fill="#fff"/><path fill-rule="evenodd" clip-rule="evenodd" d="M6.973 2.433a23.576 23.576 0 0 0-2.61 3.813C3.627 7.59 3.102 8.592 2.786 9.253c-.098.493-.146 1.22-.143 2.183.002.962.085 2.031.25 3.209a25.808 25.808 0 0 1 1.319-6.713c.735-2.17 1.656-4.003 2.76-5.5z" fill="#EDEDED" fill-opacity=".603"/><defs><linearGradient id="a" x1="9.905" y1="2.233" x2="8.889" y2="29.274" gradientUnits="userSpaceOnUse"><stop stop-color="#D9D8DC"/><stop offset="1" stop-color="#fff" stop-opacity=".385"/></linearGradient><linearGradient id="b" x1="10.364" y1="2.226" x2="-.257" y2="25.505" gradientUnits="userSpaceOnUse"><stop stop-color="#8D67AF" stop-opacity=".672"/><stop offset="1" stop-color="#9F8DAF"/></linearGradient><linearGradient id="c" x1="11.55" y1="9.768" x2="11.55" y2="28.488" gradientUnits="userSpaceOnUse"><stop stop-color="#26053D" stop-opacity=".762"/><stop offset="1" stop-color="#B7B4B4" stop-opacity=".278"/></linearGradient><linearGradient id="d" x1="1.945" y1="11.034" x2="6.711" y2="23.659" gradientUnits="userSpaceOnUse"><stop stop-color="#91739F" stop-opacity=".46"/><stop offset="1" stop-color="#32054F" stop-opacity=".54"/></linearGradient><linearGradient id="e" x1="14.683" y1="26.558" x2="1.578" y2="15.699" gradientUnits="userSpaceOnUse"><stop stop-color="#463D49" stop-opacity=".331"/><stop offset="1" stop-color="#340A50" stop-opacity=".821"/></linearGradient><linearGradient id="f" x1="11.99" y1="9.945" x2="2.747" y2="24.006" gradientUnits="userSpaceOnUse"><stop stop-color="#715383" stop-opacity=".145"/><stop offset="1" stop-color="#F4F4F4" stop-opacity=".234"/></linearGradient><linearGradient id="g" x1="12.874" y1="14.234" x2="6.328" y2="13.834" gradientUnits="userSpaceOnUse"><stop stop-color="#A5A1A8" stop-opacity=".356"/><stop offset="1" stop-color="#370C50" stop-opacity=".582"/></linearGradient></defs></svg>