<svg width="78" height="74" fill="none" xmlns="http://www.w3.org/2000/svg"><path fill-rule="evenodd" clip-rule="evenodd" d="M72.91 35.167 74.319.479a.451.451 0 0 0-.586-.457c-7.3 2.332-19.913 8.628-25.336 18.146-1.015 2.544-1.888 5.685-2.601 10.046-.395-.73-2.101-6.477-.904-9a153.1 153.1 0 0 0-8.327-.327l.07-12.914a.452.452 0 0 0-.6-.436c-7.054 2.441-19.999 9.421-21.621 19.328C5.71 30.448-.681 39.386.058 49.294c0 14.658 15.998 23.415 28.014 23.555l.03.001C38.34 73.459 65.066 75.043 78 51.666c-1.99.717-3.26 0-3.26 0s2.154-3.936 2.154-7.704c-1.574.74-3.192 1.224-4.81 1.552.678-3.108.793-6.2.826-10.347zm-61.55.78c-1.608 0-3.005 1.12-3.3 2.695-1.028 5.491-1.366 10.18-.173 14.724.358 1.363 1.65 2.229 3.064 2.229h.665c2.13 0 3.722-1.928 3.436-4.033-.559-4.128-.564-7.449-.005-11.575.285-2.107-1.306-4.04-3.44-4.04h-.248zm17.375 2.695c.296-1.575 1.692-2.695 3.3-2.695h.248c2.133 0 3.725 1.933 3.44 4.04-.56 4.126-.554 7.447.005 11.575.285 2.105-1.306 4.033-3.437 4.033h-.665c-1.414 0-2.706-.866-3.064-2.23-1.193-4.543-.855-9.232.173-14.723z" fill="#000"/></svg>