<svg width="39" height="40" fill="none" xmlns="http://www.w3.org/2000/svg"><g clip-path="url(#a)" fill="#101113"><path fill-rule="evenodd" clip-rule="evenodd" d="m33.181.082-.51 12.626c-.012 1.51-.054 2.635-.299 3.766a7.573 7.573 0 0 0 1.742-.565c0 1.372-.78 2.805-.78 2.805s.46.26 1.18 0c-4.684 8.51-14.363 7.932-18.072 7.711h-.01c-4.352-.051-10.146-3.239-10.146-8.575-.268-3.606 2.047-6.86 5.199-8.892.588-3.606 5.276-6.147 7.83-7.035a.164.164 0 0 1 .218.158l-.025 4.701c.747.01 1.812.038 3.015.12-.433.918.185 3.01.328 3.275.267-1.643.664-2.898 1.056-3.85C25.928 2.97 30.375.747 32.969-.086a.164.164 0 0 1 .212.167zM10.38 12.992a1.21 1.21 0 0 0-1.195.981c-.373 1.999-.495 3.706-.063 5.36.13.496.598.811 1.11.811h.24c.772 0 1.348-.702 1.245-1.468a14.679 14.679 0 0 1-.002-4.213c.104-.767-.473-1.47-1.245-1.47h-.09zm7.488 0a1.21 1.21 0 0 0-1.195.981c-.372 1.999-.495 3.706-.063 5.36.13.496.598.811 1.11.811h.24c.773 0 1.349-.702 1.245-1.468a14.675 14.675 0 0 1-.002-4.213c.104-.767-.473-1.47-1.245-1.47h-.09z"/><path d="M13.647 34.202c-.383.326-.921.525-1.559.525-1.076 0-1.856-.568-2.125-1.377h6.503v-.639c0-2.157-1.757-3.831-4.378-3.831-2.62 0-4.377 1.674-4.377 3.832 0 2.157 1.756 3.831 4.377 3.831 1.729 0 3.075-.71 3.797-1.83l-2.238-.511zm-1.559-3.69c1.063 0 1.842.553 2.111 1.348H9.977c.27-.795 1.049-1.348 2.111-1.348zM22.245 29.712c-1.303 0-2.238.54-2.777 1.291v-1.078h-2.125v7.237h2.125v-3.547c0-1.562.935-2.058 2.069-2.058.92 0 1.898.567 1.898 1.987v3.618h2.126v-3.618c0-2.555-1.332-3.832-3.316-3.832z"/><path d="M29.25 37.516v-8.888h-2.125v8.605c0 .596-.255.78-1.034.78H25v1.845h1.657c1.715 0 2.593-.681 2.593-2.342zM33.069 27.538h-2.125v9.624h2.125v-9.624z"/></g><defs><clipPath id="a"><path fill="#fff" transform="translate(.298 -.093)" d="M0 0h40v40H0z"/></clipPath></defs></svg>