<svg width="41" height="41" fill="none" xmlns="http://www.w3.org/2000/svg"><path d="M8.704 20.504a1.657 1.657 0 0 1 1.665-1.656l2.76.009a1.66 1.66 0 0 1 1.659 1.659v10.437c.31-.093.708-.19 1.146-.294A1.381 1.381 0 0 0 17 29.314V16.369a1.66 1.66 0 0 1 1.66-1.66h2.767a1.66 1.66 0 0 1 1.66 1.66v12.015s.692-.28 1.366-.565a1.386 1.386 0 0 0 .846-1.275V12.221a1.66 1.66 0 0 1 1.659-1.66h2.765a1.66 1.66 0 0 1 1.658 1.66v11.794c2.397-1.737 4.827-3.827 6.755-6.34a2.784 2.784 0 0 0 .424-2.6A19.53 19.53 0 0 0 5.515 8.51a19.532 19.532 0 0 0-2.34 22.707 2.47 2.47 0 0 0 2.356 1.22 68.295 68.295 0 0 0 1.949-.201 1.382 1.382 0 0 0 1.225-1.372V20.504" fill="#21325B"/><path d="M8.645 37.242a19.54 19.54 0 0 0 31.032-15.803c0-.451-.02-.895-.05-1.338-7.14 10.648-20.321 15.625-30.982 17.14z" fill="#979695"/></svg>