<svg width="41" height="39" fill="none" xmlns="http://www.w3.org/2000/svg"><path d="M34.319 10.47a6.15 6.15 0 0 0-4.3 1.747l-7.057-5.063a2.476 2.476 0 0 0-2.403-3.055 2.476 2.476 0 0 0-2.474 2.479 2.476 2.476 0 0 0 2.473 2.479 2.46 2.46 0 0 0 1.303-.374l8.637 6.3c.675-1.407 2.16-2.505 3.82-2.505a4.184 4.184 0 0 1 4.179 4.189 4.191 4.191 0 0 1-2.852 3.973l.567 1.927a6.198 6.198 0 0 0 4.29-5.9c0-3.422-2.768-6.197-6.184-6.197z" fill="#4575BA"/><path d="M14.495 4.45a6.174 6.174 0 0 0 .359 4.626l-6.935 5.193a2.503 2.503 0 0 0-.524-.24 2.467 2.467 0 0 0-3.098 1.607A2.475 2.475 0 0 0 5.9 18.74a2.465 2.465 0 0 0 3.137-2.961l8.584-6.328c-1.132-1.067-1.723-2.813-1.221-4.398a4.167 4.167 0 0 1 8.143 1.2l1.998.043A6.183 6.183 0 0 0 22.24.427a6.166 6.166 0 0 0-7.744 4.024z" fill="#E84124"/><path d="M3.043 21.201a6.156 6.156 0 0 0 4.476 1.137l2.735 8.195c-.142.122-.275.259-.39.418a2.46 2.46 0 0 0 .551 3.433 2.45 2.45 0 0 0 3.43-.522 2.461 2.461 0 0 0-.55-3.433 2.447 2.447 0 0 0-1.265-.467L8.74 19.85c-1.36.728-3.192.728-4.53-.25-1.856-1.358-2.274-3.956-.929-5.802a4.128 4.128 0 0 1 4.603-1.492l.663-1.872c-2.467-.826-5.275-.019-6.879 2.185-1.99 2.73-1.374 6.574 1.375 8.583z" fill="#0DBCD4"/><path d="M34.697 30.832a6.109 6.109 0 0 0-2.964-3.53l2.64-8.221a2.463 2.463 0 0 0 2.156-3.207 2.457 2.457 0 0 0-3.098-1.58 2.461 2.461 0 0 0-1.59 3.096c.146.452.412.83.75 1.117L29.264 28.6c1.537.206 3.025 1.274 3.532 2.844a4.163 4.163 0 0 1-2.688 5.232 4.16 4.16 0 0 1-4.627-1.479l-1.65 1.126a6.153 6.153 0 0 0 6.888 2.248c3.237-1.047 5.017-4.513 3.977-7.74z" fill="#87C250"/><path d="M15.543 37.463a6.144 6.144 0 0 0 2.427-3.933l8.627-.088c.073.174.164.342.28.503a2.455 2.455 0 0 0 3.436.533 2.468 2.468 0 0 0 .532-3.443 2.455 2.455 0 0 0-4.261.533l-10.62.028c.284 1.525-.266 3.279-1.598 4.256a4.15 4.15 0 0 1-5.806-.901 4.176 4.176 0 0 1-.039-4.866l-1.583-1.213a6.174 6.174 0 0 0 .015 7.258 6.139 6.139 0 0 0 8.59 1.333z" fill="#7954A2"/></svg>