<svg width="26" height="26" fill="none" xmlns="http://www.w3.org/2000/svg"><g clip-path="url(#a)"><path d="M13.866 13a4.334 4.334 0 1 1 8.668 0 4.334 4.334 0 0 1-8.668 0z" fill="#1ABCFE"/><path d="M5.2 21.667a4.333 4.333 0 0 1 4.334-4.334h4.333v4.334a4.334 4.334 0 0 1-8.667 0z" fill="#0ACF83"/><path d="M13.866 0v8.667H18.2A4.334 4.334 0 0 0 18.2 0h-4.334z" fill="#FF7262"/><path d="M5.2 4.334a4.333 4.333 0 0 0 4.334 4.333h4.333V0H9.534A4.333 4.333 0 0 0 5.2 4.334z" fill="#F24E1E"/><path d="M5.2 13a4.334 4.334 0 0 0 4.334 4.334h4.333V8.667H9.534A4.333 4.333 0 0 0 5.2 13z" fill="#A259FF"/></g><defs><clipPath id="a"><path fill="#fff" d="M0 0h26v26H0z"/></clipPath></defs></svg>