<svg fill="none" xmlns="http://www.w3.org/2000/svg" viewBox="0 0 40 40"><path d="m19.38 35.383 16.922-16.925H23.998l-10.767 10.77 6.15 6.155zM4 19.998 23.998 0h12.304L10.154 26.152 4 19.998z" fill="#39CEFD"/><path d="M23.998 39.996h12.304L25.535 29.23l-6.154 6.154 4.617 4.613z" fill="#03569B"/><path d="m25.535 29.229-6.154 6.154 9.127-3.162-2.973-2.992z" fill="url(#a)"/><path d="m13.23 29.225 6.155-6.154 6.153 6.154-6.153 6.158-6.154-6.158z" fill="#16B9FD"/><path d="m36.302 18.458-10.767 10.77L36.302 40H23.998l-4.617-4.617-6.154-6.154 10.771-10.771h12.304zM23.998 0 4 19.998l6.154 6.154L36.302 0H23.998z" fill="url(#b)"/><defs><radialGradient id="b" cx="0" cy="0" r="1" gradientUnits="userSpaceOnUse" gradientTransform="translate(-878.273 -359.781) scale(1.89961)"><stop stop-color="#FFF" stop-opacity=".1"/><stop offset="1" stop-color="#FFF" stop-opacity="0"/></radialGradient><linearGradient id="a" x1="-961.341" y1="-432.412" x2="-961.163" y2="-432.59" gradientUnits="userSpaceOnUse"><stop stop-color="#1A237E" stop-opacity=".4"/><stop offset="1" stop-color="#1A237E" stop-opacity="0"/></linearGradient></defs></svg>