<svg width="41" height="41" fill="none" xmlns="http://www.w3.org/2000/svg"><path d="M33.853 30.288c.416 0 .56-.097.758-.435.199-.339.103-.888.096-1.038-.019-.329-.13-.695-.144-.878 0-.112 0-.828.017-1.122.25-4.642 2.243-5.747 2.818-5.872.367-.108.761-.082 1.11.075V11.93c0-1.026-.729-2.288-1.618-2.804L22.337.716c-.897-.52-2.36-.52-3.243-.006L4.557 9.11c-.888.514-1.617 1.775-1.615 2.803V16.46c.084.047.168.096.252.148.282.187.56.29.845.486.81.494 1.562 1.075 2.243 1.735.132.127.575.684.68.815.322.443.683.856 1.08 1.233.22.2.461.375.72.52.428.222 1.135.172 1.495.013 2.77-1.2 4.508-.598 5.31-.116 1.983 1.19 2.645 2.856 2.856 4.878.028.262.037.526.027.79 0 .48-.017 1.252.49 1.38.726.187.902-.59 1.01-1.106.245-1.168 1.8-1.934 2.939-1.346.785.406 1.106.636 1.882.294.97-.428 1.47-1.518 1.809-2.097a3.55 3.55 0 0 1 1.398-1.331c1.514-.944 5.32-.7 5.458 3.495v1.166c0 .4.013.79-.013 1.204-.017.275-.066.56-.092.843-.007 0-.15.82.522.824z" fill="#E4A663"/><path d="M38.505 21.025c-.103-.032-.402-.228-1.107-.075-.577.126-2.568 1.23-2.818 5.873a20.805 20.805 0 0 0-.017 1.121c.015.187.125.55.144.879 0 .15.114.692-.096 1.037-.209.346-.342.438-.758.436-.671 0-.53-.825-.53-.825.027-.278.075-.56.092-.843.026-.413.013-.803.013-1.203v-1.166c-.138-4.195-3.943-4.44-5.457-3.496a3.551 3.551 0 0 0-1.398 1.331c-.339.58-.84 1.67-1.81 2.097-.776.342-1.097.112-1.882-.293-1.138-.589-2.693.177-2.938 1.346-.109.515-.284 1.291-1.011 1.106-.507-.129-.49-.9-.49-1.381.01-.263.002-.527-.026-.789-.211-2.022-.873-3.688-2.856-4.878-.802-.482-2.54-1.084-5.31.116-.374.159-1.073.209-1.495-.014-.26-.145-.5-.32-.72-.52a8.975 8.975 0 0 1-1.08-1.233c-.105-.13-.548-.688-.68-.815a12.796 12.796 0 0 0-2.244-1.734c-.284-.187-.56-.307-.844-.486a5.894 5.894 0 0 0-.253-.148v12.256c0 1.028.73 2.29 1.619 2.803l14.552 8.411c.89.516 2.346.516 3.236 0l14.554-8.4c.89-.513 1.617-1.775 1.615-2.803l-.005-7.71z" fill="#5E464D"/><path d="M22.57 18.965c-1.005.582-2.651.582-3.657 0l-14.882-7.85c.169.167 15.091 8.835 15.091 8.835.89.516 2.346.516 3.236 0 0 0 14.902-8.642 15.07-8.809l-14.857 7.824zM18.889 1.835c1.007-.575 2.652-.575 3.66.002l1.803.748c-.168-.167-2.015-1.363-2.015-1.363-.89-.514-2.344-.516-3.233 0 0 0-2.95 1.733-3.116 1.897l2.9-1.284z" fill="#fff"/></svg>