<svg width="26" height="26" fill="none" xmlns="http://www.w3.org/2000/svg"><g clip-path="url(#a)"><path d="M16.493 7.715h.792l2.26-2.26.111-.96C15.45.782 9.031 1.183 5.318 5.389A10.156 10.156 0 0 0 3.13 9.452c.251-.103.53-.12.793-.047l4.52-.746s.229-.38.35-.357a5.638 5.638 0 0 1 7.715-.587h-.015z" fill="#EA4335"/><path d="M22.765 9.452a10.173 10.173 0 0 0-3.068-4.948l-3.172 3.172a5.639 5.639 0 0 1 2.07 4.473v.563a2.824 2.824 0 0 1 0 5.647h-5.647l-.563.57v3.388l.563.563h5.647a7.343 7.343 0 0 0 7.399-7.285 7.345 7.345 0 0 0-3.229-6.143z" fill="#4285F4"/><path d="M7.295 22.844h5.646v-4.52H7.295c-.403 0-.8-.087-1.166-.254l-.793.246-2.275 2.26-.199.793a7.288 7.288 0 0 0 4.433 1.475z" fill="#34A853"/><path d="M7.295 8.183a7.342 7.342 0 0 0-4.433 13.163l3.275-3.274a2.824 2.824 0 0 1 2.323-5.146 2.83 2.83 0 0 1 1.411 1.41l3.275-3.274a7.326 7.326 0 0 0-5.851-2.88z" fill="#FBBC05"/></g><defs><clipPath id="a"><path fill="#fff" d="M0 0h26v26H0z"/></clipPath></defs></svg>