<svg width="41" height="41" fill="none" xmlns="http://www.w3.org/2000/svg"><g clip-path="url(#a)"><g clip-path="url(#b)"><path d="M25.47 2.106 27.588.713l-1.01 3.107L31.46.885c.136.851-.568 1.408-.597 2.351L33.824.75v1.867L36.613.71l-1.128 3.046.147.16L40.226.777c-.69 2.385-.288 4.612-.07 6.837.19 1.915.072 3.786-.819 5.545a6.386 6.386 0 0 1-1.895 2.29c2.19-.125 2.823.481 2.823 2.614v12.289c-.006 6.006-4.318 10.333-10.308 10.338-6.462.007-12.923.007-19.384 0C4.586 40.69.275 36.355.27 30.347c-.005-6.428-.005-12.856 0-19.284 0-6.59 5.26-11.165 11.772-10.247 1.959.276 3.911.204 5.987-.126l-1.108 1.758L21.671.69c-.426 1.075-.608 2.064-1.028 3.072l4.21-2.887c.54-.008.203.418.31.627.108.21-.244.633.307.604z" fill="#000"/><path d="M25.472 2.106c-.24.297-.36.216-.422-.125-.068-.367.187-.791-.195-1.103.271-.3.346-.14.4.156.064.36-.205.787.217 1.072z" fill="#858585"/><path d="M9.65 25.483c-.207 1.402-.695 2.727-1.149 4.06-.597 1.436-.757 2.839.33 4.143.543.644 1.296.866 2.08.962.583.071 1.178.041 1.77.056.55.204 1.076-.068 1.615-.081.388-.073.777-.15 1.163-.238.029 0 .33.181.16-.125a91.374 91.374 0 0 0 10.025-3.153c3.768-1.416 6.148-4.017 7.341-7.795.07-.218.178-.423.268-.634a1.12 1.12 0 0 0 .37-1.177c-1.071.49-2.05 1.145-3.068 1.726a28.28 28.28 0 0 1-5.913 2.599c-.552.165-.769.125-.675-.56.1-.826.132-1.658.093-2.489-.015-.493.172-.69.609-.846 4.4-1.567 8.702-3.374 12.955-5.299.438-.198.86-.39 1.268.045.17.41.168.841.168 1.276 0 4.322-.017 8.645.013 12.967 0 .805-.35 1.553-.25 2.357-.955 3.027-2.939 5.022-5.972 5.97-8.391.382-16.782.382-25.171 0-3.026-.956-5.015-2.947-5.969-5.971-.38-8.391-.38-16.781 0-25.171.978-3.687 5.023-6.796 9.292-6.382 1.608.157 3.21.4 4.977.234l-1.692 2.555 3.381-1.19c.275 0 .58.098.724-.26.434-.186.927-.69 1.315-.35.358.315-.135.83-.25 1.249-.213.753-.491 1.484-.79 2.367l4.803-3.202c.704 0 .335.697.627.965.52 0 .744-.668 1.421-.553l-.845 2.652 4.933-3.003-1.503 3.607.119.098 4.41-3.805c.09.074.163.104.17.145.073.409-.265.991.088 1.194.417.241.589-.488 1.002-.611.17-.05.31-.197.679-.444l-.863 2c-.358.144-.262.451-.262.725l-.193.678 5.6-3.806v2.336c-.207.408 0 .847-.1 1.181.006.216.231.1.098.106-.008 0-.008-.011-.015-.028a.655.655 0 0 1 .06-.72c.425 2.66.766 5.308-1.018 7.674-.524.268-.87.72-1.21 1.178-.917.76-2.06 1.037-3.144 1.426-1.905.684-3.84 1.278-5.855 1.56-.382-.194-.72.07-1.082.102-.271.013-.544 0-.816.028-.132.035.027.227-.011.099-.017-.05 0-.074.044-.084.182-.041.363-.07.512.088-2.563.566-5.126.478-7.688 0a.549.549 0 0 1 .52-.11c-.155.03-.518-.111-.867.07-.296.016-.591.024-.848-.162.044-.092.164-.073.218-.152-.183.068-.395-.03-.566.1a12.188 12.188 0 0 1-4.651-1.618 6.03 6.03 0 0 1-1.65-1.488c-.383-.502-.643-.574-1.184-.285a5.176 5.176 0 0 1-2.069.635c-.435.528.045.725.354.983.992 1.076 1.314 2.428 1.57 3.808a.607.607 0 0 0-.076.35c0 .086.032.185-.073.24.137-.025.09-.202.201-.25.187.258.183.553.16.852-.147.546.103 1.087.014 1.632v1.667c.08.444-.2.864-.032 1.297z" fill="#F8E432"/><path d="M11.648 23.5c-.573.166-.752-.125-.78-.888-.06-2.279-.51-4.484-1.558-6.537-.083-.162-.446-.388-.05-.54.257-.098.545-.449.884-.047.834.99 1.928 1.622 3.101 2.116.37.154.463.464.564.768.445 1.33.664 2.708.852 4.094.071.535-.044.799-.643.817-.73.022-1.459.13-2.37.217z" fill="#FEFEFE"/><path d="M14.875 18.216c.655.168 1.2.297 1.737.45.537.153 1.356-.042 1.604.545.395.931.581 1.957.803 2.954.066.301-.277.303-.501.345-.845.16-1.818.65-2.505.387-.751-.293-.395-1.478-.595-2.26-.194-.759-.349-1.53-.543-2.42z" fill="#FDFDFD"/><path d="M1.713 8.105c.458.581-.05 1.144-.05 1.719.024 7.243.024 14.488 0 21.733 0 .575.51 1.137.048 1.718-.33-.85-.42-1.74-.418-2.645V10.75c-.001-.904.089-1.794.42-2.645zM7.682 39.248c.55-.442 1.075.059 1.62.055 7.311-.035 14.622-.035 21.934 0 .545 0 1.071-.502 1.62-.057-.852.336-1.742.418-2.645.418H10.328c-.904.002-1.795-.082-2.646-.416z" fill="#FBF636"/><path d="M19.31 19.123c.848.057 1.584.056 2.302.168 1.03.16.814 1.149 1.044 1.799.221.628-.423.532-.752.621-1.796.489-1.796.48-2.232-1.279-.104-.417-.229-.823-.361-1.31z" fill="#FBFBFB"/><path d="M38.827 33.277c-.462-.712.073-1.404.063-2.116-.07-4.803-.054-9.606-.062-14.411 0-.024.042-.048.065-.073.445.241.351.668.351 1.053v13.016a6.871 6.871 0 0 1-.417 2.53z" fill="#FBF636"/><path d="M26.312 19.939c.11.305-.075.344-.223.4-.615.235-1.232.465-1.85.697-.303.113-.558.195-.61-.293a3.306 3.306 0 0 0-.29-.941c-.176-.402-.049-.512.358-.525a8.448 8.448 0 0 0 1.573-.154c.79-.176.823.462 1.042.816z" fill="#FBFBFB"/><path d="M29.62 18.791c-.007.211-.175.251-.329.308-.5.175-.99.376-1.468.601-.481.251-.553-.107-.704-.386-.268-.503.156-.454.412-.514.483-.117.974-.198 1.456-.315a.5.5 0 0 1 .634.306z" fill="#F2F2F2"/><path d="M8.833 33.684c-.933-.268-.784-1.147-.922-1.79-.18-.843.092-1.703.389-2.497.125-.319.125.087.203.146-.256 1.409-.515 2.819.33 4.14z" fill="#F4EB34"/><path d="M9.477 24.29v-1.803c.268-.376-.07-.86.216-1.234.263 1.293.326 2.586 0 3.88-.254-.233.019-.604-.216-.843z" fill="#FBEB33"/><path d="m15.626 34.258.393.043c-.562.217-1.127.44-1.74.377l-.072-.093.071-.092 1.348-.235z" fill="#F2EC35"/><path d="M36.666 14.695c.213-.588.493-1.106 1.21-1.178-.27.51-.693.923-1.21 1.178z" fill="#FDF838"/><path d="M33.627 21.5c.435.564-.028.968-.25 1.415l-.118-.237c-.025-.433.26-.78.368-1.178z" fill="#F6EF35"/><path d="M24.099 4.091c-.346-.232-.178-.798-.626-.965.159-.152.312-.405.54-.333.23.072.09.338.1.516.016.26-.007.522-.014.782z" fill="#FBF939"/><path d="M31.469 18.234c-.347.033-.602.476-.973.14-.036-.033.009-.242.04-.252.284-.055.579-.379.933.112z" fill="#D7D7D7"/><path d="m38.887 5.844-.08.864c-.118-.479-.293-.957.039-1.404l.041.54z" fill="#FEFC39"/><path d="M7.878 15.892c-.72-.331-.805-.564-.354-.983-.276.47.325.623.354.983z" fill="#FBF637"/><path d="M9.692 21.253c-.115.404.15.879-.216 1.234.084-.527-.19-1.097.184-1.592l.032.358z" fill="#FEFE39"/><path d="M14.273 34.683c-.527.314-1.058.295-1.591.019l.55-.037c.336-.13.71-.123 1.041.018z" fill="#FEFD39"/><path d="M18.398 3.062c-.073.553-.369.49-.724.26.206-.164.46-.255.724-.26z" fill="#F2ED35"/><path d="M33.44 6.096c-.25-.364-.267-.643.262-.726l-.262.726z" fill="#F2EC35"/><path d="m26.31 17.914-.644-.08v-.141h1.002c.203-.104.219.01.195.17l-.553.05z" fill="#FEFC38"/><path d="M18.273 17.879c.376-.327.788-.167 1.199-.036l-.852.076-.347-.04z" fill="#FEFD39"/><path d="M31.55 17.988c.264-.403.627-.32 1.147-.573-.391.593-.688.662-1.146.573z" fill="#CFCFCF"/><path d="m26.863 17.862-.195-.17c.328-.297.66-.292.994-.01-.274.022-.492.295-.799.18z" fill="#FEFE39"/><path d="M9.477 24.29c.297.222.147.561.22.843-.014.116-.03.233-.046.35-.323-.36-.115-.796-.174-1.193z" fill="#FEFD38"/><path d="m14.272 34.683-1.042-.018c.327-.178.684-.175 1.042-.167v.185z" fill="#F8E432"/><path d="M17.078 17.665c.228-.236.501-.194.936-.083l-.588.135-.348-.052z" fill="#FEFC39"/><path d="m9.5 20.043-.103.6c-.154-.428-.197-.694.05-.943l.052.343z" fill="#FEFC38"/><path d="M16.237 9.04c1.315.46 4.145 1.683 4.946 2.888m0 0L16.237 14.5m4.946-2.573c-1.711-.23-5.335-.603-6.136-.251M31.515 9.04c-1.314.46-4.145 1.683-4.946 2.888m0 0 4.946 2.573m-4.946-2.573c1.711-.23 5.335-.603 6.136-.251" stroke="#000" stroke-linejoin="round"/><path d="M11.129 34.925h1.127a1.2 1.2 0 0 1-1.127 0z" fill="#FEF836"/></g></g><defs><clipPath id="a"><path fill="#fff" transform="translate(.27 .98)" d="M0 0h40v40H0z"/></clipPath><clipPath id="b"><path fill="#fff" transform="translate(.27 .691)" d="M0 0h40v40H0z"/></clipPath></defs></svg>