<svg width="26" height="24" fill="none" xmlns="http://www.w3.org/2000/svg"><path fill-rule="evenodd" clip-rule="evenodd" d="m13.002 23.975 4.774-14.734H8.228l4.774 14.734z" fill="#E24329"/><path fill-rule="evenodd" clip-rule="evenodd" d="M13 23.975 8.228 9.241h-6.69L13 23.975z" fill="#FC6D26"/><path fill-rule="evenodd" clip-rule="evenodd" d="M1.536 9.241.086 13.72a.993.993 0 0 0 .359 1.108L13 23.975 1.536 9.241z" fill="#FCA326"/><path fill-rule="evenodd" clip-rule="evenodd" d="M1.536 9.241h6.69L5.352.367a.494.494 0 0 0-.94 0L1.536 9.241z" fill="#E24329"/><path fill-rule="evenodd" clip-rule="evenodd" d="m13.001 23.975 4.774-14.734h6.69L13.002 23.975z" fill="#FC6D26"/><path fill-rule="evenodd" clip-rule="evenodd" d="m24.466 9.241 1.45 4.478a.992.992 0 0 1-.359 1.108l-12.556 9.148L24.466 9.241z" fill="#FCA326"/><path fill-rule="evenodd" clip-rule="evenodd" d="M24.465 9.241h-6.69L20.65.367a.494.494 0 0 1 .94 0l2.875 8.874z" fill="#E24329"/></svg>