<svg width="26" height="26" fill="none" xmlns="http://www.w3.org/2000/svg"><path fill-rule="evenodd" clip-rule="evenodd" d="M12.733 10.343c-1.086.276-1.827.483-2.895.76-.259.069-.276.086-.5-.173-.259-.293-.448-.483-.81-.656-1.086-.535-2.137-.38-3.12.259-1.171.76-1.774 1.881-1.757 3.28.017 1.38.965 2.519 2.326 2.709 1.172.155 2.154-.26 2.93-1.14.155-.19.293-.396.465-.638H6.046c-.362 0-.448-.224-.327-.518.224-.535.637-1.432.879-1.88a.465.465 0 0 1 .43-.277h6.273c-.034.466-.034.932-.103 1.398a7.366 7.366 0 0 1-1.413 3.382c-1.24 1.64-2.86 2.658-4.912 2.934-1.688.225-3.257-.103-4.635-1.139-1.276-.966-2-2.243-2.189-3.831-.224-1.881.328-3.572 1.465-5.057 1.223-1.605 2.843-2.623 4.825-2.985 1.62-.294 3.171-.104 4.567.845.913.604 1.568 1.433 1.999 2.434.103.155.035.241-.172.293z" fill="#327C99"/><path d="M18.437 19.887c-1.568-.034-2.999-.483-4.205-1.519-1.017-.88-1.654-2.002-1.861-3.33-.31-1.95.224-3.676 1.396-5.212 1.258-1.657 2.774-2.52 4.825-2.882 1.758-.311 3.412-.138 4.911.88 1.362.932 2.206 2.191 2.43 3.848.293 2.33-.379 4.228-1.982 5.85-1.137 1.157-2.533 1.882-4.136 2.21-.465.086-.93.103-1.378.155zm4.101-6.972c-.017-.224-.017-.397-.051-.57-.31-1.708-1.879-2.675-3.516-2.295-1.603.362-2.637 1.38-3.016 3.003-.31 1.346.345 2.71 1.586 3.262.947.414 1.895.362 2.809-.104 1.361-.707 2.102-1.812 2.188-3.296z" fill="#327C99"/></svg>