<svg width="41" height="40" fill="none" xmlns="http://www.w3.org/2000/svg"><path d="M37.304 33.933c0 2.53-2.056 4.666-4.586 4.666h-.554c-2.372-.317-4.112-2.452-4.033-4.824V6.255c-.079-2.371 1.66-4.427 4.033-4.823 2.53-.316 4.824 1.503 5.14 4.033v28.468z" fill="#F9AB00"/><path d="M8.283 29.426a4.59 4.59 0 0 1 4.586 4.586A4.59 4.59 0 0 1 8.283 38.6a4.59 4.59 0 0 1-4.587-4.587c-.079-2.53 2.056-4.586 4.587-4.586zm12.099-13.997c-2.53.158-4.508 2.293-4.508 4.824v12.415c0 3.321 1.503 5.377 3.638 5.852 2.53.474 4.903-1.108 5.456-3.638.08-.316.08-.633.08-.949V20.095c0-2.531-2.057-4.666-4.587-4.666h-.08z" fill="#E37400"/></svg>