<svg fill="none" xmlns="http://www.w3.org/2000/svg" viewBox="0 0 30 43"><path d="M8.05 31.99a41.2 41.2 0 0 1 3.27 4.93c.84 1.61 1.18 2.7 1.8 4.65.36 1.07.71 1.4 1.44 1.4.79 0 1.15-.55 1.43-1.4a26.34 26.34 0 0 1 1.73-4.55c2.73-5.24 7.18-8.96 9.69-14.06 0 0 1.65-3.12 1.65-7.49 0-4.06-1.63-6.9-1.63-6.9L8.06 32.03 8.05 32z" fill="#34A853"/><path d="M1.48 22.4c1.56 3.62 4.54 6.8 6.57 9.59l10.77-13S17.3 21 14.55 21A5.57 5.57 0 0 1 9 15.4a6.14 6.14 0 0 1 1.26-3.65c-7.92 1.2-7.48 3.15-8.8 10.65l.02.01z" fill="#FBBC04"/><path d="M18.95 1.3a14.4 14.4 0 0 1 8.47 7.27L18.82 19s1.26-1.5 1.26-3.65c0-3.2-2.65-5.62-5.52-5.62-2.72 0-4.27 2-4.27 2 .67-1.53 7.49-9.93 8.67-10.44z" fill="#4285F4"/><path d="M3.45 5.89a14.3 14.3 0 0 1 15.47-4.6L10.3 11.74c-.6-.34-6.28-4.84-6.85-5.87v.02z" fill="#1A73E8"/><path d="M1.48 22.4S.07 19.55.07 15.44c0-3.9 1.5-7.31 3.38-9.52l6.85 5.86L1.5 22.4h-.02z" fill="#EA4335"/></svg>