<svg width="41" height="41" fill="none" xmlns="http://www.w3.org/2000/svg"><g clip-path="url(#a)"><path d="M39.978 17.726a13.412 13.412 0 0 0-.43-2.251c-.24-.83-.6-1.745-1.126-2.693a14.939 14.939 0 0 0-2.095-2.886c-.347-.377-.73-.743-1.137-1.099.61-2.186-.743-4.082-.743-4.082-2.335-.129-3.819.657-4.37 1.013-.096-.033-.18-.076-.275-.108-.395-.14-.802-.28-1.233-.399-.42-.118-.85-.226-1.293-.323a18.244 18.244 0 0 0-1.341-.237c-.084-.01-.156-.021-.24-.032C24.678 1.7 21.756.472 21.756.472c-3.268 1.863-3.879 4.47-3.879 4.47l-.036.15c-.18.043-.359.097-.538.14-.252.065-.503.151-.743.237-.251.086-.49.172-.742.27-.49.193-.982.409-1.46.646-.468.237-.923.495-1.366.764l-.12-.043c-4.525-1.55-8.536.313-8.536.313-.37 4.33 1.808 7.054 2.24 7.55a17.088 17.088 0 0 0-1.042 3.834c-.024.15-.048.302-.06.452C1.284 21.12.05 24.921.05 24.921c3.484 3.608 7.555 3.834 7.555 3.834l.012-.011c.515.83 1.113 1.616 1.784 2.359.287.312.574.603.886.894-1.27 3.274.18 5.988.18 5.988 3.878.13 6.428-1.53 6.967-1.906.383.118.778.226 1.174.312 1.197.28 2.418.442 3.64.485.299.01.61.021.91.01h.43l.192-.01v.01c1.831 2.348 5.04 2.682 5.04 2.682 2.287-2.164 2.419-4.319 2.419-4.782v-.194a13.708 13.708 0 0 0 3.747-3.49l.18-.258c2.586.13 4.417-1.443 4.417-1.443-.43-2.423-1.963-3.608-2.286-3.834-.324-.226-.012-.011-.036-.022-.024-.01-.024-.021-.024-.021-.012-.011-.036-.022-.06-.033l.036-.441c.024-.259.024-.528.024-.786v-.41l-.012-.161-.012-.216c0-.075-.012-.14-.024-.204-.012-.065-.012-.14-.024-.205l-.024-.205-.036-.204a9.46 9.46 0 0 0-.167-.797 10.013 10.013 0 0 0-1.318-2.93 10.229 10.229 0 0 0-2.19-2.348 11.234 11.234 0 0 0-2.766-1.605 11.85 11.85 0 0 0-4.598-.85h-.383l-.191.01c-.072 0-.144.011-.204.011a8.997 8.997 0 0 0-.778.097c-1.03.172-2 .506-2.85.97a8.57 8.57 0 0 0-2.19 1.68 7.563 7.563 0 0 0-1.39 2.11 6.8 6.8 0 0 0-.55 2.262c-.012.184-.012.377-.012.56v.14l.012.151c.012.086.012.183.024.27.036.377.12.743.228 1.087.227.7.586 1.336 1.03 1.874.442.539.98.98 1.544 1.336a6.766 6.766 0 0 0 3.532.98h.31c.037 0 .073 0 .108-.01.06 0 .12-.012.18-.012.012 0 .036 0 .048-.01l.06-.011c.036 0 .072-.01.108-.01l.203-.033a.977.977 0 0 0 .192-.043c.131-.022.251-.065.37-.097.24-.076.48-.162.683-.259.216-.097.407-.215.599-.323.048-.032.108-.064.155-.108.192-.14.228-.398.072-.57a.475.475 0 0 0-.562-.097l-.144.064a4.13 4.13 0 0 1-1.377.356c-.048 0-.096.01-.155.01h-.288c-.06 0-.12 0-.18-.01H24.2c-.024 0-.06 0-.084-.011-.06-.01-.108-.01-.168-.021a5.055 5.055 0 0 1-1.305-.345 4.652 4.652 0 0 1-1.209-.711 4.236 4.236 0 0 1-.946-1.066 3.835 3.835 0 0 1-.514-1.336 3.657 3.657 0 0 1-.048-.721c0-.065.012-.13.012-.194v-.087c0-.032.011-.064.011-.096.012-.13.036-.259.06-.388.204-1.034.779-2.046 1.665-2.811a6.59 6.59 0 0 1 .718-.528c.251-.162.527-.302.814-.42a5.997 5.997 0 0 1 2.299-.463h.37l.133.01c.347.022.682.065 1.017.14.67.13 1.33.356 1.94.658 1.221.614 2.263 1.561 2.897 2.703a5.6 5.6 0 0 1 .659 1.82c.024.162.047.323.06.485l.011.118.012.119v.463c0 .075-.012.205-.012.28a7.887 7.887 0 0 1-.06.528c-.023.172-.06.344-.095.517a6.353 6.353 0 0 1-.132.506 8.38 8.38 0 0 1-.36 1.002 8.546 8.546 0 0 1-1.124 1.841c-.922 1.142-2.18 2.068-3.616 2.66a9.465 9.465 0 0 1-2.251.614 8.443 8.443 0 0 1-1.173.108h-.599c-.215 0-.419-.01-.634-.032a13.774 13.774 0 0 1-2.479-.399 13.397 13.397 0 0 1-2.322-.84c-1.473-.71-2.802-1.68-3.832-2.854a11.042 11.042 0 0 1-1.34-1.874 10.48 10.48 0 0 1-.886-2.057 10.332 10.332 0 0 1-.408-2.165l-.011-.14v-.959a11.645 11.645 0 0 1 .299-2.207c.084-.367.18-.733.3-1.099.227-.722.514-1.422.85-2.079.682-1.314 1.568-2.488 2.633-3.425.263-.237.539-.452.826-.667.288-.205.587-.399.898-.582.3-.183.623-.345.946-.495.156-.076.323-.151.49-.216l.252-.097.252-.097c.335-.129.682-.237 1.041-.334.084-.021.18-.043.264-.075.084-.022.18-.043.263-.065.18-.043.36-.086.539-.118.084-.022.18-.032.275-.054.096-.022.18-.032.276-.054.095-.01.18-.032.275-.043l.132-.021.143-.022c.096-.01.18-.022.276-.032l.31-.033c.085-.01.228-.021.312-.032.06-.01.132-.01.192-.021l.132-.011.06-.011h.071c.108-.01.204-.01.311-.022l.156-.01h.12c.084 0 .18-.011.263-.011a15.63 15.63 0 0 1 6.8 1.314 14.938 14.938 0 0 1 3.03 1.777c.06.043.107.086.167.13.048.042.108.085.156.129.108.086.203.172.311.258.108.086.204.172.3.258.095.087.191.173.287.27.371.355.718.71 1.03 1.077a13.792 13.792 0 0 1 1.52 2.143l.072.13.072.129c.047.086.095.172.131.258.048.086.084.162.132.248.036.086.084.161.12.248.143.323.287.635.395.926.18.474.311.894.419 1.26.036.15.191.248.359.226.18-.01.311-.14.311-.301.012-.388 0-.851-.06-1.38z" fill="url(#b)"/></g><defs><linearGradient id="b" x1="20.044" y1=".396" x2="20.044" y2=".471" gradientUnits="userSpaceOnUse"><stop stop-color="#F05A28"/><stop offset="1" stop-color="#FBCA0A"/></linearGradient><clipPath id="a"><path fill="#fff" transform="translate(.05 .02)" d="M0 0h40v40H0z"/></clipPath></defs></svg>