<svg width="36" height="41" fill="none" xmlns="http://www.w3.org/2000/svg"><path d="m2.003 30.613 1.468.847L19.83 3.127 18.36 2.28 2.003 30.613z" fill="#E535AB"/><path d="M34.384 28.35H1.667v1.695h32.717V28.35z" fill="#E535AB"/><path d="m2.314 29.303 16.365 9.448.848-1.468-16.365-9.449-.848 1.469zM16.53 4.678l16.365 9.448.847-1.468-16.364-9.449-.848 1.469z" fill="#E535AB"/><path d="m2.319 12.65.847 1.47 16.365-9.45-.848-1.468L2.32 12.651z" fill="#E535AB"/><path d="m16.234 3.128 16.359 28.333 1.468-.848L17.703 2.28l-1.469.848zM4.66 11.526H2.963v18.897h1.695V11.526z" fill="#E535AB"/><path d="M33.097 11.526H31.4v18.897h1.696V11.526z" fill="#E535AB"/><path d="m17.65 36.75.74 1.282 14.233-8.217-.74-1.283L17.65 36.75z" fill="#E535AB"/><path d="M35.344 30.975a3.57 3.57 0 0 1-4.873 1.307 3.57 3.57 0 0 1-1.307-4.872 3.57 3.57 0 0 1 4.872-1.308 3.555 3.555 0 0 1 1.308 4.873zM6.886 14.54a3.57 3.57 0 0 1-4.872 1.307 3.57 3.57 0 0 1-1.308-4.873A3.57 3.57 0 0 1 5.58 9.667a3.573 3.573 0 0 1 1.307 4.872zM.717 30.975a3.573 3.573 0 0 1 1.307-4.873 3.573 3.573 0 0 1 4.872 1.308 3.573 3.573 0 0 1-1.307 4.872 3.568 3.568 0 0 1-4.872-1.307zM29.174 14.54a3.573 3.573 0 0 1 1.308-4.873 3.573 3.573 0 0 1 4.872 1.307 3.573 3.573 0 0 1-1.307 4.873 3.57 3.57 0 0 1-4.873-1.308zM18.03 40.974a3.562 3.562 0 0 1-3.565-3.564 3.562 3.562 0 0 1 3.565-3.565 3.562 3.562 0 0 1 3.565 3.565 3.568 3.568 0 0 1-3.565 3.565zM18.03 8.104a3.562 3.562 0 0 1-3.565-3.565A3.562 3.562 0 0 1 18.03.975a3.562 3.562 0 0 1 3.565 3.564 3.562 3.562 0 0 1-3.565 3.565z" fill="#E535AB"/></svg>