<svg width="40" height="41" fill="none" xmlns="http://www.w3.org/2000/svg"><path d="M20.234 1.3C9.35 1.114.192 9.524.005 19.989-.229 31.301 7.947 39.751 19.3 39.891c11.96.187 20.51-7.663 20.697-18.969C40.184 10.13 31.54 1.533 20.234 1.3zm-.233 32.612c-7.009 0-13.082-6.074-13.175-13.082C6.732 13.402 12.619 7.375 20 7.375c7.241 0 13.175 5.888 13.175 13.222 0 7.101-6.12 13.363-13.175 13.315z" fill="#C62129"/><path d="M26.775 18.12c-1.075-.373-1.028.842-1.355 1.495-.234.468-.047 1.122-.841 1.355l-1.875-7.375c-.14-.513-.234-1.168-.982-1.028-.56.094-.56.655-.654 1.121l-.467 2.75-1.3 7.015c-.794-1.688-1.075-3.364-1.542-4.999-.28-.981.047-2.662-1.122-2.803-1.26-.14-1.215 1.542-1.687 2.476-.654 1.215-.794 3.13-2.99 1.589-.514-.374-1.215.094-1.589.654-.373.514-.28 1.075.094 1.542.42.56.981.7 1.635.468 1.688-.608 3.738-.7 4.111-3.177.841 2.803 1.448 5.466 2.103 8.176.14.56.093 1.402.887 1.448.982 0 .888-.934.982-1.589l1.588-9.343h.468l1.495 5.793c.14.514.233 1.215.887 1.262.654.046.608-.888.982-1.17.934-.7-.514-3.457 2.195-2.562.047 0 .28-.326.28-.513.094-1.17-.327-2.196-1.308-2.563l.005-.022z" fill="#88888A"/></svg>