<svg width="40" height="41" fill="none" xmlns="http://www.w3.org/2000/svg"><g clip-path="url(#a)"><path d="m19.983 15.403-4.156-4.699" stroke="#284A6A" stroke-width=".26" stroke-miterlimit="10"/><path d="m6.875 11.79 3.253 4.75" stroke="#284A6A" stroke-width=".13" stroke-miterlimit="10"/><path d="m19.983 15.403 9.85 1.13m-9.85-1.124 4.111-4.75-4.11 4.75zm4.97 5.242 4.88-4.111-4.88 4.111zm0-.006 4.88 4.292-4.88-4.292zm-.813 9.714-4.156-4.608 4.156 4.608zm-8.313 0 4.157-4.608-4.157 4.608zm-5.693-5.603 4.698-4.111-4.698 4.111zm0-8.224 4.7 4.112-4.7-4.112zm9.85-1.13-9.85 1.13 9.85-1.13zM24.953 20.645l-.812 9.714m.812-9.714-.86-9.986.86 9.986zM10.134 24.755l9.85 1m9.848-.818-9.85.812 9.85-.812zM15.827 10.705l-1 9.94m1 9.714-1-9.714 1 9.714z" stroke="#284A6A" stroke-width=".26" stroke-miterlimit="10"/><path d="m16.911 5.193 7.183 5.466M5.616 17.798l4.518-1.265-4.518 1.265zm5.466-10.481 4.75 3.388-4.75-3.388zm5.83-2.124-1.085 5.512 1.084-5.512zM29.832 16.533l4.609 1.265M23.01 5.193l1.084 5.466-1.084-5.466zm5.829 2.124-4.75 3.343 4.75-3.343zm4.247 4.472-8.992-1.13 8.992 1.13zm-3.253 4.744 3.253-4.75-3.253 4.75zM23.01 5.193l-7.184 5.512m14.006 5.828 4.52 6.867-4.52-6.867zM29.832 24.936l4.52-1.536m-4.52-6.867-1-9.217 1 9.217z" stroke="#284A6A" stroke-width=".13" stroke-miterlimit="10"/><path d="m24.14 30.36 4.699 3.433m.994-8.856 4.608-7.14-4.609 7.14zm0 0 3.253 4.382-3.253-4.382zm0 0-1 8.855 1-8.855zM15.827 30.36l1.084 5.562m7.229-5.563 8.946-1.04-8.946 1.04zm0 0-1.078 5.55 1.078-5.55zm0 0-7.229 5.55 7.229-5.55zM10.134 24.756l-3.259 4.608m8.952.995 7.236 5.55-7.236-5.55zm.006 0-4.75 3.434 4.75-3.434zm0 0-8.958-.995 8.958.995zM10.134 16.533 5.57 23.355m4.563 1.401.948 9.036-.948-9.036zm0 0-4.563-1.4 4.563 1.4zM11.082 7.317l-.948 9.217m0 8.222L5.615 17.8l4.519 6.957zM6.875 11.789l8.946-1.084" stroke="#284A6A" stroke-width=".13" stroke-miterlimit="10"/><path d="m16.911 5.193-6.099-1.671m.27 3.795L7.604 5.69l3.478 1.627zm0 0-.27-3.795.27 3.795zM23.01 5.193l-5.015-3.846m-1.084 3.846-2.62-3.208 2.62 3.208zm0 0 1.084-3.846-1.084 3.846zm-5.829 2.124 3.208-5.332-3.207 5.332zM28.839 7.316l-3.214-5.33M23.01 5.192l-1.135-3.976 1.135 3.976zm-6.105 0 4.97-3.976-4.97 3.975zm6.105 0 2.62-3.208-2.62 3.207zM28.839 7.317l6.19.948m-6.19-.948.316-3.795-.316 3.795zM23.01 5.193l6.144-1.672-6.144 1.672zm5.829 2.124L32.4 5.509 28.84 7.317zM33.086 11.79l5.562 3.162m-5.562-3.163 1.942-3.523-1.942 3.523zm0 0-.678-6.28.678 6.28zm0 0 4.066-.316-4.066.316zM34.35 23.4l4.79-4.653m-4.7-.95 2.711-6.324-2.71 6.325zm0 0 4.203-2.845-4.202 2.846zm0 0 4.7.95-4.7-.95z" stroke="#24405D" stroke-width=".101" stroke-miterlimit="10"/><path d="m33.086 29.32 5.466-3.118M34.35 23.4l4.925-.903-4.925.903zm.09-5.602 4.835 4.699-4.834-4.7zm-.09 5.602 4.202 2.802L34.35 23.4zM33.092 29.32l-.723 6.234m.717-6.235 4.02.406-4.02-.406zm1.27-5.919 2.75 6.325-2.75-6.325zm-1.264 5.92 1.897 3.562-1.897-3.563zM28.839 33.792l-3.214 5.422m6.737-3.66-3.523-1.762 3.523 1.762zm-3.523-1.762.271 3.937-.271-3.937zm0 0 6.144-.904-6.144.904zM23.063 35.91l-5.06 4.065m5.06-4.066 2.562 3.298-2.563-3.298zm0 0 6.054 1.808-6.055-1.808zm0 0-1.188 4.066 1.188-4.066zM11.082 33.792l3.254 5.422m2.575-3.305 1.085 4.066-1.085-4.066zm0 0 4.964 4.066-4.964-4.066zm0 0-2.575 3.298 2.575-3.298zM6.875 29.364l.678 6.37m9.358.175-6.144 1.898 6.144-1.898zm-5.829-2.117-.316 4.021.316-4.021zm0 0L7.56 35.734l3.523-1.942zM5.57 23.355l-4.879-.858m10.391 11.295-6.188-.858 6.188.858zm-4.207-4.428-1.988 3.563 1.988-3.563zm0 0-4.066.406 4.066-.406zm0 0-5.596-3.117 5.596 3.117zm-1.304-6.009-4.292 2.892 4.292-2.892zM5.616 17.798.69 22.497m4.88.858-2.75 6.416 2.75-6.416zM5.616 17.798l-4.202-2.801m4.157 8.358L.69 18.747l4.88 4.608zM5.616 17.798l-2.802-6.325m2.802 6.325-4.925.949 4.925-.95zM6.875 11.79l.723-6.1m-.723 6.1-4.066-.317 4.066.316zm0 0-5.46 3.207 5.46-3.208zm0 0L4.937 8.446l1.938 3.342zM11.082 7.317l-6.145 1.13" stroke="#24405D" stroke-width=".101" stroke-miterlimit="10"/><path d="m12.414 22.994.033-4.75 4.753.033-.033 4.75-4.753-.034zm5.142-5.233.033-4.75 4.754.033-.034 4.75-4.753-.033zm-.001 10.419.033-4.75 4.753.033-.033 4.75-4.753-.033zm5.188-5.232.033-4.75 4.753.034-.033 4.75-4.753-.034z" fill="#256EA5"/><path d="m22.469 12.312.023-3.298 3.312.023-.023 3.298-3.312-.023zm-8.282 0 .024-3.3 3.312.024-.023 3.298-3.313-.023zm-5.732 5.874.023-3.298 3.313.023-.024 3.298-3.312-.023zm-.004 8.286.035-3.298 3.31.034-.034 3.298-3.31-.034zm19.749-.063.023-3.298 3.313.023-.024 3.298-3.312-.023zm.067-8.2.034-3.298 3.312.034-.035 3.299-3.311-.035z" fill="#3378BC"/><path d="m5.77 12.866.016-2.17 2.164.016-.015 2.168-2.164-.014zm4.232-4.414.015-2.169 2.164.015-.015 2.169-2.164-.015zm5.825-2.183.015-2.17 2.164.016-.015 2.169-2.164-.015zM4.497 18.872l.014-2.169 2.15.015-.015 2.169-2.15-.015zm27.495-8.145 2.169-.015.015 2.164-2.17.015-.014-2.164zm-4.233-4.488 2.168-.015.015 2.165-2.168.015-.015-2.165zM21.915 4.11l2.169-.015.015 2.165-2.169.015-.015-2.165zm11.337 12.617 2.17-.015.014 2.164-2.169.015-.015-2.164z" fill="#169BD6"/><path d="m14.142 32.097.023-3.298 3.313.023-.024 3.298-3.312-.023zm8.281 0 .023-3.298 3.313.023-.023 3.298-3.313-.023z" fill="#3378BC"/><path d="m31.977 30.428.015-2.169 2.165.015-.015 2.169-2.165-.015zm-4.186 4.459.015-2.17 2.165.016-.015 2.169-2.165-.015zm-5.825 2.137.015-2.169 2.165.015-.015 2.17-2.165-.016zm11.285-12.602.015-2.17 2.165.016-.015 2.169-2.165-.015zM5.775 28.259l2.169-.015.015 2.165-2.169.015-.015-2.165zm4.232 4.443 2.17-.015.014 2.164-2.168.015-.015-2.164zm5.798 2.128 2.169-.015.015 2.164-2.169.015-.015-2.164zM4.513 22.26l2.168-.016.015 2.165-2.168.015-.015-2.165z" fill="#169BD6"/><path d="m36.528 12.054.008-1.175 1.197.008-.008 1.175-1.197-.008zM38.074 15.603l.008-1.175 1.197.008-.008 1.175-1.197-.008zM34.435 8.914l.008-1.175 1.198.008-.008 1.175-1.198-.008zM7 6.23l.008-1.175 1.198.008-.008 1.175L7 6.23zM.13 19.332l.008-1.175 1.197.008-.008 1.175-1.198-.008zM31.796 6.23l.008-1.175 1.198.009-.008 1.175-1.198-.009zM.813 15.602l.008-1.175 1.197.008-.008 1.175-1.197-.008zM13.732 2.59l.009-1.174 1.197.008-.008 1.175-1.197-.008zM2.268 12.053l.008-1.175 1.197.008-.008 1.175-1.197-.008zM4.406 8.87l.008-1.176 1.198.008-.008 1.175-1.198-.008zM10.206 2.928l1.175-.008.008 1.197-1.175.008-.008-1.197zm7.258-2.31L18.639.61l.008 1.197-1.175.008-.008-1.197zM28.61 4.137l.009-1.175 1.197.009-.008 1.175-1.197-.009zM38.666 19.288l.008-1.175 1.198.008-.008 1.175-1.198-.008zM21.286 1.772l.008-1.175 1.197.008-.008 1.175-1.197-.008zM25.017 2.545l.008-1.175 1.198.008-.009 1.175-1.197-.008zM31.795 36.167l.008-1.175 1.198.009-.008 1.175-1.198-.009zM38.666 23.064l.008-1.175 1.198.008-.008 1.175-1.198-.008zM6.999 36.167l.008-1.175L8.204 35l-.008 1.175L7 36.167zM38.074 26.847l.008-1.175 1.197.008-.008 1.175-1.197-.008zM25.016 39.853l.008-1.175 1.197.008-.008 1.175-1.197-.008zM36.527 30.39l.008-1.176 1.198.008-.009 1.175-1.197-.008zM34.434 33.574l.009-1.175 1.197.008-.008 1.175-1.198-.008zM28.563 37.18l1.175-.008.008 1.198-1.175.008-.009-1.197zm-7.214 2.22 1.175-.009.008 1.198-1.175.008-.008-1.198zM10.23 38.397l.008-1.175 1.197.008-.008 1.175-1.198-.008zM2.222 30.343l.008-1.175 1.197.008-.008 1.175-1.197-.008zM.811 26.84l.008-1.175 1.198.008-.008 1.175L.81 26.84zM4.36 33.573l.007-1.175 1.198.008-.008 1.175-1.198-.008zM.13 23.064l.008-1.175 1.197.008-.008 1.175-1.198-.008zM17.509 40.58l.008-1.174 1.197.008-.008 1.175-1.197-.008zM13.688 39.807l.008-1.175 1.197.008-.008 1.175-1.197-.008z" fill="#00A8DA"/></g><defs><clipPath id="a"><path fill="#fff" transform="translate(0 .597)" d="M0 0h40v40H0z"/></clipPath></defs></svg>