<svg width="41" height="41" fill="none" xmlns="http://www.w3.org/2000/svg"><g clip-path="url(#a)"><path d="M40.766 29.43s-6.093-.9-9.313-1.159c-3.091-.248-6.755-.39-10.686-.39-3.93 0-7.594.142-10.685.39-3.22.262-9.312 1.512-9.312 1.512v1.571c0 1.397 8.954 2.531 19.997 2.531 11.044 0 19.998-1.134 19.998-2.53V29.43zM14.619 8.591a18.297 18.297 0 0 0-12.18 17.233v2.59a44.458 44.458 0 0 1 7.939-1.148 42.667 42.667 0 0 1-.028-1.502c.002-6.798 1.647-12.915 4.269-17.173z" fill="#F0D50C"/><path d="M39.094 25.824a18.191 18.191 0 0 0-4.183-11.63 37.852 37.852 0 0 1 1.735 11.571c0 .714-.018 1.42-.055 2.118.834.128 1.66.303 2.474.524l.03-2.583z" fill="#FFF04D"/><path d="M39.094 25.824a18.191 18.191 0 0 0-4.183-11.63 37.852 37.852 0 0 1 1.735 11.571c0 .714-.018 1.42-.055 2.118.834.128 1.66.303 2.474.524l.03-2.583z" fill="#FFEA00"/><path d="M34.91 14.192a18.368 18.368 0 0 0-20.29-5.6c-2.624 4.257-4.268 10.374-4.268 17.172 0 .505.01 1.006.028 1.503 2.73-.21 5.888-.34 9.271-.364h1.118a107.15 107.15 0 0 1 15.824.983c.035-.698.054-1.404.055-2.117a37.852 37.852 0 0 0-1.737-11.577z" fill="#FFF04D"/><path d="m28.14 15.402-1.162-7.244a1.397 1.397 0 0 0-.983-1.126 18.444 18.444 0 0 0-10.367 0c-.517.155-.9.593-.982 1.126l-1.162 7.244M20.77 26.749H19.65C9.126 26.822.77 27.926.77 29.276v1.957a.486.486 0 0 0 .069.33 4.68 4.68 0 0 1 1.802-.826 35.321 35.321 0 0 1 5.056-.845 3.39 3.39 0 0 1 2.653.864 7.144 7.144 0 0 0 4.819 1.869h11.195a7.145 7.145 0 0 0 4.82-1.869 3.388 3.388 0 0 1 2.653-.865c1.703.16 3.393.441 5.055.845a4.232 4.232 0 0 1 1.71.746c.028.03.061.055.087.08a.49.49 0 0 0 .07-.33v-1.958c.006-1.392-8.948-2.525-19.99-2.525z" fill="#FFF04D"/><path d="m24.981 20.938-4.217 2.59v3.365l4.217-5.955z" fill="#6E6F70"/><path d="M20.768 26.893v-3.365l-4.217-2.59 4.217 5.955zM16.55 19.4l4.218 2.434v-9.24L16.551 19.4z" fill="#0A0A0A"/><path d="m24.981 19.4-4.217-6.808v9.241L24.98 19.4z" fill="#6E6F70"/></g><defs><clipPath id="a"><path fill="#fff" transform="translate(.766 6.29)" d="M0 0h40v27.6H0z"/></clipPath></defs></svg>