<svg xmlns="http://www.w3.org/2000/svg" width="27" height="28"><rect width="100%" height="100%" fill="none"/><g class="currentLayer"><path d="M13.264.073a.421.421 0 0 1 .451-.015 1.206 1.206 0 0 1 .432.553 4.381 4.381 0 0 1 .325 1.35 6.267 6.267 0 0 1-.169 2.2 10.027 10.027 0 0 1 4.553 1.6 5.9 5.9 0 0 1 .945-1.7 4.584 4.584 0 0 1 1.283-1.178.935.935 0 0 1 .743-.14.575.575 0 0 1 .289.573 3.228 3.228 0 0 1-.368 1.3 6.149 6.149 0 0 1-1.663 2.1 10.136 10.136 0 0 1 1.825 2.208l-1.369.832a8.421 8.421 0 0 0-14.269-.2l-1.345-.869a10.156 10.156 0 0 1 1.832-2.109 6.333 6.333 0 0 1-1.432-1.847 3.486 3.486 0 0 1-.427-1.38.639.639 0 0 1 .232-.587.731.731 0 0 1 .65.038 3.688 3.688 0 0 1 1.123.885 6.33 6.33 0 0 1 1.2 1.9 10.035 10.035 0 0 1 4.591-1.46 6.318 6.318 0 0 1-.161-2.16 4.459 4.459 0 0 1 .313-1.33 1.287 1.287 0 0 1 .416-.564zM0 10.6h1.928v2.714h2.175v-2.713h1.929v7.288H4.103v-2.892H1.928v2.893H0zM7.604 10.6h4.709v1.614h-2.78v1.144h2.377v1.614H9.533v1.3h2.892v1.614H7.604zM13.867 10.6h1.928v5.673h2.756v1.614h-4.684zM19.817 10.6h2.063l.963 2.615c.212.544.349 1.111.526 1.666a.392.392 0 0 0 .078-.16c.112-.39.228-.782.351-1.17q.519-1.476 1.041-2.95h2.064v7.288h-1.752a33.054 33.054 0 0 1 .08-3.356c.044-.475.122-.947.162-1.423a.617.617 0 0 0-.111.227 105.107 105.107 0 0 1-1.436 3.961c-.342-.007-.684 0-1.026 0l-.883-2.374c-.172-.5-.338-1.01-.506-1.515a.746.746 0 0 0-.131-.292 25.97 25.97 0 0 1 .242 2.761v2.014h-1.725zM5.118 19.8l1.314-.915a8.422 8.422 0 0 0 13.833-.012l1.316.912a10.261 10.261 0 0 1-1.379 1.6 6.272 6.272 0 0 1 1.486 1.892 3.491 3.491 0 0 1 .427 1.377.62.62 0 0 1-.26.6.87.87 0 0 1-.743-.112 4.412 4.412 0 0 1-1.252-1.117 6.248 6.248 0 0 1-.949-1.616 9.967 9.967 0 0 1-4.56 1.632 6.086 6.086 0 0 1 .144 1.5 5.016 5.016 0 0 1-.308 1.748 1.38 1.38 0 0 1-.446.635.431.431 0 0 1-.507-.017 1.573 1.573 0 0 1-.467-.736 5.764 5.764 0 0 1-.251-2.212 5.659 5.659 0 0 1 .124-.892 10.024 10.024 0 0 1-4.606-1.494 6.44 6.44 0 0 1-1.348 1.964 2.942 2.942 0 0 1-1.057.716.531.531 0 0 1-.614-.124 1.139 1.139 0 0 1-.068-.864 5.449 5.449 0 0 1 1.004-1.983 6.044 6.044 0 0 1 .688-.759A10.423 10.423 0 0 1 5.118 19.8z" style="fill:#277a9f"/></g></svg>