<svg width="26" height="26" fill="none" xmlns="http://www.w3.org/2000/svg"><path d="M21.392 25.94H5.683c-1.343 0-2.433-1.11-2.433-2.475V2.473C3.25 1.108 4.339 0 5.683 0h15.709c1.343 0 2.433 1.107 2.433 2.473v20.992c0 1.366-1.09 2.474-2.433 2.474z" fill="#6762A6"/><path d="M16.144 22.37V12.069s.659-2.464-8.116 1.009c-.016.043-.016-9.526-.016-9.526l2.867-.017v6.132s8.028-3.216 8.028 2.437V22.37h-2.763zm1.634-15.127h-3.04c1.093-1.36 2.085-3.693 2.085-3.693h3.144s-.538 1.52-2.189 3.694zm-9.714 15.11v-5.867l2.885 2.933-2.885 2.933z" fill="#fff"/></svg>