<svg width="41" height="33" fill="none" xmlns="http://www.w3.org/2000/svg"><g clip-path="url(#a)"><path d="M9.29 28.873 6.712-.064h28.344l-2.578 28.921-11.618 3.22" fill="#E44D26"/><path d="M20.884 29.615V2.311H32.47l-2.211 24.687" fill="#F16529"/><path d="M11.977 5.85h8.907v3.546h-5.016l.328 3.633h4.688v3.54h-7.938l-.969-10.72zm1.125 12.5h3.563l.25 2.835 3.969 1.063v3.703l-7.282-2.031" fill="#EBEBEB"/><path d="M29.759 5.85h-8.89v3.546h8.562l.328-3.546zm-.649 7.18h-8.242v3.546h4.375l-.414 4.61-3.96 1.062v3.688l7.265-2.016" fill="#fff"/></g><defs><clipPath id="a"><path fill="#fff" transform="translate(.884 .076)" d="M0 0h40v32H0z"/></clipPath></defs></svg>