<svg width="41" height="41" fill="none" xmlns="http://www.w3.org/2000/svg"><g clip-path="url(#a)"><path d="M40.58.98h-40v40h40v-40z" fill="#599EC5"/><path d="M8.566 5.474c5.906-.051 12.326 5.617 13.655 11.895.134.622.224 1.253.27 1.888.39 6.881 3.209 11.76 10.578 13.096 1.856.333 1.162 2.028 1.156 3.17 0 1.516-1.162 1.15-2.112 1.009a15.74 15.74 0 0 1-13.686-14.605c-.476-6.984-2.98-10.143-9.983-12.081C6.55 9.319 6.987 8.093 6.91 6.893c-.083-1.368.77-1.573 1.656-1.419z" fill="#0B2645"/><path d="M23.755 16.137c-2.773-4.641-2.754-4.821.988-7.704a14.084 14.084 0 0 1 7.28-2.959c1.079-.109 2.253-.27 2.228 1.393 0 1.226.366 2.71-1.535 2.934-4.018.456-6.856 2.625-8.961 6.336z" fill="#0D2747"/><path d="M17.535 25.753c2.53 4.918 2.382 5.483-2.119 8.461a16.152 16.152 0 0 1-5.893 2.26c-.975.193-2.567.937-2.6-1.066-.032-1.284-.75-2.837 1.734-3.248 4.34-.719 5.643-1.913 8.878-6.407z" fill="#0C2747"/></g><defs><clipPath id="a"><path fill="#fff" transform="translate(.58 .98)" d="M0 0h40v40H0z"/></clipPath></defs></svg>