<svg width="26" height="26" fill="none" xmlns="http://www.w3.org/2000/svg"><path d="M26 8.635V23.75A2.25 2.25 0 0 1 23.757 26H2.243C.988 26 0 24.97 0 23.827V2.249C0 .991.988 0 2.243 0h21.4C24.898 0 26 1.081 26 2.301v6.334z" fill="#ED4969"/><path d="M18.131 9.15c1.445 0 2.585.99 2.585 3.011a7.06 7.06 0 0 1-.228 1.678l-.722 2.592c-.076.305-.152.496-.152.724 0 .42.228.725.494.725.342 0 .798-.305 1.292-1.678l.988.343c-.57 2.097-1.672 2.974-3.003 2.974-1.596 0-2.318-.953-2.318-2.25 0-.342.076-.724.152-1.143l.722-2.669c.076-.305.152-.572.152-.8 0-.877-.494-1.373-1.368-1.373-1.065 0-1.787.8-2.167 2.25l-1.444 5.832h-2.471l.418-1.868c-.722 1.22-1.787 2.02-3.079 2.02-1.52 0-2.243-.876-2.243-2.248 0-.343.076-.8.152-1.144l1.14-4.765H5.246L5.74 9.34h4.334l-1.71 6.786c-.153.42-.153.8-.153 1.067 0 .42.228.572.57.648h.152c.418 0 1.787-.228 2.585-1.944l1.14-4.536h-1.862l.57-2.021h3.877l-.494 2.326c.646-1.297 2.015-2.517 3.383-2.517zM9.046 7.93c-.874 0-1.52-.649-1.52-1.525 0-.877.722-1.525 1.52-1.525.875 0 1.52.648 1.52 1.525.077.876-.645 1.524-1.52 1.524z" fill="#fff"/></svg>