<svg width="26" height="26" fill="none" xmlns="http://www.w3.org/2000/svg"><path d="M12.012 10.74h2.01l.5-.687V4.677h-3.01v5.377l.5.686zM10.716 13.138l.62-1.909-.499-.686-5.122-1.661-.93 2.856L9.908 13.4l.808-.262zM12.6 15.11l-1.626-1.18-.809.262L7 18.542l2.434 1.765 3.166-4.35v-.848zM15.06 13.93l-1.626 1.179v.848l3.166 4.35 2.434-1.766-3.166-4.35-.808-.262zM14.696 11.23l.622 1.908.808.262 5.122-1.662-.93-2.856-5.122 1.661-.5.686z" fill="#8A4182"/><path d="M13.018.01C5.86.01.039 5.823.039 12.965c0 7.146 5.822 12.958 12.979 12.958 7.155 0 12.977-5.812 12.977-12.958 0-7.142-5.822-12.953-12.978-12.953zm0 2.624c5.714 0 10.349 4.624 10.349 10.33 0 5.708-4.635 10.335-10.35 10.335-5.716 0-10.35-4.627-10.35-10.335 0-5.706 4.634-10.33 10.35-10.33z" fill="#8A4182"/><path d="m20.878 15.844-3.894-1.263.258-.792 3.893 1.263-.257.792zM15.912 9.604l-.675-.49 2.407-3.306.674.49-2.406 3.306zM10.164 9.573 7.758 6.267l.675-.49 2.406 3.307-.675.49zM5.14 15.794l-.257-.791 3.893-1.263.258.792-3.894 1.262zM12.574 21.224h.834v-4.087h-.834v4.087z" fill="#8A4182"/></svg>