<svg xmlns="http://www.w3.org/2000/svg" viewBox="0 0 40 40" fill="none"><path fill="#5382A1" d="M13.675 30.895s-1.547.887 1.1 1.187c3.207.36 4.847.308 8.382-.35 0 0 .928.573 2.226 1.071-7.923 3.347-17.933-.195-11.708-1.908zm-.968-4.367s-1.735 1.265.913 1.534c3.427.35 6.133.378 10.815-.51 0 0 .647.646 1.667 1-9.582 2.761-20.25.218-13.395-2.025"/><path fill="#E76F00" d="M20.867 19.117c1.953 2.216-.512 4.21-.512 4.21s4.957-2.522 2.68-5.68c-2.125-2.947-3.757-4.41 5.072-9.455 0 0-13.857 3.41-7.239 10.926"/><path fill="#5382A1" d="M31.347 34.125s1.145.93-1.26 1.65c-4.574 1.365-19.035 1.777-23.052.053-1.445-.618 1.263-1.478 2.117-1.658.886-.19 1.395-.155 1.395-.155C8.94 32.9.165 36.205 6.09 37.152c16.153 2.583 29.448-1.164 25.257-3.027zM14.418 22.002s-7.356 1.721-2.605 2.348c2.005.263 6.005.205 9.73-.103 3.044-.254 6.1-.792 6.1-.792s-1.071.453-1.85.977c-7.468 1.936-21.9 1.035-17.745-.945 3.514-1.675 6.37-1.484 6.37-1.484v-.001zm13.195 7.27c7.595-3.889 4.084-7.627 1.634-7.124-.6.124-.869.23-.869.23s.222-.343.649-.493c4.848-1.68 8.576 4.955-1.567 7.583 0 0 .118-.103.153-.196z"/><path fill="#E76F00" d="M23.035.043s4.207 4.147-3.988 10.522c-6.57 5.117-1.499 8.034-.002 11.364-3.837-3.41-6.65-6.414-4.762-9.209 2.77-4.102 10.45-6.09 8.752-12.677z"/><path fill="#5382A1" d="M15.165 39.812c7.288.46 18.482-.255 18.747-3.655 0 0-.51 1.288-6.025 2.311-6.22 1.155-13.894 1.02-18.445.28 0 0 .933.76 5.723 1.064z"/></svg>