<svg width="19" height="26" fill="none" xmlns="http://www.w3.org/2000/svg"><path d="M18.442 12.54c0 5.144-3.977 9.319-8.887 9.319-4.907 0-8.885-4.175-8.885-9.32 0-5.145 3.977-9.32 8.885-9.32 4.91 0 8.887 4.175 8.887 9.32z" fill="#D33833"/><path d="M1.035 14.847S.391 5.13 9.127 4.851l-.61-1.044L3.78 5.439 2.426 7.034 1.243 9.357.57 12.062l.202 1.808" fill="#EF3D3A"/><path d="M3.472 6.182A9.264 9.264 0 0 0 .95 12.575c0 2.5.967 4.756 2.522 6.395 1.562 1.64 3.705 2.647 6.084 2.647 2.38 0 4.523-1.008 6.085-2.647a9.263 9.263 0 0 0 2.522-6.394 9.262 9.262 0 0 0-2.522-6.394c-1.562-1.632-3.705-2.647-6.085-2.647-2.373 0-4.522 1.008-6.084 2.647zm-.393 13.177c-1.656-1.735-2.68-4.138-2.68-6.785 0-2.645 1.024-5.048 2.68-6.791C4.734 4.05 7.026 2.969 9.557 2.969c2.53 0 4.822 1.08 6.478 2.814 1.654 1.736 2.68 4.138 2.68 6.792 0 2.646-1.026 5.049-2.68 6.784-1.656 1.742-3.949 2.815-6.48 2.815-2.529 0-4.821-1.073-6.477-2.815z" fill="#231F20"/><path d="m13.297 12.59-1.354.207-1.829.213-1.182.03-1.153-.038-.882-.28-.78-.866-.61-1.772-.137-.382-.809-.279-.473-.802-.336-1.146.372-1.007.881-.316.71.346.336.764.41-.065.135-.178-.136-.802-.035-1.006.2-1.389-.008-.794.618-1.014 1.081-.802 1.891-.83L12.308.7l1.827 1.352.846 1.389.545 1.007.135 2.498-.408 2.154-.746 1.911-.702 1.022" fill="#F0D6B7"/><path d="m12.15 18.596-4.837.205v.831l.409 2.918-.2.242-3.383-1.183-.237-.419-.336-3.925-.796-2.352-.172-.559 2.708-1.91.846-.346.745.941.646.588.745.243.336.103.41 1.808.307.381.782-.278-.545 1.08 2.938 1.426-.366.206z" fill="#335061"/><path d="m4.125 6.483.88-.317.71.347.336.764.41-.066.1-.42-.201-.801.2-1.911-.17-1.043.608-.728 1.318-1.073-.372-.522-1.864.94-.78.625-.438.972-.674.94-.2 1.11.135 1.184" fill="#6D6B6D"/><path d="M5.515 3.22s.509-1.287 2.536-1.911c2.028-.625.1-.449.1-.449l-2.199.867-.846.867-.372.692.78-.066zM4.497 6.24s-.71-2.433 2-2.778l-.1-.419-1.864.449L3.99 5.3l.136 1.183.372-.243z" fill="#DCD9D8"/><path d="m5.58 9.467.444-.442s.201.022.237.266c.036.242.135 2.432 1.59 3.608.137.11-1.082-.176-1.082-.176l-1.082-1.735-.108-1.52zm6.227-.662s.079-1.05.358-.97c.28.081.28.368.28.368s-.673.441-.638.602zm2.81-3.85s-.56.116-.61.624c-.05.507.61.103.71.065l-.1-.69zm-4.093.036s-.745.103-.745.588.845.448 1.082.242l-.337-.83zm-4.6 2.257s-1.283-.802-1.42-.037c-.136.763-.437 1.315.201 2.117l-.436-.141-.409-1.073-.136-1.043.78-.83.883.065.509.42.028.522zm.609-2.19s.574-3.06 3.483-3.646c2.394-.486 3.654.103 4.127.66 0 0-2.135-2.6-4.163-1.808-2.028.802-3.519 2.257-3.483 3.19.057 1.603.036 1.603.036 1.603zm7.846-2.64s-.981-.037-1.017.867c0 0 0 .14.065.28 0 0 .78-.904 1.254-.419" fill="#F7E4CD"/><path d="M10.087 3.66s-.173-1.382-1.319-.58c-.745.521-.674 1.249-.545 1.389.137.14.101.419.2.227.102-.19.072-.816.445-.992.366-.176.983-.367 1.219-.043z" fill="#F7E4CD"/><path d="m6.905 13.039-3.182 1.455s1.319 5.38.645 7.05l-.472-.177-.036-2.051-.882-3.88-.373-1.074 3.319-2.294.981.971zm.323 2.977.45.566v2.08h-.537s-.065-1.455-.065-1.632c0-.177.065-.802.065-.802l.087-.212zm.014 2.962-1.527.065.437.317 1.084.177" fill="#49728B"/><path d="m12.451 18.632 1.255-.037.307 3.19-1.282.176-.28-3.329z" fill="#335061"/><path d="m12.788 18.632 1.892-.103s.78-2.014.78-2.117c0-.102.674-2.917.674-2.917l-1.526-1.633-.308-.278-.81.83v3.227l-.702 2.991z" fill="#335061"/><path d="m13.633 18.39-1.182.242.172.97c.437.207 1.182-.346 1.182-.346l-.172-.866zm.036-6.078 2.372 1.807.065-.83-1.792-1.698-.644.72" fill="#49728B"/><path d="m8.417 25.468-.703-2.918-.35-2.154-.058-1.595 3.174-.176h1.971l-.178 3.645.307 2.816-.035.522-2.573.206-1.555-.347" fill="#fff"/><path d="M12.014 18.596s-.171 3.608.337 6.181c0 0-1.017.66-2.5.83l2.844-.102.336-.206-.407-5.69-.108-1.22" fill="#DCD9D8"/><path d="m14.064 21.514 1.318-.383 2.502-.14.372-1.182-.674-2.051-.78-.103-1.083.346-1.031.52-.553-.102-.429.176" fill="#fff"/><path d="M14.042 20.815s.882-.419 1.018-.382l-.372-1.911.436-.177s.309 1.81.309 2.015c0 0 1.892.102 2.064.102 0 0 .408-.802.307-1.631l.373 1.11.036.624-.544.83-.61.14-1.017-.036-.336-.449-1.183.177-.373.14" fill="#DCD9D8"/><path d="m12.71 18.353-.745-1.94-.78-1.146s.17-.486.407-.486h.781l.745.28-.065 1.286-.343 2.006z" fill="#fff"/><path d="M12.86 17.691s-.946-1.874-.946-2.152c0 0 .172-.42.408-.317.237.103.746.383.746.383v-.661l-1.154-.244-.781.103 1.318 3.204.272.037" fill="#DCD9D8"/><path d="m8.719 13.113-.94-.103-.882-.28v.317l.43.484 1.355.625" fill="#fff"/><path d="M7.207 13.216s1.046.448 1.39.345l.035.418-.946-.205-.574-.419.095-.14" fill="#DCD9D8"/><path d="M14.064 14.898a6.11 6.11 0 0 1-1.548-.22c.029-.192-.028-.375.021-.514.13-.096.337-.096.531-.118a.894.894 0 0 0-.588-.066c-.007-.133-.065-.213-.1-.316.322-.118 1.083-.89 1.513-.639.207.125.292.815.307 1.16.014.28-.028.56-.136.713zm-2.745-.962c0 .043 0 .088-.007.132-.179.117-.466.117-.666.22.249.012.492.075.716.184-.007.11-.007.228-.014.338-.33.228-.63.574-1.018.794-.186.103-.824.368-1.017.316-.108-.03-.122-.17-.165-.302-.094-.278-.308-.734-.33-1.16-.021-.537-.079-1.442.488-1.331.469.1.92.268 1.34.5.222.132.343.279.674.31h-.001zm.322.64c-.05-.295-.107-.376-.085-.633.767-.521.903.897.087.632" fill="#D33833"/><path d="M11.641 14.575c-.05-.294-.107-.374-.085-.632.767-.521.903.897.086.632z" fill="#000" stroke="#D33833" stroke-width=".5"/><path d="M12.745 14.81s-.236-.345-.064-.448c.173-.103.338 0 .437-.177.1-.176 0-.278.036-.485.036-.206.2-.242.373-.279.172-.036.645-.102.71.065l-.201-.624-.409-.14-1.282.766-.065.382v.764l.466.176zm-3.553 1.146-.13-1.625c-.071-.807.187-.667.874-.667.109 0 .645.125.682.206.186.39-.309.301.214.596.437.241 1.22-.149 1.04-.699-.101-.126-.516-.037-.667-.118l-.795-.42c-.337-.176-1.112-.44-1.47-.19-.91.632.058 2.22.38 2.882" fill="#EF3D3A"/><path d="M10.087 3.66c-.924-.22-1.384.397-1.663 1.036-.25-.058-.15-.411-.086-.587.165-.464.831-1.089 1.376-1 .23.03.545.25.373.552zm4.494 1.073h.043c.207.44.386.912.651 1.309-.179.425-1.332.794-1.318.043.25-.11.681-.022.903-.168-.13-.36-.309-.67-.28-1.184zm-4.028.015c.2.375.265.764.545 1.043.129.126.372.28.25.633-.028.08-.236.264-.358.301-.437.132-1.462.03-1.118-.536.366.014.853.243 1.125-.03-.208-.338-.58-1.014-.444-1.41zm3.862 3.778c-.659.433-1.398.91-2.486.801-.23-.205-.323-.67-.094-.97.115.206.044.588.373.647.617.11 1.333-.39 1.777-.558.273-.478-.022-.648-.271-.956-.51-.625-1.183-1.404-1.161-2.338.206-.154.222.235.25.301.265.633.931 1.449 1.411 1.993.123.132.316.264.337.352.065.25-.164.559-.136.728zM5.686 8.07c-.207-.126-.257-.655-.501-.67-.351-.021-.286.691-.286 1.11-.237-.22-.28-.911-.109-1.264-.2-.102-.286.11-.4.185.15-1.067 1.527-.493 1.296.639zm9.145.903c-.308.603-.745 1.264-1.648 1.286-.022-.19-.036-.492 0-.61.694-.073 1.125-.433 1.648-.676zm-4.328.39c.573.309 1.634.345 2.422.323.044.177.044.397.044.61-1.011.043-2.202-.213-2.466-.933zm-.108.573c.4 1.03 1.77.911 2.925.882-.051.132-.159.294-.302.346-.372.154-1.39.27-1.906-.008-.323-.176-.538-.58-.717-.816-.078-.11-.51-.396 0-.404z" fill="#231F20"/><path d="M14.364 15.604c-.465.824-.917 1.669-1.469 2.39.23-.7.33-1.875.366-2.772.487-.235.903.051 1.105.383" fill="#81B0C4"/><path d="M16.88 18.559c-.523.11-.888.633-1.404.596.287-.405.774-.581 1.405-.596zm.23.838c-.43.044-.931.117-1.361.08.208-.322.996-.205 1.361-.08zm.15.727c-.48.008-1.075 0-1.533-.037.272-.3 1.225-.109 1.534.037z" fill="#231F20"/><path d="M13.462 22.109c.072.617.308 1.242.28 1.917-.266.09-.416.17-.775.17-.021-.574-.1-1.455-.079-2.006.174.014.43-.126.574-.081z" fill="#DCD9D8"/><path d="M12.688 12.995c-.244.162-.444.36-.68.536-.516.03-.795-.036-1.168-.338.006-.022.043-.014.043-.043.552.249 1.254-.103 1.805-.155z" fill="#F0D6B7"/><path d="M9.808 16.84c.15-.67.745-1.023 1.282-1.39.553.72.889 1.646 1.261 2.543-.88-.272-1.776-.706-2.543-1.154z" fill="#81B0C4"/><path d="M12.89 22.198c-.023.55.049 1.425.077 2.006.359 0 .51-.081.775-.17.028-.676-.208-1.3-.28-1.918-.144-.052-.4.088-.574.082h.001zM7.355 19.08c.237 2.212.574 4.064 1.197 6.026 1.383.434 3.046.47 4.271.082-.222-1.103-.13-2.449-.258-3.632-.1-.888-.05-1.778-.186-2.682-1.484-.316-3.576-.074-5.024.206zm5.374-.192c-.013.95.043 1.89.116 2.838a8.68 8.68 0 0 0 .924-.17c-.108-.91-.093-1.947-.314-2.756-.252.008-.475 0-.726.088zm1.8-.154c-.172-.037-.366 0-.524 0 .08.772.259 1.625.323 2.44.251.008.387-.117.596-.154.013-.713-.059-1.698-.396-2.286zm2.73 2.558c.53-.132.86-.794.709-1.478-.1-.455-.271-1.321-.466-1.616-.135-.213-.516-.5-.823-.302-.495.324-1.362.419-1.72.809.18.617.235 1.455.308 2.234.616.037 1.368-.176 1.885.052-.358.117-.818.117-1.127.293.26.126.846.103 1.234.008zm-4.916-3.3c-.372-.897-.71-1.823-1.262-2.543-.537.368-1.124.72-1.283 1.39.775.447 1.67.881 2.545 1.153zm.917-2.771c-.036.897-.136 2.072-.365 2.771.552-.728 1.003-1.565 1.469-2.389-.2-.331-.617-.617-1.104-.382zm-1.04-.375c-.207-.021-.386.25-.658.132-.065.074-.122.148-.186.221.601.75.88 1.808 1.346 2.683.252-.845.222-1.764.28-2.683-.344.014-.537-.331-.78-.353h-.001zm-.665-.904c-.022.257.035.338.086.632.817.265.68-1.153-.086-.632zm-.91-.31c-.42-.23-.872-.398-1.34-.497-.567-.112-.51.793-.488 1.329.022.427.236.874.33 1.161.043.132.057.272.165.301.193.045.838-.212 1.017-.316.387-.212.688-.558 1.019-.793.006-.11.006-.228.013-.338a1.692 1.692 0 0 0-.716-.184c.193-.103.487-.103.666-.22 0-.045 0-.089.007-.133-.33-.037-.451-.185-.674-.31zm-3.37-.623c-.292.309.826.72 1.177.742 0-.19.107-.375.086-.515-.423-.073-.974-.021-1.262-.227zm3.613.14c0 .029-.035.021-.043.043.38.302.66.368 1.168.338.23-.17.437-.375.681-.536-.559.052-1.26.404-1.806.155zm3.31 1.029c-.013-.34-.1-1.037-.307-1.162-.43-.257-1.19.522-1.512.64.036.102.093.184.1.316a.89.89 0 0 1 .588.065c-.194.022-.401.022-.531.12-.043.138.015.322-.022.513.452.132.975.198 1.55.22.107-.147.149-.426.135-.712zm-7.417-.876c-.093-.065-.716-.897-.801-.86-1.126.456-2.179 1.243-3.118 1.992.896 1.978 1.26 4.396 1.326 6.726 1.025.492 1.928 1.206 3.326 1.278-.166-1.103-.3-2.21-.402-3.321-.351-.155-.853.007-1.183-.045 0-.404.501-.176.545-.448.029-.206-.28-.22-.18-.544.259.095.394.309.667.39.25-.56 0-1.551.036-2.022.007-.087.043-.485.236-.419.172.059-.006 1.066.008 1.507.014.412-.05.802.114 1.059a37.569 37.569 0 0 1 4.178-.354c-.322-.14-.702-.27-1.118-.514-.229-.132-.938-.404-1.003-.624-.109-.353.273-.537.337-.839-.68.383-.81-.367-.975-.888a7.484 7.484 0 0 1-.265-1.11c-.596-.31-1.225-.596-1.728-.964zm6.823-.764c.94-.463 1.11 1.742.738 2.456.057.212.251.293.33.484-.523.964-1.105 1.86-1.64 2.808.393-.257.966-.044 1.432-.235.173-.066.294-.47.423-.794.357-.882.731-2 .896-2.838.035-.19.143-.61.115-.779-.044-.308-.445-.536-.653-.72-.379-.352-.617-.653-1.018-.985-.15.243-.494.404-.623.604v-.001zM4.641 4.006c-.445.507-.353 1.448-.302 2.124.81-.521 1.878.044 1.87.926.387-.008.144-.492.072-.808-.229-1.022.388-2.124.029-3.057-.696.058-1.261.344-1.67.815zm3.195-2.933c-1.01.292-2.307 1.05-2.723 1.983.323-.05.545-.212.86-.235.121-.007.28.052.416.015.272-.073.51-.705.716-.941.2-.228.444-.33.609-.536.108-.051.265-.051.273-.214-.043-.05-.093-.088-.152-.072h.001zm5.268.278C12.05.741 10.273.286 9.154.859c-.902.463-2.12 1.228-2.536 2.19.387.933-.114 1.786-.15 2.734-.015.508.229.941.25 1.493-.136.227-.537.249-.816.235-.094-.485-.258-1.03-.746-1.088-.688-.081-1.197.507-1.225 1.117-.036.72.537 1.911 1.354 1.83.315-.03.394-.352.738-.352.186.382-.286.5-.336.771-.015.074.035.346.072.478.15.625.48 1.44.801 1.917.416.611 1.227.7 2.1.759.158-.347.731-.317 1.104-.228-.451-.184-.867-.625-1.211-1.015-.394-.448-.796-.926-.817-1.514.753 1.066 1.369 2 2.73 2.47 1.032.353 2.236-.163 3.032-.735.33-.236.523-.617.758-.955.876-1.294 1.284-3.131 1.198-4.919-.035-.734-.035-1.469-.28-1.96-.25-.516-1.104-.986-1.605-.516-.093-.507.416-.816 1.011-.632-.422-.566-.867-1.235-1.476-1.588zm1.963 16.618c.824-.418 2.358-1.124 2.866 0 .195.42.416 1.118.51 1.552.136.602-.151 1.881-.76 2.08-.538.176-1.162.169-1.806.037a1.07 1.07 0 0 1-.222-.295c-.458-.014-.896.021-1.255.22.036.354-.193.405-.415.479-.158.654.322 1.505.207 2.095-.078.425-.587.492-.96.565a2.94 2.94 0 0 0 .044.633c-.087.323-.466.507-.832.55-1.196.148-3.01.214-4.156-.212-.323-.81-.574-1.786-.838-2.705-1.118.124-2.028-.493-2.882-.905-.292-.14-.702-.22-.817-.462-.107-.235-.065-.684-.093-1.103-.065-1.08-.129-2.123-.4-3.226-.123-.5-.345-.934-.496-1.412-.143-.44-.387-.992-.45-1.433-.094-.654.509-.691.888-.977.596-.441 1.06-.684 1.705-1.082.194-.117.767-.411.832-.55.129-.272-.222-.654-.315-.867a2.665 2.665 0 0 1-.252-.956 1.802 1.802 0 0 1-1.197-.787c-.408-.617-.694-1.756-.336-2.616.029-.066.165-.206.187-.309.043-.205-.08-.477-.087-.698-.036-1.125.186-2.094.924-2.432C4.962 1.925 6.037 1.52 7.048.91c.379-.227.796-.375 1.225-.536 1.542-.58 3.913-.47 5.196.522.545.418 1.411 1.308 1.72 1.954.823 1.699.76 4.543.186 6.616-.079.279-.186.683-.344 1.022-.107.235-.444.697-.409.903.044.214.775.78.932.934.28.28.817.647.86 1 .05.374-.157.888-.265 1.25a49.438 49.438 0 0 1-1.082 3.394z" fill="#231F20"/><path d="M9.585 9.621c.043-.058.287-.154.63.015 0 0-.408.065-.372.764l-.173-.037c.008.008-.17-.624-.085-.742z" fill="#F7E4CD"/><path d="M12.552 15.59a.193.193 0 0 1-.186.191.192.192 0 0 1 0-.382c.107 0 .186.087.186.19zm.187.889c0 .103-.087.19-.187.19a.192.192 0 0 1-.186-.19c0-.103.086-.19.186-.19.108 0 .187.08.187.19z" fill="#1D1919"/></svg>