<svg width="62" height="21" fill="none" xmlns="http://www.w3.org/2000/svg"><path d="M34.7 14.625h-2.728v.217h-1.285V4.467H34.7V.91c1.182.158 1.747.395 1.695.711-.013.132-.143.244-.39.336v2.51h4.072v10.534h-1.305v-.376h-2.767v5H34.7v-5zm-2.728-5.75H34.7V5.77h-2.728v3.103zm4.033 0h2.767V5.77h-2.767v3.103zm2.767 1.323h-2.767v3.103h2.767v-3.103zm-4.072 0h-2.728v3.103H34.7v-3.103zm-7.364-.435c1.013.844 1.844 1.93 2.494 3.261l-1.072.81a8.036 8.036 0 0 0-1.773-2.608v8.4H25.7v-7.787a13.07 13.07 0 0 1-2.571 2.015l-1.052-.928c2.688-1.423 4.753-4.052 6.195-7.886h-4.695V3.716h2.162V.91c1.143.158 1.702.388 1.676.691-.013.145-.143.264-.39.356v1.759h2.104l.643.91c-.662 1.989-1.474 3.701-2.435 5.137zM54.805 7.51V.91c1.156.158 1.714.388 1.675.691-.013.119-.104.218-.272.297l-.117.06V7.51h3.935v1.305H56.09v8.735H61v1.324H49.876V17.55h4.929V8.815h-4.052V7.51h4.052zm-6.468 2.234c1.26.856 2.28 1.937 3.059 3.24l-.974.91c-.715-1.239-1.572-2.2-2.572-2.886v8.617h-1.286v-8.043a15.109 15.109 0 0 1-3.545 2.312l-.955-1.008c3.35-1.423 5.922-4.038 7.715-7.846h-6.02V3.716h2.864V.91c1.143.158 1.701.388 1.675.691-.013.145-.143.264-.39.356v1.759h2.845l.584.91c-.831 1.989-1.831 3.695-3 5.118z" fill="#F4F4F4" stroke="#E7E7E7" stroke-width=".8" stroke-linejoin="round"/><path d="M31.026 4.86a94.83 94.83 0 0 0-.09 2.52c-.017.921-.084 4.926-.084 6.033 0 .802-.073 1.465-.221 1.988-.148.523-.38.964-.697 1.323a2.8 2.8 0 0 1-1.206.8c-.493.174-1.083.261-1.773.261-.53 0-1.006-.052-1.427-.157l.123-1.09c.388.164.793.246 1.214.246.47 0 .88-.06 1.23-.18.356-.124.638-.316.846-.575.213-.26.364-.578.451-.957.093-.379.14-.874.14-1.487 0-2.263.017-7.165-.065-8.724h1.559zm3.905 9.733h-1.485c.077-.997.115-2.136.115-3.416 0-1.44-.096-2.649-.287-3.625l1.64-.202a62.34 62.34 0 0 0-.098 3.827c0 1.196.038 2.334.115 3.416zm.345-9.344c0 .254-.09.476-.271.666-.18.184-.435.276-.763.276-.279 0-.498-.08-.656-.24a.836.836 0 0 1-.23-.59c0-.249.093-.465.279-.65.186-.184.443-.276.771-.276.268 0 .479.082.632.246.158.16.238.35.238.568zm8.794 9.344h-1.493c.12-1.31.18-2.741.18-4.29 0-.768-.171-1.291-.516-1.57-.34-.285-.826-.427-1.46-.427-.777 0-1.493.257-2.15.77 0 1.7.011 3.538.033 5.517h-1.493c.093-1.695.14-2.92.14-3.678 0-1.166-.121-2.297-.362-3.393l1.444-.187.156.912h.066c.81-.668 1.676-1.002 2.6-1.002.908 0 1.611.184 2.109.553.498.364.747 1.014.747 1.951 0 .095-.006.282-.017.56-.01.28-.016.467-.016.561 0 .832.01 2.073.033 3.723zm3.618-7.258a77.433 77.433 0 0 0-.139 4.649c0 .414.014.962.041 1.644.033.678.05 1.14.05 1.383 0 1.61-.673 2.587-2.019 2.93l-.41-.568c.487-.373.788-.772.902-1.196.17-.608.255-1.903.255-3.887 0-2.127-.11-3.717-.329-4.768l1.65-.187zm.353-2.086c0 .254-.09.476-.27.666-.18.184-.435.276-.763.276-.28 0-.498-.08-.657-.24a.836.836 0 0 1-.23-.59c0-.249.093-.465.28-.65.185-.184.442-.276.77-.276.269 0 .48.082.632.246.159.16.238.35.238.568zm8.008 9.344-1.288.044a2.682 2.682 0 0 1-.099-.695h-.082c-.673.559-1.589.838-2.748.838-.63 0-1.17-.167-1.625-.501-.454-.34-.68-.82-.68-1.443 0-.767.355-1.383 1.066-1.846.71-.469 2.032-.715 3.962-.74.017-.12.025-.257.025-.411 0-.613-.18-1.022-.541-1.226-.356-.204-.897-.307-1.625-.307a11.1 11.1 0 0 0-2.535.292l.14-1.032c.82-.214 1.763-.32 2.83-.32.974-.001 1.726.183 2.256.552.53.364.796.987.796 1.869 0 .234-.014.66-.041 1.278a42.865 42.865 0 0 0-.033 1.226c0 .907.074 1.714.222 2.422zm-1.453-1.45a57.006 57.006 0 0 1-.04-2.041c-1.029 0-1.811.07-2.347.21-.897.248-1.345.724-1.345 1.427 0 .678.525 1.016 1.575 1.016.902 0 1.621-.204 2.157-.612z" fill="#B41717" stroke="#7F2828" stroke-width=".2"/><path fill-rule="evenodd" clip-rule="evenodd" d="M21.128.534s-3.907 1.867-7.087 2.28c-3.18.412-9.246.824-10.45.533-1.204-.29-2.069-.63-2.069-.63l.251.849L1 4.244l.137.242.318.024.976.122.137.436.545.05.273.92s1.158.097 1.5.097c.34 0 1.022-.048 1.022-.048l.022.364.25.048v.412l-.545.486.137.024v.169s-1.227.098-1.727.025c-.5-.073-.591-.073-.591-.073l-.045.048-.023.218H3.5l.045.946 2.522-.097-.182 3.274-.022.41-2.136-.12-.023-.873h.477l.046-.34.431-.097.069-.096-1.614-.388-1.227.363.205.17h.204l.023.292.431.024v.849l-.476.12.09.194.114.073v.655h.296v3.03l-.478.073.069.873.294.05-.045 1.987 1.296.024-.273-1.964 1.954-.048-.136 1.066-.182.752 1.976.024.022-1.939 1.363-.121-.067 1.236-.046.727h1.16l-.047-1.988.16.025.045-.946h-.182l-.068-.389-.113-1.115.045-1.284h.25v-.776l-.319.024.046-.915.37-.037.017-.297.21-.03.215-.164-1.295-.266-1.283.284.125.206.136-.011.158-.006.03.375.357-.018.006.812-1.54-.036.052-.867.05-.788V9.693l.047-1.09 3.083-.159 3.669-.21.034.696-.13 1.673-.057 1.557-1.351-.024-.007-1.091.5-.018.023-.309.204-.03-.01-.061.204-.012.113-.152-1.527-.357-1.523.327.108.188.17-.013v.086h.21v.345l.449.006-.005.957h-.454l-.007.219.16.018-.017.83.335.019-.04 3.292-.443.09.005.158h.154v.843h.255l-.067 1.152-.086 1.005 1.614.043-.052-.873-.119-.727-.023-.63 1.369-.025-.04.976-.006 1.03.773.061 1.05-.042.33-.097-.182-.552-.045-.867-.086-.619 1.306-.047-.056.757-.006 1.188.523.048.517-.011.25-.079-.148-1.128-.05-.849.22-.024.006-.757.062-.013-.01-.163h-.256l-.052-.558-.022-2.419.193-.005v-.794l.08.012v-.158l-.285-.025.006-.92.477-.043-.028-.31.21-.018-.012-.06.279-.14-1.415-.284-1.436.291.09.17.222-.02.012.074h.187l.011.363.466-.005.04.89-1.647-.012-.193-1.339-.154-.71-.124-1.272.074-.745 3.282-.25.01-1.109.166-.042-.011-.17-.125-.072s-1.795.266-2.363.327l-.279.03-.017-.206-.678-.356.008-.413.234-.007.017-.57s1.39-.09 1.907-.212c.517-.121 1.25-.242 1.25-.242l.347-.94.687-.2.057-.157 1.555-.43.177-.146-.591-1.29.057-.292.3-.158.217-.66-.103-.092zm-7.474 4.923-.008.47.352.014-.023.446-.69.452-.043.13.278.003-.002.11-2.11.102.014-.312.096-.155.007-.1.002-.214.06-.143.023-.116v-.082l.09-.363 1.954-.242zm-4.413.4-.051.315.165.194-.01.34.152.236-.04.279.114.163-2.153.085-.005-.072.25-.031.011-.092-.545-.296-.029-.473.261-.012.023-.51 1.857-.127zm3.186 7.273 1.306.085-.045 1.758.17 1.442-1.385-.048-.046-3.237zm-8.746.073 2.09.109-.181 1.212v1.02l.147.569-2.044.097-.012-3.007zm13.38.012v3.007l-1.328.097-.046-1.588-.147-1.48 1.522-.036zm-10.063.067 1.545.006.016 2.788-1.442.025-.074-.904-.005-.897-.04-1.018z" fill="url(#a)" stroke="#323232" stroke-width=".2"/><defs><radialGradient id="a" cx="0" cy="0" r="1" gradientUnits="userSpaceOnUse" gradientTransform="matrix(10.124 0 0 9.56819 11.124 10.102)"><stop stop-color="#575757"/><stop offset="1" stop-color="#2F2F2F"/></radialGradient></defs></svg>