<svg width="39" height="40" fill="none" xmlns="http://www.w3.org/2000/svg"><g clip-path="url(#a)"><g clip-path="url(#b)"><path d="M39.326 18.788 22.16 1.575 20.498-.093 7.577 12.864l-5.909 5.924a1.59 1.59 0 0 0 0 2.239l11.805 11.837 7.025 7.043 12.92-12.957.2-.2 5.708-5.714a1.584 1.584 0 0 0 0-2.248zm-18.828 7.034L14.6 19.907l5.898-5.914 5.896 5.914-5.896 5.915z" fill="#2684FF"/><path d="M20.498 13.993a9.97 9.97 0 0 1-2.909-7.01 9.97 9.97 0 0 1 2.866-7.028L7.55 12.891l7.023 7.043 5.925-5.941z" fill="url(#c)"/><path d="m26.41 19.892-5.912 5.93a9.973 9.973 0 0 1 2.908 7.041 9.973 9.973 0 0 1-2.908 7.041l12.94-12.97-7.028-7.042z" fill="url(#d)"/></g></g><defs><linearGradient id="c" x1="19.442" y1="8.009" x2="11.183" y2="16.243" gradientUnits="userSpaceOnUse"><stop offset=".18" stop-color="#0052CC"/><stop offset="1" stop-color="#2684FF"/></linearGradient><linearGradient id="d" x1="1504.16" y1="1736.36" x2="2346.52" y2="2280.95" gradientUnits="userSpaceOnUse"><stop offset=".18" stop-color="#0052CC"/><stop offset="1" stop-color="#2684FF"/></linearGradient><clipPath id="a"><path fill="#fff" transform="translate(.052)" d="M0 0h38.784v40H0z"/></clipPath><clipPath id="b"><path fill="#fff" transform="translate(.5 -.093)" d="M0 0h40v40H0z"/></clipPath></defs></svg>