<svg viewBox="0 0 40 40" fill="none" xmlns="http://www.w3.org/2000/svg"><path d="M38.83 18.88 21.66 1.67 20 0 7.08 12.96l-5.91 5.92a1.59 1.59 0 0 0 0 2.24l11.8 11.84L20 40l12.92-12.96.2-.2 5.7-5.71a1.59 1.59 0 0 0 0-2.25zM20 25.91 14.1 20l5.9-5.91L25.9 20 20 25.91z" fill="#2684FF"/><path d="M20 14.09A9.97 9.97 0 0 1 19.96.05L7.05 12.98l7.02 7.05L20 14.09z" fill="url(#a)"/><path d="M25.91 19.98 20 25.91A9.97 9.97 0 0 1 20 40l12.94-12.97-7.03-7.05z" fill="url(#b)"/><defs><linearGradient id="a" x1="18.94" y1="8.1" x2="10.68" y2="16.34" gradientUnits="userSpaceOnUse"><stop offset=".18" stop-color="#0052CC"/><stop offset="1" stop-color="#2684FF"/></linearGradient><linearGradient id="b" x1="1503.66" y1="1736.46" x2="2346.02" y2="2281.04" gradientUnits="userSpaceOnUse"><stop offset=".18" stop-color="#0052CC"/><stop offset="1" stop-color="#2684FF"/></linearGradient></defs></svg>