<svg width="26" height="26" fill="none" xmlns="http://www.w3.org/2000/svg"><path d="M19.043 3.13c.167 0 .297.007.425-.002.232-.014.415.13.626.184.053.013.092.06.111.116.021.061.06.115.112.143.293.156.346.463.44.73.17.485.187 1.007.309 1.507.07.292.087.613.169.9.117.415.054.844.186 1.256.082.255.045.548.131.814.138.422.143.87.197 1.304.062.5.258.973.263 1.485.002.24.089.481.156.717.041.146.033.293.045.44.019.236.114.329.35.336.244.008.466-.072.697-.143.551-.169 1.108-.298 1.692-.121.623.189 1.027.71 1.046 1.367.012.422-.015.823-.331 1.153a1.95 1.95 0 0 1-.869.524c-.274.082-.547.168-.817.264a3.645 3.645 0 0 1-.597.169c-.424.071-.573.266-.46.677.126.463.173.943.297 1.404.086.321.104.643.127.967.01.133.059.254.106.372.11.276.069.576.145.851.087.311.11.624.075.933-.076.67-.305 1.123-.972 1.31-.413.117-.863.119-1.282-.083-.218-.105-.414-.222-.569-.419-.107-.136-.193-.264-.199-.44-.001-.069-.03-.13-.055-.194-.122-.32-.178-.659-.266-.988-.097-.367-.102-.754-.259-1.106a.343.343 0 0 1-.037-.142c.015-.47-.112-.925-.169-1.387a2.574 2.574 0 0 0-.114-.52.324.324 0 0 0-.307-.226 1.508 1.508 0 0 0-.749.15.58.58 0 0 1-.264.062c-.402-.005-.785.086-1.167.2-.092.027-.195.017-.293.026-.3.028-.497.188-.632.458-.128.257-.102.552-.227.807-.1.203-.1.444-.24.63a.264.264 0 0 0-.066.17c.01.217-.08.406-.168.594a.469.469 0 0 0-.06.248c.027.246-.096.447-.177.66-.007.017-.024.033-.024.05.001.347-.197.644-.251.976-.071.44-.383.667-.73.887-.384.243-.797.242-1.211.183-.634-.09-1.12-.694-1.153-1.287-.023-.421.055-.823.157-1.236.124-.507.281-1.004.398-1.513.094-.405.24-.799.372-1.195.1-.304.213-.605.155-.935-.01-.06-.01-.128-.04-.18-.22-.396-.184-.825-.142-1.246.031-.315.248-.542.47-.75.098-.091.208-.17.33-.232.323-.163.493-.449.605-.779.087-.255.217-.5.278-.757.079-.33.273-.618.3-.963.012-.17.134-.311.175-.482.13-.541.335-1.06.517-1.584.118-.338.25-.679.366-1.017.117-.34.276-.662.385-1.006.121-.38.254-.76.39-1.138.18-.504.39-1 .37-1.56-.012-.352-.01-.707.11-1.058.166-.482.433-.89.85-1.16.287-.183.647-.229.964-.175zm.075 10.463c-.007-.092.002-.189-.024-.275-.111-.376-.21-.753-.205-1.15.001-.122-.056-.227-.182-.24-.134-.013-.228.093-.244.208-.023.168-.08.32-.135.474-.137.377-.264.757-.408 1.132-.11.287-.014.446.287.44.104-.002.21-.004.313-.018.485-.07.601-.183.598-.571zM7.001 12.961c0-.259.037-.524-.008-.775-.077-.433-.038-.878-.121-1.3-.145-.74-.22-1.48-.217-2.231 0-.08.001-.16-.03-.237-.127-.303-.314-.359-.618-.213-.51.244-1.02.462-1.616.388-.53-.067-.909-.302-1.162-.776-.145-.27-.08-.552-.12-.828-.058-.413.134-.75.292-1.098.024-.053.074-.118.125-.131.37-.1.63-.391.98-.539.562-.236 1.133-.461 1.65-.808.371-.25.809-.397 1.208-.607.511-.269 1.06-.453 1.565-.735.309-.173.634-.324.966-.446.236-.086.5-.036.751-.035.383 0 .674.205.951.443.607.521.553 1.183.368 1.848-.107.385-.425.614-.768.818-.32.19-.694.21-1.013.407-.164.102-.349.146-.45.339a.65.65 0 0 0-.079.354c.051.718.108 1.435.185 2.15.044.405.143.799.154 1.209.014.485.087.967.187 1.444.02.102.022.208.022.313-.001.734.019 1.47-.016 2.202-.03.65-.139 1.297-.184 1.947-.03.433-.155.848-.195 1.274-.045.465-.183.906-.297 1.348-.152.583-.349 1.165-.673 1.688-.081.129-.128.282-.22.4-.543.704-1.125 1.368-1.942 1.763a2.84 2.84 0 0 1-1.186.293c-.203.004-.407-.004-.61.002-.367.011-.71-.101-1.063-.181-.482-.11-.893-.365-1.316-.594-.177-.095-.339-.217-.523-.301-.12-.055-.145-.196-.23-.281a8.078 8.078 0 0 0-.496-.466c-.12-.101-.179-.273-.27-.41-.257-.382-.505-.77-.66-1.206-.24-.68-.392-1.378-.29-2.1.064-.454.353-.783.742-1.002.439-.247.934-.175 1.386-.092.383.071.692.355.86.745.14.326.226.669.324 1.008.048.166.13.319.221.462.178.282.309.609.6.796.307.197.629.387 1.023.287a.643.643 0 0 0 .401-.297.604.604 0 0 1 .24-.247c.161-.081.208-.255.278-.398.211-.438.342-.904.467-1.377.118-.45.103-.925.285-1.359a.235.235 0 0 0 .012-.091c-.012-.925.12-1.843.13-2.767z" fill="#D9D9D9"/></svg>