<svg width="52" height="40" fill="none" xmlns="http://www.w3.org/2000/svg"><path fill-rule="evenodd" clip-rule="evenodd" d="M36.005 24.726c1.334.003 2.668.004 4.01.005h6.118c-.314.538-.563 1.008-.852 1.45-2.77 4.244-6.476 7.377-10.855 9.697-3.74 1.981-7.73 3.115-11.873 3.788-4.585.744-9.024.242-13.33-1.474-3.18-1.267-5.81-3.276-7.518-6.408C.698 29.936.194 27.934 0 25.699c.252.54.434.969.648 1.38 1.987 3.796 5.102 6.048 9.107 7.075 2.672.685 5.384.637 8.092.376 3.271-.314 6.435-1.114 9.437-2.52 3.358-1.573 6.202-3.796 8.242-7.02.12-.19.256-.265.479-.264zM18.389 11.88c1.87-.596 3.803-.688 5.706-.137 3.034.88 4.251 3.555 3.032 6.557-1.04 2.557-3.647 4.293-6.323 4.213-.45-.014-.854-.116-1.035-.603-.107-.289-.232-.076-.323-.017a3.993 3.993 0 0 1-2.381.624c-1.478-.063-2.462-1.195-2.32-2.71.218-2.34 2.262-4.77 4.495-5.246 1.059-.225 2.137-.27 2.94.887.082-.894.642-.814 1.218-.83.394-.013.855-.013 1.252-.013-.07.223-.157.415-.23.59-.662 1.577-1.334 3.15-2 4.724-.084.2-.158.406-.228.613-.123.359.057.466.366.441a.814.814 0 0 0 .28-.083c1.703-.817 2.873-2.099 3.192-4.06.232-1.427-.368-2.642-1.597-3.346-1.142-.654-2.393-.75-3.662-.677-2.202.128-4.159.864-5.659 2.605-1.079 1.253-1.79 2.707-1.888 4.404-.089 1.542.615 3.164 2.399 3.908 1.622.677 3.314.72 5.016.55 1.602-.16 3.121-.671 4.372-1.782.053-.047.148-.1.148-.1s.123-.005.191-.005c.283.002.567.002.875.002h.657c-.815 1.114-1.786 1.828-2.9 2.343-1.908.883-3.92 1.114-5.985.97-1.162-.081-2.297-.287-3.379-.761-2.205-.966-3.168-2.97-2.861-5.268.543-4.065 2.899-6.603 6.632-7.793zM9.5 9.812c.767.039 1.537.009 2.305.013.526.002.635.139.53.685-.437 2.26-.878 4.52-1.32 6.78-.155.793-.274 1.596-.484 2.372-.707 2.61-2.761 4.153-5.478 4.157-1.719-.047-3.226-.506-4.128-2.2-.19-.358-.219-.565.195-.774.615-.31 1.195-.692 1.785-1.053.318-.195.553-.132.719.206.391.802 1.046 1.06 1.872.976.786-.079 1.292-.528 1.551-1.275.405-1.164.54-2.393.782-3.596a404.2 404.2 0 0 0 1.113-5.801c.065-.348.173-.509.558-.49zm33.607 1.407c2.022-1.491 4.273-2.052 6.728-1.385.888.241 1.628.757 2.268 1.439.204.218.182.326-.032.511-.589.508-1.157 1.043-1.732 1.567-.12.108-.22.264-.39.05-1.358-1.69-4.026-1.197-5.372.415-1.208 1.446-1.688 3.141-1.4 5.027.246 1.607 1.67 2.454 3.396 2.087a5.197 5.197 0 0 0 2.04-.942c.481-.359.585-.337.951.164.286.39.557.793.86 1.168.184.225.205.351-.04.559-1.48 1.259-3.171 1.91-5.17 1.936-1.562-.056-3.088-.438-4.292-1.7-.99-1.038-1.385-2.336-1.348-3.738.076-2.947 1.174-5.418 3.533-7.158zM31.465 9.812c.734.042 1.472.01 2.207.012.536.003.649.139.546.673-.627 3.256-1.25 6.512-1.894 9.765-.081.412-.043.558.41.55 1.537-.027 3.074-.011 4.612-.01.6 0 .72.153.604.762-.101.53-.217 1.056-.304 1.587-.05.298-.17.408-.48.404-1.374-.02-2.747-.008-4.121-.008-1.357 0-2.715.001-4.072-.001-.565-.002-.664-.13-.556-.693.8-4.164 1.603-8.326 2.39-12.492.079-.419.23-.573.658-.549zm-11.44 6c-.354.002-.68.098-.978.28-1.389.856-2.032 2.192-2.167 3.793-.076.91.585 1.417 1.465 1.239 1.403-.285 2.923-2.36 2.938-4.012.008-.868-.42-1.305-1.259-1.3zm5.6-15.344c4.957-.874 9.802-.634 14.413 1.667 2.51 1.253 4.644 3.005 6.345 5.3.235.319.445.658.73 1.083h-6.582c-1.177 0-2.355-.007-3.532.006-.254.002-.407-.068-.553-.3-1.776-2.812-4.37-4.329-7.493-4.972-3.582-.737-7.124-.325-10.647.453-2.221.49-4.387 1.18-6.515 2-.088.034-.17.109-.345.02.597-.308 1.15-.6 1.709-.882 3.976-2.008 8.09-3.603 12.47-4.375z" fill="#2B8CED"/></svg>