<svg width="26" height="26" fill="none" xmlns="http://www.w3.org/2000/svg"><path d="M0 0h26v26H0V0z" fill="#F7DF1E"/><path d="m6.836 21.727 1.99-1.203c.384.68.733 1.256 1.57 1.256.804 0 1.31-.314 1.31-1.536v-8.308h2.444v8.342c0 2.532-1.485 3.683-3.648 3.683-1.955 0-3.09-1.012-3.666-2.234zm8.64-.262 1.99-1.151c.524.855 1.204 1.484 2.408 1.484 1.013 0 1.657-.507 1.657-1.205 0-.837-.662-1.134-1.778-1.623l-.611-.262c-1.763-.75-2.933-1.693-2.933-3.683 0-1.831 1.397-3.229 3.578-3.229 1.554 0 2.67.542 3.473 1.956l-1.902 1.222c-.42-.75-.873-1.048-1.57-1.048-.716 0-1.17.454-1.17 1.048 0 .732.454 1.029 1.5 1.484l.612.26c2.076.89 3.245 1.798 3.245 3.84 0 2.2-1.728 3.403-4.048 3.403-2.27 0-3.735-1.081-4.45-2.495" fill="#000"/></svg>