<svg width="41" height="41" fill="none" xmlns="http://www.w3.org/2000/svg"><g clip-path="url(#a)"><path d="M33.968 12.633a.304.304 0 0 1-.27-.148l-4.625-8.052a.312.312 0 0 0-.227-.122H9.942a.304.304 0 0 0-.226.122l-4.843 8.348-4.626 8.017a.313.313 0 0 0 0 .305l4.626 8.017 4.843 8.357a.304.304 0 0 0 .27.147h18.86a.312.312 0 0 0 .27-.148l4.626-8.017a.303.303 0 0 1 .27-.148h5.756a.348.348 0 0 0 .348-.348V12.982a.348.348 0 0 0-.348-.348h-5.8z" fill="#4D4D4D"/><mask id="b" style="mask-type:luminance" maskUnits="userSpaceOnUse" x="0" y="12" width="164" height="18"><path d="M163.411 29.268h-3.922a.167.167 0 0 1-.13-.07l-.304-.417-.87-1.122-2.287-3.078-1.278-1.74a.17.17 0 0 0-.126-.058.168.168 0 0 0-.07.016.157.157 0 0 0-.056.043l-1.34 1.487-.147.174a.156.156 0 0 0 0 .104v4.487a.166.166 0 0 1-.166.165h-3.382a.165.165 0 0 1-.165-.165V12.816a.165.165 0 0 1 .165-.166h3.382a.165.165 0 0 1 .166.166v6.243a.156.156 0 0 0 .03.088.163.163 0 0 0 .248.025l1.869-2.026 2.774-3.017 1.305-1.418a.166.166 0 0 1 .121-.052h4.148a.165.165 0 0 1 .166.165c.01.034.01.07 0 .105l-1.87 2.078-3.113 3.478-1.296 1.435a.158.158 0 0 0 0 .2l1.618 2.26 1.469 2.07.183.253 1.113 1.556 1.113 1.652.809 1.13a.167.167 0 0 1-.157.227zm-15.556-.226a.17.17 0 0 1-.016.151.165.165 0 0 1-.132.075h-3.592a.154.154 0 0 1-.147-.096l-.07-.156-1.391-3.226a.157.157 0 0 0-.148-.096h-6.748a.165.165 0 0 0-.148.096l-.208.478-1.253 2.913a.165.165 0 0 1-.147.095h-3.592a.165.165 0 0 1-.158-.148.17.17 0 0 1 .01-.078l.253-.573 1.695-3.922.061-.14.07-.165v-.078l.565-1.304 4.348-10.078a.165.165 0 0 1 .148-.096h3.373a.155.155 0 0 1 .148.095l2.261 5.218 1.122 2.609 1.252 2.895 2.374 5.487.07.044zm-6.896-6.844-.235-.556-.791-1.861-.791-1.835a.166.166 0 0 0-.305 0l-1.409 3.26-.434.992a.163.163 0 0 0 .072.205c.023.013.049.02.076.021h3.669a.167.167 0 0 0 .144-.073.172.172 0 0 0 .028-.08.167.167 0 0 0-.015-.082l-.009.01zm-10.652 1.87c-.096.252-.207.499-.331.739a8.348 8.348 0 0 1-1.608 2.157c-.273.28-.563.54-.87.782a8.434 8.434 0 0 1-4.687 1.66h-.609a8.692 8.692 0 0 1-4.86-1.373 8.834 8.834 0 0 1-1.34-1.087 12.57 12.57 0 0 1-.469-.496 8.209 8.209 0 0 1-2.044-5.617 9.425 9.425 0 0 1 .105-1.443l-.079-.114.122-.182a8.058 8.058 0 0 1 2.365-4.348 8.89 8.89 0 0 1 1.253-1.026 8.16 8.16 0 0 1 2.895-1.252 9.568 9.568 0 0 1 1.974-.2 8.535 8.535 0 0 1 6.2 2.46 8.126 8.126 0 0 1 2.478 5.218v.913a8.67 8.67 0 0 1-.487 3.209h-.008zm-3.2-3.2a5.444 5.444 0 0 0-1.279-3.618l-.147-.174a4.56 4.56 0 0 0-3.479-1.565 4.573 4.573 0 0 0-3.504 1.565 5.401 5.401 0 0 0-1.426 3.661v.13a5.392 5.392 0 0 0 1.426 3.783c.136.149.281.288.435.418.285.253.6.469.939.643a4.86 4.86 0 0 0 4.348 0 4.705 4.705 0 0 0 1.156-.87l.148-.147c.315-.344.584-.727.8-1.14a5.559 5.559 0 0 0 .583-2.686zm-13.861 5.096h-6.757a.167.167 0 0 1-.114-.046.167.167 0 0 1-.051-.111V12.816a.155.155 0 0 0-.096-.148h-3.469a.165.165 0 0 0-.165.165V29.12a.165.165 0 0 0 .165.165h10.435a.165.165 0 0 0 .165-.165v-2.983a.165.165 0 0 0-.113-.174zM94.863 12.31h-.817a8.53 8.53 0 0 0-6.191 2.47 8.887 8.887 0 0 0-.87.948 8.304 8.304 0 0 0-1.696 5.217 8.948 8.948 0 0 0 .54 3.165c.223.575.515 1.121.869 1.626.32.479.69.922 1.104 1.322a8.41 8.41 0 0 0 1.661 1.261l.452.244.34.156a9.479 9.479 0 0 0 3.852.757c.413 0 .826-.029 1.234-.087.261 0 .514-.087.766-.148a8.618 8.618 0 0 0 3.87-2.14c.234-.217.469-.452.695-.695a.164.164 0 0 0 0-.226l-2.14-2.209a.156.156 0 0 0-.147-.043.174.174 0 0 0-.096.06 5.442 5.442 0 0 1-4.347 2.027 4.843 4.843 0 0 1-1.679-.287 4.714 4.714 0 0 1-1.739-1.122 4.54 4.54 0 0 1-1.087-1.74 5.896 5.896 0 0 1-.322-1.99 4.81 4.81 0 0 1 1.287-3.479l.2-.191a5.096 5.096 0 0 1 3.574-1.365 5.365 5.365 0 0 1 4.252 2.043.156.156 0 0 0 .244 0l2.087-2.365a.167.167 0 0 0 .041-.109.167.167 0 0 0-.041-.108 8.696 8.696 0 0 0-5.887-3l-.009.008zm-9.365 1.687.626-1.095a.166.166 0 0 0-.06-.22.166.166 0 0 0-.079-.024h-3.644a.165.165 0 0 0-.139.078l-3.304 5.679-.174.13-.13.104a.174.174 0 0 1-.07-.06l-.052-.096-.06-.148-3.262-5.617a.165.165 0 0 0-.139-.079h-3.678a.166.166 0 0 0-.16.163c0 .028.007.056.02.08l1.583 2.766 2.861 5 1.148 2.035a.165.165 0 0 1 0 .078v6.357a.165.165 0 0 0 .165.165h3.383a.165.165 0 0 0 .165-.165v-6.357a.167.167 0 0 1 0-.078l.817-1.426 3.096-5.409.635-1.104.417-.73.035-.027zM69.889 25.99h-8.208a.165.165 0 0 1-.166-.166v-3.13a.165.165 0 0 1 .166-.165h7.113a.165.165 0 0 0 .165-.166v-2.826a.165.165 0 0 0-.165-.165H61.68a.165.165 0 0 1-.157-.156V16.12a.165.165 0 0 1 .165-.165h7.94a.165.165 0 0 0 .165-.165v-2.974a.165.165 0 0 0-.165-.166H57.976a.165.165 0 0 0-.165.166v16.287a.165.165 0 0 0 .165.165H69.89a.165.165 0 0 0 .166-.165v-2.93a.166.166 0 0 0-.166-.183zm-13.982 2.79-1.54-2.156-1.582-2.191-.06-.087-3.01-4.26a.166.166 0 0 1 0-.2l1.479-1.644 1.217-1.357 1.174-1.304 2.409-2.67a.166.166 0 0 0-.122-.27h-4.157a.166.166 0 0 0-.121.053l-2.609 2.791-3.374 3.67a.165.165 0 0 1-.243-.096v-6.243a.165.165 0 0 0-.166-.157H41.83a.165.165 0 0 0-.166.165v16.287a.166.166 0 0 0 .166.165h3.382a.165.165 0 0 0 .165-.165v-4.487a.156.156 0 0 1 0-.104l.705-.791.782-.87a.167.167 0 0 1 .126-.058.165.165 0 0 1 .126.058l2.348 3.157 1.687 2.27.678.869a.156.156 0 0 0 .13.07h3.931a.165.165 0 0 0 .13-.262l-.112-.182zM39.733 12.608H5.142a.314.314 0 0 0-.261.148l-.174.295-2.122 3.705-2.34 4.052a.305.305 0 0 0 0 .304l.505.87 4.122 7.13a.304.304 0 0 0 .27.157h34.59a.339.339 0 0 0 .34-.34V12.982a.348.348 0 0 0-.348-.348l.009-.026z" fill="#fff"/></mask><g mask="url(#b)"><path d="M164.567 10.076H-.172V32.33h164.739V10.076z" fill="url(#c)"/></g><path d="M5.923 20.085.758 21.963l-.504-.87a.304.304 0 0 1 0-.303l2.33-4.044 3.34 3.34z" fill="#E1E1E1"/><path d="m40.073 25.076-3.409-3.46 3.409-.487v3.947z" fill="#C8C8C8"/><path d="m36.672 21.616 3.409 3.478v3.86a.339.339 0 0 1-.34.34h-3.938l.87-7.678z" fill="#C2C2C2"/><path d="m31.002 29.276-1.443-3.478 7.104-4.182-.896 7.66h-4.765z" fill="#C7C7C7"/><path d="m40.073 21.129-3.409.487 3.409-4.148v3.66z" fill="#CECECE"/><path d="M40.071 12.98v4.496l-3.4 4.14-2.608-8.983h5.626a.347.347 0 0 1 .382.348z" fill="#D3D3D3"/><path d="m27.838 28.346 1.722-2.548 1.443 3.479H28.49l-.652-.931z" fill="#C6C6C6"/><path d="M32.193 12.633h1.904l2.565 8.983-9.426-3.992 4.957-4.991z" fill="#D5D5D5"/><path d="m27.236 17.624 2.322 8.174 7.113-4.182-9.435-3.992z" fill="#D0D0D0"/><path d="m27.837 28.346.653.93h-.687l.034-.93z" fill="#BFBFBF"/><path d="m26.342 13.155 1.913-.522h3.939l-4.957 4.991-.895-4.47z" fill="#D9D9D9"/><path d="m27.238 17.624-11.435 2.644 12.043 8.078-.608-10.722z" fill="#D4D4D4"/><path d="m27.236 17.624.6 10.713 1.74-2.547-2.34-8.166z" fill="#D0D0D0"/><path d="m26.342 13.129-10.54 7.139 11.444-2.609-.904-4.53z" fill="#D9D9D9"/><path d="m8.01 29.276-2.086-9.165 9.87.157-4.957 9.008H8.01z" fill="#D8D8D8"/><path d="m10.716 12.633-4.792 7.452-1.217-7.035.174-.295a.313.313 0 0 1 .26-.148h5.575v.026z" fill="#E2E2E2"/><path d="M7.976 29.276h-2.87a.305.305 0 0 1-.27-.156L.716 21.99l5.209-1.905 2.052 9.191z" fill="#D8D8D8"/><path d="m4.697 13.085 1.226 7.026-3.339-3.356 2.113-3.67z" fill="#E4E4E4"/><path d="m12.672 12.633 3.122 7.635 10.547-7.113-3.174-.522H12.673zM5.924 20.111l9.87.157-3.122-7.635H10.715L5.924 20.11z" fill="#DEDEDE"/><path d="m27.802 29.276.035-.93-2.296.93h2.261z" fill="#C5C5C5"/><path d="M17.967 29.276h7.574l2.295-.93-12.043-8.078 2.174 9.008z" fill="#D0D0D0"/><path d="M17.725 29.276h.243l-2.174-9.008-4.956 9.008H17.725z" fill="#D1D1D1"/><path d="M28.255 12.633H26.377l-.035.522 1.913-.522z" fill="#DDD"/><path d="M26.046 12.633h-2.878l3.174.522-.296-.522z" fill="#E3E3E3"/><path d="M26.375 12.633h-.33l.296.522.034-.522z" fill="#E2E2E2"/><path d="m17.69 12.772-4.652 8.052a.269.269 0 0 0 0 .13H9.76l6.382-11.06c.04.022.073.056.096.096l1.444 2.513a.278.278 0 0 1 .008.27z" fill="#00B8E3"/><path d="m17.689 29.433-1.444 2.504a.28.28 0 0 1-.095.096L9.715 20.955h3.243a.244.244 0 0 0 0 .122l4.644 8.052a.27.27 0 0 1 .087.304z" fill="#33C6E9"/><path d="M16.142 9.902 9.76 20.955l-1.6 2.774-1.53-2.61a.244.244 0 0 1 0-.12.27.27 0 0 1 0-.131l1.547-2.679 4.704-8.139a.27.27 0 0 1 .235-.139h2.887a.287.287 0 0 1 .14-.009z" fill="#008AAA"/><path d="M16.142 32.024a.287.287 0 0 1-.14 0h-2.877a.27.27 0 0 1-.235-.139l-4.296-7.443-.426-.74 1.548-2.747 6.426 11.07z" fill="#00B8E3"/><path d="m28.975 20.955-6.391 11.06a.295.295 0 0 1-.096-.095l-1.47-2.504a.279.279 0 0 1 0-.261l4.644-8.053a.271.271 0 0 0 0-.139h3.244l.07-.008z" fill="#008AAA"/><path d="M32.14 20.955a.269.269 0 0 1 0 .139L25.89 31.92a.27.27 0 0 1-.235.13h-2.896a.295.295 0 0 1-.139 0l6.357-11.095 1.608-2.765 1.522 2.608a.27.27 0 0 1 .035.157zM28.976 20.955h-3.244a.27.27 0 0 0 0-.14l-4.713-8.034a.27.27 0 0 1 0-.278l1.478-2.505a.296.296 0 0 1 .096-.095l6.383 11.052z" fill="#00B8E3"/><path d="m30.585 18.19-1.609 2.765-6.382-11.052a.295.295 0 0 1 .139 0h2.887a.27.27 0 0 1 .235.13l4.73 8.156z" fill="#33C6E9"/></g><defs><linearGradient id="c" x1="-.172" y1="21.198" x2="164.567" y2="21.198" gradientUnits="userSpaceOnUse"><stop stop-color="#E6E6E6"/><stop offset="1" stop-color="#595959"/></linearGradient><clipPath id="a"><path fill="#fff" transform="translate(.205 .833)" d="M0 0h40v40H0z"/></clipPath></defs></svg>