<svg width="42" height="41" fill="none" xmlns="http://www.w3.org/2000/svg"><path d="M37.76 9.781c-.236-.757-.804-1.372-1.514-1.75L21.813 1.12C21.435.932 21.01.885 20.63.885c-.378 0-.804 0-1.183.094L5.015 7.935c-.71.332-1.23.947-1.42 1.751L.046 25.255a2.985 2.985 0 0 0 .52 2.271l9.985 12.35a3.445 3.445 0 0 0 2.177.994h15.9c.851.095 1.656-.283 2.176-.993l9.985-12.35a3.231 3.231 0 0 0 .568-2.272L37.76 9.78z" fill="#326DE6"/><path d="M35.536 24.64c-.047 0-.094 0-.094-.048s-.095-.048-.19-.048c-.189-.047-.378-.047-.567-.047-.095 0-.19 0-.284-.047h-.048a9.57 9.57 0 0 1-1.609-.284.572.572 0 0 1-.33-.331c.047 0 0 0 0 0l-.38-.095c.19-1.372.095-2.792-.189-4.164a12.82 12.82 0 0 0-1.656-3.88l.284-.284v-.048c0-.142.047-.331.142-.426a8.472 8.472 0 0 1 1.325-.946l.284-.142c.19-.095.331-.19.52-.284.048-.047.095-.047.142-.095.048-.047 0-.047 0-.094.426-.331.52-.9.19-1.325a.904.904 0 0 0-.663-.331c-.236 0-.473.094-.662.236l-.048.047c-.047.048-.094.095-.142.095a3.057 3.057 0 0 0-.378.426c-.047.095-.142.142-.19.19a6.218 6.218 0 0 1-1.182 1.04c-.095.048-.19.095-.284.095-.048 0-.142 0-.19-.047h-.047l-.378.236c-.38-.378-.805-.757-1.183-1.135-1.751-1.373-3.928-2.224-6.152-2.461l-.048-.379v.048c-.141-.095-.189-.237-.236-.379 0-.52 0-1.04.095-1.609v-.047c0-.095.047-.19.047-.284.047-.19.047-.379.095-.568v-.284c.047-.473-.332-.946-.805-.993-.284-.048-.568.094-.804.33a.935.935 0 0 0-.284.663v.237c0 .19.047.378.094.568.048.094.048.189.048.284v.047c.094.52.094 1.041.094 1.609-.047.142-.094.284-.236.378v.095l-.048.379c-.52.047-1.04.142-1.608.236-2.225.473-4.26 1.656-5.82 3.313l-.285-.19h-.047c-.048 0-.095.048-.19.048-.094 0-.189-.048-.283-.095a8.722 8.722 0 0 1-1.183-1.088c-.048-.095-.142-.142-.19-.19-.142-.142-.236-.283-.378-.425-.048-.048-.095-.048-.142-.095l-.047-.047a1.131 1.131 0 0 0-.663-.237c-.284 0-.52.095-.662.331-.284.426-.19.994.189 1.325.047 0 .047.048.047.048s.095.094.142.094c.142.095.331.19.52.284l.285.142c.473.284.946.568 1.325.946.094.095.189.284.142.426v-.047l.283.284c-.047.094-.094.142-.141.236-1.467 2.32-2.083 5.064-1.657 7.761l-.378.095c0 .047-.048.047-.048.047-.047.142-.189.237-.33.331a8.785 8.785 0 0 1-1.61.284c-.094 0-.189 0-.284.047-.189 0-.378.048-.568.048-.047 0-.094.047-.189.047-.047 0-.047 0-.094.047a.923.923 0 0 0-.758 1.089c.095.426.521.71.947.662.094 0 .142 0 .236-.047.048 0 .048 0 .048-.047 0-.048.142 0 .189 0 .19-.048.379-.142.52-.19.095-.047.19-.094.284-.094h.048c.52-.19.994-.332 1.561-.426h.048c.142 0 .284.047.378.142.048 0 .048.047.048.047l.425-.047c.71 2.177 2.035 4.117 3.88 5.536.427.331.805.615 1.278.852l-.236.331c0 .048.047.048.047.048a.56.56 0 0 1 .047.473c-.189.473-.473.946-.757 1.372v.047c-.047.095-.094.142-.189.237s-.19.284-.331.473c-.048.047-.048.095-.095.142 0 0 0 .047-.047.047a.974.974 0 0 0 .378 1.278.876.876 0 0 0 .332.095c.378 0 .71-.237.899-.568 0 0 0-.047.047-.047 0-.048.047-.095.095-.142.047-.19.142-.332.189-.52l.095-.285c.142-.52.378-.994.615-1.467a.736.736 0 0 1 .378-.284c.048 0 .048 0 .048-.047l.189-.379c1.325.521 2.697.758 4.117.758.851 0 1.703-.095 2.555-.332.52-.094 1.041-.284 1.514-.425l.19.33c.047 0 .047 0 .047.048a.736.736 0 0 1 .378.284c.237.473.474.946.616 1.467v.047l.094.284c.048.19.095.379.19.52.047.048.047.095.094.143 0 0 0 .047.047.047.19.331.521.568.9.568.142 0 .236-.047.378-.095.19-.095.379-.284.426-.52a1.217 1.217 0 0 0-.047-.71c0-.047-.048-.047-.048-.047 0-.048-.047-.095-.094-.142a1.702 1.702 0 0 0-.331-.474.83.83 0 0 0-.19-.236v-.095a5.593 5.593 0 0 1-.757-1.372.56.56 0 0 1 .047-.473c0-.048.048-.048.048-.048l-.142-.378c2.413-1.467 4.259-3.739 5.11-6.436l.379.047c.047 0 .047-.047.047-.047a.537.537 0 0 1 .379-.142h.047c.52.095 1.041.237 1.514.426h.048c.094.047.189.095.284.095.189.094.33.189.52.236.047 0 .095.048.19.048.047 0 .047 0 .094.047a.427.427 0 0 0 .237.047c.426 0 .804-.284.946-.662-.047-.52-.426-.9-.852-.994zm-13.675-1.468-1.278.615-1.277-.615-.332-1.372.9-1.136h1.419l.899 1.136-.331 1.372zm7.713-3.076a9.06 9.06 0 0 1 .19 2.982L25.267 21.8c-.426-.095-.663-.52-.568-.947a.762.762 0 0 1 .19-.33l3.548-3.219c.52.852.9 1.799 1.136 2.792zm-2.555-4.542-3.88 2.744c-.332.19-.805.142-1.042-.19a.43.43 0 0 1-.142-.33l-.283-4.78c2.082.237 3.927 1.136 5.347 2.556zm-8.565-2.414.946-.19-.236 4.733c0 .426-.379.757-.805.757-.142 0-.237-.047-.379-.095l-3.927-2.791c1.23-1.183 2.744-2.035 4.4-2.414zm-5.773 4.164 3.501 3.124a.76.76 0 0 1 .095 1.088c-.095.142-.19.19-.379.237l-4.59 1.325a9.962 9.962 0 0 1 1.373-5.774zm-.805 7.998 4.685-.805c.378 0 .757.237.804.615a.56.56 0 0 1-.047.474l-1.798 4.353c-1.656-1.088-2.981-2.745-3.644-4.637zm10.742 5.867a9.58 9.58 0 0 1-2.035.237c-.994 0-2.035-.19-2.981-.473l2.319-4.212c.236-.284.615-.378.946-.19.142.096.237.19.379.332l2.271 4.117c-.284.047-.568.095-.9.19zm5.773-4.117a9.036 9.036 0 0 1-2.84 2.84l-1.845-4.448a.77.77 0 0 1 .426-.9c.142-.047.284-.094.426-.094l4.732.804c-.236.663-.52 1.278-.899 1.798z" fill="#fff"/></svg>