<svg width="41" height="41" fill="none" xmlns="http://www.w3.org/2000/svg"><path d="M33.495 25.876c-.014 6.801-4.955 12.292-11.483 13.037-8.102.924-15.072-5.753-14.437-13.851.165-2.166.883-4.153 2.015-6.015.22-.36.358-.4.731-.18 3.12 1.849 6.266 3.642 9.386 5.505.58.345 1.02.372 1.6.014 3.092-1.849 6.225-3.642 9.33-5.477.387-.235.608-.262.857.179 1.31 2.18 2.056 4.511 2 6.788z" fill="#00A2FE"/><path d="M29.396 15.805c-2.167-3.353-4.307-6.72-6.46-10.085-.773-1.214-1.56-2.428-2.36-3.684-.11.124-.18.18-.22.248-2.9 4.526-5.784 9.05-8.696 13.562-.276.442-.124.566.22.773 2.747 1.586 5.48 3.173 8.213 4.773.317.18.566.207.883.014 2.733-1.6 5.48-3.187 8.227-4.76.4-.248.455-.428.193-.841zm-3.216.262c-1.712.98-3.423 1.973-5.12 2.98-.387.234-.663.234-1.05 0a207.511 207.511 0 0 0-5.355-3.104c-.414-.235-.442-.4-.193-.787 1.96-3.021 3.892-6.056 5.824-9.091.055-.097.138-.166.262-.318.746 1.145 1.45 2.235 2.154 3.325 1.256 1.945 2.498 3.89 3.754 5.85.497.73.483.717-.276 1.145z" fill="#00A2FE"/></svg>