<svg width="26" height="26" fill="none" xmlns="http://www.w3.org/2000/svg"><path fill-rule="evenodd" clip-rule="evenodd" d="M21.01 5.022C23.953 6.484 26 9.49 26 13c0 3.413-1.966 6.516-5.022 8.01C19.516 23.953 16.51 26 13 26c-3.412 0-6.516-1.967-8.01-5.022C2.047 19.516 0 16.51 0 13c0-3.412 1.967-6.516 5.022-8.01C6.484 2.047 9.49 0 13 0c3.412 0 6.516 1.967 8.01 5.022zm-4.551 8.097c0-.967-.201-1.903-.568-2.804a7.654 7.654 0 0 0-2.772-.535 7.39 7.39 0 0 0-2.804.568 7.585 7.585 0 0 0-.535 2.771c0 .968.2 1.903.568 2.805a7.585 7.585 0 0 0 2.771.535 7.39 7.39 0 0 0 2.805-.568 7.585 7.585 0 0 0 .535-2.772zM13.044 1.67c2.163 0 4.196.96 5.561 2.57a9.117 9.117 0 0 0-1.495-.13c-3.627 0-6.733 2.164-8.149 5.27h-.016v.032a8.813 8.813 0 0 0-.65 5.14 7.362 7.362 0 0 1-2.57-5.562c0-4.034 3.285-7.32 7.319-7.32zM4.24 7.396a7.495 7.495 0 0 0-2.57 5.664c0 4.109 3.285 7.455 7.319 7.455 2.162 0 4.195-.995 5.561-2.618a8.679 8.679 0 0 1-5.139-.662H9.38v-.017a9.129 9.129 0 0 1-5.14-9.822zm8.82 17.174a7.438 7.438 0 0 1-5.665-2.618 9.283 9.283 0 0 0 1.523.133c3.694 0 6.857-2.204 8.3-5.367h.016v-.033a8.977 8.977 0 0 0 .662-5.235 7.498 7.498 0 0 1 2.618 5.665c0 4.108-3.346 7.455-7.455 7.455zm3.638-15.623c.005.002.01.006.019.015 3.163 1.416 5.367 4.522 5.367 8.149 0 .503-.05 1.007-.133 1.495a7.249 7.249 0 0 0 2.618-5.561c0-4.034-3.346-7.32-7.454-7.32a7.556 7.556 0 0 0-5.665 2.57 9.118 9.118 0 0 1 5.234.65l.014.002z" fill="#ED6965"/></svg>