<svg width="40" height="41" fill="none" xmlns="http://www.w3.org/2000/svg"><g clip-path="url(#a)"><path d="M0 27.912V13.858C0 2.506 1.62.885 12.96.885h14.08C38.38.885 40 2.506 40 13.858v14.054c0 11.351-1.62 12.973-12.96 12.973H12.96C1.62 40.885 0 39.263 0 27.912z" fill="url(#b)"/><path d="M8.635 8.427C6.67 20.89 7.698 32.554 7.698 32.554h6.146c-.585-3.11-2.683-17.323-.938-17.37.936.15 5.209 12.058 5.209 12.058s.94-.117 1.888-.117a17.5 17.5 0 0 1 1.888.117s4.274-11.909 5.209-12.057c1.745.046-.353 14.259-.937 17.37h6.146s1.029-11.667-.938-24.128h-5.69c-1.083.012-5.204 7.24-5.677 7.24-.474 0-4.595-7.227-5.678-7.24h-5.69z" fill="url(#c)"/><path d="M18.79 31.1a1.454 1.454 0 1 1-2.907 0 1.454 1.454 0 0 1 2.908 0z" fill="url(#d)"/><path d="M24.124 31.1a1.454 1.454 0 1 1-2.908 0 1.454 1.454 0 0 1 2.909 0z" fill="url(#e)"/><path opacity=".1" d="M31.08 8.839c.887 6.003 1.095 11.765 1.08 16.057-.018 4.39-.27 7.242-.27 7.242h-5.173l-.556.416h6.146s1.029-11.666-.937-24.127l-.29.412zm-16.285-.152c1.614 1.796 4.408 6.563 4.79 6.563-1.023-1.31-3.538-5.486-4.79-6.563zm-2.305 6.08c-1.745.048.353 14.26.938 17.37H8.063l-.364.417h6.145c-.582-3.095-2.66-17.18-.963-17.37-.158-.237-.295-.4-.39-.416zm14.194 0c-.935.15-5.209 12.058-5.209 12.058s-.94-.117-1.887-.117c-.56 0-1.043.035-1.37.065l-.1.469s.94-.117 1.887-.117c.947 0 1.888.117 1.888.117s4.24-11.83 5.196-12.057c-.103-.26-.23-.412-.404-.417h-.001z" fill="#000"/><path opacity=".3" d="M8.636 8.428c-1.967 12.46-.938 24.126-.938 24.126l.362-.406c-.185-2.753-.68-12.707.992-23.305h5.69c.12.002.281.1.47.26-.373-.414-.683-.674-.886-.676h-5.69zm17.045 0c-1.083.012-5.204 7.24-5.677 7.24.193.246.35.416.416.416.474 0 4.594-7.226 5.677-7.24h5.022l.252-.416h-5.69zm-12.383 7.174c1.382 2.076 4.818 11.64 4.818 11.64l.1-.466c-.848-2.325-4.08-11.045-4.892-11.174h-.026zm14.219 0c.927 2.365-.828 14.154-1.354 16.952l.558-.435c.711-4.175 2.425-16.474.796-16.517z" fill="#fff"/></g><defs><radialGradient id="d" cx="0" cy="0" r="1" gradientUnits="userSpaceOnUse" gradientTransform="translate(17.086 30.888) scale(1.45453)"><stop stop-color="#DB7C7C"/><stop offset="1" stop-color="#C83737"/></radialGradient><radialGradient id="e" cx="0" cy="0" r="1" gradientUnits="userSpaceOnUse" gradientTransform="translate(22.503 30.888) scale(1.45453)"><stop stop-color="#DB7C7C"/><stop offset="1" stop-color="#C83737"/></radialGradient><linearGradient id="b" x1="20" y1="40.885" x2="20" y2=".885" gradientUnits="userSpaceOnUse"><stop stop-color="#574C4A"/><stop offset="1" stop-color="#80716D"/></linearGradient><linearGradient id="c" x1="29.734" y1="32.167" x2="15.004" y2="6.332" gradientUnits="userSpaceOnUse"><stop stop-color="#268D83"/><stop offset="1" stop-color="#2EA19E"/></linearGradient><clipPath id="a"><path fill="#fff" transform="translate(0 .885)" d="M0 0h40v40H0z"/></clipPath></defs></svg>