<svg width="80" height="14" fill="none" xmlns="http://www.w3.org/2000/svg"><path d="M25.952 1.18h4.48v11.687h-4.48V1.18zm-5.431.16-9.096 4.907a.45.45 0 0 1-.42 0L1.908 1.341a1.376 1.376 0 0 0-.65-.162h-.012a1.177 1.177 0 0 0-.848.294A1.19 1.19 0 0 0 0 2.28v10.573h4.477V7.82a.455.455 0 0 1 .468-.402.45.45 0 0 1 .214.065l5.097 2.754a1.78 1.78 0 0 0 1.641.014l5.379-2.787a.45.45 0 0 1 .674.341v5.048h4.477V2.28a1.19 1.19 0 0 0-.398-.808 1.177 1.177 0 0 0-.847-.294h-.011c-.227 0-.45.055-.65.162zm32.255-.16h-4.544v5.319a.453.453 0 0 1-.448.403.447.447 0 0 1-.21-.054l-11.777-5.54a1.383 1.383 0 0 0-.586-.129h-.008a1.177 1.177 0 0 0-.849.294 1.19 1.19 0 0 0-.398.808v10.573h4.508V7.541a.455.455 0 0 1 .237-.35.447.447 0 0 1 .42 0l11.824 5.54c.183.085.382.129.584.128.31.019.615-.087.849-.293a1.19 1.19 0 0 0 .398-.808V1.179zM56.3 12.866V1.18h2.062v11.688h-2.062zm14.196.208c-5.546 0-9.48-2.324-9.48-6.05 0-3.705 3.958-6.05 9.48-6.05C76.018.975 80 3.299 80 7.025s-3.887 6.05-9.505 6.05zm0-10.551c-4.124 0-7.3 1.59-7.3 4.5 0 2.932 3.176 4.502 7.3 4.502 4.125 0 7.324-1.57 7.324-4.501 0-2.91-3.2-4.501-7.324-4.501z" fill="#C72C48"/></svg>