<svg width="41" height="41" fill="none" xmlns="http://www.w3.org/2000/svg"><path d="m20.383 1.309.934 1.853c.21.342.438.645.706.926a25.486 25.486 0 0 1 2.192 2.619c1.584 2.195 2.652 4.633 3.414 7.27.457 1.61.706 3.262.724 4.933.077 4.995-1.544 9.284-4.814 12.848a14.125 14.125 0 0 1-1.718 1.55c-.323 0-.477-.262-.61-.503a4.302 4.302 0 0 1-.477-1.45c-.115-.605-.19-1.209-.153-1.833v-.282c-.026-.06-.312-27.79-.198-27.931z" fill="#599636"/><path d="M20.143 1.348c-.038-.08-.077-.02-.115.02.018.398-.116.754-.326 1.093-.23.337-.536.596-.842.874-1.703 1.53-3.044 3.377-4.117 5.443-1.429 2.78-2.165 5.76-2.374 8.898-.095 1.131.345 5.125.69 6.277.938 3.058 2.623 5.621 4.806 7.846.536.535 1.11 1.032 1.703 1.51.173 0 .191-.16.231-.278a5.62 5.62 0 0 0 .172-.775l.385-2.98-.213-27.928z" fill="#6CAC48"/><path d="M20.875 34.734c.039-.453.25-.829.481-1.203-.232-.099-.404-.295-.538-.513a3.71 3.71 0 0 1-.287-.651c-.27-.83-.327-1.699-.404-2.545v-.513c-.096.079-.116.75-.116.849a20.154 20.154 0 0 1-.346 2.664c-.057.355-.096.71-.309 1.026 0 .04 0 .079.019.138.346 1.046.441 2.111.5 3.197v.396c0 .474-.02.374.364.533.154.058.326.079.48.197.116 0 .135-.099.135-.178l-.057-.651v-1.816c-.019-.317.038-.632.077-.929h.001z" fill="#C2BFBF"/></svg>