<svg width="56" height="26" fill="none" xmlns="http://www.w3.org/2000/svg"><g clip-path="url(#a)"><path d="M3.63 5.478h.76c.506 0 .912.303 1.064.785l2.94 8.814 2.965-8.814a1.11 1.11 0 0 1 1.064-.785h.71c.582 0 1.064.43 1.115.987 1.039 8.08 2.889 18.515 14.217 17.755a14.102 14.102 0 0 0 2.838-.506C18.43 28.653 14.4 19.585 12.423 10.518L9.762 18.42a1.11 1.11 0 0 1-1.064.785h-.685c-.506 0-.912-.303-1.064-.785l-2.636-7.902-1.343 7.75a1.117 1.117 0 0 1-1.115.938h-.253c-.355 0-.634-.127-.862-.406a1.087 1.087 0 0 1-.253-.912L2.463 6.415a1.218 1.218 0 0 1 1.166-.937zM20.025 1.704c8.972-4.053 16.372.152 19.615 7.775l2.002-3.85c.203-.38.583-.607 1.014-.607h.254c.405 0 .76.202.963.532.202.354.228.76.05 1.114l-3.168 6.13v4.812c0 .633-.506 1.14-1.14 1.14h-.38c-.634 0-1.14-.507-1.14-1.14v-4.813c-1.014-4.837-4.106-11.65-15.206-11.6-1.014 0-1.977.253-2.864.507zM44.862 18.572h.279c.481 0 .912-.304 1.064-.76l3.193-9.017 1.42 3.952h-1.85l-.685 2.026h3.27l1.089 3.04c.177.455.583.76 1.064.76h.279c.38 0 .71-.178.938-.482.228-.304.279-.684.126-1.039L50.893 5.58c-.177-.456-.583-.76-1.064-.76h-.938c-.481 0-.912.304-1.064.76l-4.055 11.473c-.127.355-.076.735.152 1.039.228.33.558.481.938.481z" fill="#666"/><path d="M26.285 4.87a7.813 7.813 0 0 1 6.36 3.242 5.879 5.879 0 0 0-3.522-1.165 5.893 5.893 0 0 0-5.905 5.901 5.893 5.893 0 0 0 5.905 5.902c1.115 0 2.18-.304 3.067-.862a7.803 7.803 0 0 1-5.905 2.66c-4.334 0-7.856-3.52-7.856-7.852 0-4.331 3.522-7.826 7.856-7.826z" fill="#37C8AB"/><path d="M29.123 7.174c3.117 0 5.677 2.533 5.677 5.674a5.666 5.666 0 0 1-5.677 5.673 5.626 5.626 0 0 1-4.03-1.671 4.352 4.352 0 0 0 2.13.532 4.52 4.52 0 0 0 4.51-4.509 4.52 4.52 0 0 0-4.51-4.508c-.786 0-1.496.202-2.13.532 1.04-1.064 2.459-1.723 4.03-1.723z" fill="#37C8AB"/><path d="M26.995 9.277a3.6 3.6 0 0 1 2.94 1.494 2.782 2.782 0 0 0-1.647-.532 2.725 2.725 0 0 0-2.738 2.736 2.725 2.725 0 0 0 2.738 2.735c.532 0 1.013-.152 1.419-.405a3.623 3.623 0 0 1-2.737 1.241 3.622 3.622 0 0 1-3.624-3.622 3.633 3.633 0 0 1 3.649-3.647z" fill="#37C8AB"/><path d="M28.338 11.202c.912 0 1.647.734 1.647 1.646 0 .912-.735 1.646-1.647 1.646-.457 0-.862-.177-1.166-.48.177.1.405.151.633.151.735 0 1.318-.582 1.318-1.317s-.583-1.317-1.318-1.317c-.228 0-.43.05-.633.152.304-.304.71-.481 1.166-.481zM34.142 22.498l.304 1.039.279-.963a.554.554 0 0 1 .076-.203c.025-.025.05-.075.076-.1a.36.36 0 0 1 .152-.052c.076 0 .127.026.152.051.05.026.076.076.076.102.025.05.05.1.076.202l.279.963.304-1.039c.025-.076.025-.127.05-.152.026-.025.026-.05.076-.076a.194.194 0 0 1 .127-.05.36.36 0 0 1 .152.05c.05.05.05.076.05.127 0 .05-.024.127-.05.228l-.38 1.114a.856.856 0 0 1-.076.203.347.347 0 0 1-.076.101.36.36 0 0 1-.152.05.365.365 0 0 1-.177-.05c-.051-.025-.077-.076-.102-.127a.477.477 0 0 1-.05-.202l-.254-.912-.253.912c-.026.127-.076.228-.102.279-.05.076-.101.1-.202.1-.051 0-.102 0-.127-.024-.026-.026-.076-.051-.101-.076-.026-.026-.051-.076-.077-.127-.025-.05-.025-.101-.05-.127l-.38-1.114c-.026-.102-.051-.177-.051-.228 0-.05.025-.101.05-.127.051-.05.077-.05.153-.05s.126.025.152.076c.025.025.05.1.076.202zm3.801.785h-.912a.51.51 0 0 0 .076.279c.05.076.101.152.177.177.076.05.152.05.228.05.051 0 .102 0 .152-.024.051-.026.102-.026.127-.051.05-.025.076-.05.127-.101a.96.96 0 0 1 .152-.127c.025-.025.05-.025.101-.025.05 0 .076.025.127.05.025.026.05.05.05.102 0 .05-.025.1-.05.152a.43.43 0 0 1-.152.151.792.792 0 0 1-.254.127c-.1.026-.228.05-.354.05-.304 0-.532-.075-.71-.253-.177-.177-.253-.405-.253-.683 0-.127.025-.254.05-.38a.877.877 0 0 1 .178-.304c.076-.076.177-.152.279-.203.126-.05.253-.076.38-.076.177 0 .33.05.456.127a.873.873 0 0 1 .304.304.714.714 0 0 1 .101.38c0 .126-.025.202-.101.228a.677.677 0 0 1-.279.05zm-.912-.278h.836a.501.501 0 0 0-.127-.355.42.42 0 0 0-.304-.127.363.363 0 0 0-.279.127c-.05.101-.1.203-.126.355zm2.078-1.216v.71a.718.718 0 0 1 .279-.203.702.702 0 0 1 .33-.076c.151 0 .278.025.405.1.126.077.202.178.278.33.076.127.102.304.102.507 0 .152-.026.278-.051.38a.578.578 0 0 1-.152.303c-.076.076-.152.152-.253.203a.7.7 0 0 1-.33.076c-.076 0-.127 0-.203-.025-.05-.026-.126-.05-.152-.076-.05-.026-.076-.05-.101-.076l-.127-.127v.05a.477.477 0 0 1-.05.204c-.051.05-.102.076-.153.076-.075 0-.126-.026-.152-.076-.05-.051-.05-.102-.05-.203V21.84c0-.102.025-.178.05-.203.051-.05.102-.076.152-.076a.23.23 0 0 1 .178.076c-.026 0 0 .076 0 .152zm.025 1.393c0 .177.05.33.127.43a.409.409 0 0 0 .33.153c.126 0 .227-.051.303-.152a.724.724 0 0 0 .127-.431.943.943 0 0 0-.05-.304.41.41 0 0 0-.38-.279c-.077 0-.178.026-.229.076a.395.395 0 0 0-.152.203c-.05.05-.076.177-.076.304zm3.041-.71v.051a.79.79 0 0 1 .28-.227.7.7 0 0 1 .328-.076c.153 0 .28.025.406.1a.6.6 0 0 1 .279.33c.076.152.101.304.101.507 0 .152-.025.278-.05.405a.876.876 0 0 1-.178.304c-.076.076-.152.152-.253.177a.674.674 0 0 1-.305.076.634.634 0 0 1-.329-.076.718.718 0 0 1-.253-.228v.71c0 .202-.076.303-.228.303-.076 0-.152-.025-.178-.076a.504.504 0 0 1-.05-.228v-2c0-.076.025-.152.05-.203.05-.05.102-.076.152-.076.076 0 .127.025.152.076.051 0 .076.076.076.152zm.913.685a.946.946 0 0 0-.051-.304c-.025-.076-.101-.152-.152-.203a.409.409 0 0 0-.228-.076.446.446 0 0 0-.33.152c-.076.101-.126.253-.126.456 0 .177.05.33.126.43a.409.409 0 0 0 .33.153.288.288 0 0 0 .203-.076.314.314 0 0 0 .152-.203.7.7 0 0 0 .076-.33zm.836.683v-2.026c0-.101.025-.152.05-.202a.23.23 0 0 1 .178-.076.23.23 0 0 1 .177.076c.051.05.076.126.076.202v2.026c0 .102-.025.178-.076.203a.23.23 0 0 1-.177.076.23.23 0 0 1-.177-.076.477.477 0 0 1-.051-.203zm2.129 0a2.312 2.312 0 0 1-.33.203.81.81 0 0 1-.355.076.54.54 0 0 1-.304-.076.395.395 0 0 1-.202-.203.488.488 0 0 1-.076-.253c0-.126.05-.228.126-.329s.203-.152.33-.177c.025 0 .101-.026.228-.051a2.61 2.61 0 0 0 .304-.076c.076-.025.177-.05.279-.076a.455.455 0 0 0-.076-.279c-.051-.05-.127-.076-.28-.076-.126 0-.202.026-.278.051a.43.43 0 0 0-.152.152.688.688 0 0 1-.101.127c-.026.025-.051.025-.102.025a.194.194 0 0 1-.126-.05.194.194 0 0 1-.051-.127c0-.076.025-.152.076-.228a.613.613 0 0 1 .279-.203c.127-.05.279-.076.456-.076.203 0 .355.026.481.076.127.05.203.127.254.228.05.101.076.253.076.405v.532c0 .076.025.178.05.279.026.101.051.152.051.177a.14.14 0 0 1-.076.127c-.05.05-.101.05-.152.05-.05 0-.101-.025-.152-.076-.076 0-.127-.05-.177-.152zm-.026-.658c-.076.025-.177.05-.304.076-.127.025-.228.05-.279.05l-.152.077c-.05.05-.076.1-.076.152a.23.23 0 0 0 .076.177c.051.05.127.076.203.076.102 0 .178-.025.254-.05.076-.051.126-.102.177-.153.05-.076.05-.177.05-.354l.051-.051zm.862-.912h.05v-.456c0-.05.026-.076.026-.101l.076-.076c.025-.025.076-.025.127-.025.05 0 .101.025.152.076.025.025.05.076.05.1 0 .052.026.102.026.178v.33h.177c.076 0 .127.025.152.05.026.026.051.076.051.127a.14.14 0 0 1-.076.126c-.05.026-.127.026-.203.026h-.076v1.038c0 .05.026.076.05.102.026.025.052.025.102.025.026 0 .076 0 .102-.025.05 0 .076-.026.101-.026.025 0 .076.026.101.05.026.026.051.077.051.102 0 .076-.05.127-.127.178-.076.05-.202.05-.355.05-.151 0-.253-.025-.329-.076a.394.394 0 0 1-.152-.203c-.025-.075-.025-.202-.025-.354v-.887h-.051c-.076 0-.127-.025-.152-.05a.193.193 0 0 1-.05-.127c0-.05.025-.076.05-.127.025-.025.076-.025.152-.025zm1.166 0h.101v-.152c0-.152.026-.253.05-.354a.306.306 0 0 1 .178-.178c.076-.05.203-.05.355-.05.279 0 .406.076.406.202 0 .05-.026.076-.051.102-.026.025-.05.05-.102.05h-.202c-.076 0-.127.026-.152.076-.026.05-.026.127-.026.203v.101h.127c.177 0 .253.05.253.152 0 .076-.025.127-.076.152-.05.025-.101.025-.202.025h-.127v1.241c0 .102-.025.152-.076.203a.23.23 0 0 1-.178.076c-.075 0-.126-.025-.151-.076a.287.287 0 0 1-.077-.203V22.6h-.126c-.076 0-.127-.026-.152-.051a.193.193 0 0 1-.051-.127c.05-.101.127-.152.279-.152zm2.889.887a.925.925 0 0 1-.076.38.877.877 0 0 1-.178.303.911.911 0 0 1-.304.203.926.926 0 0 1-.38.076.846.846 0 0 1-.38-.076 1.058 1.058 0 0 1-.304-.203.607.607 0 0 1-.178-.303 1.016 1.016 0 0 1-.075-.38c0-.152.025-.279.075-.38a.875.875 0 0 1 .178-.304.91.91 0 0 1 .304-.203c.127-.05.253-.076.38-.076.152 0 .279.026.38.076.127.05.203.102.304.203a.609.609 0 0 1 .178.304c.076.126.076.253.076.38zm-.456 0c0-.178-.051-.33-.127-.43a.409.409 0 0 0-.33-.153c-.1 0-.177.025-.228.076a.395.395 0 0 0-.152.203c-.025.101-.05.202-.05.329s.025.228.05.33c.026.1.102.151.152.202.076.05.152.076.254.076.152 0 .253-.05.33-.152.05-.127.1-.279.1-.481zm1.292.278v.38c0 .101-.025.177-.076.203a.23.23 0 0 1-.177.076.23.23 0 0 1-.178-.076.287.287 0 0 1-.076-.203v-1.292c0-.202.076-.303.228-.303a.23.23 0 0 1 .178.076c.025.05.05.126.05.227a.551.551 0 0 1 .178-.227c.05-.051.127-.076.228-.076a.51.51 0 0 1 .279.076c.101.05.126.126.126.202 0 .05-.025.101-.05.152-.051.025-.076.05-.127.05-.025 0-.05 0-.127-.025-.076-.025-.127-.025-.177-.025a.366.366 0 0 0-.177.05c-.051.026-.077.102-.102.153-.025.076-.05.152-.05.253.05.076.05.203.05.33zm2.61-.228v.608c0 .101-.025.177-.076.228a.23.23 0 0 1-.177.076.23.23 0 0 1-.178-.076c-.05-.05-.076-.127-.076-.228v-1.013c0-.076-.025-.127-.076-.152-.025-.05-.1-.05-.177-.05-.152 0-.253.05-.304.151-.05.102-.076.254-.076.456v.633c0 .102-.025.178-.076.229a.23.23 0 0 1-.178.076.23.23 0 0 1-.177-.076c-.05-.051-.076-.127-.076-.229v-1.342c0-.076.026-.152.05-.203.051-.05.102-.076.153-.076.076 0 .127.026.152.076a.23.23 0 0 1 .076.178v.05a.596.596 0 0 1 .253-.202.675.675 0 0 1 .304-.076c.127 0 .228.025.305.076.076.05.152.127.202.202.076-.1.152-.177.254-.202a.703.703 0 0 1 .634 0c.1.05.151.127.202.202.05.076.05.228.05.406v.912c0 .1-.025.177-.075.227a.23.23 0 0 1-.178.076.23.23 0 0 1-.177-.075c-.05-.051-.076-.127-.076-.229v-.785c0-.101 0-.177-.026-.228 0-.05-.025-.1-.075-.152-.026-.05-.102-.05-.178-.05a.47.47 0 0 0-.177.05.26.26 0 0 0-.127.152c.127.026.101.178.101.38z" fill="#37C8AB"/></g><defs><clipPath id="a"><path fill="#fff" transform="translate(.5 .137)" d="M0 0h55v25H0z"/></clipPath></defs></svg>