<svg width="41" height="41" fill="none" xmlns="http://www.w3.org/2000/svg"><g clip-path="url(#a)"><path d="m27.12 14.96-4.417 1.443-3.843 1.696-1.075.284a31.12 31.12 0 0 1-1.773 1.546c-.27.214-.671.614-.875.868-.304.38-.544.785-.648 1.095-.183.561-.093 1.129.26 1.653.455.668 1.36 1.349 2.415 1.813.537.237 1.442.541 2.123.711 1.132.287 3.323.598 4.528.645.244.01.57.01.584 0 .027-.017.214-.374.43-.818.742-1.513 1.276-2.932 1.567-4.144.174-.735.31-1.713.4-2.871.024-.324.034-1.41.014-1.777-.03-.6-.084-1.088-.167-1.566-.013-.07-.017-.133-.01-.137.013-.01.053-.023.598-.18l-.11-.26zm-1.008.592c.04 0 .147 1.025.174 1.672a.9.9 0 0 1-.004.227c-.026 0-.564-.317-.948-.557-.334-.21-.968-.631-1.068-.711-.034-.024-.03-.027.243-.12.465-.157 1.566-.511 1.603-.511zm-2.25.74c.03 0 .107.044.29.158.688.43 1.623.951 2.023 1.125.124.053.137.033-.146.227-.608.414-1.366.821-2.294 1.232-.164.074-.3.13-.304.13a.876.876 0 0 1 .04-.183c.224-.832.35-1.673.357-2.348.004-.334.004-.334.034-.343-.007.003-.004.003 0 .003zm-.464.178c.02.02.006.768-.02.971a8.502 8.502 0 0 1-.384 1.687c-.014.016-.471-.431-.622-.605-.26-.3-.464-.6-.614-.895-.077-.15-.197-.444-.187-.454.054-.036 1.813-.718 1.827-.704zm-2.184.858c.003 0 .007 0 .01.003.007.007.03.06.05.12.107.29.347.718.554.992a5.652 5.652 0 0 0 .935.972c.02.02.027.016-.517.224-.631.24-1.32.48-2.107.734-.188.06-.377.122-.564.184-.03.01-.02-.007.066-.144.39-.611.985-1.81 1.32-2.658.056-.147.113-.293.123-.327.013-.047.03-.063.073-.087.023-.006.047-.013.057-.013zm-.668.277c.01.007-.16.364-.327.691a25.887 25.887 0 0 1-1.152 2.007c-.08.13-.157.25-.167.264-.017.023-.023.016-.077-.087a3.063 3.063 0 0 1-.257-.775c-.05-.26-.04-.714.017-.995.043-.207.04-.203.14-.254.427-.216 1.81-.864 1.823-.851zm5.76.234v.14c0 .745-.08 1.766-.197 2.51-.02.131-.037.238-.04.241 0 0-.097-.026-.21-.06a8.615 8.615 0 0 1-1.537-.658c-.323-.177-.794-.467-.78-.48.002-.004.143-.077.306-.164.655-.34 1.282-.708 1.827-1.072.203-.137.51-.357.577-.417l.054-.04zm-8.28.988c.012 0 .01.027-.01.147a4.69 4.69 0 0 0-.037.357c-.027.488.053.848.293 1.343.067.136.12.25.117.253-.023.02-2.234.668-2.928.858l-.4.11c-.024.007-.027.004-.018-.053.077-.49.451-1.132.972-1.673.347-.36.625-.57 1.099-.841.34-.194.864-.484.904-.498 0-.003.004-.003.007-.003zm5.208.932c.003-.004.083.04.18.096.715.415 1.71.799 2.558.995l.077.017-.107.06c-.444.247-1.903.855-3.396 1.413-.217.08-.43.16-.47.177a.241.241 0 0 1-.078.023c0-.003.06-.12.137-.264.418-.781.838-1.733 1.052-2.394.027-.063.044-.12.047-.123zm-.53.173a.977.977 0 0 1-.058.154 21.16 21.16 0 0 1-1.158 2.334 8.75 8.75 0 0 1-.23.397 6.35 6.35 0 0 1-.224-.133c-.708-.434-1.336-.969-1.747-1.486l-.06-.074.304-.083a21.807 21.807 0 0 0 2.932-1.012c.13-.053.237-.097.24-.097zm3.298 1.152c.003.077-.167.765-.307 1.262a36.111 36.111 0 0 1-.555 1.787.22.22 0 0 1-.043-.01c-.992-.18-1.88-.431-2.715-.765a7.872 7.872 0 0 1-.587-.26c-.007-.007.194-.1.447-.21 1.52-.665 3.095-1.42 3.636-1.744a.435.435 0 0 1 .124-.06zm-7.616.26c.006.007-.418.618-1.012 1.45-.207.29-.447.63-.537.758-.09.127-.227.327-.304.447l-.14.217-.15-.127a5.568 5.568 0 0 1-.622-.634c-.287-.357-.48-.735-.557-1.079-.037-.16-.037-.24-.004-.25.05-.013.942-.224 1.777-.417a149.406 149.406 0 0 0 1.549-.364zm.427.164.107.12c.48.538.972.935 1.566 1.283.107.06.187.113.18.116-.023.017-2.063.742-3.008 1.069-.531.187-.968.337-.972.337a.58.58 0 0 1-.067-.043l-.06-.044.097-.14c.314-.454.708-.951 1.566-1.986l.591-.712zm2.665 1.907c.003-.003.15.05.33.117.434.163.778.267 1.239.384.568.143 1.389.284 1.873.323.074.007.114.014.1.024-.023.013-.514.177-.875.29a237.56 237.56 0 0 1-4.26 1.252c-.033.007-.144-.023-.144-.036 0-.007.08-.11.177-.224.481-.574.959-1.215 1.356-1.823.11-.167.204-.304.204-.307zm-.588.017c.003.003-.234.384-.648 1.038-.177.277-.374.59-.444.701-.067.107-.167.274-.223.367l-.097.17-.05-.013c-.12-.033-.965-.33-1.19-.42a8.267 8.267 0 0 1-.777-.358c-.267-.143-.601-.357-.574-.364.006-.003.464-.127 1.015-.277 1.462-.397 2.273-.628 2.804-.794.097-.03.18-.054.184-.05zm4.157.974h.003c.014.034-.527 1.536-.724 2.01-.044.107-.06.134-.084.13a68.294 68.294 0 0 1-1.319-.183 60.934 60.934 0 0 1-2.577-.45l-.08-.017.497-.114c1.069-.24 1.583-.37 2.104-.53.657-.201 1.308-.452 1.966-.759.104-.046.19-.083.214-.087z" fill="url(#b)"/><path d="M22.566 4.663c-.074-.01-1.26.418-2.024.728-1.032.42-1.833.822-2.327 1.169-.184.13-.414.36-.45.45a.313.313 0 0 0-.02.114l.447.424 1.065.34 2.534.455 2.898.497.03-.25c-.01 0-.017-.003-.027-.003l-.38-.06-.077-.137a25.857 25.857 0 0 1-1.082-2.137c-.197-.451-.384-.972-.487-1.346-.057-.227-.064-.24-.1-.244zm-.054.17h.003c.004.004.017.097.03.208.057.467.16.918.324 1.405.124.368.124.348-.02.304-.34-.093-1.866-.357-2.971-.51a4.422 4.422 0 0 1-.328-.05c-.013-.014.799-.438 1.156-.605.457-.21 1.713-.735 1.806-.751zM19.293 6.33l.13.044c.708.24 2.488.58 3.47.66l.207.021c.003.003-.09.053-.21.11a18.43 18.43 0 0 0-1.356.751c-.107.067-.204.12-.217.12-.014 0-.084-.013-.157-.023l-.134-.02-.334-.327c-.587-.571-1.048-1.012-1.225-1.179l-.174-.157zm-.133.104.47.588c.258.323.518.64.575.71.057.07.103.128.1.131-.013.01-.681-.12-1.035-.2a8.431 8.431 0 0 1-.738-.194l-.183-.06V7.36c.003-.224.287-.557.767-.898l.044-.03zm4 .801c.013 0 .03.03.07.12.113.25.468.925.554 1.056.027.043.074.046-.397-.03-1.132-.184-1.496-.244-1.496-.25 0-.004.034-.028.077-.051a6.52 6.52 0 0 0 1.018-.704l.16-.134c.004-.007.01-.01.014-.007z" fill="url(#c)"/><path d="M17.789 6.964s-.074.117-.003.29c.043.107.17.237.313.37 0 0 1.486 1.45 1.667 1.657.82.948 1.178 1.883 1.212 3.172.02.828-.137 1.556-.528 2.4-.694 1.517-2.16 3.19-4.42 5.046l.33-.11c.214-.16.504-.33 1.185-.705 1.573-.861 3.342-1.653 5.513-2.467 3.125-1.176 8.264-2.551 11.188-2.999l.304-.046-.046-.074c-.267-.414-.451-.671-.671-.945-.642-.795-1.42-1.439-2.371-1.973-1.309-.731-3.002-1.302-5.145-1.726a57.575 57.575 0 0 0-2.014-.344 205.1 205.1 0 0 1-3.606-.588c-.39-.067-.975-.167-1.362-.25a8.653 8.653 0 0 1-.885-.237c-.24-.094-.588-.187-.661-.471zm.861.835c.004-.004.057.016.127.04.127.043.29.093.485.146.146.04.293.08.44.117.2.05.367.097.37.097.024.024.361 1.102.475 1.516.043.157.077.29.073.29a.678.678 0 0 1-.083-.13c-.39-.688-1.008-1.385-1.723-1.946a1.43 1.43 0 0 1-.164-.13zm1.643.454c.017 0 .09.01.18.03.568.127 1.587.32 2.238.43.11.017.197.037.197.044 0 .006-.04.03-.09.057-.11.056-.555.32-.702.42-.37.247-.704.514-.945.755-.096.097-.18.177-.18.177s-.02-.057-.037-.127a10.82 10.82 0 0 0-.597-1.636 1.44 1.44 0 0 1-.067-.154c0 .007 0 .004.003.004zm2.892.55c.02.007.053.12.12.371a5.47 5.47 0 0 1 .14 1.817l-.01.033-.173-.057a52.421 52.421 0 0 0-1.436-.424 5.681 5.681 0 0 1-.514-.153c0-.02.414-.435.59-.591.338-.298 1.253-1.006 1.283-.995zm.23.034c.01-.01 1.382.227 2.007.347.464.09 1.138.23 1.178.247.02.007-.05.047-.273.147-.882.397-1.536.755-2.187 1.189-.17.113-.314.207-.318.207-.003 0-.006-.097-.006-.214 0-.634-.127-1.275-.36-1.816a.498.498 0 0 1-.04-.107zm3.55.701c.01.01-.034.28-.074.44-.12.498-.444 1.236-.841 1.93-.07.124-.134.225-.14.228a1.427 1.427 0 0 1-.201-.107 10.88 10.88 0 0 0-1.309-.641c-.133-.057-.25-.104-.254-.11-.023-.02 1.052-.732 1.62-1.072.45-.274 1.185-.681 1.198-.668zm.253.04c.03 0 .638.167.955.26.785.234 1.686.565 2.274.832l.244.11-.17.04c-1.436.33-2.665.711-3.85 1.192a2.48 2.48 0 0 1-.19.074.861.861 0 0 1 .07-.17c.357-.758.587-1.55.644-2.224.003-.064.013-.114.023-.114zm-6.05 1.39c.01-.01.474.1.724.17.381.106 1.19.377 1.19.397 0 .003-.091.08-.198.173-.437.364-.858.748-1.362 1.236-.15.143-.277.26-.284.26-.007 0-.01-.02-.007-.046.077-.561.06-1.283-.046-2.014-.01-.093-.02-.174-.017-.177zm9.753.01c.007.006-.214.353-.354.55-.2.287-.494.668-1.159 1.503-.35.44-.744.938-.874 1.105-.134.167-.244.307-.247.307-.004 0-.047-.06-.094-.134a6.903 6.903 0 0 0-1.352-1.492c-.1-.084-.21-.174-.247-.2a.374.374 0 0 1-.067-.057c0-.01.567-.254.998-.428a34.237 34.237 0 0 1 2.555-.911c.404-.127.834-.25.841-.244zm.257.066a.77.77 0 0 1 .19.093 11.324 11.324 0 0 1 2.842 2.308s-.154.013-.334.026c-1.406.107-3.205.404-4.935.822-.117.026-.22.05-.227.05-.007 0 .123-.13.287-.287 1.015-.979 1.48-1.596 2.027-2.698.077-.164.143-.304.15-.314-.003 0-.003 0 0 0zm-7.436.761c.047.01.481.214.808.377.3.15.752.391.775.411a4.73 4.73 0 0 1-.354.184c-.628.314-1.165.61-1.726.951-.16.097-.294.177-.297.177-.014 0-.01-.013.08-.177.3-.547.54-1.202.678-1.84.013-.05.026-.083.036-.083zm-.434.08c.01.01-.103.421-.173.645a8.218 8.218 0 0 1-.591 1.355c-.054.094-.134.23-.177.308l-.084.133-.187-.18a2.452 2.452 0 0 0-.62-.458.901.901 0 0 1-.161-.093c0-.027.57-.544 1.008-.918.314-.27.975-.802.985-.792zm2.655 1.092.163.107c.374.244.815.568 1.152.851.19.157.558.488.631.568l.04.043-.27.077c-1.53.424-2.711.802-4.09 1.31a4.761 4.761 0 0 1-.294.103c-.02 0-.037.016.307-.3.881-.812 1.663-1.707 2.244-2.579l.117-.18zm-.698.174c.006.007-.45.65-.725 1.015a45.13 45.13 0 0 1-1.309 1.636c-.167.197-.31.36-.317.364-.01.003-.013-.047-.013-.124 0-.404-.104-.835-.284-1.202-.077-.153-.09-.19-.073-.207.063-.056 1.035-.61 1.649-.941.414-.22 1.062-.548 1.072-.541zm-4.22 1.035a3.668 3.668 0 0 1 .748.474c.006.007-.08.077-.194.16a31.14 31.14 0 0 0-1.079.815c-.294.234-.304.24-.27.19.22-.337.33-.527.447-.771.104-.217.207-.474.28-.698a.565.565 0 0 1 .067-.17zm1.125.881c.016-.003.036.027.127.16.19.284.337.665.373.972l.007.067-.457.177c-.818.317-1.573.631-2.084.865a37.96 37.96 0 0 0-.557.267 4.31 4.31 0 0 1-.297.143c0-.003.103-.08.23-.173.998-.725 1.863-1.52 2.51-2.314.07-.083.134-.16.14-.164h.008zm-.518.127c.014.014-.367.444-.628.708a11.07 11.07 0 0 1-2.073 1.673l-.2.127c-.024.013.006-.02.354-.398.22-.237.387-.437.577-.684.127-.164.15-.187.334-.317.49-.354 1.623-1.122 1.636-1.109z" fill="url(#d)"/><path d="M7.193 29.02c-.062 0-.123.006-.184.006-1.244.066-2.083.613-2.574 1.683-.42.967-.374 2.23.005 3.204.44.95 1.151 1.452 2.338 1.641.251.041.42.18.906.747l.599.702h1.085l-.721-.728c-.4-.399-.722-.746-.722-.777 0-.03.152-.097.337-.154.61-.184 1.115-.655 1.469-1.376.286-.579.327-.758.369-1.479.107-2.144-1.024-3.485-2.907-3.47zm.952 5.609c-.528.255-1.295.306-1.796.123-.517-.19-1.018-.728-1.244-1.337-.25-.665-.215-1.892.072-2.445.46-.88 1.07-1.285 1.96-1.285 1.32 0 2.071.808 2.17 2.328.077 1.269-.348 2.22-1.162 2.615zm18.753-3.777c-.455 0-.804.184-1.039.547l-.184.288v-.748h-.788v4.483h.788V33.99c0-1.31.016-1.463.199-1.822.252-.491.687-.737 1.106-.62l.282.083v-.777h-.364v-.001zm-4.63-.041c-.154 0-.318.02-.481.056-1.055.276-1.649 1.285-1.613 2.324 0 .87.17 1.304.589 1.76.86.706 1.637.762 2.686.383.18-.076.374-.164.374-.164v-.705l-.374.193c-.849.37-1.488.37-2-.065-.328-.333-.471-.732-.538-1.187h3.178V32.8c0-1.232-.742-2.01-1.822-1.99h.001zm-1.285 1.965s.117-.768.553-1.07c.21-.148.45-.22.685-.22.236 0 .471.077.666.226.399.306.465 1.059.465 1.059h-2.369v.005zm-19-.808C1.13 31.45.75 31.078.798 30.637c.132-1.218 1.637-1.05 2.47-.589l.006-.819s-.46-.2-1.12-.21c-1.013-.015-1.668.317-1.975.993-.45.998-.052 1.75 1.39 2.59.81.47 1.168.88 1.168 1.325 0 .922-1.11 1.243-2.257.665a9.023 9.023 0 0 0-.446-.215c-.04.26-.02.886-.02.886s.353.148.88.25c1.31.26 2.502-.353 2.615-1.351.098-.937-.24-1.428-1.524-2.195zm31.89-1.168c-.154 0-.317.021-.487.057-1.054.276-1.647 1.285-1.606 2.324 0 .868.168 1.299.588 1.754.86.706 1.637.763 2.691.384.179-.076.373-.163.373-.163v-.706l-.373.194c-.851.369-1.49.369-2.001-.066-.329-.333-.471-.727-.538-1.188h3.172v-.604c0-1.226-.741-2.005-1.821-1.985h.002zm-1.285 1.966s.118-.768.553-1.075c.209-.148.45-.22.685-.22.234 0 .471.076.665.225.4.307.466 1.065.466 1.065h-2.369v.005zm-14.445-.788c-.855-.517-1.233-.89-1.187-1.331.133-1.218 1.637-1.05 2.47-.589l.007-.819s-.461-.2-1.121-.209c-1.013-.015-1.668.317-1.975.993-.45.998-.046 1.75 1.392 2.59.808.47 1.166.873 1.166 1.32 0 .92-1.11 1.248-2.256.664a7.55 7.55 0 0 0-.446-.214c-.041.261-.02.886-.02.886s.348.143.874.25c1.311.262 2.504-.352 2.616-1.35.097-.931-.24-1.422-1.52-2.19v-.001zm20.36-1.137c-.455 0-.808.185-1.038.548l-.185.287v-.747h-.788v4.482h.788v-1.433c0-1.31.016-1.463.2-1.821.252-.491.686-.737 1.105-.62l.282.083v-.779h-.364zm-26.627 1.111v-2.855h-.795v6.324h3.342v-.747h-2.547v-2.722zm18.374.89-.655 1.704-.63-1.713-.64-1.9h-.813c.527 1.495 1.1 3.015 1.679 4.488.25.006.501 0 .752 0l.884-2.22.901-2.267h-.777s-.344.9-.702 1.909zm-16.543-5.469a.435.435 0 0 0 .322-.129.428.428 0 0 0 .133-.317.42.42 0 0 0-.133-.317.441.441 0 0 0-.317-.123.435.435 0 0 0-.45.445.431.431 0 0 0 .445.44v.001zm-.282-.728a.383.383 0 0 1 .287-.111c.112 0 .205.035.282.111a.383.383 0 0 1 .117.282.394.394 0 0 1-.399.4.394.394 0 0 1-.399-.399c0-.114.036-.206.112-.283zm.19.323h.051c.037 0 .072.035.103.102l.061.139h.097l-.076-.154c-.031-.061-.062-.097-.097-.107a.187.187 0 0 0 .106-.057c.026-.026.036-.062.036-.102 0-.047-.015-.083-.046-.108-.035-.03-.092-.046-.165-.046h-.163v.574h.082v-.24h.01zm0-.266h.071c.052 0 .088.01.108.026.02.015.025.035.025.071 0 .067-.041.098-.118.098h-.088v-.195h.001zM.49 26.917c0-.2-.006-.348-.01-.435h.004c.02.103.046.18.066.231l.763 1.704h.128l.763-1.72c.02-.046.041-.117.066-.215h.006c-.015.17-.02.318-.02.436v1.504h.26v-2.235H2.19l-.701 1.555a8.478 8.478 0 0 0-.107.275H1.37a1.79 1.79 0 0 0-.102-.265l-.685-1.57H.235v2.235h.25v-1.499H.49zm2.599.004h.225v1.393H3.09V26.92zm.113-.51a.159.159 0 0 0 .117-.047.163.163 0 0 0 .052-.117.147.147 0 0 0-.051-.118.164.164 0 0 0-.119-.047.16.16 0 0 0-.117.047.165.165 0 0 0-.052.117c0 .052.016.087.052.118a.17.17 0 0 0 .117.047zm1.719 1.933V28.1a.649.649 0 0 1-.393.138.51.51 0 0 1-.395-.164.636.636 0 0 1-.149-.44c0-.194.052-.348.159-.465a.515.515 0 0 1 .399-.17c.133 0 .26.042.379.124v-.261a.78.78 0 0 0-.369-.082c-.255 0-.455.082-.604.24-.148.159-.224.374-.224.634 0 .231.066.426.204.574.144.153.328.23.553.23a.902.902 0 0 0 .44-.113zm.645-.742c0-.184.04-.332.117-.434a.321.321 0 0 1 .261-.139c.087 0 .149.016.194.052v-.267a.407.407 0 0 0-.153-.02.39.39 0 0 0-.246.088.54.54 0 0 0-.173.27H5.56v-.327h-.255v1.596h.256v-.819h.005zm1.469.85c.24 0 .434-.077.578-.23.143-.153.214-.358.214-.614 0-.261-.065-.46-.2-.61-.132-.148-.316-.22-.557-.22-.24 0-.434.072-.578.21-.153.153-.234.369-.234.645 0 .24.065.44.204.589.143.153.333.23.573.23zm-.364-1.3A.504.504 0 0 1 7.055 27c.164 0 .287.05.379.154.092.107.138.26.138.465 0 .195-.042.348-.128.45a.466.466 0 0 1-.384.165.499.499 0 0 1-.39-.165c-.096-.107-.142-.255-.142-.45a.627.627 0 0 1 .143-.465zm2.277 1.162a.42.42 0 0 0 .149-.328.4.4 0 0 0-.118-.291.907.907 0 0 0-.297-.174.93.93 0 0 1-.24-.133.219.219 0 0 1-.067-.165c0-.066.026-.117.076-.158a.315.315 0 0 1 .206-.06c.137 0 .255.036.363.112v-.256a.75.75 0 0 0-.343-.076.609.609 0 0 0-.405.133.409.409 0 0 0-.158.332c0 .117.035.215.102.286a.826.826 0 0 0 .286.18c.128.056.215.107.261.148a.195.195 0 0 1 .067.152c0 .15-.103.226-.302.226a.633.633 0 0 1-.415-.152v.275a.754.754 0 0 0 .393.098c.19-.01.338-.056.44-.149h.002zm1.218-1.535c-.24 0-.434.071-.578.21-.153.152-.235.368-.235.644 0 .24.066.44.204.589.144.153.333.23.574.23.246 0 .434-.077.578-.23.143-.153.215-.359.215-.615 0-.26-.067-.46-.2-.609-.138-.148-.322-.22-.557-.22h-.001zm.496.839c0 .195-.04.348-.128.45-.087.108-.215.165-.384.165a.499.499 0 0 1-.389-.164c-.096-.108-.143-.256-.143-.451 0-.205.051-.364.154-.47a.505.505 0 0 1 .384-.154c.158 0 .286.051.378.153.082.113.128.266.128.47zm.691.799h.256v-1.382h.374v-.215h-.374v-.247c0-.224.087-.336.266-.336.06 0 .122.015.168.04v-.23a.467.467 0 0 0-.184-.025.476.476 0 0 0-.343.128.538.538 0 0 0-.164.414v.262h-.27v.215h.27v1.376h.002zm1.05-.436c0 .312.137.471.419.471a.461.461 0 0 0 .24-.053v-.219a.267.267 0 0 1-.164.052c-.087 0-.148-.02-.184-.067-.036-.046-.057-.123-.057-.23v-.901h.405v-.215h-.405v-.47c-.088.03-.174.056-.255.082v.388h-.276v.215h.276v.947zm27.462 2.942a.44.44 0 0 0-.317-.123.432.432 0 0 0-.323.13.43.43 0 0 0-.128.316c0 .128.041.235.127.317a.45.45 0 0 0 .323.123.44.44 0 0 0 .323-.128.443.443 0 0 0-.006-.635zm-.041.605a.379.379 0 0 1-.282.111.382.382 0 0 1-.282-.111.398.398 0 0 1-.117-.288.381.381 0 0 1 .399-.393c.111 0 .204.035.282.112.076.077.117.17.117.281 0 .119-.035.21-.117.288zm-.23-.261a.221.221 0 0 0 .107-.057c.026-.026.035-.062.035-.103 0-.046-.014-.082-.045-.107-.036-.03-.093-.046-.165-.046h-.163v.573h.082v-.24h.051c.035 0 .07.035.102.102l.061.138h.098l-.076-.154c-.027-.067-.057-.098-.088-.108v.002zm-.057-.052h-.088v-.194h.072c.051 0 .087.01.108.026.02.015.025.035.025.071 0 .067-.041.097-.117.097zm-14.276-4.462h.071v-.573h.19v-.071h-.45v.071h.189v.573zm.434-.43c0-.056 0-.102-.004-.128.005.031.015.052.02.067l.22.491h.035l.22-.496c.007-.015.011-.035.021-.062-.004.052-.004.093-.004.124v.434h.076v-.644h-.092l-.2.444c-.004.016-.02.047-.03.083h-.006c-.004-.021-.015-.041-.03-.077l-.199-.45h-.103v.645h.072v-.43l.004-.001z" fill="#231F1F"/></g><defs><linearGradient id="b" x1="17.72" y1="24.539" x2="19.317" y2="23.595" gradientUnits="userSpaceOnUse"><stop stop-color="#909CA9"/><stop offset="1" stop-color="#EDEDEE"/></linearGradient><linearGradient id="c" x1="17.756" y1="6.745" x2="19.041" y2="6.745" gradientUnits="userSpaceOnUse"><stop stop-color="#939FAB"/><stop offset="1" stop-color="#DCDEE1"/></linearGradient><radialGradient id="d" cx="0" cy="0" r="1" gradientUnits="userSpaceOnUse" gradientTransform="rotate(-171.457 12.593 5.415) scale(1.65705 3.31493)"><stop stop-color="#EE352C"/><stop offset="1" stop-color="#A91D22"/></radialGradient><clipPath id="a"><path fill="#fff" transform="translate(.002 .833)" d="M0 0h40v40H0z"/></clipPath></defs></svg>