<svg width="35" height="36" fill="none" xmlns="http://www.w3.org/2000/svg"><g clip-path="url(#a)"><path d="M17.5 35.481c9.665 0 17.5-7.835 17.5-17.5S27.165.481 17.5.481 0 8.316 0 17.981s7.835 17.5 17.5 17.5z" fill="#5C2D91"/><path opacity=".1" d="M5.37 5.403a17.5 17.5 0 1 0 24.708 24.708L5.37 5.403z" fill="#fff"/><path d="M4.047 20.853a.739.739 0 0 1-.547-.23.755.755 0 0 1-.224-.547.766.766 0 0 1 .224-.547.734.734 0 0 1 .547-.235.75.75 0 0 1 .547.235.76.76 0 0 1 .23.547.75.75 0 0 1-.23.547.754.754 0 0 1-.547.23zM14.913 20.716H13.48l-5.124-7.952a3.285 3.285 0 0 1-.317-.623h-.044c.049.454.067.91.055 1.367v7.208H6.885v-9.97H8.4l4.987 7.81c.208.324.343.546.405.667h.027a10.556 10.556 0 0 1-.07-1.466v-7.01h1.164v9.969zM22.8 20.716h-5.3v-9.97h5.053v1.056h-3.86v3.314h3.598v1.05h-3.599v3.456h4.113l-.006 1.094zM30.625 11.802h-2.898v8.914h-1.165v-8.914h-2.866v-1.056h6.929v1.056z" fill="#fff"/><path d="M14.284 27.497c-.394.192-.83.284-1.268.268a2.045 2.045 0 0 1-1.57-.629 2.33 2.33 0 0 1-.59-1.64 2.44 2.44 0 0 1 .661-1.783 2.252 2.252 0 0 1 1.685-.678c.373-.013.746.052 1.093.191v.547a2.187 2.187 0 0 0-1.093-.273 1.673 1.673 0 0 0-1.286.547 1.99 1.99 0 0 0-.492 1.41c-.025.49.14.97.46 1.34a1.564 1.564 0 0 0 1.208.498c.42.01.835-.095 1.198-.306l-.006.508zM16.521 27.765a1.52 1.52 0 0 1-1.165-.487 1.701 1.701 0 0 1-.432-1.22 1.773 1.773 0 0 1 .454-1.29 1.64 1.64 0 0 1 1.22-.465 1.471 1.471 0 0 1 1.143.454c.29.35.437.798.41 1.253a1.76 1.76 0 0 1-.443 1.257 1.551 1.551 0 0 1-1.187.498zm.038-2.991a.999.999 0 0 0-.798.344c-.21.271-.315.61-.295.952-.02.332.086.66.295.918a1.013 1.013 0 0 0 .798.34.963.963 0 0 0 .782-.329c.2-.271.296-.604.274-.94a1.454 1.454 0 0 0-.274-.946.958.958 0 0 0-.782-.34zM20.705 24.938a.645.645 0 0 0-.4-.104.673.673 0 0 0-.546.317c-.163.258-.242.56-.225.864v1.673h-.546v-3.28h.546v.683c.06-.212.18-.402.345-.547a.783.783 0 0 1 .514-.192.859.859 0 0 1 .312.044v.542zM23.91 26.185h-2.314c-.015.305.084.606.279.842a1.017 1.017 0 0 0 .777.295 1.64 1.64 0 0 0 1.017-.366v.492a1.903 1.903 0 0 1-1.143.312 1.39 1.39 0 0 1-1.094-.449 1.832 1.832 0 0 1-.4-1.258c-.019-.455.136-.9.433-1.247a1.395 1.395 0 0 1 1.094-.48 1.235 1.235 0 0 1 .995.415c.252.332.376.743.35 1.16l.005.284zm-.547-.443a1.093 1.093 0 0 0-.22-.706.749.749 0 0 0-.6-.251.847.847 0 0 0-.63.267c-.18.19-.293.435-.322.695l1.771-.005z" fill="#F2F2F2"/></g><defs><clipPath id="a"><path fill="#fff" transform="translate(0 .481)" d="M0 0h35v35H0z"/></clipPath></defs></svg>