<svg width="41" height="41" fill="none" xmlns="http://www.w3.org/2000/svg"><path d="m29.188 14.856-.015-.007a.062.062 0 0 1-.024-.013.116.116 0 0 1-.029-.097l.806-4.93 3.782 3.782-3.933 1.674a.089.089 0 0 1-.034.006h-.016a.116.116 0 0 1-.02-.018 1.789 1.789 0 0 0-.517-.397zm5.485-.3 4.044 4.043c.84.84 1.26 1.26 1.413 1.746.023.072.042.144.056.218l-9.663-4.092a.723.723 0 0 0-.015-.007c-.039-.015-.084-.033-.084-.073 0-.04.046-.058.085-.074l.012-.005 4.152-1.757zm5.349 7.305c-.209.392-.616.799-1.304 1.488l-4.56 4.558-5.895-1.228-.032-.006c-.052-.008-.107-.018-.107-.064a1.78 1.78 0 0 0-.683-1.245c-.024-.024-.018-.062-.01-.096l.001-.015 1.11-6.808.003-.023c.007-.052.016-.112.063-.112a1.804 1.804 0 0 0 1.21-.694c.01-.01.016-.022.028-.028.034-.016.073 0 .108.014l10.067 4.259zm-6.912 7.095-7.496 7.496 1.283-7.886.002-.01a.146.146 0 0 1 .006-.031c.01-.025.038-.036.064-.046l.012-.005c.281-.12.53-.305.726-.54.025-.029.055-.057.093-.062a.096.096 0 0 1 .03 0l5.28 1.085v-.001zm-9.083 9.083-.845.845-9.342-13.501a.485.485 0 0 0-.01-.015c-.015-.02-.03-.04-.027-.063 0-.016.011-.03.023-.043l.01-.014c.028-.042.052-.083.078-.128l.021-.037.003-.003c.015-.025.028-.049.053-.062.022-.01.053-.007.077-.002l10.35 2.135a.17.17 0 0 1 .079.034c.013.014.016.029.02.045a1.834 1.834 0 0 0 1.072 1.226c.03.015.017.047.003.081a.25.25 0 0 0-.016.047l-1.549 9.455zm-1.765 1.764c-.623.617-.99.943-1.405 1.075-.41.129-.849.129-1.258 0-.486-.155-.907-.574-1.747-1.415L8.471 30.08l2.45-3.8a.156.156 0 0 1 .042-.05c.026-.018.064-.01.095 0 .562.17 1.166.14 1.709-.086.028-.01.056-.017.078.002l.03.034 9.387 13.623v-.001zM7.566 29.177l-2.152-2.152 4.25-1.813a.089.089 0 0 1 .035-.008c.035 0 .056.036.075.068.042.066.088.13.135.192l.014.017c.012.017.004.035-.008.052l-2.348 3.644zm-3.104-3.105L1.739 23.35c-.463-.463-.8-.799-1.033-1.088l8.28 1.718.03.005c.052.008.108.017.108.065 0 .053-.062.077-.114.096l-.024.01-4.524 1.917zM.23 20.862c.01-.176.041-.35.094-.517.155-.486.574-.905 1.415-1.746l3.484-3.485c1.605 2.329 3.213 4.654 4.826 6.976.028.038.06.08.027.11a2.898 2.898 0 0 0-.412.552.167.167 0 0 1-.052.064c-.013.009-.028.006-.044.003h-.002L.23 20.86v.001zm5.926-6.68 4.683-4.685c.441.193 2.045.87 3.477 1.475 1.085.459 2.074.876 2.385 1.012.031.012.06.025.073.056.008.019.004.043 0 .063a2.09 2.09 0 0 0 .545 1.907c.032.03 0 .076-.027.114l-.014.022-4.757 7.369a.144.144 0 0 1-.045.052c-.025.015-.06.008-.09 0a2.371 2.371 0 0 0-.566-.076 3.12 3.12 0 0 0-.545.065h-.001c-.021.003-.04.008-.056-.005a.219.219 0 0 1-.047-.053l-5.016-7.316zm5.631-5.632 6.065-6.065c.84-.84 1.26-1.26 1.747-1.413.41-.13.849-.13 1.258 0 .486.153.906.573 1.746 1.413L23.918 3.8l-4.314 6.68a.162.162 0 0 1-.043.05c-.026.018-.062.01-.094 0a2.188 2.188 0 0 0-2.003.386c-.028.03-.07.013-.105-.003-.563-.245-4.945-2.097-5.572-2.363zm13.047-3.834 3.983 3.983-.96 5.944v.015a.145.145 0 0 1-.008.04c-.011.021-.032.025-.053.031a1.911 1.911 0 0 0-.592.303c-.012.012-.023.024-.042.026a.118.118 0 0 1-.045-.007l-6.07-2.58-.01-.004c-.04-.016-.085-.035-.085-.074a2.294 2.294 0 0 0-.324-.955c-.029-.048-.061-.098-.036-.147l4.242-6.575zm-4.102 8.977 5.69 2.41c.03.015.065.028.079.06a.11.11 0 0 1 0 .06 1.414 1.414 0 0 0-.032.275v.16c0 .039-.04.056-.078.071l-.011.004c-.902.385-12.654 5.397-12.672 5.397-.018 0-.037 0-.055-.018-.03-.031 0-.075.029-.114a.715.715 0 0 0 .014-.021l4.676-7.24.008-.013c.027-.044.059-.093.109-.093l.047.008c.106.014.2.028.295.028.71 0 1.367-.345 1.763-.936a.167.167 0 0 1 .035-.042c.029-.02.07-.01.103.005zm-6.516 9.582 12.81-5.463s.02 0 .037.018c.07.07.13.117.187.16l.028.018c.026.015.052.032.054.059 0 .01 0 .016-.002.026l-1.097 6.741-.005.027c-.007.052-.014.112-.063.112a1.805 1.805 0 0 0-1.433.883l-.005.009c-.014.024-.028.047-.052.06-.022.01-.05.005-.073 0l-10.216-2.107c-.01-.002-.159-.542-.17-.543z" fill="url(#a)"/><defs><radialGradient id="a" cx="0" cy="0" r="1" gradientUnits="userSpaceOnUse" gradientTransform="matrix(0 39.956 -46.1307 0 -1.111 20.41)"><stop stop-color="#20C6B7"/><stop offset="1" stop-color="#4D9ABF"/></radialGradient></defs></svg>