<svg width="26" height="26" fill="none" xmlns="http://www.w3.org/2000/svg"><g clip-path="url(#a)"><path d="m28.99 13.881-.015-.006a.061.061 0 0 1-.024-.014.113.113 0 0 1-.03-.097l.808-4.93 3.785 3.783-3.937 1.673a.086.086 0 0 1-.034.006h-.016a.104.104 0 0 1-.02-.018 1.792 1.792 0 0 0-.518-.397zm5.49-.3 4.049 4.043c.84.84 1.261 1.26 1.415 1.746.023.072.041.144.056.218l-9.674-4.092a.732.732 0 0 0-.016-.006c-.038-.016-.083-.034-.083-.073 0-.04.046-.059.084-.074l.013-.006 4.157-1.756zm5.355 7.305c-.209.393-.616.8-1.306 1.489l-4.563 4.558-5.903-1.228-.031-.006c-.053-.009-.108-.018-.108-.065a1.777 1.777 0 0 0-.684-1.245c-.024-.024-.018-.061-.01-.096 0-.005 0-.01.002-.014l1.11-6.808.004-.023c.006-.052.016-.113.063-.113a1.807 1.807 0 0 0 1.211-.694c.01-.01.016-.021.028-.028.034-.015.073 0 .108.015l10.078 4.258h.001zm-6.919 7.095-7.505 7.497 1.285-7.887.002-.01a.136.136 0 0 1 .006-.03c.01-.026.038-.036.064-.047l.012-.005c.282-.12.53-.305.726-.54.025-.028.056-.057.094-.062a.096.096 0 0 1 .03 0l5.285 1.085h.001zm-9.093 9.083-.846.845-9.352-13.5a.768.768 0 0 0-.01-.015c-.015-.02-.031-.04-.028-.063 0-.017.012-.031.023-.044l.01-.014c.029-.041.053-.083.079-.128l.02-.036.004-.003c.014-.026.028-.05.053-.063.022-.01.052-.006.076-.001l10.361 2.134a.17.17 0 0 1 .08.035c.013.013.017.028.02.045a1.833 1.833 0 0 0 1.073 1.225c.03.015.017.047.003.082a.244.244 0 0 0-.015.047c-.13.793-1.25 7.613-1.551 9.454zm-1.767 1.764c-.624.617-.991.944-1.407 1.075-.41.13-.85.13-1.26 0-.486-.154-.907-.574-1.748-1.415L8.25 29.107l2.454-3.8a.155.155 0 0 1 .041-.05c.027-.019.064-.01.095 0 .563.17 1.168.14 1.711-.086.028-.01.056-.018.078.002.011.01.021.021.03.033l9.398 13.623zM7.344 28.202 5.189 26.05l4.255-1.813a.089.089 0 0 1 .035-.007c.035 0 .056.035.075.067.043.066.088.13.136.192l.013.017c.013.018.004.036-.008.052l-2.35 3.644h-.001zm-3.108-3.104L1.51 22.375c-.464-.463-.8-.8-1.034-1.088l8.288 1.717.032.005c.05.008.107.018.107.066 0 .052-.061.076-.114.096l-.024.01-4.53 1.917zM0 19.887c.01-.176.041-.35.094-.517.155-.486.574-.905 1.416-1.746l3.488-3.484c1.606 2.328 3.217 4.653 4.832 6.976.028.037.059.079.027.11a2.9 2.9 0 0 0-.413.551.167.167 0 0 1-.052.065c-.014.008-.028.005-.044.002h-.002L0 19.886zm5.932-6.68 4.688-4.685c.442.193 2.047.87 3.48 1.475 1.087.46 2.077.877 2.388 1.012.032.013.06.025.073.056.009.02.005.043 0 .063a2.087 2.087 0 0 0 .547 1.907c.031.031 0 .076-.027.115l-.015.022-4.762 7.368a.144.144 0 0 1-.045.052c-.025.016-.06.008-.09.001a2.376 2.376 0 0 0-.567-.077 3.13 3.13 0 0 0-.545.066h-.001c-.021.003-.04.007-.057-.006a.22.22 0 0 1-.047-.053l-5.021-7.316h.001zm5.637-5.631 6.072-6.065C18.482.67 18.903.25 19.39.097c.41-.13.85-.13 1.26 0 .486.153.907.574 1.747 1.414l1.316 1.314-4.318 6.68a.163.163 0 0 1-.043.05c-.026.019-.063.011-.094 0a2.192 2.192 0 0 0-2.005.387c-.028.03-.07.012-.106-.003-.564-.245-4.95-2.097-5.578-2.363zM24.63 3.74l3.988 3.983-.961 5.944v.016a.141.141 0 0 1-.009.04c-.01.02-.031.025-.052.03a1.912 1.912 0 0 0-.593.303c-.012.013-.023.024-.042.026a.118.118 0 0 1-.045-.007l-6.076-2.579-.011-.005c-.039-.016-.085-.034-.085-.074a2.291 2.291 0 0 0-.324-.954c-.029-.049-.061-.099-.036-.148l4.246-6.575zm-4.106 8.978 5.696 2.41c.031.014.066.028.08.06.005.02.005.04 0 .06a1.406 1.406 0 0 0-.032.274v.16c0 .04-.041.056-.079.072l-.011.004c-.902.385-12.668 5.396-12.686 5.396-.018 0-.037 0-.054-.017-.032-.032 0-.076.028-.115a.98.98 0 0 0 .015-.021l4.68-7.24.009-.012c.027-.044.058-.093.108-.093l.047.007c.107.015.2.028.296.028.71 0 1.368-.345 1.765-.935a.165.165 0 0 1 .035-.042c.029-.021.07-.01.103.004zM14 22.3l12.824-5.463s.02 0 .037.017c.07.07.13.117.187.16l.028.019c.026.014.052.03.054.058 0 .01 0 .017-.002.026l-1.098 6.741-.005.027c-.007.053-.014.112-.063.112a1.809 1.809 0 0 0-1.434.884l-.005.008c-.015.024-.029.047-.053.06-.021.01-.05.006-.073 0l-10.227-2.107c-.01-.002-.159-.541-.17-.542z" fill="url(#b)"/></g><defs><radialGradient id="b" cx="0" cy="0" r="1" gradientUnits="userSpaceOnUse" gradientTransform="matrix(0 39.956 -46.1814 0 -1.343 19.436)"><stop stop-color="#20C6B7"/><stop offset="1" stop-color="#4D9ABF"/></radialGradient><clipPath id="a"><path fill="#fff" d="M0 0h26v26H0z"/></clipPath></defs></svg>