<svg fill="none" xmlns="http://www.w3.org/2000/svg" viewBox="0 0 95 20"><g clip-path="url(#a)"><path d="M17.7 19.8a2 2 0 0 1-1.5-.6L4.2 7.1v10.7c0 1.1-1 2-2.1 2a2 2 0 0 1-2-2V2a2 2 0 0 1 2.4-2c.4 0 .8.2 1 .5l12.1 12.2V2.1c0-1.1 1-2 2-2 1.2 0 2.1.9 2.1 2v15.7a2 2 0 0 1-2 2zM27 .1l-.5 1-4.4 8-.5 1 .5 1 4.4 7.7.6 1h11.3l.6-1.1 3.2-6.6 1.5-3H32.2c-1 0-2 1-2 2 0 1.2 1 2.1 2 2.1h5L36 15.7h-6.5L26.3 10l3.3-5.8h6.8L38 7.5h4.1l-2.6-6.3L39 .1H27zm20.7 0c-1 0-2 1-2 2v5.4H50V2c0-1-1-2-2-2zm6.6 19.8a2 2 0 0 1-2-2V2c0-1.1.9-2 2-2s2 .9 2 2v11L68.5.7A2 2 0 0 1 72 2v15.7c0 1.2-1 2-2 2a2 2 0 0 1-2-2V7.1L55.7 19.3a2 2 0 0 1-1.4.6zM87 9.9l6.4-6.3a2 2 0 0 0 0-3 2 2 0 0 0-2.9 0l-6.4 6.5L78 .7a2 2 0 0 0-3 0 2 2 0 0 0 0 2.9l6.4 6.4-6.3 6.3a2 2 0 0 0 1.4 3.5c.6 0 1-.2 1.5-.6l6.3-6.3 6.4 6.3a2 2 0 0 0 2.9 0 2 2 0 0 0 0-2.9L87 10zM47.8 20c-1 0-2-1-2-2.2V9.1H50v8.6c0 1.1-1 2.1-2 2.1z" fill="#090"/></g><defs><clipPath id="a"><path fill="#fff" d="M0 0h94.2v20H0z"/></clipPath></defs></svg>