<svg width="26" height="26" fill="none" xmlns="http://www.w3.org/2000/svg"><path d="M11.93.33a2.21 2.21 0 0 1 2.14 0c3.258 1.824 6.517 3.644 9.774 5.468.613.341 1.023 1.017 1.016 1.716v10.968c.005.728-.445 1.419-1.091 1.753-3.248 1.813-6.493 3.629-9.74 5.441a2.147 2.147 0 0 1-2.164-.06c-.973-.558-1.95-1.114-2.922-1.672-.2-.118-.422-.211-.563-.402.123-.166.345-.187.526-.26.406-.127.78-.333 1.153-.532.094-.064.209-.039.3.017.832.474 1.658.96 2.493 1.428.178.102.358-.032.511-.117 3.186-1.784 6.377-3.56 9.563-5.345a.314.314 0 0 0 .173-.309c.003-3.618.001-7.236.002-10.855a.339.339 0 0 0-.205-.339c-3.236-1.804-6.47-3.612-9.706-5.417a.34.34 0 0 0-.38 0C9.575 3.618 6.34 5.427 3.104 7.233a.336.336 0 0 0-.205.335v10.86c-.01.127.06.249.177.304.863.485 1.728.966 2.591 1.45.487.26 1.084.413 1.62.214.474-.168.806-.646.797-1.144.004-3.597-.002-7.194.003-10.791-.01-.16.141-.293.298-.276.415-.004.83-.006 1.246 0 .173-.004.292.169.27.329-.001 3.62.005 7.24-.002 10.86 0 .965-.4 2.015-1.3 2.486-1.11.57-2.484.45-3.58-.097-.949-.469-1.856-1.023-2.787-1.525-.65-.333-1.097-1.026-1.092-1.755V7.515c-.007-.714.419-1.4 1.05-1.738L11.93.331z" fill="#8CC84B"/><path d="M14.763 7.928c1.416-.09 2.932-.054 4.205.638.987.529 1.535 1.64 1.552 2.725-.028.147-.182.228-.323.217-.412 0-.822.006-1.233-.002-.174.006-.276-.153-.298-.306-.118-.52-.404-1.033-.897-1.283-.758-.376-1.636-.358-2.463-.35-.603.032-1.251.084-1.763.434-.392.267-.511.804-.371 1.237.132.31.494.411.79.503 1.707.442 3.515.399 5.19.98.693.238 1.37.698 1.607 1.416.31.965.174 2.115-.518 2.889-.56.636-1.378.982-2.193 1.17-1.084.239-2.21.245-3.311.14-1.035-.118-2.113-.387-2.912-1.086-.682-.587-1.018-1.504-.984-2.388.008-.148.157-.253.303-.24.413-.004.826-.005 1.24 0 .166-.011.288.13.297.284.076.495.264 1.015.7 1.307.84.537 1.896.5 2.859.516.797-.035 1.693-.046 2.343-.568.343-.298.445-.796.353-1.224-.1-.362-.483-.53-.811-.641-1.685-.528-3.514-.336-5.182-.933-.677-.237-1.332-.686-1.592-1.375-.363-.975-.197-2.18.567-2.928.746-.743 1.821-1.03 2.845-1.132z" fill="#8CC84B"/></svg>