<svg width="26" height="26" fill="none" xmlns="http://www.w3.org/2000/svg"><path d="M4.852 4.558c.807.657 1.11.607 2.624.506l14.276-.86c.303 0 .051-.303-.05-.353l-2.37-1.719c-.455-.353-1.06-.759-2.22-.657L3.287 2.485c-.504.051-.605.304-.404.506l1.968 1.567zm.858 3.337v15.063c0 .81.403 1.112 1.311 1.062l15.69-.91c.908-.05 1.01-.607 1.01-1.265V6.883c0-.656-.253-1.01-.809-.96l-16.396.96c-.605.051-.806.355-.806 1.012zm15.488.808c.101.455 0 .91-.454.961l-.756.151v11.12c-.657.355-1.262.557-1.767.557-.807 0-1.01-.253-1.614-1.01l-4.945-7.785v7.531l1.565.354s0 .91-1.263.91l-3.48.202c-.1-.202 0-.707.353-.808l.908-.253v-9.958l-1.26-.101c-.102-.456.15-1.112.857-1.163l3.733-.253 5.146 7.886v-6.976l-1.311-.15c-.101-.558.302-.962.806-1.012l3.482-.203zM2.127 1.12 16.506.06c1.766-.152 2.22-.05 3.33.759l4.59 3.235c.757.556 1.01.707 1.01 1.314V23.11c0 1.112-.404 1.77-1.817 1.87L6.921 25.99c-1.06.05-1.565-.1-2.12-.809l-3.38-4.398c-.606-.81-.858-1.415-.858-2.123V2.89c0-.91.405-1.668 1.564-1.769z" fill="#F5F7F9"/></svg>