<svg width="26" height="26" fill="none" xmlns="http://www.w3.org/2000/svg"><path d="m7.995 21.582-.057-.115c-.115-.23-.115-.46-.058-.748H1.668l9.204-16.336 3.854 6.96 1.265-.92-3.854-6.96c-.058-.115-.518-.806-1.265-.806-.346 0-.863.116-1.266.863L.287 20.03c-.057.172-.46.92-.115 1.552.23.345.576.69 1.381.69h7.823c-.805 0-1.208-.345-1.38-.69z" fill="#00C58E"/><path d="m25.712 20.087-7.478-13.46c-.115-.116-.517-.863-1.265-.863-.345 0-.863.172-1.266.862l-.977 1.611v3.106l2.243-3.854 7.42 13.23h-2.818c.047.274.007.556-.115.806l-.058.057c-.345.633-1.208.69-1.323.69h4.372c.172 0 .978-.057 1.38-.69.173-.287.288-.805-.115-1.495z" fill="#108775"/><path d="M21.628 21.582v-.057l.058-.115c.058-.23.115-.46.058-.69l-.23-.69-5.868-10.24-.863-1.553h-.057l-.863 1.553-5.867 10.24-.23.69a1.38 1.38 0 0 0 .115.862c.23.345.575.69 1.38.69h10.93c.172 0 1.035-.057 1.437-.69zm-6.902-10.239 5.35 9.376h-10.7l5.35-9.376z" fill="#2F495E"/></svg>