<svg width="26" height="26" fill="none" xmlns="http://www.w3.org/2000/svg"><path d="M4.394 6.726 17.144 0l6.689 12.605-12.636 6.725L4.394 6.726z" fill="#4A4545"/><path d="M8.74 12.039 6.28 7.574l6.404 1.47-2.46-4.466" stroke="#FA1516" stroke-width=".689"/><path d="M16.458 15.487 9.025 13.17m2.63 4.86 2.287-7.459-2.287 7.46z" stroke="#16D41A" stroke-width=".689"/><path d="m14.856 10.287 5.26-2.826" stroke="#FB16BB" stroke-width=".689"/><path d="m17.487 8.874 2.63 4.86" stroke="#FB16BB" stroke-width=".603"/><path d="M18.344 4.974c0 1.13-.57 2.148-1.486 2.6-1.487.735-3.316.113-3.946-1.413-.57-1.3 0-2.826 1.202-3.561a2.93 2.93 0 0 1 3.773.96l-5.031 2.6" stroke="#FCFC17" stroke-width=".689"/><path d="m3.25 14.073 1.144-6.725 6.402 12.04-1.486 5.877-6.06-11.19v-.002zm8.118 5.427-1.714 5.99 11.835-6.272 2.287-6.162L11.368 19.5z" fill="#4A4545"/></svg>