<svg width="39" height="12" fill="none" xmlns="http://www.w3.org/2000/svg"><path d="m34.518 10.543-7.018.043c.669-2.557 1.338-5.1 2.007-7.657 2.178.128 4.356.243 6.548.371-.512 2.4-1.025 4.814-1.537 7.243z" fill="#fff"/><path d="M29.607 1.528H19.57v6.686h10.036V1.528zM17.108 2.643H2.034V7.4h15.075V2.643z" fill="#fff"/><path d="M22.717 4.386a.85.85 0 0 0-.313-.229 1.058 1.058 0 0 0-.442-.086c-.17 0-.327.029-.483.086a1.194 1.194 0 0 0-.399.257 1.444 1.444 0 0 0-.313.4 2.778 2.778 0 0 0-.214.514h2.406v-.185c0-.143-.014-.286-.057-.415a.999.999 0 0 0-.185-.342zM27.272 4.415c-.1-.1-.213-.186-.356-.243a1.25 1.25 0 0 0-.47-.086c-.227 0-.44.057-.626.157-.185.1-.37.243-.512.429-.143.185-.256.4-.342.657a2.592 2.592 0 0 0-.128.828c0 .186.028.358.085.515.057.157.129.285.228.4.1.114.214.2.342.257.128.057.285.1.441.1.228 0 .441-.057.64-.157.2-.1.37-.257.513-.443.143-.186.256-.414.342-.672.085-.257.128-.528.128-.828a1.5 1.5 0 0 0-.085-.514.713.713 0 0 0-.2-.4z" fill="#02262B"/><path d="m30.105 2.357.37-1.786h-10.89l-1.779 8.572h9.11l-.498 2.3h8.712L37.05 2.37l-6.946-.014zM23.699 5.4c0 .057-.014.114-.014.186 0 .071-.014.128-.014.185 0 .057-.014.115-.014.143h-3.203v.229c0 .228.028.428.1.585.07.158.156.286.256.4.1.1.227.172.355.215.129.043.27.071.399.071.299 0 .527-.057.712-.157.185-.1.313-.243.413-.414h.754a1.445 1.445 0 0 1-.228.471 1.791 1.791 0 0 1-.413.386c-.156.114-.355.2-.569.257-.213.057-.456.1-.712.1a2.23 2.23 0 0 1-.697-.114 1.675 1.675 0 0 1-.57-.357A1.675 1.675 0 0 1 19.87 7a2.29 2.29 0 0 1-.142-.8c0-.414.057-.786.17-1.129.114-.343.271-.628.47-.871.2-.243.442-.429.726-.557.285-.129.598-.2.94-.2.228 0 .441.043.655.114.199.086.384.2.54.343.157.143.27.343.37.571.086.229.129.486.129.772-.015.043-.015.1-.029.157zm3.374 2.571.128-.614h-.071c-.157.214-.37.386-.612.5a1.868 1.868 0 0 1-.797.186c-.228 0-.427-.043-.627-.129-.2-.086-.37-.2-.512-.357a1.529 1.529 0 0 1-.342-.571 2.461 2.461 0 0 1-.128-.743c0-.272.029-.529.085-.772.057-.243.129-.471.228-.671.1-.214.214-.4.356-.572.142-.171.299-.314.456-.428.156-.114.355-.214.555-.272.199-.057.398-.1.612-.1.156 0 .313.015.455.072.143.043.27.1.399.186.128.085.213.171.299.285.085.115.142.229.185.372h.071l.555-2.586h.726L27.77 7.971h-.697zm7.117 2.3h-1.594l-1.04-2.3h-.127l-1.922 2.3h-1.58L30.93 6.7l-1.395-3.157h1.623l.926 2.171h.085l1.75-2.171h1.61l-2.876 3.314 1.537 3.414z" fill="#02262B"/><path d="M8.126 3.47h-.754l-.256 1.572h.754c.584 0 .897-.343.968-.786.071-.457-.114-.785-.712-.785zM4.311 3.457c-.711 0-1.324.557-1.494 1.543-.157.957.256 1.471.925 1.471.712 0 1.324-.543 1.48-1.543.171-.957-.242-1.471-.91-1.471z" fill="#D23228"/><path d="M1.521 1.757.211 8.043H17.38l1.31-6.272H1.52v-.014zM5.821 5c-.214 1.257-1.083 2.014-2.093 2.014-1.054 0-1.709-.8-1.495-2.1.214-1.257 1.082-2.029 2.107-2.029C5.379 2.9 6.034 3.7 5.82 5zm3.63-.743c-.129.743-.67 1.3-1.595 1.3H7.03l-.228 1.4h-.597l.669-4.014h1.423c.911.014 1.267.571 1.153 1.314zm3.273-.786h-1.893l-.2 1.214h1.652l-.1.515h-1.651l-.2 1.228h1.837l-.1.529H9.65l.67-4.014h2.519l-.114.528zm3.402 3.486h-.555l-1.438-2.943h-.042l-.598 2.943h-.598l.84-4.014h.555l1.424 2.942h.042l.612-2.942h.598l-.84 4.014z" fill="#D23228"/><path d="M37.977 3.486a.542.542 0 0 1-.399-.171c-.057-.058-.085-.115-.128-.187-.043-.07-.043-.142-.043-.214 0-.071.015-.157.043-.214a.728.728 0 0 1 .128-.186c.057-.057.114-.086.185-.128a.57.57 0 0 1 .427 0 .542.542 0 0 1 .185.128c.057.057.086.114.129.186.042.071.042.143.042.214a.523.523 0 0 1-.042.214.728.728 0 0 1-.129.186c-.057.057-.114.086-.185.129a.474.474 0 0 1-.213.043zm0-.1a.417.417 0 0 0 .228-.058.492.492 0 0 0 .17-.17.42.42 0 0 0 .057-.23.42.42 0 0 0-.057-.228.492.492 0 0 0-.17-.172.417.417 0 0 0-.228-.057.417.417 0 0 0-.228.057.492.492 0 0 0-.17.172.42.42 0 0 0-.058.228.42.42 0 0 0 .057.23c.043.07.1.128.171.17a.417.417 0 0 0 .228.058zm-.185-.215v-.528h.256c.028 0 .057 0 .071.014a.111.111 0 0 1 .057.057c.014.029.029.057.029.086a.154.154 0 0 1-.029.086.31.31 0 0 1-.071.057c-.029.014-.057.014-.085.014h-.186v-.071h.171c.029 0 .043-.015.072-.029a.11.11 0 0 0 .028-.071.11.11 0 0 0-.028-.072c-.015-.014-.043-.014-.057-.014h-.129v.457h-.1v.014zm.299-.243.128.243h-.1l-.128-.243h.1z" fill="#02262B"/></svg>