<svg width="66" height="23" fill="none" xmlns="http://www.w3.org/2000/svg"><path d="M64.173 1.473a1.014 1.014 0 0 0-.746-.317l-4.008.018c-.504-.018-.84.187-1.026.634l-1.66 4.568-1.174-3.263-.484-1.305c-.187-.447-.523-.652-1.044-.652h-5.22c-.28 0-.541.093-.747.298a.998.998 0 0 0-.298.746v14.617c0 .28.112.522.317.727.205.205.448.317.727.317.28 0 .54-.093.746-.299a.997.997 0 0 0 .298-.745V8.166l3.263 9.042c.168.43.503.634.97.634.484 0 .801-.205.988-.634l1.659-4.567 1.435 3.97.02-.018.223.615c.074.187.205.355.41.485.186.13.392.186.615.186h4.009c.298 0 .54-.111.746-.317.186-.204.298-.447.298-.727V2.2a1.083 1.083 0 0 0-.317-.727zM54.105 13.666 50.34 3.263h3.002l.447 1.249 1.809 5.015-1.492 4.139zm8.278 2.125h-2.237l-.187-.54-.67-1.865v-.018l-1.4-3.86 2.257-6.245h2.256V15.79h-.019zM9.173 5.351c-1.156 0-2.144.41-2.965 1.23-.82.82-1.23 1.809-1.23 2.965 0 1.155.41 2.144 1.23 2.964.82.82 1.809 1.23 2.965 1.23s2.144-.41 2.964-1.23c.82-.82 1.23-1.809 1.23-2.964 0-1.156-.41-2.144-1.23-2.965-.82-.839-1.808-1.23-2.964-1.23zM10.646 11a2 2 0 0 1-1.473.615A2 2 0 0 1 7.7 11a2 2 0 0 1-.615-1.473A2 2 0 0 1 7.7 8.054a2 2 0 0 1 1.473-.615 2 2 0 0 1 1.473.615 2 2 0 0 1 .615 1.473A2 2 0 0 1 10.646 11zM9.173 1.156c-2.312 0-4.27.82-5.91 2.46C1.622 5.24.82 7.217.82 9.527c0 2.313.82 4.27 2.443 5.911 1.64 1.64 3.598 2.443 5.91 2.443 2.312 0 4.27-.82 5.91-2.443 1.622-1.64 2.442-3.617 2.442-5.91 0-2.312-.82-4.27-2.442-5.91-1.622-1.64-3.617-2.461-5.91-2.461zm4.437 12.79c-1.23 1.23-2.703 1.827-4.437 1.827-1.734 0-3.207-.597-4.437-1.827-1.23-1.23-1.828-2.704-1.828-4.438 0-1.734.616-3.206 1.828-4.437 1.23-1.23 2.703-1.827 4.437-1.827 1.734 0 3.207.615 4.437 1.827 1.23 1.23 1.827 2.703 1.827 4.437 0 1.734-.615 3.226-1.827 4.438zm6.637-4.438c-.69-.932-1.044-1.957-1.044-3.113 0-1.399.56-2.63 1.678-3.692 1.082-1.025 2.256-1.547 3.543-1.547 1.081 0 1.995.242 2.796.746.597.372 1.23.988 1.902 1.845.242.299.373.597.373.858 0 .298-.093.54-.298.746a.998.998 0 0 1-.746.298.966.966 0 0 1-.84-.447c-.987-1.306-2.05-1.958-3.169-1.958-.857 0-1.603.298-2.2.913-.615.616-.913 1.343-.913 2.22 0 .633.168 1.211.522 1.733l3.337 3.785a.998.998 0 0 1 .298.745c0 .28-.093.541-.298.746a.998.998 0 0 1-.746.299.962.962 0 0 1-.764-.355l-3.43-3.822zm22.504 1.622 2.144 5.277c.112.28.112.54 0 .82-.112.28-.317.466-.578.578-.28.112-.54.093-.82-.019a1.036 1.036 0 0 1-.578-.578l-2.555-6.245a1.19 1.19 0 0 1-.018-.765.995.995 0 0 1 .485-.578l.074-.037.037-.019.038-.018h.037l.056-.02h.037l.019-.018h.018c.355-.112.597-.186.746-.28 1.026-.54 1.548-1.51 1.548-2.852 0-.783-.299-1.491-.895-2.125-.615-.653-1.343-.988-2.163-1.007h-6.339v13.573c0 .28-.093.54-.298.745a.997.997 0 0 1-.746.299c-.28 0-.522-.112-.727-.317a1.004 1.004 0 0 1-.317-.727V2.2c0-.28.093-.522.298-.727.205-.205.448-.317.746-.317h7.309c1.416 0 2.647.54 3.691 1.603 1.025 1.044 1.529 2.256 1.529 3.617 0 1.063-.243 2.014-.746 2.853-.522.839-1.175 1.473-2.032 1.901zM28.6 9.527c.69.802 1.044 1.846 1.044 3.114 0 1.398-.56 2.628-1.678 3.691-1.081 1.026-2.256 1.529-3.542 1.529-1.063 0-1.995-.242-2.778-.746-.597-.373-1.23-.988-1.902-1.846-.242-.298-.373-.596-.373-.857 0-.299.093-.541.299-.746a.998.998 0 0 1 .745-.298c.355 0 .634.149.84.447.987 1.305 2.05 1.958 3.15 1.958.876 0 1.604-.299 2.219-.914.615-.615.913-1.342.913-2.219 0-.708-.168-1.286-.522-1.733l-3.318-3.785a.998.998 0 0 1-.299-.746c0-.28.093-.54.299-.746a.985.985 0 0 1 .727-.298c.317 0 .578.112.783.354l3.393 3.84zm12.417-2.405a.998.998 0 0 1-.746.298h-2.088v9.397c0 .28-.112.522-.317.727a1.004 1.004 0 0 1-.727.317c-.28 0-.54-.093-.746-.299a.997.997 0 0 1-.298-.745V6.432c0-.336.093-.597.28-.802.186-.205.447-.298.764-.298h3.132c.28 0 .522.112.727.317.205.205.317.447.317.727.019.298-.093.54-.298.746z" fill="url(#a)"/><path d="M3.71 21.067c0 .13-.018.243-.056.336a.782.782 0 0 1-.168.261.782.782 0 0 1-.26.168 1.055 1.055 0 0 1-.672 0 .632.632 0 0 1-.26-.168.782.782 0 0 1-.169-.261.975.975 0 0 1-.056-.336c0-.13.02-.242.056-.335a.782.782 0 0 1 .168-.261.782.782 0 0 1 .261-.168.903.903 0 0 1 .336-.056c.13 0 .224.019.335.056a.632.632 0 0 1 .261.168c.075.074.13.168.168.26a.903.903 0 0 1 .056.336zm-.242 0c0-.093-.019-.167-.037-.242-.02-.075-.075-.15-.112-.205-.056-.056-.112-.112-.187-.13a.517.517 0 0 0-.242-.056.517.517 0 0 0-.243.055.669.669 0 0 0-.186.131.444.444 0 0 0-.112.205c-.037.075-.037.168-.037.242 0 .094.019.168.037.243.037.074.075.149.112.205a.67.67 0 0 0 .186.13c.075.038.15.056.243.056a.516.516 0 0 0 .242-.056.67.67 0 0 0 .187-.13.445.445 0 0 0 .112-.205.945.945 0 0 0 .037-.243zM4.978 20.285h.485c.093 0 .168 0 .223.018a.56.56 0 0 1 .187.075.25.25 0 0 1 .112.13.67.67 0 0 1 .037.206.67.67 0 0 1-.037.205.263.263 0 0 1-.112.13.56.56 0 0 1-.187.075c-.074.018-.149.018-.223.018H5.22v.69h-.223v-1.547h-.019zm.224.69h.242c.056 0 .112 0 .15-.02.037-.018.092-.018.111-.036a.146.146 0 0 0 .075-.075c.018-.037.018-.075.018-.112 0-.037 0-.093-.018-.112-.019-.018-.038-.056-.075-.074a.264.264 0 0 0-.112-.038c-.037 0-.093-.018-.149-.018h-.242v.485zM7.495 21.664h.82v.205H7.271v-1.584h1.007v.186h-.802v.466h.746v.187h-.746v.54h.019zM10.683 21.552v-1.267h.224v1.584h-.28l-.839-1.286v1.286h-.224v-1.584h.28l.84 1.267zM14.561 20.564c-.037-.037-.075-.074-.13-.112-.056-.018-.112-.037-.187-.037-.037 0-.075 0-.112.019-.037.018-.074.018-.093.056-.037.018-.056.056-.075.074-.018.038-.037.075-.037.112 0 .037 0 .075.019.112a.145.145 0 0 0 .074.075c.038.018.056.037.112.055.056.02.075.038.13.038l.168.056c.056.018.112.056.15.074a.813.813 0 0 1 .112.13c.037.057.037.113.037.187 0 .075-.019.15-.037.205a.504.504 0 0 1-.13.15c-.057.037-.113.074-.169.093-.074.018-.13.037-.205.037a.844.844 0 0 1-.298-.056.51.51 0 0 1-.224-.168l.168-.149c.037.056.093.093.15.13.055.038.13.056.204.056.037 0 .075 0 .112-.018.037-.019.075-.019.093-.056.037-.019.056-.056.075-.093a.269.269 0 0 0 .037-.13c0-.057-.019-.094-.037-.113-.019-.037-.056-.056-.075-.074-.018-.019-.074-.037-.112-.056a1.282 1.282 0 0 0-.149-.056c-.056-.019-.093-.037-.149-.056-.056-.019-.093-.056-.13-.075a.334.334 0 0 1-.094-.13.55.55 0 0 1-.037-.187c0-.074.019-.149.056-.205.037-.056.075-.112.13-.149.056-.037.112-.056.168-.074.056-.019.13-.019.187-.019.093 0 .186.019.26.056.075.037.15.075.187.13l-.149.168zM17.619 21.067c0 .13-.019.243-.056.336a.782.782 0 0 1-.168.261.782.782 0 0 1-.261.168 1.055 1.055 0 0 1-.671 0 .782.782 0 0 1-.261-.168.782.782 0 0 1-.168-.261.975.975 0 0 1-.056-.336c0-.13.019-.242.056-.335a.782.782 0 0 1 .168-.261.782.782 0 0 1 .26-.168 1.055 1.055 0 0 1 .671 0 .632.632 0 0 1 .262.168c.075.074.13.168.168.26a.903.903 0 0 1 .056.336zm-.243 0c0-.093-.018-.167-.037-.242-.037-.075-.075-.15-.112-.205-.056-.056-.112-.112-.186-.13a.517.517 0 0 0-.243-.056.517.517 0 0 0-.242.055.67.67 0 0 0-.187.131.445.445 0 0 0-.111.205 1.094 1.094 0 0 0-.038.242c0 .094.019.168.038.243.037.074.074.149.111.205a.67.67 0 0 0 .187.13c.075.038.15.056.242.056a.516.516 0 0 0 .243-.056.67.67 0 0 0 .186-.13.445.445 0 0 0 .112-.205c.019-.075.037-.15.037-.243zM19.483 21.906a.683.683 0 0 1-.28-.055c-.074-.038-.149-.075-.186-.15a.443.443 0 0 1-.112-.205.942.942 0 0 1-.037-.242v-1.007h.224v.988c0 .056 0 .112.018.168a.56.56 0 0 0 .075.15c.037.036.074.074.112.092.055.019.111.038.186.038s.13-.019.186-.038c.056-.018.094-.056.131-.093.037-.037.056-.093.075-.149.018-.056.018-.112.018-.168v-.988h.224v1.007c0 .074-.019.168-.037.242a.445.445 0 0 1-.112.205.732.732 0 0 1-.187.15.847.847 0 0 1-.298.055zM21.664 21.87h-.223v-1.585h.503c.075 0 .15 0 .224.018.074.019.13.038.186.075a.434.434 0 0 1 .13.13c.038.056.038.13.038.206a.38.38 0 0 1-.112.28.49.49 0 0 1-.28.13l.448.727h-.261l-.41-.709h-.243v.727zm0-.896h.261c.056 0 .094 0 .15-.018a.2.2 0 0 0 .111-.037.146.146 0 0 0 .075-.075.264.264 0 0 0 .037-.112c0-.056-.018-.093-.037-.112-.019-.018-.037-.056-.075-.074a.264.264 0 0 0-.111-.038c-.038 0-.094-.018-.13-.018h-.28v.485zM25.132 21.608c-.056.093-.149.15-.242.205a.71.71 0 0 1-.354.075c-.112 0-.224-.019-.336-.056a.782.782 0 0 1-.261-.168.782.782 0 0 1-.168-.261.975.975 0 0 1-.056-.336c0-.13.019-.242.056-.335a.782.782 0 0 1 .168-.261.782.782 0 0 1 .261-.168c.112-.037.224-.056.336-.056.055 0 .111 0 .167.019.056.018.112.018.168.056.056.037.093.037.13.074l.113.112-.168.13a.406.406 0 0 0-.168-.13.516.516 0 0 0-.466 0 .671.671 0 0 0-.187.13.444.444 0 0 0-.111.206c-.038.074-.038.168-.038.242 0 .093.019.168.038.242.018.075.074.15.111.206a.671.671 0 0 0 .187.13c.075.037.149.056.242.056a.516.516 0 0 0 .243-.056c.074-.037.13-.093.186-.15l.15.094zM26.53 21.664h.82v.205h-1.043v-1.584h1.007v.186h-.802v.466h.746v.187h-.746v.54h.018zM30.371 21.87h-.223v-1.585h.503c.074 0 .149 0 .224.018.074.019.13.038.186.075a.437.437 0 0 1 .13.13c.038.056.038.13.038.206a.38.38 0 0 1-.112.28.49.49 0 0 1-.28.13l.448.727h-.261l-.41-.709h-.243v.727zm0-.896h.261c.056 0 .093 0 .15-.018a.2.2 0 0 0 .111-.037.146.146 0 0 0 .075-.075c.018-.037.037-.075.037-.112 0-.056-.019-.093-.037-.112a.145.145 0 0 0-.075-.074.264.264 0 0 0-.112-.038c-.037 0-.093-.018-.13-.018h-.28v.485zM34.081 21.067c0 .13-.018.243-.056.336a.782.782 0 0 1-.167.261.782.782 0 0 1-.261.168 1.055 1.055 0 0 1-.672 0 .632.632 0 0 1-.26-.168.782.782 0 0 1-.168-.261.975.975 0 0 1-.056-.336c0-.13.018-.242.056-.335a.782.782 0 0 1 .167-.261.782.782 0 0 1 .261-.168 1.055 1.055 0 0 1 .671 0 .632.632 0 0 1 .262.168c.074.074.13.168.167.26a.903.903 0 0 1 .056.336zm-.242 0c0-.093-.019-.167-.037-.242-.019-.075-.075-.15-.112-.205-.056-.056-.112-.112-.187-.13a.517.517 0 0 0-.242-.056.517.517 0 0 0-.242.055.668.668 0 0 0-.187.131.444.444 0 0 0-.112.205c-.037.075-.037.168-.037.242 0 .094.019.168.037.243.038.074.075.149.112.205a.67.67 0 0 0 .187.13c.074.038.149.056.242.056a.516.516 0 0 0 .242-.056.67.67 0 0 0 .187-.13.446.446 0 0 0 .112-.205c.018-.075.037-.15.037-.243zM35.946 21.906a.682.682 0 0 1-.28-.055c-.074-.038-.15-.075-.186-.15a.444.444 0 0 1-.112-.205.942.942 0 0 1-.038-.242v-1.007h.224v.988c0 .056 0 .112.019.168a.561.561 0 0 0 .074.15c.038.036.075.074.112.092.056.019.112.038.187.038.074 0 .13-.019.186-.038.056-.018.093-.056.13-.093.038-.037.057-.093.075-.149.019-.056.019-.112.019-.168v-.988h.224v1.007c0 .074-.019.168-.038.242a.444.444 0 0 1-.111.205c-.056.056-.112.112-.187.15a.846.846 0 0 1-.298.055zM38.444 21.87h-.224V20.47h-.503v-.186h1.23v.186h-.503v1.398zM40.346 21.87h-.224v-1.585h.224v1.584zM42.807 21.552v-1.267h.224v1.584h-.28l-.84-1.286v1.286h-.223v-1.584h.28l.839 1.267zM45.585 20.601a.67.67 0 0 0-.187-.13.515.515 0 0 0-.242-.056.516.516 0 0 0-.242.056.67.67 0 0 0-.187.13.443.443 0 0 0-.112.205c-.037.075-.037.168-.037.243 0 .093.019.168.037.242.038.075.075.15.112.205a.667.667 0 0 0 .187.13.595.595 0 0 0 .26.057c.075 0 .15 0 .206-.019l.167-.056v-.447h-.354v-.187h.578v.765a2.174 2.174 0 0 1-.28.111 1.647 1.647 0 0 1-.316.038.903.903 0 0 1-.336-.056.632.632 0 0 1-.261-.168.782.782 0 0 1-.168-.261.975.975 0 0 1-.056-.336c0-.13.019-.242.056-.335a.782.782 0 0 1 .168-.261.782.782 0 0 1 .261-.168 1.056 1.056 0 0 1 .671 0 .767.767 0 0 1 .243.15l-.168.148zM49.425 21.497l.467-1.212h.335v1.584h-.224v-1.323l-.522 1.323h-.149l-.522-1.323v1.323h-.224v-1.584h.336l.503 1.212zM51.663 21.87h-.243l.69-1.585h.205l.672 1.584h-.243l-.168-.391h-.745l-.168.391zm.242-.597h.597l-.299-.746-.298.746zM55.466 21.608c-.056.093-.149.15-.242.205a.71.71 0 0 1-.354.075c-.112 0-.224-.019-.336-.056a.632.632 0 0 1-.261-.168.782.782 0 0 1-.168-.261.975.975 0 0 1-.056-.336c0-.13.019-.242.056-.335a.782.782 0 0 1 .168-.261.782.782 0 0 1 .26-.168c.113-.037.225-.056.337-.056.056 0 .111 0 .167.019.056.018.112.018.168.056a.3.3 0 0 1 .13.074l.112.112-.167.13a.406.406 0 0 0-.168-.13.516.516 0 0 0-.466 0 .67.67 0 0 0-.187.13.443.443 0 0 0-.112.206c-.037.074-.037.168-.037.242 0 .093.019.168.037.242.02.075.075.15.112.206.038.055.112.093.187.13.074.037.149.056.242.056a.516.516 0 0 0 .243-.056.731.731 0 0 0 .186-.15l.15.094zM56.66 20.285h.223v.67h.802v-.67h.223v1.584h-.223v-.727h-.802v.727h-.224v-1.584zM59.475 21.87h-.224v-1.585h.224v1.584zM61.936 21.552v-1.267h.223v1.584h-.28l-.838-1.286v1.286h-.224v-1.584h.28l.839 1.267zM63.725 21.664h.82v.205h-1.043v-1.584h1.006v.186h-.801v.466h.745v.187h-.745v.54h.018z" fill="#FF930E"/><defs><linearGradient id="a" x1=".815" y1="9.521" x2="64.473" y2="9.521" gradientUnits="userSpaceOnUse"><stop stop-color="#005591"/><stop offset="1" stop-color="#572B7A"/></linearGradient></defs></svg>