<svg width="26" height="26" fill="none" xmlns="http://www.w3.org/2000/svg"><path d="M0 19.134 1.95 9.96h4.511c1.95.113 2.925 1.018 2.925 2.604 0 2.719-2.316 4.304-4.387 4.19H2.802l-.488 2.379H0zm3.291-4.077h1.463c1.097-.114 2.072-.453 2.195-2.378 0-.68-.61-1.02-1.463-1.02H3.9l-.61 3.398h.001zm5.642 1.698 1.95-9.172H13.2l-.487 2.378h2.194c1.95.113 2.682 1.018 2.437 2.152l-.852 4.642h-2.438l.853-4.19c.122-.566.122-.905-.732-.905h-1.828l-1.097 5.095H8.933zm7.401 2.379 1.95-9.173h4.512c1.95.113 2.925 1.018 2.925 2.604 0 2.719-2.317 4.304-4.388 4.19h-2.195l-.487 2.379h-2.317zm3.292-4.077h1.462c1.098-.114 2.073-.453 2.195-2.378 0-.68-.61-1.02-1.463-1.02h-1.584l-.61 3.398z" fill="#6983B5"/></svg>