<svg width="41" height="41" fill="none" xmlns="http://www.w3.org/2000/svg"><g clip-path="url(#a)"><mask id="b" style="mask-type:luminance" maskUnits="userSpaceOnUse" x="9" y="0" width="153" height="41"><path d="M161.817.29H9.623v40.054h152.194V.29z" fill="#fff"/></mask><g mask="url(#b)"><path d="M29.167.29h-17.26c-1.203 0-2.2.954-2.2 2.2v27.197c0 1.204.955 2.2 2.2 2.2h11.42v-4.165H13.79V4.372h15.336a3.671 3.671 0 0 1 3.681 3.682V24.04a3.671 3.671 0 0 1-3.681 3.682h-3.28a.553.553 0 0 0-.568.567v3.003c0 .319.235.568.567.568h3.28c4.291 0 7.765-3.488 7.765-7.765V8.068c.042-4.291-3.432-7.779-7.723-7.779z" fill="#181818"/><path d="m19.755 39.901-8.416-6.49a4.42 4.42 0 0 1-1.716-3.489V2.49c0-1.8 2.076-2.838 3.53-1.717l8.456 6.492a4.42 4.42 0 0 1 1.716 3.488v27.474c-.041 1.758-2.131 2.754-3.57 1.675z" fill="#03EAB3"/></g></g><defs><clipPath id="a"><path fill="#fff" transform="translate(.766 .29)" d="M0 0h40v40H0z"/></clipPath></defs></svg>