<svg fill="none" xmlns="http://www.w3.org/2000/svg" viewBox="0 0 59 19"><path fill-rule="evenodd" clip-rule="evenodd" d="M59 0h-5.5l-5.6 9.4 5.6 9.5H59l-5.5-9.5L59 0z" fill="#000"/><path fill-rule="evenodd" clip-rule="evenodd" d="M41.8 0h5.5l6.2 9.4-6.2 9.5h-5.5l6.1-9.5L41.8 0z" fill="#F9BE03"/><path fill-rule="evenodd" clip-rule="evenodd" d="M39.9 18.9h-11V0h11v3.3h-7v4.1h6.5v3.3h-6.5v4.9h7v3.3zm-24.8 0V0h4v15.6H27v3.3H15.1zm-3.8-8.4a8.3 8.3 0 0 1-5.5 1.7H4v6.7H0v-10h5.5C9 8.9 9.1 6.8 9.1 6c0-.7 0-2.8-3-2.8H0V0h6.1c2.3 0 4 .5 5.3 1.5 1.2 1 1.8 2.4 1.8 4.4 0 2-.6 3.6-2 4.6z" fill="#000"/><path fill-rule="evenodd" clip-rule="evenodd" d="M0 2h4v8.2H0V2z" fill="#000"/></svg>