<svg width="41" height="41" fill="none" xmlns="http://www.w3.org/2000/svg"><g clip-path="url(#a)"><path d="M30.158 13.053c-.732-.508-1.684-.508-2.49 0l-5.713 3.89-3.881 2.537-5.713 3.89c-.732.507-1.684.507-2.49 0l-4.54-3.044c-.733-.508-1.245-1.438-1.245-2.453V11.87c0-1.015.44-1.945 1.245-2.452l4.467-2.96c.732-.508 1.684-.508 2.49 0l4.468 2.96c.732.507 1.245 1.437 1.245 2.452v3.89l3.881-2.622v-3.89c0-1.014-.44-1.945-1.245-2.452l-8.276-5.581c-.732-.508-1.684-.508-2.49 0L1.45 6.795C.644 7.302.204 8.233.204 9.247v11.248c0 1.014.44 1.945 1.245 2.452l8.422 5.582c.733.507 1.685.507 2.49 0l5.713-3.806 3.881-2.621 5.713-3.806c.732-.507 1.684-.507 2.49 0l4.467 2.96c.733.507 1.245 1.438 1.245 2.452v6.005c0 1.014-.439 1.944-1.245 2.452l-4.467 3.044c-.732.508-1.684.508-2.49 0l-4.467-2.96c-.733-.507-1.246-1.437-1.246-2.452v-3.89l-3.881 2.622v3.89c0 1.014.44 1.945 1.245 2.452l8.422 5.581c.733.508 1.685.508 2.49 0l8.422-5.581c.733-.507 1.245-1.438 1.245-2.452V21.17c0-1.014-.439-1.945-1.245-2.452l-8.495-5.666z" fill="#7950DD"/></g><defs><clipPath id="a"><path fill="#fff" transform="translate(.204 .833)" d="M0 0h40v40H0z"/></clipPath></defs></svg>