<svg width="26" height="26" fill="none" xmlns="http://www.w3.org/2000/svg"><path fill-rule="evenodd" clip-rule="evenodd" d="M5.085 10.737c.035.026.095.043.035.095-.044.06-.096.113-.13.182-.035.061-.061.078-.113.035.07-.113.138-.217.207-.313zm17.408 9.089c0 .026.009.043.009.069.017-.035.017-.052.026-.07h-.035zm0 .078v-.01.01zm-1.767 3.382-1.507-8.36c-.026-.009-.06-.026-.121-.043.017.034.026.06.035.086.043-.008.06-.008.078-.017 0-.008 0-.017.008-.026l1.508 8.36zm-1.559-10.242c-.008.025-.008.052-.008.078 0-.027 0-.053.01-.079h-.002zm.009.173c-.009 0-.009 0-.017-.01v.01c.01.008.01.008.018 0h-.001zm-.017.069v-.06c-.025.008-.051.008-.086.016.043.017.087.026.087.043l-.001.001z" fill="#DD3735"/><path fill-rule="evenodd" clip-rule="evenodd" d="M25.905 11.179c-.017-.338-.026-.677-.06-1.015-.061-.46-.122-.928-.226-1.379a7.807 7.807 0 0 0-.337-1.084c-.165-.416-.33-.841-.538-1.24-.337-.642-.779-1.214-1.186-1.813-.27-.381-.615-.693-.875-1.084-.148-.225-.364-.416-.58-.589-.347-.278-.71-.53-1.075-.772-.277-.191-.554-.373-.849-.538-.233-.13-.484-.235-.727-.348-.277-.13-.546-.286-.857-.347-.079-.016-.148-.042-.226-.069-.199-.069-.39-.147-.589-.208-.303-.095-.597-.208-.91-.286a8.35 8.35 0 0 0-.925-.173c-.347-.051-.701-.07-1.048-.103A8.828 8.828 0 0 0 14.23.07c-.33-.017-.667-.017-.996-.026-.165-.009-.338-.026-.502-.017a7.39 7.39 0 0 0-.754.069c-.242.026-.485.07-.718.104-.286.035-.571.052-.857.087-.269.035-.546.087-.814.13-.096.018-.191.053-.287.07-.207.043-.423.06-.631.13-.372.113-.745.244-1.109.382-.338.139-.667.286-.987.46-.33.181-.641.398-.953.606-.295.2-.59.408-.875.633-.277.218-.537.46-.788.703-.139.138-.252.303-.381.46-.217.251-.433.494-.641.754-.173.217-.33.442-.494.668a11.05 11.05 0 0 0-.779 1.249c-.095.173-.182.347-.268.52-.13.26-.269.512-.39.78a3.297 3.297 0 0 0-.208.582c-.12.425-.242.859-.355 1.283-.104.382-.13.78-.138 1.171-.009.347.026.685.06 1.032.01.087-.042.191.06.26-.034.096-.008.148.044.165-.06.095.026.157-.008.243-.01.018.026.052.043.078 0 .026-.009.061 0 .087.009.078.043.156.043.243 0 .06.052.13.07.19.008.026 0 .07-.018.087-.052.06-.043.113.035.148.043.112.026.164.017.217.017.078-.009.104 0 .121.07.139.096.295.104.451 0 .035.017.07.035.113.008 0 0 .164 0 .164.043-.025.078-.034.121-.051.026.112.052.217.087.312.043.07.043.104.026.112.034.156.052.304.112.451 0-.164-.017-.329-.043-.485.121.043.225.086.295.086.008-.026.017-.06.026-.078-.052-.051-.096-.13-.148-.181.018.069 0 .095 0 .121-.034-.017-.078-.035-.12-.052.034-.043.068-.087.12-.139 0-.078-.042-.148-.164-.139.052-.017.104-.042.164-.06.096-.052-.008-.147-.008-.269.008-.147-.078-.294-.104-.45-.044-.243-.035-.608-.06-.85-.053-.044-.096.069-.105.078.027.208.052.416.07.624-.052-.174-.087-.364-.13-.573-.01.061-.018.087-.018.122-.042.043-.008.095.018.156-.06-.026-.13-.017-.13-.017v.243c-.086-.087-.112-.156-.156-.218-.017-.069-.026-.138-.043-.207.017-.044 0-.07 0-.095a5.255 5.255 0 0 1-.026-.209c.009-.008-.009-.138-.009-.138.07.008.113.016.156.016-.086-.112-.026-.181.01-.25.017-.036.077-.044.095-.08.069-.13.182-.233.182-.398 0-.078.026-.165.034-.243.018-.147.035-.295.043-.442.018-.191 0-.382.044-.564.07-.303.156-.607.251-.91a9.67 9.67 0 0 1 .234-.642c.13-.338.251-.677.416-.997.234-.469.502-.92.762-1.38.165-.286.338-.555.52-.832.173-.269.346-.546.546-.798a7.06 7.06 0 0 1 .918-.98c.346-.312.675-.633 1.048-.92.484-.373.996-.702 1.54-.989.443-.233.901-.416 1.36-.59.295-.112.615-.164.919-.26a3.643 3.643 0 0 1 1.056-.173c.234-.01.46-.035.693-.061.208-.017.416-.034.641-.06-.026.034-.035.052-.043.069-.095.139-.2.278-.295.416l-.242.347c-.139.183-.287.365-.416.556-.2.286-.381.58-.59.867-.207.277-.432.537-.649.806-.285.373-.554.755-.84 1.128-.26.355-.536.694-.787 1.05-.225.311-.425.641-.641.961-.32.478-.641.946-.962 1.423-.25.364-.502.72-.762 1.084-.017.026-.043.034-.069.052-.069.112-.069.173-.095.225-.07.13-.139.26-.217.382-.043.069-.104.13-.156.199-.008-.104.138-.156.07-.286-.044.07-.087.13-.13.2l-.104.207c.034.026.095.044.034.095-.026.044-.052.096-.078.14a.315.315 0 0 0 .096-.087c0 .095-.052.173-.096.25-.034.07-.121.122-.182.174.009.009.07.035.078.044.078-.027.104-.07.113-.044.027-.034.052-.06.06-.086a.314.314 0 0 1 .174-.191c.035-.018.06-.044.086-.07.26-.269.529-.529.762-.815.364-.443.694-.902 1.04-1.353.147-.19.32-.381.476-.564.026.2.009.39 0 .573-.026.32-.043.642-.069.97-.009.13 0 .26-.009.391 0 .035-.026.06-.026.096 0 .086.026.182.026.268-.026.321-.06.633-.087.954-.009.07.026.14.043.2-.043.468.053.963-.026 1.457.06-.095.078-.156.078-.217.009-.052 0-.104 0-.164v-.087c.009-.156.043-.32.026-.477a1.615 1.615 0 0 1 .017-.503c.018-.07-.008-.156.035-.243v.13c-.008.494.01.988-.06 1.483-.009.043.026.121-.069.112-.078.156.017.27-.07.356-.017.017.017.095.026.147-.035.105-.035.105.017.113.009.191.027.364.035.547.138-.33.069-.668.13-1.007.009.14.018.278.009.425 0 .226-.009.442-.017.668 0 .043-.01.087-.018.13-.026.122-.034.243-.078.356-.034.086-.017.217-.017.32v.33c.035.148-.009.226.017.313-.026.087-.034.113-.026.139l.026.13c.174-.018.096.113.165.182-.052.07-.035.095-.035.13 0 .079-.008.148-.017.226 0 .2-.008.399-.008.59 0 .026.008.051.008.077l-.008.244c.017.026 0 .052-.027.078-.008 0-.034-1.102-.034-1.102h-.13c-.017.52.026.988-.07 1.475-.103.008-.137.025-.25.025-.27 0-.538 0-.806.009-.32 0-.632.008-.953.008-.155 0-.32.018-.476.018-.208 0-.425-.026-.632-.026-.32 0-.632.026-.953.035-.234.008-.467.008-.701.017-.156.008-.313.017-.468.034-.07.009-.13.035-.217.06-.026 0-.086-.008-.138 0-.087.018-.164.07-.252.088-.13.026-.164.06-.147.19v.087c-.009.017.19-.026.19-.026-.017 0-.025.052-.052.095l.157-.06c.13.06.242.026.346.052.337.087.684.122 1.03.156.225.017.442.026.667.035.32.017.64.034.961.034.269 0 .529-.026.796-.026.372 0 .746.017 1.118.026.078 0 .164-.009.251-.009h.632c.563-.017 1.126-.026 1.69-.043.32-.009.65-.026.97-.035l.987-.026c.38-.009.762-.009 1.135-.017.285 0 .562-.01.849-.018.32-.008.649-.034.97-.051.173-.01.346-.027.52-.044.207-.017.424-.043.631-.051.312-.018.633-.027.945-.044.39-.026.779-.06 1.177-.07.364-.016.736-.008 1.1-.016.321-.01.642-.027.97-.035l.547-.027s.363-.008.545-.026c.312-.017.624-.052.936-.06.198-.01.398 0 .597-.01.32-.008.65-.025.97-.025.12 0 .25.017.407.026l-.165.139c.035.008.07.026.104.043a.234.234 0 0 1-.138.043c-.018.044-.035.061-.053.148h.156c-.06 0-.112.078-.173.13-.069-.018-.13 0-.164.096.06.034.052.06.043.095-.104.034-.182.07-.138.182-.035.017-.079.034-.122.06-.043.07-.121.087-.104.182.035.009.07.027.096.035-.044.017-.087.043-.13.06-.156.095-.087.139-.052.182-.026.018-.052.035-.078.044.017.078.043.095.052.095-.035.026-.079.06-.13.104-.027.078-.061.113-.096.165-.035.052-.052.122-.095.173-.182.2-.312.435-.546.59-.087.061-.164.14-.242.218-.156.147-.295.312-.46.45a9.744 9.744 0 0 1-.675.512c-.285.2-.57.399-.857.59-.156.103-.329.181-.493.277l-.485.277c-.105.07-.2.165-.313.218-.285.121-.589.225-.883.338-.286.122-.493.225-.71.303-.2.07-.407.122-.615.165-.069.018-.147 0-.225.009-.148.026-.295.06-.442.078-.381.052-.762.087-1.143.139-.226.026-.442.069-.667.095-.156.009-.32-.008-.477-.008-.112 0-.233.026-.346.009-.182-.027-.364-.07-.546-.104-.043-.009-.104-.027-.138-.009-.07.035-.13-.017-.2 0-.043.009-.086-.026-.13-.026-.034-.008-.078.009-.121 0-.096-.026-.182-.06-.287-.052-.103.009-.207-.043-.319-.069-.156-.035-.303-.07-.46-.104a.788.788 0 0 1-.172-.078c-.226 0-.373-.009-.512-.061-.12-.043-.233-.104-.363-.086-.034.008-.06-.009-.096-.009-.026-.035-.051-.104-.077-.104-.173.009-.277-.139-.425-.182-.077-.027-.138-.113-.216-.14-.19-.077-.346-.242-.563-.268-.069-.009-.138-.043-.216-.069.026.034.043.06.069.086-.251-.121-.485-.26-.719-.39-.034-.009-.06-.043-.086-.06l-.234-.156c-.13.026-.182-.027-.217-.044-.234-.165-.502-.269-.727-.45-.096-.08-.208-.131-.277-.227a1.368 1.368 0 0 0-.433-.338c-.13-.069-.251-.147-.372-.225-.061-.044-.122-.096-.122-.191 0-.06-.026-.122-.104-.087-.034-.052-.069-.112-.112-.13-.104-.043-.173-.122-.251-.19-.078-.07-.138-.165-.234-.2-.173-.069-.277-.216-.381-.338-.243-.286-.46-.599-.685-.902-.017-.026-.052-.043-.078-.07.035.096.078.174.122.26a.52.52 0 0 1-.2-.155c-.008.008.598 1.006.598 1.006.053.078.096.156.148.234a.267.267 0 0 1-.26-.139c-.078-.138-.165-.225-.338-.207a1.512 1.512 0 0 1-.043-.191c-.035 0-.06 0-.122-.009.122.19.226.355.338.546-.043-.026-.069-.043-.087-.052.156.165.268.373.467.478.044.199.269.294.321.485l-.122-.026c-.069-.087-.147-.173-.225-.269.018.06.043.113.078.156.104.13.2.26.32.373.044.044.105.062.105.14.069.034.095.042.12.042.019.053-.007.131.096.114.07.13.138.13.234.086.113.113.174.122.251.053 0 .043.009.086.009.121.034-.017.026-.043.026-.087.043.035.07.052.086.07.087.121.165.234.286.33.165.138.312.286.468.416.303.251.641.46.979.65.416.234.814.486 1.238.711.511.27 1.057.452 1.62.582.208.043.407.086.615.138.181.053.363.13.545.174.277.06.563.113.84.164.06.01.122.018.191.026.078.018.173-.017.19.01.044.069.078.034.13.025.06-.017.13-.017.2-.017.242.008.476.06.718.043.053 0 .13-.044.174.043.078-.035.12-.035.155-.043.01.078 0 .078-.016.086-.018.009-.044.018-.078.044.311.06.606.069.865 0 .451.034.84-.018 1.213-.148.035.044.06.104.113.018.017-.027.06-.035.095-.044.078-.017.173-.052.243-.026.078.026.104-.043.164-.043.105 0 .2-.009.295-.026.052-.009.104-.035.165-.053a.42.42 0 0 0-.191-.043c.104-.052.2-.096.295-.139-.018.026-.035.06-.07.06h.121c-.026 0-.06.079-.104.13l.875-.216c-.096-.182.103-.121.173-.226a2.655 2.655 0 0 1-.26.07c.294-.148.598-.278.892-.408-.043.052-.096.078-.173.122.052.008.086.008.112.017.139.043.105-.087.148-.165.164 0 .233-.026.311-.052.087-.026.173-.052.26-.087.139-.06.268-.138.407-.207.026-.009.07 0 .104 0 .096-.061.13-.113.156-.105.122.018.207-.026.242-.138.06-.043.104-.078.147-.104.19-.104.372-.208.563-.312.069 0 .104 0 .121-.01.113-.052.217-.112.32-.173a.73.73 0 0 1-.086-.043c.086-.017.112-.026.165-.043.207-.244.494-.408.71-.6.095-.008.095-.034.095-.05.034-.044.07-.096.112-.131.191-.174.398-.321.572-.503.25-.252.493-.513.719-.781.207-.243.416-.486.589-.755.242-.373.45-.754.666-1.145.156-.277.295-.555.451-.832.017-.026.052-.061.078-.061.234-.026.468-.043.693-.07.052-.008.113-.042.165-.068-.027-.044-.044-.096-.07-.14-.034-.052-.086-.095-.121-.147-.034-.043-.06-.096-.086-.147-.027-.043-.052-.078-.078-.122a3.11 3.11 0 0 1-.149-.294c-.008-.027-.026-.07-.017-.096.156-.338.217-.702.364-1.04.147-.347.19-.738.26-1.11.06-.356.096-.711.138-1.067.027-.251.061-.494.07-.746.052-.398.034-.772.026-1.145-.009-.329-.027-.667-.043-.997l-.001-.001zM4.175 21.855c-.06-.07-.112-.148-.173-.217l.026-.026c.095.104.19.208.285.321-.052-.026-.112-.043-.138-.078zm.138.078c.027-.009.053-.009.079-.017.026.043.043.095.069.147-.121-.009-.182-.06-.147-.13zm9.008 3.582v-.027l.485-.051v.025c-.164.026-.32.043-.485.052zm2.182-.226c-.12.027-.25.044-.372.061-.043.01-.095.052-.112-.026-.018.01-.035.01-.052.018.043.13.147.026.233.078-.19.026-.371.043-.554.069v-.017l.165-.027v-.025a2.532 2.532 0 0 0-.26-.018c-.026 0-.06.035-.086.044-.035.008-.07.017-.113.017-.147.009-.294.009-.433.017-.009 0-.026-.008-.035-.008v-.027c.58-.077 1.152-.155 1.732-.233.009.017.009.034.018.051-.052 0-.087.018-.13.027zm.13-.086c.2-.026.382-.043.573-.069-.399.113-.529.13-.572.07zM8.09 7.693c.276-.382.563-.764.84-1.154.086-.113.156-.235.242-.348.026-.034.061-.051.104-.086l-.008-.017c.034-.044.069-.079.086-.113.044-.07.07-.147.105-.225.008-.017.034-.034.034-.034.122.06.122-.07.165-.113.078-.087.156-.182.225-.27.052-.068.104-.13.147-.207.009-.027-.017-.07-.026-.105h-.026c.027-.017.052-.042.078-.06.009 0 .009 0 .018-.009.052-.078.104-.156.156-.225.103-.139.216-.278.337-.399a1.643 1.643 0 0 1-.052.121c.009 0 .009.01.017.01.104-.14.217-.27.32-.409-.008-.008-.017-.017-.025-.017-.043.044-.078.087-.121.13-.01-.008-.018-.017-.027-.017.087-.113.174-.225.26-.355.018.026.035.06.07.13.034-.087.069-.147.095-.208-.026.026-.06.052-.086.078l-.027-.026.156-.234c.165-.234.33-.477.494-.712.06-.086.138-.156.19-.242.165-.33.425-.59.624-.894.043-.06.104-.112.156-.164.043-.053.078-.035.113.008.233.295.467.599.7.894.174.217.348.424.512.65.2.278.39.555.59.833.224.32.45.641.666.97.329.486.64.972.97 1.458.242.355.485.702.719 1.058h-.443c-.406-.008-.822-.043-1.23-.026-.553.026-1.116.087-1.67.13a24.5 24.5 0 0 1-2.113.07c-.252 0-.503.035-.754.052-.303.017-.598.035-.901.043-.356.018-.701.026-1.057.035-.2.009-.407 0-.623 0v-.001zm9.934 3.989v.078c-.009 0-.018.009-.035.009-.035-.122-.069-.252-.113-.374-.086-.252-.181-.503-.338-.729-.173-.242-.329-.493-.502-.745-.043-.06-.104-.113-.156-.165-.182-.2-.364-.408-.598-.555a7.074 7.074 0 0 0-1.083-.555 2.428 2.428 0 0 1-.303-.156h.208l1.48-.027c.321-.008.633-.008.954-.025.077 0 .12.026.164.095.078.13.156.26.242.39.01.018.027.043.027.07 0 .19 0 .39.008.58.008.2.027.391.034.59 0 .2-.017.408-.008.616.009.295.017.599.017.902h.002zm-9.32-2.905c.408-.017.797-.043 1.196-.06.31-.018.632-.027.943-.044.13-.008.252-.016.381 0-.138.07-.277.14-.398.226-.156.104-.303.242-.46.355a2.598 2.598 0 0 0-.424.4c-.164.198-.346.372-.52.563-.122.138-.26.268-.363.416-.148.19-.278.398-.416.615.043-.824.095-1.639.06-2.471h.001zm5.656 8.343c-.277.07-.563.148-.849.182-.242.035-.493.027-.745.027-.225 0-.442-.009-.667-.027-.251-.025-.502-.051-.745-.164-.208-.096-.424-.182-.632-.287-.208-.104-.416-.225-.572-.415-.112-.14-.269-.252-.407-.374a.41.41 0 0 0 .182.252c-.044.052-.104.026-.191-.113-.026.017-.052.026-.07.035.027-.061.053-.122.079-.174-.035-.069-.078-.147-.113-.217a7.311 7.311 0 0 1-.199-.347c-.017-.026-.017-.051-.034-.077a1.936 1.936 0 0 1-.122-.157c-.07-.103-.13-.216-.216-.32 0 .026.008.052.008.086-.008 0-.017.01-.017.01l-.182-.443c-.009 0-.009 0-.017.008l.155.573c-.008 0-.017.008-.026.008-.025-.034-.051-.069-.07-.112-.016-.07-.068-.07-.111-.043-.026.017-.044.077-.035.103.06.148.13.295.2.443.017.052.034.095.06.147.009.018.035.035.035.06.035.07.06.14.104.2.078.104.164.208.242.312.078.104.147.218.216.321.009.018.035.018.043.026.044.13.191.226.295.174.026.2.243.268.33.46a3.973 3.973 0 0 1-.252-.114c-.009.01-.009.018-.018.035.104.052.208.104.303.165.087.052.174.104.252.164a.79.79 0 0 0 .372.182c-.008-.026-.017-.035-.017-.035.242.113.494.235.684.33-.9.017-1.862.035-2.858.052 0-.165-.009-.32-.009-.486 0-.069.017-.13.008-.2-.026-.397-.026-.797-.078-1.187a8.494 8.494 0 0 1-.042-1.241c.008-.225-.01-.459-.018-.685 0-.303 0-.599.01-.901 0-.044.017-.078.034-.122h.026c.009.018 0 .044.017.053.026.026.07.069.087.06.052-.035.13-.069.147-.122a.85.85 0 0 0 .06-.32c0-.078.036-.13.07-.182.018-.027.026-.052.044-.087-.035-.026-.07-.043-.113-.078.035-.095.026-.208.156-.26.017-.009.017-.052.027-.078.008-.07.016-.148.025-.217.017.026.027.034.043.051.01-.017.018-.026.018-.026 0-.034-.009-.104 0-.104.104-.017.06-.13.112-.182.009-.009-.008-.035-.008-.052 0-.017 0-.043.008-.043.12-.026.104-.156.182-.217.026-.018.034-.043.069-.087.069.121-.052.182-.06.269.146-.087.19-.295.103-.356a.512.512 0 0 0 .095-.095c.096-.104.2-.2.286-.304.061-.077.096-.173.156-.25.035-.044.104-.079.156-.105.156-.086.303-.182.398-.33.018-.017.044-.034.07-.051.026-.018.078-.018.086-.044.01-.017-.017-.06-.034-.086.034-.018.069-.052.138-.087-.026.052-.034.087-.052.122l.043.043c.078-.061.2-.13.277-.182 0-.008-.043-.043-.043-.043-.052.026-.13.07-.208.104.017-.026.017-.043.027-.052.12-.078.242-.156.372-.217.303-.138.606-.277.909-.407.052-.027.122-.009.182-.009.026 0 .043 0 .07-.008.137-.044.276-.087.415-.122a.726.726 0 0 1 .19-.026c.26.008.52.008.78.026.112.008.216.034.32.069.13.044.268.104.39.164.147.08.285.166.424.261.251.165.485.347.736.494.243.148.433.347.59.573.19.269.406.512.493.841l.13.573c.026.104.086.208.06.329-.043.217-.078.442-.113.66-.017.087-.034.174-.025.26.016.27-.087.503-.191.746-.035.078-.087.156-.13.243a.26.26 0 0 0 .07.034l.077-.155c.009 0 .009 0 .017.008-.043.121-.078.252-.121.373-.104.27-.208.547-.338.807-.069.147-.19.268-.277.408-.086.12-.155.25-.242.364-.078.095-.156.19-.26.26a6.633 6.633 0 0 1-.727.485 1.82 1.82 0 0 1-.511.191h.002zm-4.616-.46-.009.009c-.018-.009-.044-.018-.061-.035l-.208-.313c-.017-.025-.026-.051-.017-.086.095.148.19.286.294.425zm5.387 1.188c.39-.165.71-.398 1.004-.668.044-.043.087-.086.14-.122.363-.225.631-.537.874-.884.277-.399.459-.85.684-1.274a.88.88 0 0 1 .052-.096c-.017.989.095 1.96.225 2.94-.978.035-1.974.07-2.979.104zm8.782-.26c-.008.017-.026.035-.034.052-.01-.017-.01-.043-.018-.079-.052.14-.164.07-.242.07-.468.01-.944.01-1.412.01-.45 0-.91 0-1.36.007-.147 0-.303.035-.45.043-.355.018-.71.027-1.066.035-.026 0-.052-.043-.095-.078a.603.603 0 0 1-.052.078c-.01-.017-.026-.034-.044-.06a.497.497 0 0 1-.026.07h-.025c-.017-.122-.052-.235-.052-.356 0-.26.026-.52.035-.78.008-.122 0-.235 0-.348.034.027.06.044.095.07a.726.726 0 0 1 .052-.086s-.018-.01-.035-.027c.017-.008.034-.026.034-.035.009-.026.027-.052.027-.069 0-.06-.018-.113-.027-.164.009 0 .017 0 .027-.01l.051.26h.027c-.035-.06.077-.112-.018-.181-.008-.009.009-.06.009-.087-.027-.052-.043-.104-.07-.173a.212.212 0 0 1 .061-.026c-.034-.018-.06-.035-.086-.043.086-.079.086-.122.008-.208.018-.009.035-.009.035-.017 0-.078 0-.156-.017-.234-.018-.087.026-.19-.104-.243a.25.25 0 0 0 .035.069s-.027.009-.052.026c-.113-.104-.043-.243-.07-.399.061.018.104.035.148.053-.018-.062-.061-.13-.087-.209h-.035v-.573c0 .01.06.01.095.018 0-.009.008-.017.008-.026-.026-.035-.06-.07-.095-.113l.017-.017c-.069-.086-.034-.207-.034-.234v-.607c.087.087-.043.2.087.251v-.086h-.01c-.008-.13-.008-.26-.016-.39h-.017c-.01.017-.01.026-.018.043h-.017l.052-2.072c.086.112.181.217.242.329.2.364.46.677.702 1.006.208.286.398.598.589.893.233.356.459.711.693 1.067.173.269.355.538.536.798.165.234.338.46.512.685.146.2.302.4.45.599.173.242.346.485.52.72.086.12.181.242.276.363.052.07.13.122.182.165-.008 0-.017 0-.034-.009.026.035.043.06.06.078.096.052.105.104.053.183v-.002zm.442-2.168v-.06c0 .016.008.042 0 .06zm.294-3.824c-.009 0-.06-.053-.069-.061-.009.026 0 .052-.017.087-.01-.026-.07-.018-.07-.043-.008.12.052.242.044.364.026-.018.13-.027.155-.052a.068.068 0 0 0 .035.017c-.173.13-.13.26-.052.408.017.034.07.104.017.173-.017.018.01.07.018.113h.025v.016l-.078.027c-.017-.027-.12-.078-.12-.122v.443c.086.026.086.147.12.208a.26.26 0 0 0 .036-.069l.009.008c-.01.052-.018.104-.035.156-.017.078-.035.147-.043.226 0 .008.017.026.017.034-.095.217-.043.46-.078.685-.026.164 0 .339-.017.512a4.366 4.366 0 0 1-.087.45c-.01.027-.026.035-.07.053a.7.7 0 0 0-.008-.27c-.01 0-.122-.06-.13-.06 0 .122.068.287.095.425-.027-.009-.13-.07-.139-.07-.017.105-.017.244-.026.356-.009.087-.087.165-.095.26 0 .053.06.087.052.174h.069c0-.173.078-.33.078-.512h.026c.009.018.035.035.026.044-.017.095-.053.2-.043.295 0 .052.042.104.026.164a.844.844 0 0 0-.035.183c-.01-.044-.018-.06-.018-.087l-.095-.009c-.009.052.06.104.052.148-.009.008-.017.008-.035.017l-.285-.417c-.226-.329-.451-.659-.676-.997a2.068 2.068 0 0 1-.157-.26c-.268-.46-.563-.902-.892-1.327-.25-.32-.45-.668-.684-1.006-.216-.32-.433-.633-.65-.954-.077-.104-.172-.2-.242-.312-.225-.355-.424-.72-.649-1.075-.19-.295-.398-.582-.598-.868-.069-.095-.138-.2-.208-.304a.121.121 0 0 1-.017-.06c-.017-.19-.035-.381-.043-.563 0-.174.017-.347.017-.53V7.46c0-.044.009-.078.009-.122.008-.008.017-.026.025-.034-.25 0-.51-.01-.762 0-.165.008-.251-.062-.364-.183-.329-.373-.571-.798-.857-1.197a53.694 53.694 0 0 0-.823-1.128c-.225-.303-.45-.598-.675-.901-.252-.347-.494-.694-.754-1.041-.312-.416-.633-.833-.953-1.249-.148-.19-.313-.373-.477-.572.113.017.217.035.32.043l.417.027c.312.025.623.043.934.085.26.036.52.088.79.13.571.096 1.134.252 1.68.434.32.104.631.243.944.373a19.22 19.22 0 0 1 2.026.998c.208.112.33.294.485.46.225.234.45.468.667.71.25.287.485.581.727.876.217.26.441.52.659.78.069.079.121.174.181.26.139.21.295.409.416.634.086.165.138.356.199.538.086.27.173.53.26.798.06.2.112.408.155.615.035.14.026.287.07.425.052.183 0 .382.052.564.008.018.016.044.026.061.034.035.06.07.008.121-.008.009-.008.043 0 .07.018-.018.026-.035.044-.061 0 .017.008.026.008.035 0 .034-.009.069 0 .103 0 .017.017.043.026.06.017-.017.034-.025.069-.052.078.295.087.59.087.894 0 .286.051.572-.07.85.026-.096-.034-.183-.008-.27l.003.003z" fill="#DD3A0A"/><path fill-rule="evenodd" clip-rule="evenodd" d="M19.116 14.969c.008 0 .017.009.017.009l-.01-.01c0-.008 0-.008-.008 0zm1.368 8.569a.82.82 0 0 1-.312.155c-.01-.008-.01-.017-.018-.026.095-.06.2-.12.294-.182.01.017.027.034.035.052zM4.244 11.786c.096-.121.192-.243.295-.364.008.008.077.026.086.034-.095.122-.225.287-.32.417-.018-.018-.044-.078-.061-.087zm-2.46 4.25c-.069-.147-.138-.304-.207-.45a.299.299 0 0 1 .078-.036c.095.138.138.303.208.451 0 0-.07.035-.078.035zm2.21-4.163c-.053.078-.105.165-.157.243-.008-.009-.104.034-.112.026.052-.078.182-.217.234-.295.008.009.017.018.034.026zm15.563 12.02c.009 0 .009-.008.017-.008.061.009.13.017.2.017-.114.078-.183.07-.218-.008h.001zM4.01 12.238a.365.365 0 0 1 .044-.078c.017 0 .043-.009.043-.009.035-.06.035-.104.07-.156-.01-.008-.018-.008-.027-.017-.052.035-.104.079-.156.113.018.017.018.027.018.044-.07-.01-.096.026-.13.12-.009.027-.052.036-.096.07-.008.018-.017.061-.034.104l.009.01c-.018.017-.044.026-.044.026-.052.051-.112.095-.164.147-.009.026-.018.052-.018.078.061-.06.165-.174.243-.243l.009.009c.034-.052.06-.104.095-.156.009.008.009.017.018.026-.027.07-.053.147-.079.216-.018.01-.044.027-.044.018-.034.026-.06.06-.095.087l-.156.103c-.086.079-.173.148-.268.226-.06.095-.121.182-.191.295.104-.027.13.017.122.104.12.017.13-.078.164-.147.009-.018.018-.053.035-.062.078-.069.164-.13.25-.199.018-.017.018-.052.018-.078 0-.008-.043-.008-.07-.017.079-.087.191-.234.27-.33.043-.026.086-.06.086-.087-.009-.095.052-.12.121-.156-.034-.026-.043-.051-.043-.06z" fill="#DD3735"/><path fill-rule="evenodd" clip-rule="evenodd" d="M4.184 12.142c-.035.06-.07.112-.104.173l-.052-.026c-.034.199-.156.372-.277.407.035.017.07.035.096.026.025-.009.042-.053.06-.078l.233-.339.079-.13-.035-.035v.002zM1.3 15.949c.044 0 .087.008.138.008 0-.034.044-.026.044-.06h.026c0 .043.01.078.01.121h-.183c-.009-.008-.043-.06-.035-.07zm-.069-.4c-.026-.025-.07-.051-.07-.077-.008-.034.018-.077.044-.121.017.06.026.113.043.173-.009.009-.017.018-.017.026zm.217-.554c.034.087.069.183.104.27a.272.272 0 0 0-.07.034c-.034-.087-.078-.182-.112-.269a.214.214 0 0 1 .078-.035zm19.28 8.291c.042-.017.094-.026.164-.043-.079.06-.14.104-.191.156-.01-.008-.018-.017-.027-.017.018-.035.035-.06.053-.096zM10.081 4.961c.051-.035.095-.061.147-.096l.017.018c-.053.069-.096.138-.157.225-.008-.06-.008-.095-.017-.138-.008 0 0 0 .009-.009zm2.537 4.388.251-.113c-.008.052-.008.087-.008.122a.305.305 0 0 0-.087-.018c-.052.009-.148.078-.191.087-.008 0 .035-.07.035-.078zm6.497 7.354c.017.087.181.13.017.217.026.018.052.026.078.044a.065.065 0 0 1-.018.035c-.017.008-.052.026-.069.016-.009 0-.026-.034-.026-.051 0-.078.009-.156.017-.26z" fill="#DD3735"/></svg>