<svg width="41" height="41" fill="none" xmlns="http://www.w3.org/2000/svg"><path d="M27.94 23.276c.202-1.62.142-1.857 1.39-1.595l.316.028c.96.042 2.214-.15 2.951-.48 1.588-.713 2.529-1.902.964-1.59-3.57.712-3.816-.456-3.816-.456 3.77-5.408 5.346-12.273 3.986-13.954-3.71-4.583-10.132-2.416-10.24-2.36l-.034.007a13.106 13.106 0 0 0-2.381-.24c-1.616-.026-2.841.41-3.771 1.091 0 0-11.457-4.563-10.924 5.74.114 2.191 3.25 16.583 6.99 12.236 1.366-1.59 2.687-2.933 2.687-2.933a3.558 3.558 0 0 0 2.266.559l.063-.053c-.02.198-.01.39.026.62-.963 1.04-.68 1.223-2.607 1.606-1.948.389-.803 1.08-.056 1.26.906.22 3.003.53 4.42-1.387l-.057.219c.378.292.352 2.101.406 3.393.053 1.293.143 2.499.416 3.21.272.711.594 2.543 3.125 2.018 2.116-.438 3.733-1.07 3.88-6.939z" fill="#000"/><path d="M23.19 31.309c-1.103 0-1.82-.414-2.257-.813-.659-.603-.92-1.379-1.076-1.842l-.067-.194c-.314-.823-.42-2.006-.483-3.53a58.79 58.79 0 0 1-.024-.716c-.005-.183-.012-.412-.021-.652-.398.183-.82.313-1.253.384-.778.129-1.614.087-2.486-.124-.614-.15-1.253-.458-1.617-.935-1.062.9-2.074.778-2.625.6-.973-.314-1.844-1.198-2.663-2.703-.582-1.07-1.146-2.467-1.676-4.148-.922-2.929-1.507-6.014-1.56-7.026-.163-3.17.717-5.437 2.615-6.737 2.996-2.052 7.534-.846 9.189-.298 1.111-.65 2.419-.966 3.897-.943.794.013 1.55.08 2.251.201a13.325 13.325 0 0 1 3.835-.524c3.05.036 5.578 1.189 7.31 3.334 1.236 1.531.625 4.746.15 6.527-.666 2.503-1.836 5.167-3.272 7.485.39.003.955-.043 1.758-.203 1.585-.317 2.048.506 2.174.875.504 1.48-1.686 2.598-2.37 2.905-.875.395-2.302.634-3.47.582l-.052-.003-.307-.026-.03.248-.03.243c-.078 2.938-.51 4.799-1.401 6.029-.934 1.288-2.231 1.65-3.374 1.887-.35.075-.707.114-1.065.117zm-2.32-10.694c.711.552.774 1.592.83 3.534.006.243.013.472.022.687.026.648.09 2.168.335 2.81.035.09.066.183.098.28.274.813.41 1.22 1.593.974.993-.206 1.503-.391 1.903-.943.58-.802.905-2.414.965-4.793l1.207.028-1.2-.14.036-.29c.115-.957.198-1.649.858-2.106.529-.367 1.133-.331 1.613-.247-.528-.387-.674-.841-.713-1.027l-.1-.481.282-.407c1.63-2.346 2.975-5.23 3.69-7.91.733-2.756.51-4.219.286-4.496-2.962-3.67-8.098-2.154-8.634-1.982l-.091.047-.455.083-.233-.047c-.642-.13-1.354-.2-2.12-.213-1.2-.02-2.17.256-2.964.84l-.55.406-.64-.256c-1.367-.542-5.381-1.631-7.5-.176-1.175.807-1.71 2.39-1.592 4.703.04.764.575 3.655 1.457 6.459 1.22 3.875 2.329 5.162 2.792 5.312.08.026.29-.132.498-.374 1.357-1.582 2.647-2.9 2.7-2.956l.7-.714.846.545c.34.22.717.344 1.103.367l2.017-1.668-.292 2.892a1.15 1.15 0 0 0 .016.317l.088.548-.38.413-.044.048 1.108.496.464-.563z" fill="#000"/><path d="M33.561 19.638c-3.57.711-3.816-.457-3.816-.457 3.77-5.408 5.346-12.272 3.986-13.952-3.71-4.583-10.132-2.416-10.24-2.36l-.034.006a13.167 13.167 0 0 0-2.382-.24c-1.615-.025-2.84.41-3.77 1.092 0 0-11.457-4.563-10.924 5.739.114 2.191 3.25 16.582 6.99 12.235 1.366-1.589 2.687-2.933 2.687-2.933a3.558 3.558 0 0 0 2.265.559l.064-.052c-.02.197-.011.39.025.618-.963 1.041-.68 1.224-2.606 1.607-1.95.389-.804 1.08-.057 1.26.907.22 3.003.53 4.42-1.387l-.057.219c.377.292.643 1.901.598 3.36-.045 1.459-.074 2.46.223 3.243.298.782.594 2.542 3.126 2.018 2.116-.439 3.212-1.575 3.365-3.47.108-1.346.353-1.147.369-2.352l.196-.57c.227-1.826.036-2.415 1.34-2.141l.316.027c.96.042 2.215-.15 2.952-.48 1.587-.713 2.529-1.902.964-1.59z" fill="#336791"/><path d="M23.303 30.309c-2.051 0-2.7-1.566-2.967-2.207-.388-.938-.472-4.581-.386-7.569a.378.378 0 0 1 .128-.26.406.406 0 0 1 .554.015.377.377 0 0 1 .113.267c-.1 3.446.042 6.568.33 7.262.45 1.084 1.13 2.031 3.058 1.633 1.829-.378 2.514-1.047 2.819-2.753.234-1.309.697-5.033.754-5.768a.379.379 0 0 1 .137-.262.407.407 0 0 1 .56.04.375.375 0 0 1 .096.279c-.06.765-.52 4.482-.764 5.841-.36 2.015-1.292 2.93-3.436 3.373-.327.07-.661.106-.996.109zm-11.12-7.65c-.178 0-.356-.029-.526-.084-1.332-.429-2.6-2.52-3.771-6.22-.89-2.814-1.455-5.753-1.505-6.707-.147-2.831.61-4.834 2.247-5.953 3.24-2.215 8.69-.106 8.921-.015a.39.39 0 0 1 .214.206.37.37 0 0 1 0 .292.39.39 0 0 1-.212.208.411.411 0 0 1-.302.003c-.053-.02-5.28-2.04-8.163-.068-1.4.958-2.043 2.737-1.911 5.289.042.804.569 3.672 1.471 6.523 1.045 3.3 2.234 5.384 3.262 5.715.162.052.653.21 1.355-.604 1.322-1.534 2.535-2.757 2.547-2.77a.405.405 0 0 1 .552-.001.376.376 0 0 1 .022.532 58.903 58.903 0 0 0-2.51 2.729c-.617.715-1.208.925-1.69.925zm17.296-3.23a.408.408 0 0 1-.205-.055.39.39 0 0 1-.147-.149.372.372 0 0 1 .022-.394c3.703-5.299 5.002-11.701 3.89-13.073-1.402-1.726-3.38-2.628-5.88-2.68-1.852-.039-3.324.417-3.565.497l-.06.024a.403.403 0 0 1-.497-.205.372.372 0 0 1-.017-.271.388.388 0 0 1 .174-.215l.107-.042-.005.001.005-.002c.409-.144 1.903-.576 3.754-.556 2.767.028 5.053 1.058 6.61 2.976.736.908.738 3 .004 5.74-.748 2.792-2.155 5.794-3.86 8.234a.407.407 0 0 1-.33.17zm.189 2.453c-.633 0-1.2-.086-1.538-.282-.35-.202-.416-.476-.424-.621-.096-1.612.827-1.893 1.297-2.02-.066-.096-.159-.209-.255-.325-.274-.33-.65-.783-.94-1.46a9.405 9.405 0 0 0-.351-.636c-.892-1.542-2.747-4.751-1.555-6.394.551-.76 1.65-1.06 3.267-.893-.476-1.399-2.743-5.774-8.12-5.86-1.619-.025-2.945.455-3.942 1.425-2.232 2.174-2.151 6.108-2.15 6.147a.372.372 0 0 1-.11.274.394.394 0 0 1-.277.12.412.412 0 0 1-.284-.106.385.385 0 0 1-.124-.268c-.005-.174-.088-4.302 2.38-6.706 1.155-1.126 2.675-1.681 4.52-1.652 3.44.054 5.655 1.742 6.908 3.148 1.364 1.532 2.034 3.222 2.089 3.786.04.42-.271.503-.334.516l-.144.003c-1.588-.245-2.607-.075-3.028.505-.906 1.25.849 4.285 1.598 5.581.191.33.33.57.392.717.247.576.568.963.826 1.274.226.273.423.51.494.789.032.055.495.715 3.243.168.689-.137 1.102-.02 1.228.349.248.724-1.145 1.569-1.916 1.915-.692.31-1.796.505-2.75.505zm-1.17-.966c.087.085.523.23 1.427.194.803-.034 1.65-.202 2.158-.43.65-.29 1.084-.616 1.309-.838l-.125.022c-1.757.35-3 .303-3.694-.14a1.494 1.494 0 0 1-.134-.096c-.075.03-.145.048-.194.061-.394.107-.801.217-.747 1.227zm-11.35 2.141a5.82 5.82 0 0 1-1.364-.17c-.486-.118-1.306-.47-1.293-1.05.014-.65.995-.846 1.364-.92 1.334-.264 1.42-.37 1.838-.88.121-.15.272-.335.479-.557.306-.33.64-.498.994-.498.246 0 .449.08.582.134.425.17.78.581.926 1.073.132.444.07.871-.176 1.203-.807 1.09-1.965 1.665-3.35 1.665zM15.35 21.87c.12.09.36.208.627.273.406.098.8.148 1.172.148 1.132 0 2.041-.453 2.702-1.344.137-.186.096-.422.06-.547-.078-.26-.27-.496-.467-.576a.796.796 0 0 0-.278-.076c-.044 0-.177 0-.402.243-.19.205-.326.372-.447.52-.52.635-.757.85-2.302 1.158-.376.075-.57.15-.665.2zm3.056-1.768a.406.406 0 0 1-.259-.093.38.38 0 0 1-.133-.233 1.722 1.722 0 0 1-.02-.192 3.951 3.951 0 0 1-2.73-1.183 4.188 4.188 0 0 1-1.172-3.586c.21-1.45.132-2.73.09-3.419a7.354 7.354 0 0 1-.02-.425c.001-.121.003-.443 1.118-.988.397-.194 1.192-.532 2.06-.619 1.44-.143 2.388.475 2.672 1.741.767 3.418.06 4.93-.454 6.035-.096.205-.187.4-.26.587l-.063.166c-.273.704-.508 1.313-.436 1.767.016.1-.01.203-.072.285a.4.4 0 0 1-.26.152l-.061.005zm-3.446-9.025.015.274c.044.714.126 2.044-.095 3.57a3.443 3.443 0 0 0 .957 2.95c.607.61 1.406.948 2.227.948h.017c.092-.374.245-.768.409-1.194l.064-.165c.081-.212.177-.417.279-.635.496-1.063 1.113-2.386.402-5.558-.14-.628-.482-.992-1.044-1.111-1.153-.246-2.87.59-3.231.921zm2.398-.162c-.02.135.258.497.62.545.36.049.67-.234.689-.37.02-.135-.258-.284-.62-.333-.36-.049-.67.022-.689.158zm.703.679-.102-.007a.96.96 0 0 1-.606-.365c-.054-.07-.143-.205-.126-.325.026-.177.249-.283.598-.283.078 0 .16.006.241.016.19.026.368.08.499.15.227.122.243.258.233.329-.028.194-.35.485-.737.485zm-.57-.657c.01.084.225.36.505.397l.064.004c.258 0 .451-.196.474-.26-.024-.043-.19-.152-.505-.194a1.535 1.535 0 0 0-.204-.014c-.202 0-.31.043-.335.067zm10.861-.3c.02.137-.257.498-.619.547-.36.048-.67-.234-.69-.37-.019-.136.258-.285.62-.333.36-.05.67.022.69.157zm-.702.616c-.348 0-.647-.261-.672-.43-.029-.203.318-.358.676-.405.078-.011.156-.017.231-.017.309 0 .513.088.533.228.014.092-.059.232-.184.359a.877.877 0 0 1-.491.26l-.093.005zm.235-.724c-.069 0-.14.005-.213.015-.36.048-.573.187-.563.262.012.081.24.32.54.32l.075-.006a.746.746 0 0 0 .413-.22c.11-.113.154-.218.15-.254-.007-.046-.14-.117-.402-.117zm.988 7.89a.408.408 0 0 1-.204-.054.39.39 0 0 1-.147-.148.372.372 0 0 1 .02-.394c.847-1.219.692-2.463.542-3.665-.064-.512-.13-1.041-.112-1.55.017-.523.086-.954.153-1.372.078-.494.153-.962.122-1.516a.376.376 0 0 1 .106-.27.407.407 0 0 1 .553-.029.38.38 0 0 1 .135.258c.035.633-.05 1.162-.13 1.674a9.824 9.824 0 0 0-.145 1.28c-.015.45.045.928.108 1.434.16 1.278.34 2.728-.67 4.183a.402.402 0 0 1-.331.17z" fill="#fff"/><path d="M2.363 31.411a8 8 0 0 1 1.32-.102c.68 0 1.179.157 1.495.441.292.252.466.639.466 1.112 0 .48-.142.859-.411 1.135-.364.386-.957.583-1.629.583a2.37 2.37 0 0 1-.553-.047v2.128h-.688v-5.25zm.688 2.562c.15.04.34.055.57.055.83 0 1.335-.402 1.335-1.135 0-.702-.498-1.04-1.256-1.04-.3 0-.53.023-.649.055v2.065zm6.76.749c0 1.41-.981 2.026-1.906 2.026-1.036 0-1.834-.757-1.834-1.963 0-1.277.838-2.026 1.897-2.026 1.1 0 1.842.796 1.842 1.963zm-3.036.04c0 .835.482 1.465 1.162 1.465.664 0 1.161-.622 1.161-1.482 0-.646-.323-1.466-1.146-1.466-.822 0-1.177.757-1.177 1.482zm3.817 1.19c.206.134.57.275.917.275.506 0 .744-.252.744-.567 0-.331-.198-.513-.712-.702-.688-.244-1.012-.622-1.012-1.08 0-.614.498-1.119 1.32-1.119.388 0 .728.11.941.236l-.173.505a1.492 1.492 0 0 0-.783-.22c-.411 0-.64.236-.64.52 0 .315.23.457.727.646.664.252 1.004.583 1.004 1.15 0 .67-.522 1.144-1.43 1.144-.42 0-.807-.103-1.076-.26l.173-.528zm4.064-4.202v1.096h.996v.528h-.996v2.057c0 .473.134.74.522.74.136.003.271-.013.403-.046l.032.52a1.705 1.705 0 0 1-.617.094c-.324 0-.585-.102-.751-.291-.197-.205-.269-.544-.269-.993v-2.081h-.593v-.529h.593v-.914l.68-.181zm5.028 1.096c-.016.276-.032.583-.032 1.048v2.215c0 .875-.174 1.411-.545 1.742-.372.347-.91.458-1.392.458-.458 0-.964-.11-1.273-.316l.174-.528c.253.158.649.3 1.123.3.711 0 1.233-.37 1.233-1.332v-.426h-.016c-.213.355-.624.638-1.217.638-.949 0-1.629-.804-1.629-1.86 0-1.293.846-2.026 1.724-2.026.664 0 1.028.347 1.194.662h.015l.032-.575h.609zm-.72 1.505a.986.986 0 0 0-.04-.315c-.126-.402-.466-.733-.971-.733-.665 0-1.139.56-1.139 1.442 0 .75.38 1.372 1.13 1.372.428 0 .815-.268.965-.71.04-.118.056-.252.056-.37v-.686zm1.795-.315c0-.45-.008-.836-.032-1.19h.609l.023.749h.032c.174-.513.593-.836 1.06-.836.078 0 .133.008.197.024v.654a1.048 1.048 0 0 0-.237-.024c-.49 0-.838.37-.933.891-.02.107-.03.215-.032.323v2.034h-.688v-2.625zm2.893.843c.016.939.616 1.325 1.312 1.325.498 0 .799-.087 1.06-.197l.118.496c-.245.11-.664.237-1.273.237-1.178 0-1.881-.773-1.881-1.924 0-1.15.68-2.057 1.794-2.057 1.25 0 1.581 1.095 1.581 1.797 0 .142-.015.252-.023.323h-2.688zm2.04-.496c.007-.442-.183-1.127-.965-1.127-.703 0-1.012.646-1.067 1.127h2.032z" fill="#000"/><path d="M27.53 35.74a2.3 2.3 0 0 0 1.176.337c.671 0 1.064-.36 1.064-.88 0-.483-.272-.758-.958-1.026-.83-.299-1.343-.735-1.343-1.462 0-.804.656-1.4 1.644-1.4.52 0 .898.122 1.124.252l-.18.544a2.003 2.003 0 0 0-.966-.245c-.694 0-.958.42-.958.773 0 .482.309.719 1.01.994.86.337 1.298.758 1.298 1.516 0 .796-.58 1.484-1.78 1.484-.49 0-1.026-.145-1.298-.329l.166-.558zm8.002 1.569a27.254 27.254 0 0 1-1.946-.597.962.962 0 0 0-.31-.077c-1.206-.046-2.24-.949-2.24-2.61 0-1.653.996-2.716 2.369-2.716 1.38 0 2.278 1.086 2.278 2.61 0 1.323-.603 2.173-1.448 2.471v.03c.505.13 1.056.253 1.486.33l-.19.559zm-.543-3.36c0-1.033-.528-2.097-1.607-2.097-1.108 0-1.651 1.04-1.644 2.158-.008 1.095.588 2.082 1.614 2.082 1.049 0 1.637-.965 1.637-2.143zm1.546-2.556h.656v4.6h2.172v.558h-2.828v-5.158z" fill="#336791"/></svg>