<svg width="26" height="26" fill="none" xmlns="http://www.w3.org/2000/svg"><g clip-path="url(#a)"><path fill-rule="evenodd" clip-rule="evenodd" d="M3.65 22.034V9.718C3.65 4.548 7.836.356 13 .356s9.35 4.192 9.35 9.362c0 5.103-4.077 9.252-9.147 9.36v.002a2.644 2.644 0 0 1-2.642-2.645 2.644 2.644 0 0 1 2.602-2.646v-.003a4.068 4.068 0 0 0 3.902-4.068c0-2.248-1.82-4.07-4.065-4.07a4.068 4.068 0 0 0-4.065 4.07v13.636a2.644 2.644 0 0 1-4.16 2.166 1.832 1.832 0 1 0-1.125-3.486zm9.553-3.768a1.83 1.83 0 1 0-.002-3.665 1.83 1.83 0 0 0 .003 3.665z" fill="url(#b)"/></g><defs><linearGradient id="b" x1="13" y1=".356" x2="13" y2="16.414" gradientUnits="userSpaceOnUse"><stop stop-color="#D378E5"/><stop offset="1" stop-color="#7526C2"/></linearGradient><clipPath id="a"><path fill="#fff" d="M0 0h26v26H0z"/></clipPath></defs></svg>