<svg width="26" height="26" fill="none" xmlns="http://www.w3.org/2000/svg"><path d="M13 0C5.82 0 0 5.82 0 13s5.82 13 13 13 13-5.82 13-13S20.18 0 13 0zm0 24.33c-2.042 0-3.698-1.364-3.698-3.047h7.396c0 1.683-1.655 3.048-3.698 3.048zm6.11-4.056H6.89v-2.215h12.22v2.216-.002zm-.044-3.357H6.925c-.04-.046-.082-.092-.12-.14-1.252-1.517-1.545-2.31-1.831-3.12-.006-.025 1.516.313 2.594.555 0 0 .556.128 1.367.277-.78-.914-1.241-2.075-1.241-3.261 0-2.607 1.997-4.884 1.277-6.725.702.057 1.452 1.481 1.503 3.708.746-1.032 1.058-2.915 1.058-4.068 0-1.195.788-2.584 1.575-2.632-.702 1.157.182 2.15.969 4.61.294.926.256 2.482.484 3.468.076-2.048.428-5.039 1.728-6.071-.574 1.3.085 2.927.535 3.709.727 1.26 1.168 2.217 1.168 4.026a5.029 5.029 0 0 1-1.203 3.245 30.65 30.65 0 0 0 1.452-.306l2.788-.544s-.406 1.666-1.962 3.27z" fill="#E3703B"/></svg>