<svg width="474" height="542" fill="none" xmlns="http://www.w3.org/2000/svg"><path d="M21.576 42.75h431.04c11.667 0 21.125 9.458 21.125 21.125S464.283 85 452.616 85H21.576C9.909 85 .451 75.542.451 63.875S9.909 42.75 21.576 42.75z" fill="#696969"/><path d="M25.333 0H112v20H25.333V0z" fill="#009FE3"/><path d="M138.667 0h86.666v20h-86.666V0z" fill="#C7D302"/><path d="M250.5 0h86.667v20H250.5V0z" fill="#F07E16"/><path d="M361.861 0h86.667v20h-86.667V0zM361.861 107h86.667v146.5h-86.667V107z" fill="#DF2815"/><path d="M250.5 107h86.828v238H250.5V107z" fill="#F07E16"/><path d="M138.667 107h86.661v356.5h-86.661V107z" fill="#C7D302"/><path d="M25.333 107H112v434.5H25.333V107z" fill="#009FE3"/></svg>