<svg width="26" height="26" fill="none" xmlns="http://www.w3.org/2000/svg"><path d="M12.89.008c-6.585 0-6.174 2.866-6.174 2.866l.008 2.97h6.283v.891h-8.78S.015 6.256.015 12.925c0 6.67 3.678 6.434 3.678 6.434h2.194v-3.095s-.118-3.692 3.619-3.692h6.232s3.501.056 3.501-3.397V3.463S19.77.008 12.891.008h-.002zM9.424 2.004a1.127 1.127 0 0 1 1.13 1.135 1.137 1.137 0 0 1-1.564 1.05 1.127 1.127 0 0 1-.696-1.05 1.136 1.136 0 0 1 1.13-1.135z" fill="url(#a)"/><path d="M13.077 25.911c6.584 0 6.173-2.866 6.173-2.866l-.007-2.97H12.96v-.892h8.778s4.214.48 4.214-6.19-3.678-6.433-3.678-6.433H20.08v3.095s.12 3.692-3.618 3.692H10.23s-3.502-.058-3.502 3.397v5.71s-.532 3.456 6.349 3.456v.001zm3.464-1.997a1.128 1.128 0 0 1-1.13-1.135 1.137 1.137 0 0 1 1.565-1.05 1.126 1.126 0 0 1 .696 1.05 1.136 1.136 0 0 1-1.13 1.135z" fill="url(#b)"/><defs><linearGradient id="a" x1="2.506" y1="2.37" x2="15.409" y2="15.038" gradientUnits="userSpaceOnUse"><stop stop-color="#387EB8"/><stop offset="1" stop-color="#366994"/></linearGradient><linearGradient id="b" x1="10.397" y1="10.566" x2="24.251" y2="23.554" gradientUnits="userSpaceOnUse"><stop stop-color="#FFE052"/><stop offset="1" stop-color="#FFC331"/></linearGradient></defs></svg>