<svg width="39" height="41" fill="none" xmlns="http://www.w3.org/2000/svg"><path d="M36.58 16.972H24.008a1.137 1.137 0 0 1-1.138-1.138V2.733c0-.975-.783-1.758-1.757-1.758h-4.491c-.975 0-1.758.783-1.758 1.758v13.013c0 .68-.546 1.227-1.226 1.227l-4.121.015c-.68 0-1.24-.547-1.226-1.227l.03-13.028c0-.975-.784-1.757-1.758-1.757H2.073c-.975 0-1.758.783-1.758 1.757V39.41c0 .857.694 1.566 1.566 1.566H36.58c.856 0 1.565-.694 1.565-1.566V18.538a1.556 1.556 0 0 0-1.565-1.566v.001zm-5.894 13.767a2.044 2.044 0 0 1-2.04 2.038h-3.544a2.044 2.044 0 0 1-2.038-2.038v-3.545a2.044 2.044 0 0 1 2.038-2.038h3.545a2.044 2.044 0 0 1 2.039 2.038v3.545z" fill="#F60"/></svg>