<svg width="26" height="26" fill="none" xmlns="http://www.w3.org/2000/svg"><g clip-path="url(#a)" fill="#53C1DE"><path fill-rule="evenodd" clip-rule="evenodd" d="M20.543 8.539c.28.083.56.174.836.272 2.808.996 4.623 2.557 4.623 4.17 0 1.684-1.939 3.328-4.92 4.346-.158.054-.319.105-.484.155.058.238.11.477.158.717.587 3.063.135 5.581-1.26 6.413-1.35.805-3.533.015-5.743-1.945-.24-.215-.475-.434-.703-.662-.181.181-.363.354-.543.516-2.281 2.055-4.624 2.908-6.02 2.077-1.351-.802-1.775-3.146-1.232-6.097.059-.321.127-.64.205-.958a12.776 12.776 0 0 1-.703-.225C1.889 16.307.002 14.642.002 12.982c0-1.608 1.758-3.16 4.51-4.148.309-.11.63-.214.962-.312-.07-.294-.135-.59-.19-.887-.571-3.004-.172-5.404 1.185-6.213 1.413-.844 3.767.063 6.114 2.21.146.135.29.272.43.411.212-.21.428-.413.649-.612 2.24-2.01 4.459-2.85 5.814-2.044 1.415.84 1.83 3.394 1.195 6.564-.038.197-.082.393-.128.588zm-.211 7.842c.149-.045.294-.093.437-.14 2.578-.879 4.166-2.225 4.166-3.26 0-.972-1.47-2.234-3.88-3.087-.25-.09-.508-.174-.775-.253a27.346 27.346 0 0 1-1.267 3.345 27.319 27.319 0 0 1 1.319 3.395zm-.507 5.577c.172-.957.135-2.182-.127-3.537h.002c-.041-.21-.088-.427-.141-.648-1.162.27-2.34.457-3.528.56a26.795 26.795 0 0 1-2.183 2.852c.218.216.437.422.655.614 1.892 1.676 3.648 2.311 4.468 1.822.386-.23.698-.803.854-1.663zm-12.769 1.65c.386.23 1.025.222 1.826-.07h.001c.892-.325 1.905-.97 2.916-1.878.169-.152.334-.309.496-.47a27.746 27.746 0 0 1-2.236-2.842 25.448 25.448 0 0 1-3.51-.523c-.072.295-.134.591-.19.89-.466 2.524-.126 4.406.697 4.894zm-4.968-9.033c.72.634 1.767 1.213 3.038 1.66.212.075.427.143.643.207.354-1.17.783-2.317 1.285-3.432a27.874 27.874 0 0 1-1.27-3.383c-.301.086-.6.183-.896.29-2.358.845-3.773 2.09-3.773 3.065 0 .459.327 1.024.973 1.593zM7.037 2.413c-.817.488-1.143 2.43-.654 5.003.053.277.113.552.18.825a26.56 26.56 0 0 1 3.475-.555 27.288 27.288 0 0 1 2.22-2.825 19.638 19.638 0 0 0-.391-.372c-2.031-1.854-3.958-2.594-4.83-2.076zm9.79 6.516a36.631 36.631 0 0 1 1.541 2.734c.33-.793.61-1.566.835-2.307a23.868 23.868 0 0 0-2.375-.427zm-2.256-1.347a24.386 24.386 0 0 0-1.532-1.904c-.521.579-1.04 1.215-1.547 1.903a31.847 31.847 0 0 1 3.08.001zm-6.88 4.081a34.517 34.517 0 0 1 1.534-2.736 24.36 24.36 0 0 0-2.36.417c.238.786.514 1.56.827 2.32zM6.85 16.72c.792.175 1.594.308 2.4.398v-.001a33.904 33.904 0 0 1-1.555-2.763 26.063 26.063 0 0 0-.845 2.366zm4.653 1.717a25.59 25.59 0 0 0 1.567 1.927v.001a24.056 24.056 0 0 0 1.53-1.935 37.74 37.74 0 0 1-3.097.007zm7.752-1.766c-.232-.751-.526-1.541-.874-2.358-.478.95-.997 1.879-1.556 2.784a23.068 23.068 0 0 0 2.43-.426zm-3.843.564c.437-.676.854-1.37 1.249-2.073h.001c.398-.71.77-1.433 1.12-2.17a37.738 37.738 0 0 0-2.379-4.212 30.646 30.646 0 0 0-4.748 0 32.315 32.315 0 0 0-2.37 4.229 32.621 32.621 0 0 0 2.383 4.235c.76.051 1.548.077 2.36.077.813 0 1.61-.03 2.384-.086zM19.62 7.72c.548-2.738.209-4.823-.663-5.342-.82-.484-2.616.194-4.539 1.916a15.8 15.8 0 0 0-.6.565 26.779 26.779 0 0 1 2.203 2.827c1.228.12 2.401.31 3.482.567.042-.177.081-.355.117-.533z"/><path d="M13.025 10.588c1.285 0 2.326 1.07 2.326 2.393 0 1.322-1.042 2.392-2.326 2.392s-2.326-1.07-2.326-2.392c0-1.321 1.042-2.393 2.326-2.393z"/></g><defs><clipPath id="a"><path fill="#fff" d="M0 0h26v26H0z"/></clipPath></defs></svg>