<svg width="38" height="41" fill="none" xmlns="http://www.w3.org/2000/svg"><path d="M35.917 17.118a1.916 1.916 0 0 1 1.916 1.907v19.952c0 1.05-.85 1.908-1.907 1.908H1.908A1.908 1.908 0 0 1 0 38.977V2.793C0 1.743.85.886 1.91.886h4.135c1.049 0 1.906.848 1.906 1.907v12.53a1.933 1.933 0 0 0 1.674 1.795h3.094c.937-.086 1.718-.85 1.77-1.795V2.791c0-1.049.848-1.906 1.906-1.906h4.135c1.05 0 1.908.848 1.908 1.906v12.4c0 .98.72 1.812 1.665 1.926h11.816l-.002.001zm-5.445 13.683v-3.904a1.907 1.907 0 0 0-1.906-1.908h-4.137c-1.049 0-1.908.85-1.908 1.908V30.8c0 1.049.85 1.906 1.908 1.906h4.135c1.05 0 1.907-.848 1.907-1.906l.001.001z" fill="#F60"/></svg>