<svg width="56" height="56" fill="none" xmlns="http://www.w3.org/2000/svg"><path d="M52.868 30.218v-4.285a3.43 3.43 0 0 0-3.433-3.433h-5.104v-2.573h8.529v-3.425H42.577a3.436 3.436 0 0 0-3.433 3.433v3.434a3.426 3.426 0 0 0 3.39 3.424h5.18v3.425h-8.562v3.433h10.325a3.444 3.444 0 0 0 3.391-3.433zM34.006 16.502H15.152v17.141h5.18V19.927h3.349v13.716h5.18V19.927h3.39v13.716h5.18V19.927a3.416 3.416 0 0 0-3.425-3.425zM7.434 30.218V19.927h5.998v-3.425H5.679a3.43 3.43 0 0 0-3.433 3.433v10.283a3.436 3.436 0 0 0 3.433 3.433h7.753v-3.433H7.434z" fill="#9D9C9C"/><path d="M52.868 35.355H2.255v.44h50.613v-.44zm0 2.573H2.255v-1.282h50.613v1.282z" fill="#E3051B"/></svg>