<svg width="26" height="26" fill="none" xmlns="http://www.w3.org/2000/svg"><path fill-rule="evenodd" clip-rule="evenodd" d="M19.085 16.572 6.5 24.05l16.295-1.107L24.05 6.5l-4.965 10.072z" fill="url(#a)"/><path fill-rule="evenodd" clip-rule="evenodd" d="M22.75 22.75 21.353 13l-3.803 5.08 5.2 4.67z" fill="url(#b)"/><path fill-rule="evenodd" clip-rule="evenodd" d="M22.75 22.926 12.512 22.1 6.5 24.05l16.25-1.124z" fill="url(#c)"/><path fill-rule="evenodd" clip-rule="evenodd" d="M6.442 24.05 9.1 15.6l-5.85 1.214 3.192 7.236z" fill="url(#d)"/><path fill-rule="evenodd" clip-rule="evenodd" d="m17.55 18.2-2.356-9.1-6.744 6.232 9.1 2.868z" fill="url(#e)"/><path fill-rule="evenodd" clip-rule="evenodd" d="M23.4 9.207 17.299 3.9l-1.7 5.85 7.8-.543z" fill="url(#f)"/><path fill-rule="evenodd" clip-rule="evenodd" d="M20.8 1.976 16.814 3.9 14.3 1.95l6.5.026z" fill="url(#g)"/><path fill-rule="evenodd" clip-rule="evenodd" d="m1.95 19.5 1.3-2.966L2.2 13l-.249 6.5z" fill="url(#h)"/><path fill-rule="evenodd" clip-rule="evenodd" d="m1.95 13.24 1.277 3.66 5.55-1.258 6.335-5.947L16.9 3.958 14.085 1.95 9.298 3.76C7.79 5.175 4.864 7.98 4.758 8.031c-.104.054-1.932 3.544-2.808 5.209z" fill="#fff"/><path fill-rule="evenodd" clip-rule="evenodd" d="M6.537 6.722c3.268-3.244 7.48-5.161 9.096-3.528 1.616 1.633-.097 5.603-3.365 8.846-3.267 3.243-7.427 5.265-9.043 3.632-1.616-1.632.045-5.707 3.312-8.95z" fill="url(#i)"/><path fill-rule="evenodd" clip-rule="evenodd" d="m6.5 24.05 2.557-8.45 8.493 2.722c-3.07 2.872-6.486 5.3-11.05 5.728z" fill="url(#j)"/><path fill-rule="evenodd" clip-rule="evenodd" d="m15.6 9.642 2.08 8.558c2.447-2.673 4.644-5.546 5.72-9.1l-7.8.542z" fill="url(#k)"/><path fill-rule="evenodd" clip-rule="evenodd" d="M23.52 9.1c.9-2.647 1.108-6.445-3.137-7.15L16.9 3.825 23.52 9.1z" fill="url(#l)"/><path fill-rule="evenodd" clip-rule="evenodd" d="M1.95 19.635c.12 4.313 3.227 4.377 4.55 4.415L3.443 16.9 1.95 19.635z" fill="#9E1209"/><path fill-rule="evenodd" clip-rule="evenodd" d="M15.6 9.681a1978.1 1978.1 0 0 0 5.803 3.968c.12.076 1.65-2.88 1.997-4.549l-7.8.581z" fill="url(#m)"/><path fill-rule="evenodd" clip-rule="evenodd" d="m9.1 15.6 3.41 6.5c2.015-1.08 3.594-2.397 5.04-3.807L9.1 15.6z" fill="url(#n)"/><path fill-rule="evenodd" clip-rule="evenodd" d="m3.701 16.901-.451 5.845c.851 1.265 2.022 1.375 3.25 1.276-.889-2.406-2.664-7.218-2.799-7.12z" fill="url(#o)"/><path fill-rule="evenodd" clip-rule="evenodd" d="m16.9 3.676 7.15.874c-.381-1.408-1.553-2.316-3.55-2.6l-3.6 1.726z" fill="url(#p)"/><defs><linearGradient id="i" x1="-.221" y1="19.292" x2="16.854" y2="1.759" gradientUnits="userSpaceOnUse"><stop stop-color="#BD0012"/><stop offset=".07" stop-color="#fff"/><stop offset=".17" stop-color="#fff"/><stop offset=".27" stop-color="#C82F1C"/><stop offset=".33" stop-color="#820C01"/><stop offset=".46" stop-color="#A31601"/><stop offset=".72" stop-color="#B31301"/><stop offset=".99" stop-color="#E82609"/><stop offset="1" stop-color="#E82609"/></linearGradient><linearGradient id="a" x1="21.374" y1="26.051" x2="16.718" y2="17.837" gradientUnits="userSpaceOnUse"><stop stop-color="#FB7655"/><stop offset=".41" stop-color="#E42B1E"/><stop offset=".99" stop-color="#900"/><stop offset="1" stop-color="#900"/></linearGradient><linearGradient id="c" x1="18.813" y1="26.377" x2="12.733" y2="22.407" gradientUnits="userSpaceOnUse"><stop stop-color="#871101"/><stop offset=".99" stop-color="#911209"/><stop offset="1" stop-color="#911209"/></linearGradient><linearGradient id="d" x1="6.176" y1="16.211" x2="7.084" y2="22.295" gradientUnits="userSpaceOnUse"><stop stop-color="#fff"/><stop offset=".23" stop-color="#E57252"/><stop offset=".46" stop-color="#DE3B20"/><stop offset=".99" stop-color="#A60003"/><stop offset="1" stop-color="#A60003"/></linearGradient><linearGradient id="e" x1="12.652" y1="10.588" x2="12.985" y2="16.658" gradientUnits="userSpaceOnUse"><stop stop-color="#fff"/><stop offset=".23" stop-color="#E4714E"/><stop offset=".56" stop-color="#BE1A0D"/><stop offset=".99" stop-color="#A80D00"/><stop offset="1" stop-color="#A80D00"/></linearGradient><linearGradient id="f" x1="18.483" y1="4.812" x2="19.587" y2="9.279" gradientUnits="userSpaceOnUse"><stop stop-color="#fff"/><stop offset=".18" stop-color="#E46342"/><stop offset=".4" stop-color="#C82410"/><stop offset=".99" stop-color="#A80D00"/><stop offset="1" stop-color="#A80D00"/></linearGradient><linearGradient id="g" x1="15.184" y1="3.088" x2="19.601" y2=".56" gradientUnits="userSpaceOnUse"><stop stop-color="#fff"/><stop offset=".54" stop-color="#C81F11"/><stop offset=".99" stop-color="#BF0905"/><stop offset="1" stop-color="#BF0905"/></linearGradient><linearGradient id="h" x1="2.309" y1="14.374" x2="2.777" y2="18.118" gradientUnits="userSpaceOnUse"><stop stop-color="#fff"/><stop offset=".31" stop-color="#DE4024"/><stop offset=".99" stop-color="#BF190B"/><stop offset="1" stop-color="#BF190B"/></linearGradient><linearGradient id="b" x1="23.616" y1="18.937" x2="17.598" y2="14.945" gradientUnits="userSpaceOnUse"><stop stop-color="#871101"/><stop offset=".99" stop-color="#911209"/><stop offset="1" stop-color="#911209"/></linearGradient><linearGradient id="j" x1="12.996" y1="21.11" x2="7.823" y2="19.83" gradientUnits="userSpaceOnUse"><stop stop-color="#8C0C01"/><stop offset=".54" stop-color="#990C00"/><stop offset=".99" stop-color="#A80D0E"/><stop offset="1" stop-color="#A80D0E"/></linearGradient><linearGradient id="k" x1="21.787" y1="14.811" x2="17.253" y2="10.899" gradientUnits="userSpaceOnUse"><stop stop-color="#7E110B"/><stop offset=".99" stop-color="#9E0C00"/><stop offset="1" stop-color="#9E0C00"/></linearGradient><linearGradient id="l" x1="23.541" y1="7.25" x2="21.244" y2="4.729" gradientUnits="userSpaceOnUse"><stop stop-color="#79130D"/><stop offset=".99" stop-color="#9E120B"/><stop offset="1" stop-color="#9E120B"/></linearGradient><linearGradient id="o" x1="5.089" y1="24.173" x2="3.061" y2="17.851" gradientUnits="userSpaceOnUse"><stop stop-color="#8B2114"/><stop offset=".43" stop-color="#9E100A"/><stop offset=".99" stop-color="#B3100C"/><stop offset="1" stop-color="#B3100C"/></linearGradient><linearGradient id="p" x1="19.108" y1="2.876" x2="23.294" y2="4.998" gradientUnits="userSpaceOnUse"><stop stop-color="#B31000"/><stop offset=".44" stop-color="#910F08"/><stop offset=".99" stop-color="#791C12"/><stop offset="1" stop-color="#791C12"/></linearGradient><radialGradient id="n" cx="0" cy="0" r="1" gradientUnits="userSpaceOnUse" gradientTransform="matrix(7.46863 0 0 7.38016 10.245 18.256)"><stop stop-color="#A30C00"/><stop offset=".99" stop-color="#800E08"/><stop offset="1" stop-color="#800E08"/></radialGradient><radialGradient id="m" cx="0" cy="0" r="1" gradientUnits="userSpaceOnUse" gradientTransform="matrix(5.42669 0 0 6.05806 18.096 10.93)"><stop stop-color="#A80D00"/><stop offset=".99" stop-color="#7E0E08"/><stop offset="1" stop-color="#7E0E08"/></radialGradient></defs></svg>