<svg width="26" height="26" fill="none" xmlns="http://www.w3.org/2000/svg"><path d="M12.182 3.062a.773.773 0 1 1 1.546 0 .773.773 0 0 1-1.546 0zM2.961 10.06a.773.773 0 1 1 1.545 0 .773.773 0 0 1-1.545 0zm18.437.036a.773.773 0 1 1 1.546 0 .773.773 0 0 1-1.546 0zm-16.2 1.064a.707.707 0 0 0 .359-.93l-.342-.782h1.349v6.078H3.843a9.514 9.514 0 0 1-.308-3.632l1.663-.734zm5.642.15V9.513h3.212c.165 0 1.17.192 1.17.944 0 .624-.77.848-1.404.848l-2.978.005zm-4.385 9.646a.773.773 0 1 1 1.546 0 .773.773 0 0 1-1.546 0zm11.453.036a.772.772 0 1 1 1.545 0 .772.772 0 0 1-1.545 0zm.239-1.752a.702.702 0 0 0-.837.542l-.382 1.81a9.517 9.517 0 0 1-7.936-.037l-.382-1.811a.703.703 0 0 0-.837-.542l-1.598.344a9.506 9.506 0 0 1-.827-.974h7.778c.087 0 .147-.016.147-.096v-2.75c0-.08-.059-.097-.147-.097h-2.275v-1.743h2.455c.225 0 1.2.064 1.513 1.312l.459 2.031c.146.448.742 1.344 1.376 1.344h4.016c-.27.36-.564.7-.881 1.02l-1.642-.353zm4.318-7.263c.055.549.062 1.102.02 1.652h-.981c-.099 0-.137.064-.137.16v.448c0 1.055-.6 1.285-1.116 1.343-.491.057-1.048-.207-1.115-.511-.293-1.647-.781-2-1.552-2.607.957-.608 1.953-1.504 1.953-2.703 0-1.296-.888-2.111-1.494-2.511-.85-.56-1.79-.672-2.043-.672H5.906a9.517 9.517 0 0 1 5.325-3.005l1.19 1.255a.705.705 0 0 0 .996.022l1.332-1.273a9.517 9.517 0 0 1 6.516 4.64l-.911 2.058a.701.701 0 0 0 .358.931l1.753.773zm2.275.033-.031-.319.94-.876a.393.393 0 0 0-.125-.627l-1.2-.449-.094-.31.749-1.04a.392.392 0 0 0-.245-.591l-1.265-.206-.153-.284.532-1.167c.109-.238-.093-.542-.355-.532l-1.284.045-.203-.245.294-1.252a.393.393 0 0 0-.452-.452l-1.252.294-.246-.203.045-1.284a.392.392 0 0 0-.532-.356l-1.167.533-.284-.153-.206-1.265a.393.393 0 0 0-.59-.245l-1.037.743-.31-.094-.448-1.2a.392.392 0 0 0-.628-.125l-.882.939-.318-.031-.677-1.093a.392.392 0 0 0-.639 0l-.676 1.093-.319.03-.876-.94a.392.392 0 0 0-.627.126l-.45 1.2-.31.093-1.036-.747a.393.393 0 0 0-.59.245L7.585 2.53l-.284.153-1.167-.532a.393.393 0 0 0-.532.356l.045 1.284-.247.203-1.251-.295a.393.393 0 0 0-.453.453l.295 1.251-.202.246-1.285-.045c-.259-.008-.463.294-.355.532l.532 1.167-.153.283-1.265.207c-.257.042-.397.38-.246.59l.75 1.04-.095.31-1.2.45a.392.392 0 0 0-.124.627l.94.876-.032.318-1.092.677a.393.393 0 0 0 0 .639l1.092.676.031.319-.94.875a.393.393 0 0 0 .125.628l1.2.449.094.31-.749 1.04a.392.392 0 0 0 .245.59l1.266.206.152.285-.532 1.167a.393.393 0 0 0 .356.532l1.284-.045.203.246-.295 1.252a.392.392 0 0 0 .453.451l1.251-.294.247.202-.045 1.285a.392.392 0 0 0 .532.355l1.167-.532.284.153.206 1.265a.393.393 0 0 0 .591.245l1.04-.749.31.094.45 1.2a.393.393 0 0 0 .627.125l.876-.94.319.032.676 1.092c.136.22.502.221.64 0l.676-1.093.319-.032.876.94a.394.394 0 0 0 .627-.125l.449-1.2.31-.094 1.04.75a.393.393 0 0 0 .59-.246l.207-1.265.284-.153 1.167.532a.392.392 0 0 0 .532-.355l-.045-1.285.247-.202 1.251.294a.392.392 0 0 0 .452-.451l-.294-1.252.202-.247 1.284.046a.394.394 0 0 0 .355-.532l-.532-1.167.153-.285 1.266-.206a.394.394 0 0 0 .245-.59l-.75-1.04.095-.31 1.2-.45a.393.393 0 0 0 .124-.627l-.94-.876.032-.318 1.092-.676a.392.392 0 0 0 0-.64l-1.095-.67z" fill="#000"/></svg>