<svg width="39" height="41" fill="none" xmlns="http://www.w3.org/2000/svg"><path d="M2.531 24.937a15.39 15.39 0 0 1-.535-7.363c.188-1.056.478-2.069.796-3.096 0 0 1.996-6.553 8.752-9.547 0 0 2.329-1.23 5.83-1.317 0 0-.478-.462-.782-.665-1.649-1.1-4.108-1.461-5.598.087-.448.463-.825.969-1.244 1.432-.477.52-1.056.955-1.722 1.2-.578.218-1.157.174-1.75.275-.607.102-1.23.319-1.721.71-.536.433-.753 1.012-.81 1.677-.058.521-.044 1.056-.073 1.577-.072 1.534-.564 1.967-1.663 2.82A4.47 4.47 0 0 0 .868 14.03c-.868 1.533.52 3.124.593 4.672.014.319-.014.637-.13.94-.116.333-.347.55-.535.825-.26.362-.434.796-.362 1.244.072.449.304.868.52 1.259.42.694.941 1.316 1.49 1.91.03 0 .059.028.087.057z" fill="#E32286"/><path d="M30.132 30.492c3.327-1.447 4.745-3.95 4.745-3.95 3.11-4.238 2.054-8.708 2.054-8.708-1.982 4.31-3.79 5.497-3.79 5.497 4.875-7.42.029-11.905.029-11.905 1.982 4.224-.651 9.373-.651 9.373-2.213 4.659-5.352 6.322-5.352 6.322 3.5.651 6.075-1.707 6.075-1.707-5.02 5.425-10.458 5.164-10.458 5.164 2.285 2.56 5.713 2.344 5.713 2.344-4.484 1.056-8.693-.434-12.15-3.313a19.05 19.05 0 0 1-1.852-1.736s-.521-.55-.622-.694l-.015-.015c-.072 2.677 2.72 5.165 2.72 5.165-3.501-1.447-5.107-4.586-5.107-4.586s-2.358-4.021-.65-8.607c1.706-4.586 6.87-5.57 6.87-5.57 4.268 2.07 7.884 2.72 7.884 2.72 7.624 1.273 7.19-2.459 7.19-2.459.072-3.211-4.774-6.625-4.774-6.625C19.355.793 11.544 4.93 11.544 4.93c-6.756 2.994-8.752 9.547-8.752 9.547-.318 1.027-.608 2.04-.796 3.096-.738 4.296.376 8.36 2.792 11.977 3.761 5.613 9.866 7.551 9.866 7.551 9.04 3.067 15.218-1.446 15.218-1.446 5.685-3.906 6.828-8.42 6.828-8.42-4.586 3.588-6.568 3.256-6.568 3.256zm-7.06-21.106c.435 0 .782.347.782.781a.778.778 0 0 1-.781.781.778.778 0 0 1-.781-.78c0-.435.347-.782.78-.782z" fill="url(#a)"/><path d="M32.75 13.813c.073-3.212-4.773-6.626-4.773-6.626C19.34.794 11.529 4.931 11.529 4.931c-6.755 2.994-8.752 9.547-8.752 9.547-.39 1.114-.737 2.821-.737 2.821-.42 2.141-.232 4.123-.232 4.123.174 1.895.593 3.168.593 3.168.434 1.36.637 1.78.637 1.78-.015-.044-.087-.363-.087-.363s-.608-2.922-.043-5.728c0 0 .491-2.922 2.488-5.179 0 0 3.24-4.614 9.272-2.806 0 0 1.302.463 1.75.694.449.217 1.23.55 1.23.55 4.268 2.069 7.884 2.72 7.884 2.72 7.652 1.287 7.218-2.445 7.218-2.445zm-9.677-2.85a.778.778 0 0 1-.781-.781c0-.434.347-.781.78-.781.435 0 .782.347.782.78a.778.778 0 0 1-.781.782z" fill="url(#b)"/><path d="m18.126 7.998-4.933-1.534c-.03 0-.174-.072-.434 0 0 0-2.908.738-2.402 2.33 0 0 .304.997 1.129 1.967l5.424-.26 1.216-2.503z" fill="url(#c)"/><defs><linearGradient id="a" x1="5.988" y1="35.41" x2="23.989" y2="16.261" gradientUnits="userSpaceOnUse"><stop stop-color="#E01D84"/><stop offset=".401" stop-color="#DF1D85"/><stop offset=".77" stop-color="#932C87"/><stop offset="1" stop-color="#5D2F88"/></linearGradient><linearGradient id="c" x1="10.287" y1="8.596" x2="18.121" y2="8.596" gradientUnits="userSpaceOnUse"><stop stop-color="#E01D84"/><stop offset=".238" stop-color="#DA1E85"/><stop offset=".658" stop-color="#C72085"/><stop offset=".999" stop-color="#B52284"/></linearGradient><radialGradient id="b" cx="0" cy="0" r="1" gradientUnits="userSpaceOnUse" gradientTransform="matrix(17.58775 .04203 -.03515 14.70696 25.8 11.18)"><stop stop-color="#E01D84"/><stop offset=".139" stop-color="#DE1E85"/><stop offset=".285" stop-color="#D62085"/><stop offset=".434" stop-color="#C92386"/><stop offset=".586" stop-color="#B72786"/><stop offset=".739" stop-color="#9D2B87"/><stop offset=".891" stop-color="#7C2E88"/><stop offset="1" stop-color="#5D2F88"/></radialGradient></defs></svg>