<svg width="26" height="26" fill="none" xmlns="http://www.w3.org/2000/svg"><g clip-path="url(#a)"><path d="M22.374 13.801a5.378 5.378 0 0 0-2.354.546c-.242-.48-.484-.907-.527-1.22-.047-.365-.104-.588-.047-1.025.057-.437.313-1.059.308-1.106-.005-.047-.057-.27-.579-.275-.522-.005-.973.1-1.025.237a5.72 5.72 0 0 0-.218.774c-.09.474-1.044 2.169-1.59 3.056-.176-.346-.328-.65-.361-.892-.047-.366-.104-.589-.047-1.025.056-.437.313-1.059.308-1.106-.005-.048-.057-.27-.58-.275-.521-.005-.972.1-1.024.237-.053.138-.11.46-.219.774-.109.313-1.376 3.142-1.708 3.873-.171.375-.318.674-.423.878 0 0-.004.014-.019.038-.09.175-.142.27-.142.27v.005c-.071.128-.147.247-.185.247-.029 0-.08-.342.01-.807.19-.983.64-2.511.635-2.563 0-.029.086-.294-.294-.432-.37-.138-.503.09-.536.09-.034 0-.057.08-.057.08s.413-1.717-.788-1.717c-.75 0-1.785.82-2.297 1.561-.323.176-1.011.55-1.747.954-.28.157-.57.313-.84.46l-.057-.061c-1.452-1.552-4.139-2.649-4.025-4.732.043-.76.304-2.753 5.16-5.174 3.996-1.97 7.176-1.424 7.726-.213.788 1.727-1.704 4.936-5.833 5.401-1.576.176-2.401-.432-2.61-.66-.219-.237-.252-.251-.333-.204-.132.071-.047.285 0 .408.124.323.632.893 1.49 1.173.76.247 2.606.384 4.842-.48 2.501-.968 4.457-3.659 3.882-5.913-.574-2.288-4.37-3.043-7.964-1.766-2.136.76-4.452 1.955-6.118 3.512C.21 8.58-.104 10.19.024 10.863c.46 2.392 3.759 3.949 5.079 5.102l-.18.1c-.66.327-3.176 1.642-3.803 3.033-.712 1.576.114 2.705.66 2.857 1.695.47 3.436-.375 4.371-1.77.935-1.396.822-3.209.39-4.04a.1.1 0 0 0-.02-.028l.518-.304c.337-.199.67-.384.954-.536-.161.442-.28.968-.337 1.728-.071.892.294 2.05.774 2.506.213.2.465.204.626.204.56 0 .812-.465 1.092-1.016.341-.674.65-1.457.65-1.457s-.384 2.117.66 2.117c.38 0 .764-.494.935-.745v.005s.01-.015.028-.048l.062-.1v-.01c.152-.265.493-.868 1.001-1.87.655-1.29 1.287-2.904 1.287-2.904s.057.394.251 1.05c.114.383.351.806.541 1.214-.152.214-.247.332-.247.332l.005.005c-.123.162-.256.337-.403.508-.518.617-1.135 1.324-1.22 1.528-.1.242-.076.418.114.56.138.105.384.119.636.105a2.92 2.92 0 0 0 .954-.219c.251-.09.546-.227.821-.431.508-.375.816-.912.788-1.619-.014-.39-.142-.778-.3-1.144.048-.066.091-.133.139-.2.802-1.171 1.423-2.458 1.423-2.458s.057.394.252 1.05c.095.331.29.692.46 1.043-.754.613-1.22 1.325-1.386 1.79-.299.864-.066 1.253.375 1.343.2.043.485-.052.693-.142.266-.086.58-.233.878-.451.508-.375.997-.897.969-1.605-.015-.322-.1-.64-.219-.949.641-.266 1.467-.413 2.52-.29 2.26.266 2.706 1.676 2.62 2.27-.085.593-.56.915-.716 1.015-.157.1-.21.133-.195.204.02.104.095.1.228.08.185-.032 1.187-.479 1.23-1.57.07-1.396-1.258-2.92-3.608-2.905zM4.946 19.677c-.75.816-1.794 1.125-2.245.864-.484-.28-.294-1.486.626-2.35.56-.526 1.282-1.015 1.761-1.314l.465-.28c.034-.02.053-.029.053-.029l.114-.071c.336 1.234.014 2.32-.774 3.18zm5.458-3.712c-.261.636-.807 2.264-1.139 2.174-.285-.076-.46-1.31-.057-2.53.204-.612.636-1.343.888-1.628.408-.455.859-.607.968-.422.137.242-.499 2.008-.66 2.406zm4.504 2.155c-.109.057-.213.095-.26.067-.034-.02.047-.095.047-.095s.564-.608.788-.883c.128-.162.28-.351.441-.565v.062c0 .726-.702 1.215-1.016 1.414zm3.475-.793c-.081-.056-.067-.246.204-.84.104-.232.35-.621.773-.996.048.152.08.299.076.436-.005.916-.66 1.258-1.053 1.4z" fill="#C16D97"/></g><defs><clipPath id="a"><path fill="#fff" d="M0 0h26v26H0z"/></clipPath></defs></svg>