<svg width="26" height="26" fill="none" xmlns="http://www.w3.org/2000/svg"><path fill-rule="evenodd" clip-rule="evenodd" d="m1.682 15.715 9.294 8.83 13.768-6.426L12.94 12.6 1.68 15.715z" fill="#AFAFDE" stroke="#000" stroke-width=".34" stroke-linejoin="round"/><path fill-rule="evenodd" clip-rule="evenodd" d="m1.256 3.586.425 12.129 11.26-3.115-.357-10.157L1.256 3.586z" fill="#353564" stroke="#000" stroke-width=".34" stroke-linejoin="round"/><path fill-rule="evenodd" clip-rule="evenodd" d="m12.584 2.443 11.656 1.33.503 14.346L12.94 12.6l-.356-10.157z" fill="#E9E9FF" stroke="#000" stroke-width=".34" stroke-linejoin="round"/><path fill-rule="evenodd" clip-rule="evenodd" d="m1.256 3.586 9.066 2.34L24.24 3.774 12.584 2.443 1.256 3.586z" fill="#19AEFF"/><path fill-rule="evenodd" clip-rule="evenodd" d="M12.571 2.31h.029l11.656 1.332a.133.133 0 0 1 .005.264L10.343 6.058a.133.133 0 0 1-.054-.003l-9.066-2.34a.133.133 0 0 1 .02-.26L12.571 2.31zM2.013 3.644 10.33 5.79l12.91-1.996-10.655-1.217-10.57 1.067z" fill="#000"/><path fill-rule="evenodd" clip-rule="evenodd" d="m10.323 5.925.653 18.619 13.768-6.425-.503-14.346-13.918 2.152z" fill="#0084C8"/><path fill-rule="evenodd" clip-rule="evenodd" d="M24.326 3.671c.03.024.047.06.048.098l.503 14.346a.133.133 0 0 1-.077.125l-13.768 6.425a.133.133 0 0 1-.19-.116L10.19 5.931a.133.133 0 0 1 .112-.137L24.22 3.642a.133.133 0 0 1 .106.029zM10.46 6.039l.642 18.3 13.506-6.303-.495-14.108L10.46 6.04z" fill="#000"/><path fill-rule="evenodd" clip-rule="evenodd" d="m1.256 3.586 9.066 2.34.653 18.618-9.294-8.83-.425-12.128z" fill="#19AEFF"/><path fill-rule="evenodd" clip-rule="evenodd" d="M1.173 3.482a.133.133 0 0 1 .117-.025l9.066 2.34a.133.133 0 0 1 .1.124l.653 18.618a.133.133 0 0 1-.225.102L1.59 15.81a.134.134 0 0 1-.042-.091L1.123 3.59a.133.133 0 0 1 .05-.108zm.223.278.417 11.896 9.018 8.567-.638-18.193-8.797-2.27z" fill="#000"/><path fill-rule="evenodd" clip-rule="evenodd" d="m2.371 7.244-.18-.087-.18-.088.001-.001.001-.002a.714.714 0 0 1 .016-.03 2.557 2.557 0 0 1 .227-.342 2.2 2.2 0 0 1 .74-.618c.339-.167.764-.244 1.266-.106.497.135 1.055.477 1.677 1.117.15.153.293.309.431.458l.016.018c.133.144.259.28.382.408.26.268.49.474.708.59.21.112.389.133.57.055.197-.084.43-.295.698-.732l.341.21c-.285.463-.573.758-.881.89-.323.138-.632.082-.917-.07-.276-.148-.543-.394-.806-.664-.127-.131-.256-.272-.388-.414l-.017-.02c-.138-.15-.278-.301-.424-.45-.59-.609-1.09-.9-1.496-1.01a1.348 1.348 0 0 0-.984.079 1.8 1.8 0 0 0-.601.505 2.156 2.156 0 0 0-.198.3l-.002.004z" fill="#000"/><path fill-rule="evenodd" clip-rule="evenodd" d="m2.37 8.844-.18-.088-.18-.087.001-.001.001-.002a1.149 1.149 0 0 1 .063-.112c.04-.067.1-.16.18-.261a2.2 2.2 0 0 1 .74-.617c.339-.167.764-.244 1.266-.107.497.136 1.055.478 1.677 1.117.15.154.293.31.431.46l.016.017c.133.144.259.28.382.408.26.268.49.474.708.59.21.112.389.133.57.055.197-.084.43-.295.698-.733l.341.21c-.285.464-.572.759-.881.89-.323.139-.632.083-.917-.069-.276-.148-.543-.394-.806-.665a22.33 22.33 0 0 1-.388-.414l-.017-.019c-.138-.15-.278-.301-.424-.45-.59-.609-1.09-.9-1.496-1.01a1.348 1.348 0 0 0-.984.079 1.8 1.8 0 0 0-.601.505 2.154 2.154 0 0 0-.2.304z" fill="#000"/><path fill-rule="evenodd" clip-rule="evenodd" d="m2.37 10.444-.18-.088a16.94 16.94 0 0 1-.18-.088h.001l.001-.003.004-.007a1.108 1.108 0 0 1 .058-.104c.041-.068.101-.16.181-.262a2.2 2.2 0 0 1 .74-.616c.339-.168.764-.244 1.266-.107.497.136 1.055.477 1.677 1.117.15.154.293.31.431.459l.016.018c.133.143.259.28.382.408.26.267.49.474.708.59.21.112.389.132.57.055.197-.084.43-.296.698-.733l.341.21c-.285.464-.572.759-.881.89-.323.138-.632.083-.917-.07-.276-.147-.543-.393-.806-.664-.127-.131-.256-.272-.388-.414l-.017-.02c-.138-.149-.278-.3-.424-.45-.59-.608-1.09-.9-1.496-1.01a1.348 1.348 0 0 0-.984.08c-.263.129-.464.33-.601.505a2.156 2.156 0 0 0-.2.303z" fill="#000"/></svg>