<svg width="26" height="26" fill="none" xmlns="http://www.w3.org/2000/svg"><g clip-path="url(#a)"><path fill="#00B04C" d="M0 0h26v26H0z"/><path d="M26.174 3.562c.085.033.163-3.952.163-3.849h-2.104c-.03 0-.061-.006-.09.01.13.06.162.177.077.295-.173.238-.348.475-.522.712l-4.6 6.265-1.522 2.073c-.105.143-.29.156-.407.026l-.885-.984c-.494-.551-.989-1.103-1.485-1.652-.131-.145-.303-.135-.421.02l-.903 1.178c-.157.206-.316.41-.47.619a.24.24 0 0 0 .02.322l.097.103 4.124 4.244c.136.14.282.14.414-.006.186-.206.37-.415.555-.623l2.425-2.72.132-.147 2.557-2.867 2.633-2.952c.067-.075.136-.097.212-.067z" fill="#F5F7F9"/><path d="M7.583 23.733a6.319 6.319 0 0 1-2.962-.629 6.69 6.69 0 0 1-1.38-.898c-.206-.17-.197-.303-.058-.491.315-.426.618-.861.926-1.293.113-.158.262-.18.407-.047.451.41.959.727 1.525.95a4.81 4.81 0 0 0 1.77.333c.434.001.86-.054 1.254-.25.29-.146.525-.351.64-.667a.835.835 0 0 0-.275-.964c-.237-.19-.514-.3-.798-.392-.48-.157-.973-.266-1.464-.384-.656-.156-1.306-.328-1.923-.609-.438-.2-.84-.453-1.172-.809a2.605 2.605 0 0 1-.654-1.307 3.47 3.47 0 0 1-.054-.88c.026-.428.143-.833.341-1.214.245-.47.596-.845 1.027-1.147a4.31 4.31 0 0 1 1.55-.665c.604-.137 1.217-.157 1.833-.13a6.136 6.136 0 0 1 2.305.568 6.29 6.29 0 0 1 1.303.81c.1.08.112.224.028.336-.254.339-.51.677-.766 1.016l-.234.31c-.123.163-.256.18-.416.054a4.804 4.804 0 0 0-3.266-1.02c-.346.024-.68.105-.958.331-.302.247-.428.568-.344.955.04.181.164.309.31.415.26.187.56.287.86.377.595.178 1.203.297 1.802.456.572.152 1.137.326 1.666.597.478.244.902.555 1.219.996.23.321.38.677.447 1.064.124.715.068 1.413-.22 2.085-.284.667-.76 1.16-1.385 1.515-.464.263-.966.42-1.49.517a8.186 8.186 0 0 1-1.394.111zM18.544 20.094h-2.859c-.145 0-.162.019-.127.16.207.847.727 1.405 1.56 1.671.3.096.608.098.916.078a3.673 3.673 0 0 0 1.756-.573c.046-.029.09-.06.135-.09.12-.083.24-.065.325.056.13.184.256.371.383.558l.31.454c.081.121.06.241-.058.325a5.347 5.347 0 0 1-2.106.902 6.506 6.506 0 0 1-1.584.09 4.082 4.082 0 0 1-2.46-.97 4.109 4.109 0 0 1-1.368-2.175 4.14 4.14 0 0 1-.126-1.089c.004-.291.001-.583.049-.872.106-.644.34-1.236.72-1.768.636-.892 1.496-1.45 2.565-1.69a4.526 4.526 0 0 1 1.314-.074c.573.04 1.115.187 1.622.458.512.274.939.649 1.278 1.12.41.57.656 1.208.78 1.896.078.434.094.873.098 1.313.001.128-.081.211-.209.219H18.544zm-1.008-1.471h1.895l.064-.001c.055-.005.08-.035.071-.09-.011-.074-.02-.149-.037-.222-.166-.71-.597-1.185-1.286-1.425-.248-.087-.506-.09-.766-.088a1.962 1.962 0 0 0-1.245.438 1.95 1.95 0 0 0-.718 1.238c-.021.129-.002.15.127.15h1.895z" fill="#FFFFFE"/></g><defs><clipPath id="a"><path fill="#fff" d="M0 0h26v26H0z"/></clipPath></defs></svg>