<svg width="41" height="41" fill="none" xmlns="http://www.w3.org/2000/svg"><path d="M.431.975h40v40h-40v-40z" fill="#34BDB2"/><path d="M26.753 14.574c-2.112-1.225-3.986-2.188-6.439-2.146-1.403.024-2.608.787-2.861 2.183-.236 1.298.919 2.019 2.12 2.46 1.991.734 3.725 1.509 5.682 2.324 3.558 1.483 5.382 3.884 5.167 6.965-.275 3.92-2.634 6.731-6.383 7.658-4.9 1.211-9.657-.634-13.676-3.21 1.014-1.545 2.191-2.6 3.2-4.136 2.322.988 4.146 2.324 6.576 2.532 1.713.147 3.654.065 4.039-1.947.346-1.814-1.233-2.787-2.773-3.33-1.833-.647-3.664-1.438-5.462-2.172-3.324-1.358-4.676-4.013-4.448-7.141 0-1.835 1.522-5.542 5.253-6.695 5.733-1.772 8.892.042 13.05 2.714-1.105 1.46-1.954 2.499-3.045 3.941z" fill="#fff"/></svg>