<svg width="41" height="41" fill="none" xmlns="http://www.w3.org/2000/svg"><g clip-path="url(#a)"><g clip-path="url(#b)"><path d="M39.303 31.635c.904 1.6.992 3.285.24 4.616-.75 1.334-2.216 2.096-4.026 2.096h-3.409c.04-.65.067-1.304.067-1.962 0-.738-.033-1.467-.083-2.192l2.243-.003c.55 0 .997-.457.997-1.02 0-.17-.041-.337-.12-.487L20.922 7.34a.988.988 0 0 0-1.36-.384.992.992 0 0 0-.36.36l-2.269 4.024C23.83 16.643 28.468 24.86 29.1 34.19c.05.725.083 1.453.083 2.193 0 .658-.028 1.312-.066 1.96H17.983a20.2 20.2 0 0 0-.024-4.153 20.067 20.067 0 0 0-6.642-12.895l-1.562 2.77a16.91 16.91 0 0 1 5.118 10.125c.094.718.146 1.45.146 2.193 0 .662-.044 1.317-.117 1.96H4.583c-1.81 0-3.276-.763-4.026-2.095-.75-1.333-.664-3.015.24-4.616l2.118-3.706a12.444 12.444 0 0 1 3.237 2.559L4.89 32.68a1.028 1.028 0 0 0 .172 1.208c.186.192.44.3.705.3h5.005a12.741 12.741 0 0 0-3.112-6.405 12.502 12.502 0 0 0-3.243-2.563l5.59-9.907a23.677 23.677 0 0 1 3.368 2.33 24.232 24.232 0 0 1 8.66 16.545h2.995A27.307 27.307 0 0 0 14.885 14.97a26.716 26.716 0 0 0-3.385-2.307l4.772-8.455c.9-1.601 2.282-2.521 3.783-2.521 1.502 0 2.882.92 3.785 2.523l15.463 27.425z" fill="#35495E"/></g></g><defs><clipPath id="a"><path fill="#fff" transform="translate(.5 .161)" d="M0 0h40v40H0z"/></clipPath><clipPath id="b"><path fill="#fff" transform="translate(.05 .02)" d="M0 0h40v40H0z"/></clipPath></defs></svg>