<svg width="26" height="24" fill="none" xmlns="http://www.w3.org/2000/svg"><path d="M25.514 19.55c.587 1.04.645 2.135.156 3-.487.867-1.44 1.362-2.617 1.362h-2.216c.026-.422.044-.847.044-1.275 0-.48-.022-.953-.054-1.424l1.458-.003a.656.656 0 0 0 .648-.663.68.68 0 0 0-.078-.316L13.566 3.758a.643.643 0 0 0-.883-.25.645.645 0 0 0-.235.235l-1.474 2.615c4.483 3.447 7.496 8.789 7.908 14.852.033.472.054.945.054 1.426 0 .428-.018.853-.043 1.274h-7.237c.088-.898.082-1.803-.016-2.7a13.043 13.043 0 0 0-4.317-8.381l-1.015 1.8a10.991 10.991 0 0 1 3.327 6.581c.06.467.094.943.094 1.426 0 .43-.028.856-.076 1.274H2.946c-1.176 0-2.13-.496-2.617-1.362-.488-.866-.431-1.96.156-3l1.377-2.409c.789.434 1.5.996 2.104 1.663l-.82 1.427a.668.668 0 0 0 .111.785.64.64 0 0 0 .458.195H6.97a8.282 8.282 0 0 0-2.023-4.163 8.129 8.129 0 0 0-2.108-1.666L6.47 8.94c.772.44 1.504.947 2.19 1.515A15.75 15.75 0 0 1 14.29 21.21h1.947A17.748 17.748 0 0 0 9.642 8.717a17.366 17.366 0 0 0-2.2-1.499l3.102-5.496C11.129.682 12.027.083 13.003.083s1.873.598 2.46 1.64L25.514 19.55z" fill="#D7DDE1"/></svg>