<svg width="39" height="41" viewBox="0 0 39 41" fill="none" xmlns="http://www.w3.org/2000/svg">
<path d="M19.5487 0.136719C21.9546 0.163797 24.4963 0.0284077 27.0108 0.475191C33.0594 1.53122 37.1642 5.64704 37.9118 11.726C38.5642 17.0468 38.4011 22.3676 36.7293 27.5259C34.4594 34.5932 29.7021 38.8579 22.24 39.9681C21.574 40.0629 20.8944 40.09 20.2148 40.117C19.9429 40.1306 19.5623 40.2253 19.4808 39.8327C19.3992 39.4807 19.7254 39.3453 19.9701 39.1828C20.3779 38.8985 20.7992 38.6413 21.1934 38.3299C22.6478 37.1791 23.572 35.6898 23.9254 33.8621C24.0613 33.1445 23.9662 33.0227 23.2322 33.0227C20.2419 33.0091 17.2517 33.0362 14.275 32.982C12.3449 32.9414 10.4556 32.5894 8.6614 31.8312C4.52937 30.0847 2.00122 26.9708 1.11773 22.6383C0.302201 18.5631 0.275017 14.4202 1.15851 10.345C2.36821 4.79409 6.70412 1.04382 12.3857 0.36688C14.7235 0.0961022 17.075 0.163797 19.5487 0.136719ZM19.3584 14.7316C23.1371 14.7316 26.9157 14.7316 30.6943 14.7316C31.673 14.7316 31.9176 14.5015 31.9312 13.5537C31.9448 12.6737 31.9448 11.7937 31.9312 10.9137C31.9176 9.96595 31.6594 9.73578 30.6943 9.72225C28.3021 9.72225 25.8963 9.72225 23.5041 9.72225C18.4206 9.72225 13.3235 9.72225 8.24004 9.72225C7.07111 9.72225 6.88082 9.92533 6.86723 11.1032C6.86723 11.8478 6.86723 12.5925 6.86723 13.3371C6.86723 14.5285 7.05752 14.7181 8.22645 14.7181C11.9371 14.7316 15.6478 14.7316 19.3584 14.7316ZM13.8128 18.4819C11.842 18.4819 9.8711 18.4819 7.91383 18.4819C7.15266 18.4819 6.88082 18.7527 6.86723 19.4973C6.85364 20.4721 6.85364 21.4334 6.86723 22.4082C6.88082 23.1799 7.15266 23.4777 7.94101 23.4777C11.8284 23.4913 15.7157 23.4913 19.6167 23.4777C20.3915 23.4777 20.6497 23.1799 20.6633 22.3811C20.6769 21.4605 20.6769 20.5398 20.6633 19.6056C20.6497 18.7256 20.405 18.4819 19.5216 18.4819C17.6186 18.4819 15.7157 18.4819 13.8128 18.4819Z" fill="#2499EF"/>
</svg>
