<svg width="26" height="26" viewBox="0 0 26 26" fill="none" xmlns="http://www.w3.org/2000/svg">
<path d="M5.66129 2.72324L12.974 1.94995L20.2867 2.72324L25.948 10.337L12.974 25.4338L0 10.337L5.66129 2.72324Z" fill="#FDB300"/>
<path d="M5.25535 10.3372L12.974 25.4339L0 10.3372H5.25535Z" fill="#EA6C00"/>
<path d="M20.6931 10.3372L12.9736 25.4339L25.9476 10.3372H20.6931Z" fill="#EA6C00"/>
<path d="M5.25488 10.3372H20.6922L12.9735 25.4339L5.25488 10.3372Z" fill="#FDAD00"/>
<path d="M12.9735 1.94995L5.66082 2.72324L5.25488 10.337L12.9735 1.94995Z" fill="#FDD231"/>
<path d="M12.9736 1.94995L20.2863 2.72324L20.6923 10.337L12.9736 1.94995Z" fill="#FDD231"/>
<path d="M25.9472 10.337L20.2859 2.72314L20.6926 10.337H25.9472ZM0 10.337L5.66129 2.72314L5.25536 10.337H0Z" fill="#FDAD00"/>
<path d="M12.9735 1.94995L5.25488 10.337H20.6922L12.9735 1.94995Z" fill="#FEEEB7"/>
</svg>
