<svg width="54" height="23" viewBox="0 0 54 23" fill="none" xmlns="http://www.w3.org/2000/svg">
<path d="M4.1961 8.70878C4.1961 8.13926 4.66346 7.92021 5.43754 7.92021C6.54753 7.92021 7.94963 8.25608 9.05963 8.85481V5.42307C7.8474 4.94116 6.64977 4.75132 5.43754 4.75132C2.47268 4.75132 0.500977 6.29926 0.500977 8.88402C0.500977 12.9145 6.05096 12.272 6.05096 14.0097C6.05096 14.6815 5.46675 14.9005 4.64886 14.9005C3.43662 14.9005 1.88847 14.404 0.661634 13.7323V17.2078C2.01992 17.792 3.39281 18.0402 4.64886 18.0402C7.68674 18.0402 9.77529 16.5361 9.77529 13.9221C9.76068 9.57037 4.1961 10.3443 4.1961 8.70878ZM14.0692 1.83069L10.5055 2.59005L10.4909 14.2872C10.4909 16.4485 12.1121 18.0402 14.2737 18.0402C15.4713 18.0402 16.3476 17.8212 16.8296 17.5583V14.5939C16.3622 14.7837 14.0546 15.4555 14.0546 13.2942V8.11005H16.8296V4.99958H14.0546L14.0692 1.83069ZM21.3718 6.08021L21.1381 4.99958H17.9834V17.7774H21.6347V9.11767C22.4964 7.99323 23.9569 8.19767 24.4097 8.35831V4.99958C23.9423 4.82434 22.2335 4.50307 21.3718 6.08021ZM25.3006 4.99958H28.9665V17.7774H25.3006V4.99958ZM25.3006 3.88973L28.9665 3.10116V0.136719L25.3006 0.910687V3.88973ZM36.5905 4.75132C35.1591 4.75132 34.239 5.42307 33.7278 5.89037L33.538 4.98497H30.3248V22.0123L33.9761 21.2383L33.9907 17.1056C34.5165 17.4853 35.2906 18.0256 36.5758 18.0256C39.1902 18.0256 41.5708 15.9228 41.5708 11.2935C41.5562 7.05862 39.1464 4.75132 36.5905 4.75132ZM35.7141 14.8129C34.8524 14.8129 34.3413 14.5062 33.9907 14.1266L33.9761 8.70878C34.3559 8.28529 34.8816 7.99323 35.7141 7.99323C37.0432 7.99323 37.9633 9.48275 37.9633 11.3958C37.9633 13.3526 37.0578 14.8129 35.7141 14.8129ZM53.0797 11.4396C53.0797 7.70116 51.2687 4.75132 47.8073 4.75132C44.3312 4.75132 42.2281 7.70116 42.2281 11.4104C42.2281 15.8059 44.711 18.0256 48.2746 18.0256C50.0126 18.0256 51.3271 17.6313 52.3203 17.0764V14.1558C51.3271 14.6523 50.1879 14.9589 48.742 14.9589C47.3253 14.9589 46.0692 14.4624 45.9086 12.7393H53.0505C53.0505 12.5494 53.0797 11.7901 53.0797 11.4396ZM45.8648 10.0523C45.8648 8.40212 46.8725 7.71577 47.7927 7.71577C48.6836 7.71577 49.6329 8.40212 49.6329 10.0523H45.8648Z" fill="#6772E5"/>
</svg>
