<svg viewBox="0 0 40 41" fill="none" xmlns="http://www.w3.org/2000/svg"><g clip-path="url(#clip0)"><path d="M39.291 21.33c0-1.36-.11-2.726-.345-4.064H20.08v7.702h10.803a9.258 9.258 0 01-3.998 6.078v4.997h6.445c3.785-3.484 5.96-8.628 5.96-14.713z" fill="#4285F4"/><path d="M20.08 40.871c5.395 0 9.944-1.77 13.258-4.828l-6.445-4.997c-1.793 1.22-4.108 1.91-6.805 1.91-5.218 0-9.642-3.52-11.23-8.252h-6.65v5.151A20.003 20.003 0 0020.08 40.871z" fill="#34A853"/><path d="M8.851 24.704a11.98 11.98 0 010-7.658v-5.151H2.208a20.017 20.017 0 000 17.96l6.643-5.151z" fill="#FBBC04"/><path d="M20.08 8.786a10.868 10.868 0 017.673 2.998l5.71-5.71A19.222 19.222 0 0020.08.871 19.996 19.996 0 002.209 11.895l6.643 5.151c1.58-4.74 6.012-8.26 11.23-8.26z" fill="#EA4335"/></g><defs><clipPath id="clip0"><path fill="#fff" transform="translate(.084 .871)" d="M0 0h39.206v40H0z"/></clipPath></defs></svg>