<svg width="41" height="41" viewBox="0 0 41 41" fill="none" xmlns="http://www.w3.org/2000/svg">
<g clip-path="url(#clip0_260_25256)">
<path d="M9.26246 0.289062H31.3325C32.4058 0.289062 33.4491 0.460729 34.4608 0.820729C35.9391 1.36157 37.2452 2.28943 38.2425 3.5074C39.2568 4.73465 39.9182 6.21471 40.1558 7.78906C40.2491 8.3674 40.2641 8.94573 40.2641 9.5224V31.1324C40.2641 31.8207 40.2325 32.5241 40.0925 33.1957C39.7782 34.7491 39.053 36.1897 37.9925 37.3674C36.9432 38.5387 35.5994 39.4077 34.1008 39.8841C33.1978 40.1594 32.2582 40.2959 31.3141 40.2891C30.8941 40.2891 9.19746 40.2891 8.8708 40.2724C7.26966 40.1927 5.72015 39.6801 4.38746 38.7891C3.08957 37.9061 2.04458 36.6997 1.3558 35.2891C0.767257 34.077 0.463416 32.7465 0.467463 31.3991V9.17906C0.434266 7.85605 0.71709 6.5442 1.29246 5.3524C1.96513 3.93481 3.00212 2.72124 4.29746 1.83573C5.61815 0.928246 7.16393 0.403374 8.76413 0.319062C8.91913 0.289062 9.08913 0.289062 9.26246 0.289062Z" fill="url(#paint0_linear_260_25256)"/>
<path d="M34.0246 33.0074C33.883 32.7842 33.7272 32.5704 33.5579 32.3674C33.1697 31.9019 32.7194 31.492 32.2196 31.1491C31.5994 30.7199 30.8726 30.4707 30.1196 30.4291C29.5883 30.4021 29.0574 30.4873 28.5612 30.6791C28.0621 30.8646 27.5784 31.0891 27.1146 31.3507C26.5714 31.6419 26.0152 31.9083 25.4479 32.1491C24.7646 32.4291 24.0479 32.6491 23.3162 32.8041C22.4027 32.9703 21.4746 33.0441 20.5462 33.0241C18.8796 32.9907 17.2162 32.7407 15.6296 32.2741C14.2327 31.8548 12.8901 31.2725 11.6296 30.5391C10.5306 29.9017 9.49285 29.1641 8.52958 28.3357C7.74377 27.6528 7.00591 26.9167 6.32125 26.1324C5.85458 25.5857 5.40292 25.0074 4.98292 24.4141C4.81292 24.1791 4.65708 23.9342 4.51625 23.6807L0.40625 19.2257V9.14906C0.40625 4.25573 4.34458 0.289062 9.21625 0.289062H17.0763L22.8962 6.2274C36.0329 15.1941 31.7829 25.0857 31.7829 25.0857C31.7829 25.0857 35.5196 29.3041 34.0246 33.0074Z" fill="url(#paint1_linear_260_25256)"/>
<path d="M22.9273 6.22742C36.064 15.1941 31.814 25.0858 31.814 25.0858C31.814 25.0858 35.549 29.3191 34.0406 33.0241C34.0406 33.0241 32.499 30.4291 29.9156 30.4291C27.4256 30.4291 25.9623 33.0241 20.949 33.0241C9.79063 33.0241 4.51562 23.6641 4.51562 23.6641C14.569 30.3041 21.4323 25.6008 21.4323 25.6008C16.9056 22.9624 7.26896 10.3358 7.26896 10.3358C15.659 17.5074 19.2856 19.3991 19.2856 19.3991C17.1223 17.6008 11.0523 8.82075 11.0523 8.82075C15.9056 13.7558 25.5556 20.6491 25.5556 20.6491C28.2956 13.0241 22.9256 6.22742 22.9256 6.22742H22.9273Z" fill="white"/>
</g>
<defs>
<linearGradient id="paint0_linear_260_25256" x1="24.1072" y1="-1.13815" x2="16.5057" y2="41.7082" gradientUnits="userSpaceOnUse">
<stop stop-color="#FAAE42"/>
<stop offset="1" stop-color="#EF3E31"/>
</linearGradient>
<linearGradient id="paint1_linear_260_25256" x1="20.7351" y1="0.935315" x2="15.6078" y2="32.3675" gradientUnits="userSpaceOnUse">
<stop stop-color="#E39F3A"/>
<stop offset="1" stop-color="#D33929"/>
</linearGradient>
<clipPath id="clip0_260_25256">
<rect width="40" height="40" fill="white" transform="translate(0.40625 0.289062)"/>
</clipPath>
</defs>
</svg>
