<svg width="40" height="41" viewBox="0 0 40 41" fill="none" xmlns="http://www.w3.org/2000/svg">
<g clip-path="url(#clip0)">
<path d="M14.349 1.70514C13.7996 1.42957 13.2196 1.2198 12.621 1.08019C4.59045 -0.82591 -1.3778 7.04847 1.90317 14.2042C1.93442 14.2354 7.74644 26.9844 8.68386 29.0155C8.68386 29.0155 19.3705 24.1096 21.5578 19.0788C23.5826 14.3917 20.1673 5.83607 19.5423 4.55179L14.349 1.70514Z" fill="url(#paint0_linear)"/>
<path d="M38.494 15.9262C37.8156 14.8862 36.893 14.028 35.8068 13.4264C35.7755 13.4264 28.2761 9.30176 28.2761 9.30176C28.2761 9.30176 2.52811 24.2286 2.49999 24.2692C-0.406036 27.5814 -1.06223 32.831 2.28125 37.3931C3.28927 38.7649 4.71441 39.7735 6.34344 40.2679C9.37445 41.2053 12.0617 40.8303 14.3116 39.6429C14.3741 39.6117 35.4662 28.4251 35.5287 28.3626C39.6502 26.2066 41.5594 20.707 38.494 15.9262Z" fill="#0CB0F2"/>
<path d="M12.0057 12.6484L5.13122 21.0853L2.46581 24.2694C-0.440215 27.5816 -1.09641 32.8312 2.24707 37.3933C3.25509 38.7652 4.68023 39.7738 6.30926 40.2681C9.34027 41.2055 12.0588 40.8306 14.3086 39.6431C14.3086 39.6431 14.8398 39.3619 15.746 38.862C18.602 37.3183 22.5424 26.941 25.2297 18.9167L12.0057 12.6484Z" fill="url(#paint1_linear)"/>
<path d="M22.8107 20.7695L28.2759 9.22978C28.2759 9.2215 28.2792 9.21355 28.2851 9.20769C28.2909 9.20183 28.2989 9.19854 28.3072 9.19854C28.3384 9.10479 28.7759 7.97988 28.8071 7.91739C29.1284 7.10669 29.2451 6.22938 29.147 5.36289C29.0489 4.4964 28.739 3.66739 28.2447 2.94903C27.6143 1.95104 26.6144 1.24325 25.4636 0.98043C24.4964 0.723048 23.4749 0.754562 22.5253 1.07108C21.5758 1.3876 20.7397 1.97527 20.1203 2.76154C20.0891 2.79279 18.9017 4.16768 18.9017 4.16768L10.1523 14.9481L22.8107 20.7695Z" fill="url(#paint2_linear)"/>
<path d="M7.49609 8.27051H32.4941V33.2686H7.49609V8.27051Z" fill="url(#paint3_linear)"/>
<path d="M13.3708 13.8012H9.99609V11.6138H19.1516V13.8012H15.8081V22.4224H13.3708V13.8012ZM19.1516 17.0416C19.1516 13.9168 21.4639 11.3857 24.8074 11.3857C26.8385 11.3857 28.0884 12.0732 29.0884 13.0731L27.5572 14.823C26.7135 14.073 25.8699 13.6043 24.7762 13.6043C22.9638 13.6043 21.6202 15.1354 21.6202 16.9791V17.0103C21.6202 18.8852 22.9013 20.4163 24.7762 20.4163C26.0261 20.4163 26.776 19.9163 27.6197 19.1351L29.1508 20.6663C28.0259 21.8537 26.8073 22.6036 24.7137 22.6036C23.9787 22.6203 23.248 22.4878 22.5656 22.2142C21.8833 21.9405 21.2635 21.5315 20.7436 21.0116C20.2238 20.4918 19.8147 19.872 19.5411 19.1896C19.2675 18.5073 19.135 17.7765 19.1516 17.0416ZM9.99609 28.2688H19.1516V29.9249H9.99609V28.2688Z" fill="white"/>
</g>
<defs>
<linearGradient id="paint0_linear" x1="20.8516" y1="25.1127" x2="8.24943" y2="9.5421" gradientUnits="userSpaceOnUse">
<stop offset="0.06" stop-color="#0CB0F2"/>
<stop offset="0.21" stop-color="#10ADF2"/>
<stop offset="0.37" stop-color="#1EA5F3"/>
<stop offset="0.54" stop-color="#3497F5"/>
<stop offset="0.71" stop-color="#5283F7"/>
<stop offset="0.88" stop-color="#796AF9"/>
<stop offset="0.97" stop-color="#905CFB"/>
</linearGradient>
<linearGradient id="paint1_linear" x1="6.53111" y1="38.7026" x2="12.8462" y2="24.0975" gradientUnits="userSpaceOnUse">
<stop offset="0.06" stop-color="#0CB0F2"/>
<stop offset="0.2" stop-color="#0DB2EE"/>
<stop offset="0.35" stop-color="#12B7E0"/>
<stop offset="0.51" stop-color="#19C0CA"/>
<stop offset="0.68" stop-color="#23CCAC"/>
<stop offset="0.85" stop-color="#30DC85"/>
<stop offset="0.97" stop-color="#3BEA62"/>
</linearGradient>
<linearGradient id="paint2_linear" x1="935.313" y1="-12872.5" x2="1732.19" y2="-11898.1" gradientUnits="userSpaceOnUse">
<stop offset="0.06" stop-color="#0CB0F2"/>
<stop offset="0.2" stop-color="#0DB2EE"/>
<stop offset="0.35" stop-color="#12B7E0"/>
<stop offset="0.51" stop-color="#19C0CA"/>
<stop offset="0.68" stop-color="#23CCAC"/>
<stop offset="0.85" stop-color="#30DC85"/>
<stop offset="0.97" stop-color="#3BEA62"/>
</linearGradient>
<linearGradient id="paint3_linear" x1="19.9951" y1="8.57673" x2="19.9951" y2="33.5748" gradientUnits="userSpaceOnUse">
<stop/>
<stop offset="1"/>
</linearGradient>
<clipPath id="clip0">
<rect width="40" height="40" fill="white" transform="translate(0 0.792969)"/>
</clipPath>
</defs>
</svg>
