<svg width="40" height="41" viewBox="0 0 40 41" fill="none" xmlns="http://www.w3.org/2000/svg">
<path d="M16.866 32.1389C17.9114 35.9988 21.647 38.945 23.5331 38.828C23.5989 38.828 30.6901 37.4975 34.572 30.9985C37.5912 25.9396 36.5678 21.0562 32.4593 20.9465C30.9972 21.0562 14.9141 24.7845 16.866 32.1389Z" fill="url(#paint0_linear_160_14633)"/>
<path d="M32.0718 7.34158C29.4859 5.13633 26.3287 3.70794 22.9652 3.22152C19.6017 2.73511 16.1692 3.21053 13.0645 4.59283C12.6708 4.75687 12.2875 4.94486 11.9167 5.15574C11.6682 5.28733 11.4123 5.42622 11.1857 5.57243H11.2515C10.5141 6.07718 9.86461 6.69954 9.32883 7.41468C4.17493 14.2354 21.5008 19.2211 30.7778 19.2358C35.0472 22.3062 36.2461 10.5947 32.0718 7.34158Z" fill="url(#paint1_linear_160_14633)"/>
<path d="M14.1173 7.48047C11.734 11.0699 3.79485 13.5994 2.48627 13.2046L2.6471 12.8756C3.09113 11.9924 3.60191 11.1444 4.17499 10.3389C5.33856 8.77471 6.73097 7.39462 8.30542 6.245C8.79166 5.8777 9.29678 5.53607 9.8187 5.22153C10.6193 4.76381 11.5212 4.51258 12.4432 4.49048C15.9814 4.55627 14.1319 7.41468 14.1173 7.41468" fill="url(#paint2_linear_160_14633)"/>
<path d="M12.158 32.848C12.3335 33.9738 12.158 38.4259 11.9241 38.806C11.7267 38.806 11.3173 38.8426 10.1184 38.17C9.49023 37.813 8.88474 37.4174 8.30537 36.9857C7.52695 36.409 6.79376 35.7735 6.11222 35.085C5.4218 34.4052 4.78624 33.6719 4.21149 32.8918C3.04072 31.3036 2.13014 29.5392 1.51392 27.6648C1.19099 26.7116 0.946491 25.7337 0.782867 24.7406C0.451447 22.6948 0.451447 20.6091 0.782867 18.5633C0.94818 17.5706 1.19264 16.5927 1.51392 15.6391C1.5724 15.449 1.6382 15.2589 1.7113 15.0688C3.07836 16.8965 4.6355 18.5486 6.01718 20.3909C7.39887 22.2331 9.06566 25.0111 9.42388 25.6252C11.617 29.4194 12.0118 31.766 12.1799 32.8918" fill="url(#paint3_linear_160_14633)"/>
<path d="M38.5343 21.6189C38.5368 24.0134 38.0879 26.3869 37.2111 28.6151C34.9741 31.0202 19.8779 25.0914 19.7317 25.0256C17.6628 24.1191 11.3831 21.3704 10.8129 17.0279C10.0233 10.7921 22.6193 6.44964 28.168 6.28149C28.8333 6.28149 30.8583 6.28149 32.0352 7.27572C34.0805 9.06328 35.7189 11.2684 36.84 13.7426C37.9611 16.2168 38.5388 18.9026 38.5343 21.6189Z" fill="url(#paint4_linear_160_14633)"/>
<path d="M28.2996 38.5063C26.6547 39.2813 24.8417 38.7183 25.3169 37.11C26.2161 34.0323 34.0895 30.8669 35.8513 30.6987C36.0633 30.6987 36.1584 30.823 36.0633 30.9912C34.2457 34.1859 31.5517 36.7936 28.2996 38.5063Z" fill="url(#paint5_linear_160_14633)"/>
<defs>
<linearGradient id="paint0_linear_160_14633" x1="26.5085" y1="38.828" x2="26.5085" y2="20.9465" gradientUnits="userSpaceOnUse">
<stop stop-color="#4366C2"/>
<stop offset="0.15" stop-color="#3458B8"/>
<stop offset="0.4" stop-color="#2348AC"/>
<stop offset="0.67" stop-color="#193FA5"/>
<stop offset="1" stop-color="#163CA3"/>
</linearGradient>
<linearGradient id="paint1_linear_160_14633" x1="21.5227" y1="19.7402" x2="21.5227" y2="3.02838" gradientUnits="userSpaceOnUse">
<stop stop-color="#4366C2"/>
<stop offset="0.15" stop-color="#3458B8"/>
<stop offset="0.4" stop-color="#2348AC"/>
<stop offset="0.67" stop-color="#193FA5"/>
<stop offset="1" stop-color="#163CA3"/>
</linearGradient>
<linearGradient id="paint2_linear_160_14633" x1="2.47896" y1="8.8914" x2="14.6144" y2="8.8914" gradientUnits="userSpaceOnUse">
<stop stop-color="#58C66B"/>
<stop offset="1" stop-color="#5491F6"/>
</linearGradient>
<linearGradient id="paint3_linear_160_14633" x1="0.51969" y1="26.9192" x2="12.2311" y2="26.9192" gradientUnits="userSpaceOnUse">
<stop stop-color="#58C66B"/>
<stop offset="1" stop-color="#5491F6"/>
</linearGradient>
<linearGradient id="paint4_linear_160_14633" x1="10.7763" y1="17.737" x2="38.5343" y2="17.737" gradientUnits="userSpaceOnUse">
<stop stop-color="#58C66B"/>
<stop offset="1" stop-color="#5491F6"/>
</linearGradient>
<linearGradient id="paint5_linear_160_14633" x1="25.2511" y1="34.7707" x2="36.1145" y2="34.7707" gradientUnits="userSpaceOnUse">
<stop stop-color="#58C66B"/>
<stop offset="1" stop-color="#5491F6"/>
</linearGradient>
</defs>
</svg>
