<svg width="41" height="41" viewBox="0 0 41 41" fill="none" xmlns="http://www.w3.org/2000/svg">
<path d="M20.501 0.136719C9.43431 0.136719 0.500977 9.07005 0.500977 20.1367C0.500977 31.2034 9.43431 40.1367 20.501 40.1367C31.5676 40.1367 40.501 31.2034 40.501 20.1367C40.501 9.07005 31.5676 0.136719 20.501 0.136719ZM20.501 34.8034C12.3676 34.8034 5.83431 28.2701 5.83431 20.1367C5.83431 12.0034 12.3676 5.47005 20.501 5.47005C28.6343 5.47005 35.1676 12.0034 35.1676 20.1367C35.1676 28.2701 28.6343 34.8034 20.501 34.8034ZM29.5676 15.2034C29.5676 17.4701 27.701 19.3367 25.4343 19.3367C23.1676 19.3367 21.301 17.4701 21.301 15.2034C21.301 12.9367 23.1676 11.0701 25.4343 11.0701C27.701 11.0701 29.5676 12.9367 29.5676 15.2034ZM29.5676 25.0701C29.5676 27.3367 27.701 29.2034 25.4343 29.2034C23.1676 29.2034 21.301 27.3367 21.301 25.0701C21.301 22.8034 23.1676 20.9367 25.4343 20.9367C27.701 20.9367 29.5676 22.8034 29.5676 25.0701ZM19.701 25.0701C19.701 27.3367 17.8343 29.2034 15.5676 29.2034C13.301 29.2034 11.4343 27.3367 11.4343 25.0701C11.4343 22.8034 13.301 20.9367 15.5676 20.9367C17.8343 20.9367 19.701 22.8034 19.701 25.0701ZM19.701 15.2034C19.701 17.4701 17.8343 19.3367 15.5676 19.3367C13.301 19.3367 11.4343 17.4701 11.4343 15.2034C11.4343 12.9367 13.301 11.0701 15.5676 11.0701C17.8343 11.0701 19.701 12.9367 19.701 15.2034Z" fill="#F22F46"/>
</svg>
