<svg width="38" height="41" viewBox="0 0 38 41" fill="none" xmlns="http://www.w3.org/2000/svg">
<g clip-path="url(#clip0_84_3315)">
<path d="M18.8586 0.423828L8.92419 7.75718L15.6617 12.7244L16.2805 13.1713L16.269 13.177L16.9393 13.6697L24.8971 7.7801L18.7154 3.21967L12.631 7.72853L16.9393 10.9025L21.2706 7.67697L18.7841 5.84363V5.33374L18.7956 5.31655L21.7518 7.5051L21.981 7.67697L21.7518 7.84885L17.0768 11.3379L16.9508 11.4296L16.819 11.3379L12.144 7.90041L11.9091 7.72853L12.1383 7.55666L18.5836 2.77852L18.7096 2.68685L18.8414 2.77852L25.3784 7.60822L25.6133 7.7801L25.3841 7.95197L17.0768 14.1108L16.9508 14.2025L16.819 14.1108L15.9023 13.4348L15.2377 13.8931L14.3153 14.5921L16.8419 16.4999L28.7643 7.66551L18.8586 0.423828Z" fill="black"/>
<path d="M16.5312 8.53608L16.5527 8.08485L15.5643 7.6123V7.82726L16.5312 8.53631V8.53608Z" fill="white"/>
<path d="M17.4226 8.53608L17.4011 8.08485L18.3893 7.6123V7.82726L17.4226 8.53608Z" fill="white"/>
<path opacity="0.75" d="M26.6045 9.80811L24.7253 11.2003L28.8216 14.3915L29.0451 14.5633L28.8216 14.7237L16.8362 23.604L16.7044 23.7071L16.5784 23.604L13.7539 21.5071L11.5768 23.1055L16.607 26.8467L33.0842 14.6493L26.6045 9.80811ZM11.3247 10.0602L11.3133 10.0659L5.10857 14.5576L6.66117 15.7149L16.7044 23.1686L28.3347 14.5519L24.3701 11.4638L16.9565 16.9467L16.8247 17.0441L16.6987 16.9467L13.8112 14.7753L13.582 14.6034L13.8112 14.4316L15.5128 13.1482L11.3247 10.0602Z" fill="black"/>
<path opacity="0.5" d="M8.08773 17.3081L0.141357 23.1519L15.9253 34.7878L31.7435 23.0774L27.1029 19.6227L16.7445 27.2883L16.6128 27.38L16.481 27.2883L11.0898 23.2779L10.8549 23.106L11.0898 22.9284L13.3815 21.2326L8.08773 17.3081ZM29.9961 17.4857L27.4638 19.3592L32.2305 22.9055L32.4654 23.0774L32.2305 23.2493L16.2919 35.0571L19.0477 37.091L37.8566 23.2435L29.9961 17.4857Z" fill="black"/>
</g>
<defs>
<clipPath id="clip0_84_3315">
<rect width="37.7173" height="40" fill="white" transform="translate(0.141357 0.423828)"/>
</clipPath>
</defs>
</svg>
