<svg fill="none" xmlns="http://www.w3.org/2000/svg" viewBox="0 0 40 41"><g clip-path="url(#clip0)"><path d="M39.7 20.72a19.7 19.7 0 11-39.4 0 19.7 19.7 0 0139.4 0z" fill="#F47421"/><path d="M25.38 11.4a2.63 2.63 0 102.63-4.56 2.63 2.63 0 00-2.63 4.56zM20 28.4a7.65 7.65 0 01-3.24-.7l-1.82 3.27a11.38 11.38 0 008.11.76 3.69 3.69 0 014.96-2.86 11.4 11.4 0 003.4-7.41l-3.76-.06a7.68 7.68 0 01-7.65 7zm0-15.36c4.01 0 7.3 3.08 7.65 7L31.4 20a11.4 11.4 0 00-3.4-7.42 3.69 3.69 0 01-4.95-2.86 11.43 11.43 0 00-8.11.77l1.82 3.27a7.65 7.65 0 013.24-.71zm-7.68 7.68c0-2.6 1.29-4.9 3.26-6.28l-1.92-3.22a11.45 11.45 0 00-4.72 6.64 3.69 3.69 0 010 5.73c.7 2.75 2.42 5.1 4.72 6.64l1.92-3.22a7.67 7.67 0 01-3.26-6.29zm13.06 9.33a2.63 2.63 0 102.63 4.55 2.63 2.63 0 00-2.63-4.55zM6.6 18.09a2.63 2.63 0 100 5.26 2.63 2.63 0 000-5.26z" fill="#fff"/></g><defs><clipPath id="clip0"><path fill="#fff" transform="translate(0 .72)" d="M0 0h40v40H0z"/></clipPath></defs></svg>