<svg width="60" height="20" viewBox="0 0 60 20" fill="none" xmlns="http://www.w3.org/2000/svg">
<path d="M0.0145874 6.93555L0.0146273 14.8641C0.0146273 14.8641 -0.0425436 19.3784 4.17177 19.2783C4.82894 19.2498 7.25748 19.364 7.85748 17.4783C7.85748 17.4355 7.85748 18.9355 7.85748 18.9355H10.7718L10.7771 6.93555H7.8628L7.85748 14.3498C7.85748 14.3498 7.9432 17.0069 5.45748 16.8783C2.97177 16.7498 3.01463 14.5641 3.01463 14.5641L3.00031 6.93555H0.0145874Z" fill="#AEC84D"/>
<path d="M15.5145 19.2499H16.7145L20.6288 9.56423L24.543 19.2214H25.743L30.6002 1.33566L27.6574 0.592773L24.7145 11.6499L21.2288 2.93569H20.0002L16.6288 11.5642L13.6002 0.592773L10.6859 1.33566L15.5145 19.2499Z" fill="#141215"/>
<path d="M30.5139 15.1914C30.5139 15.1914 31.2567 17.4201 32.4853 18.22C33.7138 19.02 35.7995 19.3342 36.7995 19.3057C37.7995 19.2771 42.8853 19.1914 42.9424 14.4771C43.3709 12.0771 41.2852 10.3342 40.7138 9.99137C40.1423 9.64851 38.2852 8.44851 36.7995 8.01994C35.3138 7.59137 33.8566 6.64851 33.7424 5.90571C33.6281 5.16291 33.7424 2.99142 36.9424 2.9628C39.1709 3.19148 39.2567 4.13434 39.5995 4.64862L40.1995 5.87708L42.6566 4.73434C42.6566 4.73434 41.6851 2.42005 41.4566 2.22C41.2281 2.01994 40.3138 0.591425 36.7138 0.620053C33.1138 0.64851 30.9996 2.13428 30.8567 4.70571C30.7138 7.27714 31.2566 8.47714 33.8852 10.0771C35.5138 10.9629 37.2282 11.1628 38.9995 12.5057C40.2281 13.5057 39.971 14.6487 39.9424 15.1343C39.9137 15.62 39.3137 16.9914 36.828 16.8771C34.3423 16.7629 33.8567 15.7629 33.6853 15.4772C33.5138 15.1914 32.9138 14.02 32.9138 14.02L30.5139 15.1914Z" fill="#141215"/>
<path d="M59.9999 0.907715H56.9714V19.022H59.9999V0.907715Z" fill="#141215"/>
<path d="M50.6005 9.36394V11.7353H52.9433V16.5353C52.9433 16.5353 52.2289 16.964 50.6575 16.9068C49.0861 16.8496 46.6005 17.0496 46.4005 9.90676C46.2004 2.76394 49.6005 2.99245 50.0005 2.99245C50.4004 2.99245 52.4004 3.02108 53.429 5.84965C53.4576 5.87819 55.8862 4.70674 55.8862 4.70674C55.8862 4.70674 54.829 0.392479 50.1433 0.621079C45.4577 0.849593 43.6577 3.27814 43.4006 9.36394C43.1434 15.4496 45.2862 19.4211 50.4005 19.2211C55.5148 19.021 55.8862 18.5924 55.8862 18.5924L55.879 9.37105L50.6005 9.36394Z" fill="#141215"/>
<path d="M40.7436 4.88045C41.2959 4.88045 41.7436 4.43272 41.7436 3.88041C41.7436 3.3281 41.2959 2.88037 40.7436 2.88037C40.1913 2.88037 39.7436 3.3281 39.7436 3.88041C39.7436 4.43272 40.1913 4.88045 40.7436 4.88045Z" fill="#AEC84D"/>
<path d="M40.7431 4.17861C40.9087 4.17861 41.0431 4.0443 41.0431 3.87861C41.0431 3.71293 40.9087 3.57861 40.7431 3.57861C40.5774 3.57861 40.4431 3.71293 40.4431 3.87861C40.4431 4.0443 40.5774 4.17861 40.7431 4.17861Z" fill="#252326"/>
<path d="M3.01284 13.6638L3.00024 6.93555H0.0145569V14.7253C0.8693 14.2512 1.88827 13.8857 3.01284 13.6638Z" fill="black"/>
<path d="M10.7768 6.93555H7.86255L7.85767 13.6232C8.93818 13.8164 9.92689 14.1412 10.7734 14.5677L10.7768 6.93555Z" fill="black"/>
<path opacity="0.1" d="M0.0146273 14.8659C0.0146273 14.8659 -0.0425436 19.3803 4.17177 19.2802C4.82894 19.2517 7.25748 19.366 7.85748 17.4802C7.85748 17.4374 7.85748 18.9374 7.85748 18.9374H10.7718L10.7737 14.5695C9.92723 14.143 8.93851 13.8182 7.858 13.625L7.85748 14.3516C7.85748 14.3516 7.9432 17.0088 5.45748 16.8802C2.97177 16.7516 3.01463 14.5659 3.01463 14.5659L3.01291 13.6655C1.88834 13.8875 0.86937 14.253 0.0146273 14.727V14.8659Z" fill="white"/>
<path d="M25.4477 8.89401L24.7142 11.6497L23.5232 8.67218C21.5612 8.42207 19.7456 8.11298 18.1171 7.75436L16.6286 11.564L15.3835 7.05364C13.9778 6.63398 12.7875 6.16976 11.8542 5.6709L15.5143 19.2498H16.7143L20.6286 9.56404L24.5429 19.2212H25.7429L28.477 9.1533C27.4394 9.08173 26.4283 8.99498 25.4477 8.89401Z" fill="black"/>
<path opacity="0.1" d="M30.6 1.33566L27.6573 0.592773L25.448 8.8942C26.4285 8.99517 27.4397 9.08192 28.4771 9.15349L30.6 1.33566Z" fill="white"/>
<path opacity="0.1" d="M13.6003 0.592773L10.6859 1.33566L11.8545 5.67109C12.7879 6.16995 13.9781 6.63417 15.3838 7.05383L13.6003 0.592773Z" fill="white"/>
<path opacity="0.1" d="M21.2291 2.93408H20.0005L18.1176 7.75297C19.7462 8.11169 21.5618 8.42069 23.5237 8.67081L21.2291 2.93408Z" fill="white"/>
<path opacity="0.1" d="M36.7141 0.620053C33.1142 0.64851 31 2.13428 30.8571 4.70571C30.7363 6.87865 31.1054 8.07222 32.8088 9.35545C33.7213 9.37902 34.6475 9.39137 35.5855 9.39137C36.9484 9.39137 38.2867 9.36574 39.5931 9.31662C38.7818 8.84639 37.7198 8.28531 36.7998 8.01994C35.3142 7.59137 33.857 6.64851 33.7427 5.90571C33.6284 5.16291 33.7428 2.99142 36.9427 2.9628C39.1713 3.19148 39.257 4.13434 39.5998 4.64862L40.1998 5.87708L42.6569 4.73434C42.6569 4.73434 41.6854 2.42005 41.4569 2.22C41.2284 2.01994 40.3141 0.591425 36.7141 0.620053Z" fill="white"/>
<path opacity="0.1" d="M50.1434 0.621079C45.526 0.84625 43.7109 3.20811 43.413 9.10079C44.437 9.02228 45.4338 8.92877 46.3991 8.82137C46.5573 2.78905 49.6222 2.99245 50.0007 2.99245C50.4007 2.99245 52.4007 3.02108 53.4293 5.84965C53.4578 5.87819 55.8863 4.70674 55.8863 4.70674C55.8863 4.70674 54.8291 0.392479 50.1434 0.621079Z" fill="white"/>
<path opacity="0.1" d="M56.9714 6.67252C58.2074 6.24112 59.2293 5.77072 59.9999 5.27023V0.907715H56.9714V6.67252Z" fill="white"/>
</svg>
