<svg width="41" height="41" viewBox="0 0 41 41" fill="none" xmlns="http://www.w3.org/2000/svg">
<path d="M30.3427 20.3962C30.0883 20.8472 29.8339 21.302 29.5718 21.753C28.9667 22.8014 28.3615 23.8498 27.7564 24.8943C27.1127 26.0083 26.4728 27.1261 25.8253 28.2362C25.6634 28.5137 25.5246 28.8066 25.3319 29.0687C25.1353 28.8606 25.0274 28.5946 24.8886 28.3556C24.1062 27.0066 23.3276 25.6575 22.549 24.3046C21.8822 23.1483 21.2115 21.9919 20.5485 20.8356C20.4868 20.7277 20.429 20.612 20.3327 20.4964C20.0744 20.9435 19.8239 21.3752 19.5733 21.8108C18.7292 23.2678 17.8928 24.7248 17.0525 26.1779C16.5013 27.1338 15.9424 28.0858 15.399 29.0456C15.3874 29.0687 15.372 29.088 15.3527 29.1034C14.8439 28.267 14.366 27.4113 13.8803 26.5633C13.3368 25.6151 12.7856 24.6708 12.2383 23.7264C11.61 22.6395 10.9818 21.5525 10.3535 20.4694C10.3458 20.4579 10.3458 20.4463 10.3458 20.4309C10.2918 20.3422 10.3458 20.2729 10.3882 20.1996C10.8893 19.3131 11.4096 18.4343 11.9145 17.5478C12.7664 16.0599 13.6298 14.5837 14.4816 13.0959C14.7206 12.6796 14.9634 12.2633 15.2062 11.847C15.2409 11.7892 15.2679 11.716 15.3527 11.7083C15.4491 11.7507 15.4838 11.8432 15.53 11.928C16.4243 13.4852 17.3262 15.0424 18.2243 16.5996C18.8795 17.7405 19.5425 18.8775 20.1939 20.0185C20.3558 20.3037 20.3365 20.2806 20.483 20.0339C21.5661 18.1606 22.6492 16.2873 23.7284 14.4141C24.2141 13.57 24.7075 12.7258 25.1931 11.8778C25.3165 11.662 25.382 11.6659 25.5054 11.8778C27.0124 14.4989 28.5311 17.1122 30.0382 19.7332C30.1307 19.8951 30.2348 20.0493 30.3196 20.215C30.3388 20.2729 30.3812 20.3268 30.3427 20.3962Z" fill="#616161"/>
<path d="M30.3428 20.3959C30.1462 20.0452 29.9573 19.6906 29.7569 19.3398C29.2944 18.5342 28.828 17.7325 28.3616 16.9308C27.61 15.6357 26.8583 14.3406 26.1106 13.0416C25.86 12.6099 25.6172 12.1744 25.3551 11.7157C25.1624 11.9701 25.039 12.2322 24.8926 12.4827C24.087 13.8665 23.2853 15.2502 22.4874 16.6378C21.7974 17.8366 21.1075 19.0353 20.4214 20.2341C20.3597 20.3458 20.3327 20.3497 20.2634 20.2341C19.6351 19.1355 18.9991 18.037 18.367 16.9385C17.7271 15.8284 17.0796 14.726 16.4397 13.616C16.0736 12.9838 15.7151 12.3478 15.3528 11.7157C15.3412 11.708 15.3374 11.6964 15.3412 11.6887C15.3451 11.681 15.3489 11.6772 15.3528 11.6772C15.8038 10.8947 16.2547 10.1122 16.7057 9.32594C17.2338 8.40473 17.7618 7.48737 18.2937 6.57C18.9297 5.46763 19.5696 4.36526 20.2056 3.26288C20.3327 3.04318 20.3366 3.03932 20.4561 3.24746C20.9996 4.18795 21.543 5.13229 22.0865 6.07278C23.1504 7.91521 24.2142 9.75379 25.278 11.5962C25.2973 11.6309 25.3089 11.6695 25.3628 11.681C25.8099 10.9101 26.257 10.1354 26.708 9.35678C27.8836 7.32162 29.0592 5.28262 30.2348 3.24746C30.2618 3.19736 30.285 3.14339 30.3119 3.09329C30.3274 3.0586 30.3543 3.06245 30.3852 3.07016C30.5625 3.25132 30.6588 3.48644 30.7822 3.70229C31.7304 5.34814 32.6824 6.99014 33.6306 8.63599C34.1741 9.57648 34.7176 10.5131 35.2572 11.4536C35.3035 11.5345 35.3767 11.6078 35.3574 11.7157C35.0221 12.3054 34.6867 12.8952 34.3476 13.4849C33.6884 14.6297 33.0255 15.7744 32.3664 16.9192C31.7034 18.0678 31.0404 19.2165 30.3736 20.369C30.362 20.3805 30.3505 20.3882 30.3428 20.3959Z" fill="#777777"/>
<path d="M15.3489 29.107C15.3604 28.9181 15.4953 28.7832 15.5801 28.629C16.0812 27.7502 16.59 26.8752 17.0949 26.0003C17.5421 25.2294 17.9853 24.4623 18.4324 23.6915C18.9335 22.8203 19.4385 21.9492 19.9395 21.082C20.0667 20.8623 20.1939 20.6387 20.3365 20.3882C20.5293 20.7197 20.7066 21.0242 20.8839 21.3325C21.3927 22.2152 21.9015 23.094 22.4102 23.9767C22.9113 24.8478 23.4124 25.7189 23.9135 26.59C24.3722 27.384 24.827 28.1742 25.2857 28.9682C25.3049 28.999 25.3165 29.0376 25.3281 29.0723C25.1161 29.4539 24.9041 29.8355 24.6882 30.2132C24.0869 31.2578 23.4856 32.2985 22.8805 33.3392C22.2753 34.3876 21.6663 35.4321 21.0612 36.4805C20.8222 36.8968 20.5871 37.317 20.3288 37.7679C20.1477 37.4519 19.9781 37.1589 19.8123 36.866C19.265 35.9216 18.7177 34.9812 18.1742 34.033C17.5999 33.0385 17.0333 32.0441 16.459 31.0496C16.1043 30.4329 15.7459 29.82 15.3874 29.2072C15.3759 29.1725 15.3489 29.1455 15.3489 29.107Z" fill="#4D4D4D"/>
<path d="M15.3492 11.6854C15.3492 11.6969 15.3492 11.7123 15.3492 11.7239C15.0832 12.0978 14.8751 12.5102 14.6438 12.9072C13.8883 14.1985 13.1406 15.4974 12.3928 16.7925C11.7183 17.9604 11.0476 19.1322 10.3731 20.3039C10.3499 20.3463 10.3422 20.3887 10.3422 20.4311C10.0531 19.9416 9.7602 19.4521 9.47497 18.9587C8.95077 18.0529 8.42656 17.1433 7.90621 16.2336C7.07365 14.7882 6.24108 13.3428 5.40467 11.8974C5.37383 11.8395 5.33914 11.7894 5.33143 11.7239C5.30445 11.6545 5.34685 11.6006 5.38154 11.5466C6.37984 9.82366 7.37429 8.09301 8.3726 6.37007C8.97389 5.32551 9.57904 4.28481 10.1803 3.24025C10.215 3.17858 10.2382 3.1092 10.3114 3.07837C10.3422 3.07451 10.3692 3.07066 10.3808 3.10535C10.5658 3.50236 10.8048 3.86853 11.0245 4.25012C11.6296 5.3101 12.2425 6.36622 12.8515 7.42234C13.4913 8.52857 14.1312 9.6348 14.771 10.7372C14.9329 11.0185 15.0948 11.2961 15.2605 11.5774C15.2759 11.6198 15.2913 11.6738 15.3492 11.6854Z" fill="#777777"/>
<path d="M10.2994 3.08622C9.94098 3.77231 9.53626 4.43142 9.15082 5.10595C8.50327 6.23916 7.84416 7.36852 7.19275 8.49787C6.57219 9.57326 5.95162 10.6487 5.3272 11.7241C5.14604 11.5352 5.04197 11.2885 4.91477 11.0688C4.57943 10.4983 4.25566 9.92402 3.92032 9.35742C3.558 8.74841 3.21881 8.12014 2.8642 7.50728C2.3053 6.53981 1.7387 5.58005 1.1798 4.61643C0.894571 4.12306 0.620905 3.62198 0.343384 3.12476C0.378074 3.03996 0.455163 3.07465 0.51298 3.07465C3.73145 3.07465 6.94992 3.07465 10.1684 3.07465C10.2108 3.0708 10.257 3.06309 10.2994 3.08622Z" fill="#8D8E8E"/>
<path d="M35.3496 11.7233C34.8755 10.9023 34.4014 10.0851 33.9273 9.26411C33.2836 8.15017 32.6399 7.03623 31.9962 5.92229C31.4605 4.99723 30.9247 4.07216 30.3928 3.14709C30.3851 3.13167 30.3851 3.10854 30.3812 3.09312C30.4506 3.06229 30.52 3.07771 30.5894 3.07771C33.7616 3.07771 36.9377 3.07771 40.1099 3.07771C40.1831 3.07771 40.2795 3.02374 40.3334 3.12781C39.9441 3.79464 39.5548 4.4576 39.1655 5.12442C38.464 6.33858 37.7625 7.54887 37.061 8.76688C36.5137 9.71508 35.9702 10.6671 35.4229 11.6153C35.3997 11.65 35.3766 11.6847 35.3496 11.7233Z" fill="#8D8E8E"/>
<path d="M10.2995 3.0854C10.234 3.08155 10.1723 3.07769 10.1068 3.07769C6.93071 3.07769 3.75464 3.07769 0.578567 3.07769C0.501477 3.07769 0.40897 3.043 0.343445 3.12009C0.324172 3.08155 0.335736 3.05457 0.37428 3.05071C0.424388 3.04686 0.478351 3.04686 0.528459 3.04686C3.73537 3.04686 6.94227 3.04686 10.1492 3.05071C10.2263 3.05071 10.3188 3.00831 10.3766 3.10082C10.3496 3.09697 10.3226 3.09311 10.2995 3.0854Z" fill="#FCFCFC"/>
<path d="M40.3334 3.12431C40.2871 3.05879 40.2177 3.07806 40.1561 3.07806C36.9337 3.07806 33.7153 3.07806 30.493 3.07806C30.4544 3.07806 30.4159 3.08577 30.3773 3.08577C30.3503 3.08962 30.3272 3.09348 30.3002 3.10119C30.3388 3.0241 30.412 3.05108 30.4737 3.05108C33.7114 3.05108 36.9492 3.05108 40.1869 3.05493C40.237 3.05493 40.3449 2.9817 40.3334 3.12431Z" fill="#FCFCFC"/>
</svg>
