<svg width="26" height="26" viewBox="0 0 26 26" fill="none" xmlns="http://www.w3.org/2000/svg">
<g clip-path="url(#clip0)">
<path d="M23.981 20.1264L13.3613 26.1141V21.4519L19.9792 17.8237L23.981 20.1264ZM24.7087 19.4707V6.95215L20.8241 9.18984V17.2376L24.7087 19.4707ZM1.80956 20.1264L12.4293 26.1141V21.4519L5.80908 17.8237L1.81072 20.1264H1.80956ZM1.08301 19.4707V6.95215L4.96763 9.18984V17.2376L1.08301 19.4707ZM1.53913 6.13972L12.4293 0V4.50671L5.45161 8.33214L5.3959 8.36348L1.53913 6.13972ZM24.2526 6.13972L13.3624 0V4.50671L20.3401 8.32866L20.3958 8.35999L24.2526 6.13972Z" fill="#8ED6FB"/>
<path d="M12.4291 20.3899L5.89941 16.8105V9.72373L12.4291 13.4807V20.3899ZM13.3622 20.3899L19.8919 16.814V9.72257L13.3622 13.4807V20.3899ZM6.34161 8.90549L12.8957 5.31567L19.4497 8.90549L12.8957 12.6775L6.34161 8.90549Z" fill="#1C78C0"/>
</g>
<defs>
<clipPath id="clip0">
<rect width="26" height="26" fill="white"/>
</clipPath>
</defs>
</svg>
