<svg width="42" height="41" viewBox="0 0 42 41" fill="none" xmlns="http://www.w3.org/2000/svg">
<g clip-path="url(#clip0_84_3340)">
<path d="M22.8236 31.2932C22.8236 36.4026 18.6819 40.5449 13.5725 40.5449C8.46237 40.5449 4.32071 36.4026 4.32071 31.2932C4.32071 26.1837 8.46237 22.0414 13.5725 22.0414C18.6819 22.0414 22.8236 26.1837 22.8236 31.2932Z" fill="#FF6600"/>
<path d="M41.1212 18.341C41.1212 23.4498 36.9796 27.5928 31.8701 27.5928C26.76 27.5928 22.6184 23.4498 22.6184 18.341C22.6184 13.2316 26.76 9.08858 31.8701 9.08858C36.9796 9.08858 41.1212 13.2316 41.1212 18.341Z" fill="#FFCC00"/>
<path d="M18.5061 18.1359C18.5061 23.2447 14.3644 27.3877 9.25435 27.3877C4.1456 27.3877 0.00326538 23.2447 0.00326538 18.1359C0.00326538 13.0265 4.1456 8.8835 9.25435 8.8835C14.3644 8.8835 18.5061 13.0265 18.5061 18.1359Z" fill="#0089CC"/>
<path d="M37.0097 31.2932C37.0097 36.4026 32.8681 40.5449 27.7573 40.5449C22.6486 40.5449 18.5062 36.4026 18.5062 31.2932C18.5062 26.1837 22.6486 22.0414 27.7573 22.0414C32.8681 22.0414 37.0097 26.1837 37.0097 31.2932Z" fill="#009939"/>
<path d="M29.814 9.91133C29.814 15.0207 25.6716 19.1631 20.5622 19.1631C15.4528 19.1631 11.3105 15.0207 11.3105 9.91133C11.3105 4.8019 15.4528 0.659567 20.5622 0.659567C25.6716 0.659567 29.814 4.8019 29.814 9.91133Z" fill="#BF0000"/>
<path d="M22.6183 18.3413C22.6183 18.536 22.6352 18.7265 22.6474 18.9185C26.7511 17.9717 29.8138 14.3028 29.8138 9.91152C29.8138 9.71688 29.7968 9.52563 29.7846 9.33371C25.6809 10.2811 22.6183 13.9501 22.6183 18.3413Z" fill="#FC0007"/>
<path d="M23.8389 22.9221C25.4333 25.7095 28.4295 27.5928 31.8706 27.5928C33.2731 27.5928 34.5975 27.2713 35.7891 26.7125C34.1954 23.9252 31.1992 22.0419 27.7574 22.0419C26.3549 22.0419 25.0304 22.3633 23.8389 22.9221Z" fill="#1CD306"/>
<path d="M18.5061 31.2936C18.5061 33.5539 19.3186 35.6224 20.6654 37.229C22.0109 35.6224 22.8234 33.5539 22.8234 31.2936C22.8234 29.0332 22.0109 26.9647 20.6654 25.3581C19.3186 26.9647 18.5061 29.0332 18.5061 31.2936Z" fill="#0F7504"/>
<path d="M5.59146 26.6302C6.71521 27.1157 7.95221 27.3877 9.25432 27.3877C12.6615 27.3877 15.6299 25.541 17.2358 22.7991C16.1121 22.3135 14.8744 22.0423 13.573 22.0423C10.1658 22.0423 7.19672 23.889 5.59146 26.6302Z" fill="#0C5E87"/>
<path d="M11.3501 9.13072C11.3284 9.38843 11.3101 9.64749 11.3101 9.9113C11.3101 14.2991 14.368 17.9647 18.467 18.9155C18.488 18.6578 18.5063 18.3988 18.5063 18.1356C18.5063 13.7478 15.4491 10.0808 11.3501 9.13072Z" fill="#6B0001"/>
<path d="M12.2137 30.1489H10.7665C9.4888 30.1489 8.44983 29.1133 8.44983 27.839V14.7393C8.44983 13.465 9.4888 12.4287 10.7665 12.4287H28.914C30.1917 12.4287 31.23 13.465 31.23 14.7393V27.839C31.23 29.1133 30.1917 30.1489 28.914 30.1489H22.7317L10.3277 36.2295L12.2137 30.1489Z" fill="white"/>
</g>
<defs>
<clipPath id="clip0_84_3340">
<rect width="41.1245" height="40" fill="white" transform="translate(0 0.59668)"/>
</clipPath>
</defs>
</svg>
