<svg width="41" height="41" viewBox="0 0 41 41" fill="none" xmlns="http://www.w3.org/2000/svg">
<path d="M20.5342 40.3252C16.5786 40.3252 12.7118 39.1522 9.42278 36.9546C6.1338 34.757 3.57035 31.6334 2.0566 27.9789C0.542845 24.3243 0.146779 20.303 0.918483 16.4234C1.69019 12.5438 3.595 8.98012 6.39205 6.18307C9.1891 3.38602 12.7528 1.4812 16.6324 0.709499C20.512 -0.0622056 24.5333 0.333861 28.1879 1.84761C31.8424 3.36137 34.9659 5.92482 37.1636 9.2138C39.3612 12.5028 40.5342 16.3696 40.5342 20.3252C40.528 25.6276 38.4189 30.7111 34.6695 34.4605C30.9201 38.2099 25.8366 40.319 20.5342 40.3252ZM20.5342 1.20889C16.754 1.20941 13.0589 2.33081 9.91602 4.43131C6.77316 6.5318 4.32371 9.51706 2.8774 13.0096C1.43109 16.5021 1.05287 20.3451 1.79056 24.0526C2.52826 27.7601 4.34874 31.1656 7.02181 33.8385C9.69489 36.5114 13.1005 38.3316 16.808 39.0691C20.5156 39.8065 24.3585 39.428 27.851 37.9815C31.3434 36.5349 34.3285 34.0853 36.4288 30.9423C38.5291 27.7993 39.6502 24.1041 39.6505 20.3239C39.6446 15.2561 37.6286 10.3976 34.0448 6.81447C30.4609 3.23135 25.602 1.21631 20.5342 1.21149" fill="#595959"/>
<path d="M22.1715 38.3681C18.617 38.3684 15.1422 37.3146 12.1866 35.3399C9.23106 33.3653 6.92741 30.5586 5.56704 27.2747C4.20667 23.9908 3.85066 20.3772 4.54405 16.891C5.23744 13.4047 6.94908 10.2024 9.4625 7.689C11.9759 5.17558 15.1782 3.46394 18.6645 2.77055C22.1507 2.07716 25.7643 2.43317 29.0482 3.79354C32.3321 5.15392 35.1388 7.45756 37.1134 10.4131C39.088 13.3687 40.1419 16.8435 40.1416 20.398C40.1361 25.1623 38.2411 29.7299 34.8722 33.0987C31.5034 36.4676 26.9358 38.3626 22.1715 38.3681ZM22.1715 3.19593C18.7693 3.19593 15.4434 4.20482 12.6145 6.095C9.78568 7.98519 7.58084 10.6718 6.27886 13.8151C4.97688 16.9583 4.63622 20.4171 5.29996 23.754C5.96371 27.0908 7.60205 30.156 10.0078 32.5617C12.4136 34.9675 15.4787 36.6058 18.8155 37.2696C22.1524 37.9333 25.6112 37.5926 28.7545 36.2907C31.8977 34.9887 34.5843 32.7838 36.4745 29.955C38.3647 27.1261 39.3736 23.8003 39.3736 20.398C39.3684 15.8374 37.5544 11.4652 34.3294 8.24046C31.1045 5.01577 26.7321 3.20205 22.1715 3.19723" fill="#595959"/>
<path d="M23.8091 36.4136C20.6564 36.4136 17.5745 35.4788 14.9532 33.7272C12.3318 31.9757 10.2887 29.4862 9.08222 26.5735C7.87574 23.6608 7.56007 20.4557 8.17513 17.3636C8.79019 14.2715 10.3083 11.4313 12.5376 9.20199C14.7669 6.97271 17.6072 5.45455 20.6993 4.8395C23.7914 4.22444 26.9964 4.54011 29.9091 5.74659C32.8218 6.95306 35.3113 8.99616 37.0629 11.6175C38.8144 14.2389 39.7493 17.3208 39.7493 20.4734C39.7445 24.6996 38.0635 28.7512 35.0752 31.7395C32.0869 34.7279 28.0352 36.4088 23.8091 36.4136ZM23.8091 5.18298C20.7849 5.18298 17.8286 6.07975 15.3141 7.75989C12.7996 9.44002 10.8398 11.8281 9.68253 14.622C8.52523 17.416 8.22243 20.4904 8.81242 23.4564C9.4024 26.4225 10.8587 29.147 12.9971 31.2854C15.1355 33.4238 17.86 34.8801 20.826 35.4701C23.7921 36.0601 26.8665 35.7573 29.6605 34.6C32.4544 33.4427 34.8425 31.4828 36.5226 28.9683C38.2027 26.4538 39.0995 23.4976 39.0995 20.4734C39.095 16.4195 37.4826 12.5329 34.6161 9.66639C31.7496 6.79984 27.863 5.18745 23.8091 5.18298Z" fill="#595959"/>
<path d="M25.4466 34.4565C22.6964 34.4565 20.008 33.641 17.7213 32.1131C15.4346 30.5852 13.6524 28.4135 12.5999 25.8726C11.5475 23.3318 11.2721 20.536 11.8086 17.8386C12.3452 15.1413 13.6695 12.6636 15.6142 10.719C17.5588 8.7743 20.0365 7.44996 22.7338 6.91343C25.4312 6.3769 28.227 6.65227 30.7678 7.70471C33.3087 8.75716 35.4804 10.5394 37.0083 12.8261C38.5362 15.1128 39.3517 17.8012 39.3517 20.5514C39.3459 24.2375 37.879 27.7709 35.2725 30.3773C32.6661 32.9838 29.1327 34.4507 25.4466 34.4565ZM25.4466 7.16606C22.8005 7.16606 20.2138 7.95072 18.0137 9.4208C15.8136 10.8909 14.0988 12.9804 13.0862 15.425C12.0736 17.8697 11.8086 20.5597 12.3248 23.155C12.8411 25.7502 14.1153 28.1341 15.9863 30.0051C17.8574 31.8762 20.2413 33.1504 22.8365 33.6666C25.4317 34.1828 28.1218 33.9179 30.5664 32.9053C33.0111 31.8927 35.1006 30.1779 36.5707 27.9778C38.0407 25.7776 38.8254 23.191 38.8254 20.5449C38.8209 16.9981 37.4099 13.5979 34.9018 11.09C32.3937 8.58219 28.9934 7.17149 25.4466 7.16736" fill="#595959"/>
<path d="M27.0839 32.5006C24.7342 32.5006 22.4372 31.8039 20.4835 30.4984C18.5298 29.193 17.007 27.3375 16.1078 25.1666C15.2086 22.9958 14.9734 20.607 15.4318 18.3024C15.8902 15.9979 17.0217 13.881 18.6832 12.2195C20.3447 10.5579 22.4616 9.42644 24.7662 8.96803C27.0708 8.50962 29.4595 8.74489 31.6304 9.6441C33.8013 10.5433 35.6567 12.066 36.9622 14.0198C38.2676 15.9735 38.9644 18.2705 38.9644 20.6202C38.9606 23.7699 37.7077 26.7896 35.4805 29.0168C33.2533 31.2439 30.2337 32.4968 27.0839 32.5006ZM27.0839 9.15301C24.8159 9.15301 22.5989 9.82555 20.7131 11.0856C18.8273 12.3456 17.3576 14.1365 16.4896 16.2319C15.6217 18.3272 15.3946 20.6329 15.8371 22.8573C16.2796 25.0817 17.3717 27.125 18.9754 28.7287C20.5791 30.3324 22.6224 31.4246 24.8468 31.867C27.0712 32.3095 29.3769 32.0824 31.4722 31.2145C33.5676 30.3466 35.3585 28.8768 36.6186 26.991C37.8786 25.1053 38.5511 22.8882 38.5511 20.6202C38.548 17.5799 37.3389 14.6649 35.189 12.5151C33.0392 10.3652 30.1243 9.1561 27.0839 9.15301Z" fill="#595959"/>
<path d="M28.7238 30.5449C26.7756 30.5449 24.8711 29.9671 23.2512 28.8847C21.6313 27.8023 20.3687 26.2639 19.6231 24.4639C18.8776 22.664 18.6825 20.6834 19.0626 18.7726C19.4427 16.8617 20.3808 15.1065 21.7585 13.7289C23.1361 12.3513 24.8913 11.4131 26.8021 11.033C28.7129 10.6529 30.6935 10.848 32.4935 11.5936C34.2934 12.3391 35.8319 13.6017 36.9143 15.2216C37.9967 16.8415 38.5744 18.7461 38.5744 20.6943C38.5713 23.3059 37.5325 25.8096 35.6858 27.6563C33.8392 29.5029 31.3354 30.5418 28.7238 30.5449ZM28.7238 11.1388C26.8339 11.1382 24.9862 11.6982 23.4145 12.7478C21.8428 13.7974 20.6176 15.2895 19.8939 17.0355C19.1703 18.7814 18.9806 20.7027 19.3489 22.5564C19.7172 24.4102 20.6269 26.113 21.9631 27.4497C23.2992 28.7864 25.0017 29.6968 26.8553 30.0659C28.7089 30.435 30.6303 30.2461 32.3765 29.5231C34.1227 28.8001 35.6153 27.5756 36.6656 26.0043C37.7158 24.433 38.2765 22.5856 38.2768 20.6956C38.2744 18.1624 37.2673 15.7335 35.4764 13.9419C33.6855 12.1503 31.2571 11.1422 28.7238 11.1388Z" fill="#595959"/>
</svg>
