<svg width="167" height="61" viewBox="0 0 167 61" fill="none" xmlns="http://www.w3.org/2000/svg">
<path d="M153.198 20.3717V39.9377H156.866V34.1128L162.238 39.9377H167L160.354 32.7167L166.542 26.3873H161.882L156.866 31.6114V20.3717H153.198Z" fill="#EE3424"/>
<path d="M146.534 26.1264C144.599 26.1264 143.361 27.16 142.756 28.1484V26.6894H139.397V39.9377H142.756V31.8422C142.756 30.0066 143.643 29.1594 145.183 29.1594C146.676 29.1594 147.538 30.0066 147.538 31.8422V39.9377H150.898V31.6784C150.898 28.0543 149.381 26.1264 146.534 26.1264Z" fill="#EE3424"/>
<path d="M83.4368 25.257C83.4368 23.9341 83.9533 23.3314 85.1464 23.3314H88.7906V20.3717H84.216C81.585 20.3717 80.1975 21.839 80.1975 24.608V27.2307H77.2893V30.3598H80.1975V39.9377H83.4368V30.3598H86.6077V27.2307H83.4368V25.257Z" fill="#EE3424"/>
<path d="M74.989 20.3717H71.5386V39.9377H74.989V20.3717Z" fill="#EE3424"/>
<path d="M63.9108 23.2578C63.3951 21.6452 62.8025 20.3717 60.7717 20.3717C58.7408 20.3717 58.1088 21.6393 57.5688 23.2578L51.9862 39.9377H55.6879L56.9762 35.9713H64.1021L65.3003 39.9377H69.2383L63.9108 23.2578ZM58.0545 32.6219L60.5841 24.7167H60.6779L63.0669 32.6219H58.0545Z" fill="#EE3424"/>
<path d="M136.153 35.6423V31.2972C136.153 28.1252 133.848 26.1264 129.973 26.1264C125.967 26.1264 123.844 28.2392 123.661 30.4458H127.484C127.616 29.964 128.192 29.1366 129.973 29.1366C131.44 29.1366 132.383 29.7342 132.383 31.2972H128.636C125.284 31.2972 123.295 32.8363 123.295 35.4106C123.295 38.0989 125.472 39.9377 128.611 39.9377C130.916 39.9377 132.191 38.9834 132.75 38.2608C133.247 39.1342 134.347 39.616 135.787 39.616H137.096V36.6279C136.415 36.6279 136.153 36.3521 136.153 35.6404M132.381 34.7891C132.381 36.284 131.176 37.1336 129.605 37.1336C128.242 37.1336 127.167 36.6978 127.167 35.4106C127.167 34.1234 128.347 33.9395 129.368 33.9395H132.383L132.381 34.7891Z" fill="#EE3424"/>
<path d="M99.4276 35.6423V31.2972C99.4276 28.1252 97.3145 26.1264 93.7626 26.1264C90.0878 26.1264 88.1438 28.2392 87.9767 30.4458H91.4805C91.6015 29.964 92.1298 29.1366 93.7626 29.1366C95.1073 29.1366 95.9698 29.7342 95.9698 31.2972H92.5371C89.4635 31.2972 87.6405 32.8363 87.6405 35.4106C87.6405 38.0989 89.6364 39.9377 92.514 39.9377C94.6271 39.9377 95.795 38.9834 96.306 38.2608C96.7632 39.1342 97.7717 39.616 99.0914 39.616H100.292V36.6279C99.6677 36.6279 99.4276 36.3521 99.4276 35.6404M95.9698 34.7891C95.9698 36.284 94.8672 37.1336 93.4265 37.1336C92.1778 37.1336 91.1924 36.6978 91.1924 35.4106C91.1924 34.1234 92.2739 33.9395 93.2094 33.9395H95.9698V34.7891Z" fill="#EE3424"/>
<path d="M118.803 29.6432C119.513 29.3051 120.115 28.7498 120.537 28.0457C120.958 27.3416 121.18 26.5194 121.175 25.6805C121.175 22.366 119.172 20.3717 115.808 20.3717H107.193V39.9377H115.507C119.378 39.9377 121.566 37.8697 121.566 34.254C121.566 31.6873 120.207 30.2176 118.801 29.6432M110.625 23.784H115.417C116.846 23.784 117.607 24.5079 117.607 25.9777C117.607 27.3976 116.846 28.1714 115.441 28.1714H110.625V23.784ZM123.295 36.7967H110.625V31.811H115.117C117.028 31.811 117.996 32.6586 117.996 34.3039C117.996 35.9492 117.006 36.7967 115.117 36.7967" fill="#EE3424"/>
<path d="M19.4373 0C23.5778 0 24.843 2.87736 25.9931 5.86981L37.4945 37.4057C37.4945 37.6358 37.4945 38.0962 37.1494 38.2113L30.8237 40.6283C30.5937 40.7434 30.2486 40.6283 30.1336 40.283L27.3733 33.0321H11.5014L8.74105 40.3981C8.74105 40.7434 8.396 40.8585 8.05096 40.7434C7.70592 40.7434 2.07025 38.4415 1.72521 38.4415C1.62822 38.4231 1.5376 38.38 1.46208 38.3163C1.38656 38.2527 1.32868 38.1707 1.29402 38.0782C1.25936 37.9857 1.24907 37.8858 1.26416 37.7882C1.27925 37.6906 1.3192 37.5985 1.38017 37.5208C1.84022 36.3698 12.4215 7.59623 12.8815 5.98491C14.0317 3.10755 15.2968 0.115094 19.4373 0.115094V0ZM0.575069 52.5981C0.230027 52.5981 0 52.8283 0 53.1736V60.0792C0 60.4245 0.230027 60.6547 0.575069 60.6547H38.1846C38.5296 60.6547 38.7596 60.4245 38.7596 60.0792V53.1736C38.7596 52.8283 38.5296 52.5981 38.1846 52.5981H0.575069ZM19.4373 9.55283L14.0317 25.666H24.843L19.4373 9.55283Z" fill="#EE3424"/>
<path d="M61.5752 51.0424L56.5294 55.746L61.8248 60.7541C61.7329 60.7645 61.6749 60.7769 61.6159 60.7769C60.9562 60.7769 60.2947 60.7841 59.6351 60.7707C59.5112 60.7642 59.3927 60.7148 59.2975 60.6298C57.8055 59.2584 56.317 57.8825 54.832 56.5021C54.7778 56.4514 54.7217 56.4037 54.6318 56.3229V60.7572H52.9063V51.0009H54.6086V55.3731C54.715 55.283 54.7807 55.2301 54.8426 55.1721C56.2696 53.8394 57.6955 52.5049 59.1205 51.1687C59.1803 51.1067 59.251 51.0582 59.3286 51.026C59.4062 50.9938 59.489 50.9786 59.5722 50.9813C60.2308 50.9937 60.8895 50.9864 61.5491 50.9864L61.5752 51.0424Z" fill="#EE3424"/>
<path d="M95.7421 50.6415H97.3515V54.9287C97.425 54.8376 97.4647 54.793 97.5004 54.7443C98.1958 53.7987 99.1108 53.4817 100.184 53.7355C101.236 53.983 101.87 54.7247 102.132 55.8309C102.196 56.1072 102.228 56.3906 102.229 56.6751C102.24 58.0299 102.234 59.3848 102.234 60.7582H100.578V60.4672C100.578 59.3796 100.578 58.292 100.578 57.2033C100.578 56.6305 100.5 56.0764 100.082 55.661C99.578 55.1618 98.9783 55.1183 98.3661 55.3451C97.8012 55.5523 97.4956 56.0339 97.3989 56.6564C97.3719 56.8442 97.359 57.0341 97.3602 57.2241C97.3602 58.3023 97.3602 59.3817 97.3602 60.461V60.7603H95.7421V50.6415Z" fill="#EE3424"/>
<path d="M123.155 54.7433V53.7997C123.678 53.7997 124.176 53.7997 124.674 53.8059C124.714 53.8059 124.77 53.8763 124.79 53.9261C124.799 53.9766 124.799 54.0288 124.79 54.0794C124.79 56.22 124.79 58.3607 124.79 60.5014C124.79 60.5853 124.783 60.6692 124.779 60.7634H123.164V59.8312C122.836 60.0974 122.538 60.4268 122.178 60.6184C120.796 61.3549 119.117 60.7645 118.363 59.3195C117.608 57.8745 117.773 55.8723 118.75 54.6843C119.813 53.3936 121.825 53.2952 122.876 54.4771C122.952 54.5641 123.02 54.6584 123.092 54.7495L123.155 54.7433ZM119.576 57.2841C119.576 57.3784 119.584 57.4737 119.59 57.568C119.608 57.9006 119.706 58.2228 119.874 58.5028C120.043 58.7828 120.276 59.0112 120.552 59.1656C120.828 59.32 121.136 59.3951 121.447 59.3836C121.758 59.3721 122.061 59.2743 122.326 59.0999C122.979 58.6773 123.319 57.6394 123.106 56.7176C122.822 55.4943 121.82 54.9142 120.713 55.3316C120.029 55.5896 119.579 56.3602 119.576 57.2841Z" fill="#EE3424"/>
<path d="M83.9714 54.6698V53.8183H85.5973V60.7645H83.9792V59.711C83.7375 60.1091 83.3987 60.4286 82.9994 60.635C82.3282 60.9698 81.5638 61.0213 80.8587 60.7792C80.1536 60.5371 79.5597 60.0192 79.1955 59.3288C78.3772 57.7751 78.6354 55.6155 79.7758 54.4688C80.7855 53.4558 82.4839 53.376 83.5246 54.2927C83.6813 54.4284 83.8399 54.5589 83.9714 54.6698ZM83.983 57.1806C83.9782 57.1039 83.9743 57.0262 83.9676 56.9485C83.9454 56.6293 83.8482 56.3212 83.6849 56.053C83.5216 55.7848 83.2976 55.5653 83.0337 55.4148C82.7698 55.2644 82.4747 55.1879 82.1758 55.1926C81.8769 55.1972 81.5839 55.2828 81.3242 55.4414C80.6549 55.8433 80.4073 56.5094 80.4015 57.2821C80.4015 58.0071 80.6162 58.669 81.2294 59.074C81.8639 59.4883 82.5322 59.5153 83.1638 59.0823C83.7954 58.6493 83.9879 57.9512 83.983 57.1806Z" fill="#EE3424"/>
<path d="M69.0738 60.7645H67.4654V59.8322C67.1482 60.0922 66.857 60.4154 66.5031 60.607C65.1287 61.3497 63.4409 60.7676 62.6807 59.3278C61.9205 57.888 62.0772 55.9013 63.0541 54.6894C64.0948 53.3988 66.1307 53.287 67.181 54.4636C67.2584 54.5506 67.3271 54.6449 67.4383 54.7827V53.8173H69.0738V60.7645ZM65.7003 59.3806C66.7274 59.3806 67.4673 58.5136 67.478 57.2997C67.4886 56.0857 66.7187 55.1866 65.6964 55.1991C64.6325 55.2063 63.8762 56.0826 63.8771 57.2966C63.8781 58.5105 64.6373 59.3806 65.7003 59.3806Z" fill="#EE3424"/>
<path d="M91.0203 57.0563L94.6376 60.7582C94.535 60.7665 94.4683 60.7769 94.4025 60.7769C93.8222 60.7769 93.2419 60.7862 92.6616 60.7707C92.5311 60.7633 92.4067 60.7089 92.3086 60.6163C91.3849 59.6841 90.4709 58.7519 89.554 57.8197C89.5018 57.7679 89.4496 57.7161 89.3558 57.6208V60.7624H87.7473V50.6477H89.3354V56.6492C89.4602 56.5342 89.5289 56.47 89.6005 56.4037C90.4313 55.6123 91.265 54.8241 92.091 54.0213C92.1631 53.9428 92.25 53.8815 92.3458 53.8415C92.4417 53.8015 92.5444 53.7837 92.6471 53.7893C93.1539 53.809 93.6626 53.7955 94.1695 53.7955H94.3987L94.419 53.8504L91.0203 57.0563Z" fill="#EE3424"/>
<path d="M74.698 55.2664H74.3779C73.2985 55.2664 72.2191 55.2664 71.1398 55.2716C70.9366 55.2716 70.8747 55.2084 70.8854 54.994C70.9009 54.6584 70.8921 54.3207 70.8854 53.9841C70.8854 53.8546 70.9202 53.7966 71.0498 53.7966C73.0725 53.8007 75.0946 53.8028 77.116 53.8028C77.1455 53.809 77.1742 53.8195 77.2011 53.8339C77.2011 54.1135 77.2137 54.3973 77.1943 54.6791C77.1695 54.7768 77.1176 54.8642 77.0454 54.9298C75.8525 56.3005 74.6597 57.6695 73.4668 59.0367C73.4078 59.1051 73.3507 59.1755 73.255 59.2895H77.6673V60.7572H70.7906C70.7906 60.4579 70.78 60.1492 70.7974 59.8436C70.8022 59.7649 70.8941 59.6872 70.9482 59.6189L74.4562 55.5512C74.521 55.4767 74.5849 55.4 74.698 55.2664Z" fill="#EE3424"/>
<path d="M103.718 58.8171C104.299 58.8171 104.843 58.8171 105.389 58.8171C105.415 58.8214 105.441 58.8313 105.463 58.8462C105.486 58.8612 105.506 58.8809 105.521 58.9041C105.638 59.0875 105.791 59.24 105.971 59.3502C106.15 59.4604 106.351 59.5254 106.557 59.5401C106.987 59.5735 107.418 59.5509 107.843 59.4728C107.994 59.4525 108.132 59.3725 108.231 59.2485C108.33 59.1245 108.382 58.9655 108.376 58.8026C108.371 58.4639 108.19 58.2133 107.809 58.1376C107.312 58.0341 106.806 57.9885 106.302 57.9305C105.722 57.8611 105.161 57.742 104.658 57.3825C103.564 56.5953 103.611 54.7744 104.781 54.126C106.135 53.374 107.526 53.4185 108.883 54.157C109.144 54.2952 109.372 54.496 109.549 54.744C109.726 54.9919 109.846 55.2803 109.902 55.5865C109.361 55.5865 108.825 55.5865 108.288 55.5865C108.22 55.5722 108.158 55.5339 108.112 55.4777C107.613 54.9598 106.479 54.7785 105.87 55.1328C105.677 55.2477 105.54 55.4124 105.541 55.6641C105.534 55.7826 105.564 55.9001 105.626 55.9984C105.688 56.0966 105.779 56.17 105.884 56.2069C106.2 56.3037 106.521 56.3777 106.846 56.4286C107.463 56.5404 108.097 56.5839 108.699 56.7538C109.941 57.1049 110.23 58.4028 109.951 59.4055C109.874 59.686 109.736 59.9427 109.547 60.1539C109.358 60.3651 109.125 60.5248 108.867 60.6194C107.473 61.1674 106.093 61.1664 104.777 60.3346C104.346 60.0693 104.011 59.6573 103.824 59.1641C103.792 59.0564 103.763 58.9518 103.718 58.8171Z" fill="#EE3424"/>
<path d="M128.534 60.7645H126.915V53.8245H128.535V54.8448C128.825 54.5776 129.082 54.2627 129.405 54.0535C131.035 52.9907 133.129 54.0928 133.371 56.1251C133.4 56.3818 133.415 56.6402 133.416 56.8988C133.416 58.09 133.416 59.2812 133.416 60.4724V60.7655H131.754V60.4817C131.754 59.3848 131.754 58.2889 131.754 57.192C131.754 56.6285 131.674 56.0826 131.266 55.6724C130.767 55.169 130.168 55.1214 129.554 55.343C128.985 55.5502 128.684 56.0246 128.577 56.6461C128.548 56.842 128.535 57.0402 128.537 57.2386C128.537 58.3179 128.537 59.3972 128.537 60.4765L128.534 60.7645Z" fill="#EE3424"/>
<path d="M112.666 55.3026H110.894V53.808H112.652V51.0051H114.311V53.8018H115.516C115.854 53.8018 116.193 53.8018 116.531 53.8018C116.645 53.8018 116.713 53.8266 116.711 53.9706C116.706 54.4015 116.711 54.8324 116.711 55.2975H114.335C114.325 55.3487 114.318 55.4006 114.313 55.4528C114.313 56.3426 114.306 57.2313 114.32 58.1211C114.331 58.8461 114.587 59.1403 115.264 59.1921C115.651 59.2211 116.038 59.2087 116.424 59.2149H116.697V60.7831C115.795 60.7375 114.9 60.8763 114.018 60.6598C113.238 60.4682 112.707 59.7566 112.684 58.8244C112.66 57.7637 112.67 56.701 112.666 55.6393C112.665 55.5357 112.666 55.4342 112.666 55.3026Z" fill="#EE3424"/>
</svg>
