<svg width="121" height="63" viewBox="0 0 121 63" fill="none" xmlns="http://www.w3.org/2000/svg">
<g clip-path="url(#clip0_1010_20048)">
<path d="M0.333496 31.2001C0.333496 14.0792 14.0926 0.200073 31.0652 0.200073H91.2374C91.2374 0.200073 98.5822 16.5774 105.123 31.2001C111.664 45.8228 119.008 62.2001 119.008 62.2001H31.0652C14.0926 62.2001 0.333496 48.3209 0.333496 31.2001Z" fill="#126DE9"/>
<path d="M35.2738 19.3238V15.6261C35.2738 15.1193 35.176 14.6426 34.9804 14.196C34.7932 13.7408 34.5338 13.3457 34.202 13.0107C33.8702 12.6757 33.4789 12.4137 33.028 12.2247C32.5857 12.0272 32.1134 11.9284 31.6116 11.9284C31.1097 11.9284 30.6333 12.0272 30.1824 12.2247C29.74 12.4137 29.353 12.6757 29.0212 13.0107C28.6893 13.3457 28.4256 13.7408 28.2299 14.196C28.0428 14.6426 27.9493 15.1193 27.9493 15.6261V19.3238H35.2738ZM38.9361 26.7064H35.2738V23.0087H27.9493V26.7064H24.2998V15.6261C24.2998 14.604 24.4911 13.6463 24.8739 12.753C25.2567 11.8511 25.7757 11.0652 26.4308 10.3952C27.0943 9.72525 27.8685 9.19701 28.7531 8.81049C29.6464 8.42398 30.5992 8.23071 31.6116 8.23071C32.6238 8.23071 33.5724 8.42398 34.4572 8.81049C35.3505 9.19701 36.1289 9.72525 36.7924 10.3952C37.4559 11.0652 37.9791 11.8511 38.3619 12.753C38.7447 13.6463 38.9361 14.604 38.9361 15.6261V26.7064Z" fill="white"/>
<path d="M54.9254 26.7064H42.1138V8.23071H45.7761V23.0087H54.9254V26.7064Z" fill="white"/>
<path d="M69.651 26.7064H56.8394V8.23071H60.5017V23.0087H69.651V26.7064Z" fill="white"/>
<path d="M88.8556 17.5459C88.8556 18.4218 88.7408 19.268 88.511 20.0839C88.2899 20.8914 87.9751 21.6514 87.5668 22.3644C87.1584 23.0687 86.6651 23.7129 86.0866 24.2969C85.5081 24.8811 84.87 25.3835 84.1724 25.8044C83.4748 26.2167 82.722 26.5345 81.9138 26.7579C81.1057 26.9898 80.2677 27.1057 79.3999 27.1057C78.5323 27.1057 77.6943 26.9898 76.8861 26.7579C76.0865 26.5345 75.3335 26.2167 74.6274 25.8044C73.93 25.3835 73.2919 24.8811 72.7134 24.2969C72.135 23.7129 71.6372 23.0687 71.2205 22.3644C70.812 21.6514 70.493 20.8914 70.2634 20.0839C70.0421 19.268 69.9316 18.4218 69.9316 17.5459C69.9316 16.6697 70.0421 15.8236 70.2634 15.0077C70.493 14.1917 70.812 13.4315 71.2205 12.7272C71.6372 12.0229 72.135 11.3787 72.7134 10.7946C73.2919 10.2105 73.93 9.71234 74.6274 9.30006C75.3335 8.88777 76.0865 8.56996 76.8861 8.34664C77.6943 8.11473 78.5323 7.99878 79.3999 7.99878C80.2677 7.99878 81.1057 8.11473 81.9138 8.34664C82.722 8.56996 83.4748 8.88777 84.1724 9.30006C84.87 9.71234 85.5081 10.2105 86.0866 10.7946C86.6651 11.3787 87.1584 12.0229 87.5668 12.7272C87.9751 13.4315 88.2899 14.1917 88.511 15.0077C88.7408 15.8236 88.8556 16.6697 88.8556 17.5459ZM85.2188 17.5459C85.2188 16.7384 85.0657 15.9783 84.7594 15.2653C84.4531 14.5438 84.0363 13.9211 83.5089 13.3972C82.99 12.8646 82.3732 12.4437 81.6586 12.1345C80.9525 11.8253 80.1997 11.6707 79.3999 11.6707C78.5918 11.6707 77.8347 11.8253 77.1286 12.1345C76.4225 12.4437 75.8058 12.8646 75.2782 13.3972C74.7508 13.9211 74.334 14.5438 74.0277 15.2653C73.7214 15.9783 73.5684 16.7384 73.5684 17.5459C73.5684 18.3532 73.7214 19.1133 74.0277 19.8263C74.334 20.5306 74.7508 21.1489 75.2782 21.6816C75.8058 22.214 76.4225 22.635 77.1286 22.9441C77.8347 23.2534 78.5918 23.408 79.3999 23.408C80.1997 23.408 80.9525 23.2534 81.6586 22.9441C82.3732 22.635 82.99 22.214 83.5089 21.6816C84.0363 21.1489 84.4531 20.5306 84.7594 19.8263C85.0657 19.1133 85.2188 18.3532 85.2188 17.5459Z" fill="white"/>
<path d="M42.3753 42.4202C42.3753 43.4773 42.2391 44.4972 41.9663 45.4796C41.7042 46.4512 41.3266 47.3642 40.8337 48.2185C40.3407 49.0621 39.7535 49.8362 39.0718 50.5411C38.39 51.2352 37.6296 51.8331 36.7906 52.335C35.9517 52.8369 35.0498 53.2268 34.0848 53.5043C33.1305 53.7713 32.134 53.9048 31.0958 53.9048H24.2998V30.9355H31.0958C32.134 30.9355 33.1305 31.0743 34.0848 31.352C35.0498 31.6189 35.9517 32.0033 36.7906 32.5052C37.6296 33.0071 38.39 33.6104 39.0718 34.3153C39.7535 35.0094 40.3407 35.7835 40.8337 36.6378C41.3266 37.4814 41.7042 38.3944 41.9663 39.3768C42.2391 40.3485 42.3753 41.3629 42.3753 42.4202ZM37.8604 42.4202C37.8604 41.4698 37.6821 40.5782 37.3255 39.7452C36.9794 38.9123 36.4969 38.1862 35.8782 37.5667C35.27 36.9367 34.5515 36.4403 33.723 36.0771C32.905 35.7141 32.0293 35.5326 31.0958 35.5326H28.8462V49.3078H31.0958C32.0293 49.3078 32.905 49.1315 33.723 48.7791C34.5515 48.416 35.27 47.9249 35.8782 47.3055C36.4969 46.6754 36.9794 45.944 37.3255 45.1111C37.6821 44.2675 37.8604 43.3705 37.8604 42.4202Z" fill="#8FD73A"/>
<path d="M67.4834 42.5162C67.4834 43.6054 67.3417 44.6573 67.0585 45.6717C66.7859 46.6754 66.3978 47.6205 65.8944 48.5068C65.391 49.3824 64.7828 50.1833 64.0695 50.9094C63.3564 51.6356 62.5698 52.2603 61.7098 52.7836C60.8499 53.2961 59.9216 53.6911 58.9253 53.9688C57.929 54.2571 56.896 54.4013 55.8262 54.4013C54.7565 54.4013 53.7233 54.2571 52.727 53.9688C51.7413 53.6911 50.813 53.2961 49.9426 52.7836C49.0825 52.2603 48.296 51.6356 47.5828 50.9094C46.8697 50.1833 46.2561 49.3824 45.7422 48.5068C45.2387 47.6205 44.8455 46.6754 44.5623 45.6717C44.2897 44.6573 44.1533 43.6054 44.1533 42.5162C44.1533 41.427 44.2897 40.3752 44.5623 39.3607C44.8455 38.3463 45.2387 37.4012 45.7422 36.5256C46.2561 35.65 46.8697 34.849 47.5828 34.1231C48.296 33.3969 49.0825 32.7775 49.9426 32.265C50.813 31.7524 51.7413 31.3573 52.727 31.0796C53.7233 30.7913 54.7565 30.6472 55.8262 30.6472C56.896 30.6472 57.929 30.7913 58.9253 31.0796C59.9216 31.3573 60.8499 31.7524 61.7098 32.265C62.5698 32.7775 63.3564 33.3969 64.0695 34.1231C64.7828 34.849 65.391 35.65 65.8944 36.5256C66.3978 37.4012 66.7859 38.3463 67.0585 39.3607C67.3417 40.3752 67.4834 41.427 67.4834 42.5162ZM62.9998 42.5162C62.9998 41.5124 62.811 40.5674 62.4334 39.6811C62.0559 38.7841 61.5421 38.0099 60.8917 37.3586C60.2521 36.6965 59.4917 36.1732 58.6107 35.7888C57.7402 35.4044 56.812 35.2122 55.8262 35.2122C54.8298 35.2122 53.8964 35.4044 53.026 35.7888C52.1554 36.1732 51.3952 36.6965 50.7448 37.3586C50.0946 38.0099 49.5807 38.7841 49.2031 39.6811C48.8256 40.5674 48.6368 41.5124 48.6368 42.5162C48.6368 43.52 48.8256 44.4651 49.2031 45.3514C49.5807 46.2269 50.0946 46.9959 50.7448 47.6578C51.3952 48.3199 52.1554 48.8432 53.026 49.2276C53.8964 49.612 54.8298 49.8042 55.8262 49.8042C56.812 49.8042 57.7402 49.612 58.6107 49.2276C59.4917 48.8432 60.2521 48.3199 60.8917 47.6578C61.5421 46.9959 62.0559 46.2269 62.4334 45.3514C62.811 44.4651 62.9998 43.52 62.9998 42.5162Z" fill="#8FD73A"/>
<path d="M88.4693 51.5503C87.4205 52.4686 86.2459 53.1734 84.9454 53.6645C83.645 54.1558 82.2972 54.4014 80.9024 54.4014C79.8327 54.4014 78.7996 54.2572 77.8032 53.9689C76.8174 53.6912 75.8892 53.2962 75.0188 52.7836C74.1587 52.2603 73.3721 51.6356 72.659 50.9095C71.9459 50.1833 71.3323 49.3825 70.8185 48.5068C70.3151 47.6205 69.9217 46.6755 69.6385 45.6718C69.3659 44.6574 69.2295 43.6054 69.2295 42.5163C69.2295 41.427 69.3659 40.3752 69.6385 39.3608C69.9217 38.3463 70.3151 37.4013 70.8185 36.5256C71.3323 35.6393 71.9459 34.8332 72.659 34.107C73.3721 33.3809 74.1587 32.7615 75.0188 32.2489C75.8892 31.7258 76.8174 31.3253 77.8032 31.0476C78.7996 30.7593 79.8327 30.6152 80.9024 30.6152C82.2972 30.6152 83.645 30.8607 84.9454 31.352C86.2459 31.8325 87.4205 32.5372 88.4693 33.4664L86.0781 37.4707C85.4174 36.7445 84.636 36.1893 83.7341 35.8049C82.8321 35.4098 81.8882 35.2122 80.9024 35.2122C79.9061 35.2122 78.9726 35.4044 78.1022 35.7888C77.2317 36.1732 76.4713 36.6966 75.821 37.3586C75.1708 38.0099 74.657 38.7842 74.2794 39.6811C73.9019 40.5674 73.7131 41.5125 73.7131 42.5163C73.7131 43.5201 73.9019 44.4652 74.2794 45.3515C74.657 46.227 75.1708 46.9959 75.821 47.6579C76.4713 48.3199 77.2317 48.8432 78.1022 49.2276C78.9726 49.612 79.9061 49.8042 80.9024 49.8042C81.8882 49.8042 82.8321 49.612 83.7341 49.2276C84.636 48.8326 85.4174 48.272 86.0781 47.5458L88.4693 51.5503Z" fill="#8FD73A"/>
<path fill-rule="evenodd" clip-rule="evenodd" d="M108.957 10.3384V15.4076H113.982V10.3384H119.008V5.26925H113.982V0.200073H108.957V5.26925H103.932V10.3384H108.957Z" fill="#126DE9"/>
</g>
<defs>
<clipPath id="clip0_1010_20048">
<rect width="120" height="62" fill="white" transform="translate(0.333496 0.200073)"/>
</clipPath>
</defs>
</svg>
