<svg width="100" height="61" viewBox="0 0 100 61" fill="none" xmlns="http://www.w3.org/2000/svg">
<g clip-path="url(#clip0_1010_19973)">
<path fill-rule="evenodd" clip-rule="evenodd" d="M15.1186 0H84.1419C88.113 0.0128511 91.9177 1.60649 94.7262 4.43321C97.5347 7.25994 99.119 11.0903 99.1333 15.0887V44.8637C99.1206 48.8626 97.5367 52.6939 94.7279 55.521C91.9192 58.348 88.1134 59.9411 84.1419 59.9524H15.1186C11.1482 59.9395 7.34403 58.3458 4.53651 55.5188C1.72897 52.6919 0.146073 48.8616 0.133301 44.8637V15.0887C0.147659 11.0914 1.73107 7.2619 4.53827 4.43535C7.34545 1.60879 11.1487 0.014457 15.1186 0Z" fill="#E73446"/>
<path d="M18.8247 19.1915C18.782 20.3008 18.989 21.4053 19.4301 22.4227C19.7336 23.0708 20.2212 23.6137 20.8313 23.9827C21.4413 24.3516 22.1463 24.53 22.8571 24.4954C23.4978 24.5058 24.1273 24.3247 24.666 23.9754C25.2048 23.626 25.6287 23.1239 25.8845 22.5324C26.0639 22.1918 26.1982 21.8291 26.284 21.4533C26.5987 20.0015 26.5404 18.4928 26.1145 17.07C25.974 16.3946 25.6247 15.7813 25.1168 15.318C24.6088 14.8548 23.9683 14.5654 23.287 14.4912C22.5554 14.3443 21.7964 14.4388 21.1224 14.7605C20.4483 15.0823 19.8953 15.6142 19.5452 16.2775C19.0247 17.1603 18.7741 18.1781 18.8247 19.2037V19.1915ZM14.5864 5.60867C15.242 5.5751 15.8988 5.5751 16.5542 5.60867C17.1555 5.64488 17.7187 5.91642 18.1238 6.36525C18.5288 6.81407 18.7435 7.40461 18.7217 8.01066C18.7702 9.72986 18.7217 10.9552 18.7217 12.6866C19.848 11.3454 22.7723 9.9981 25.9026 11.2601C28.488 12.3026 29.9108 14.351 30.4497 17.0151C30.7697 18.3592 30.7996 19.7567 30.5375 21.1134C30.2753 22.47 29.7271 23.7543 28.93 24.8795C28.0932 26.1189 26.9105 27.0809 25.5312 27.644C24.1518 28.2071 22.6377 28.3463 21.1799 28.0436C17.9043 27.4888 15.9487 25.355 15.0103 22.2458C14.8306 21.4968 14.6971 20.7375 14.6106 19.9718L14.5864 5.60867Z" fill="white"/>
<path d="M57.8346 18.3868C59.3604 18.3198 60.8619 18.2771 62.3211 18.1917C62.7812 18.1355 63.2339 18.0292 63.6713 17.8747C63.9095 17.8009 64.1158 17.6481 64.2564 17.441C64.3973 17.2339 64.4642 16.9849 64.4463 16.7347C64.4867 16.2397 64.3572 15.7456 64.0796 15.3351C63.8019 14.9246 63.3928 14.6224 62.9205 14.479C60.2141 13.4487 57.653 15.3507 57.8346 18.3868ZM57.8346 21.2582C57.9481 22.1768 58.4129 23.0144 59.1303 23.5932C59.822 24.1636 60.6633 24.5195 61.5521 24.6174C62.938 24.7955 64.346 24.6537 65.6693 24.2029C66.3557 23.9154 67.0162 23.5686 67.6431 23.1665C67.8977 23.9523 67.8657 24.804 67.5527 25.5682C67.2397 26.3325 66.6664 26.9595 65.9358 27.3363C61.6975 29.269 55.4369 28.074 53.8628 22.0142C53.4199 20.5058 53.369 18.9084 53.7146 17.3746C54.0602 15.8408 54.7907 14.4219 55.8366 13.2536C58.4521 10.2542 63.308 9.88229 66.2143 12.4062C67.0054 13.0703 67.6127 13.9288 67.9777 14.8986C68.3425 15.8683 68.4526 16.9167 68.2971 17.9418C68.2395 18.5159 68.0186 19.0612 67.661 19.512C67.3034 19.9629 66.8242 20.3004 66.2809 20.484C64.872 20.9886 63.3866 21.2424 61.8912 21.2338C60.7227 21.2765 59.5541 21.2338 58.3795 21.2338L57.8346 21.2582Z" fill="white"/>
<path d="M44.4657 5.62716C45.1311 5.58416 45.7983 5.58416 46.4637 5.62716C47.0428 5.70359 47.575 5.98814 47.9622 6.42842C48.3493 6.86869 48.5655 7.43502 48.5708 8.02306C48.5708 8.42544 48.5708 8.8278 48.5708 9.24236V22.0448C48.5708 23.8738 49.1218 24.4469 50.9259 24.5262C51.4345 24.5262 51.9431 24.5262 52.5365 24.5262C52.5156 25.1591 52.4569 25.7902 52.361 26.416C52.2762 26.8147 52.0615 27.1734 51.751 27.4351C51.4406 27.697 51.0521 27.8468 50.6474 27.861C49.4389 28.0688 48.1966 27.9292 47.0632 27.4585C45.4708 26.7757 44.7382 25.4589 44.5202 23.8006C44.4688 23.3371 44.4446 22.871 44.4475 22.4046V5.62716H44.4657Z" fill="white"/>
<path d="M42.0015 24.5319C41.947 25.2391 41.9591 25.8366 41.8622 26.4097C41.8303 26.8139 41.6478 27.1912 41.3514 27.4659C41.055 27.7405 40.6666 27.8925 40.2638 27.8911C39.454 27.9515 38.6396 27.9044 37.8419 27.751C36.9624 27.5498 36.1731 27.063 35.5953 26.3657C35.0177 25.6683 34.6838 24.7992 34.6451 23.8919C34.5905 23.3554 34.5663 22.825 34.5542 22.3007V11.4368C35.3011 11.4577 36.0456 11.5311 36.7823 11.6563C37.9933 11.9245 38.6593 12.9061 38.6714 14.3265C38.6714 16.9175 38.6714 19.5085 38.6714 22.0934C38.6714 22.3251 38.6714 22.5506 38.6714 22.7701C38.7924 23.9346 39.2769 24.4345 40.4878 24.5197C40.9601 24.5502 41.4384 24.5197 42.0197 24.5197L42.0015 24.5319Z" fill="white"/>
<path d="M36.6127 5.10876C37.255 5.10876 37.871 5.36568 38.3252 5.823C38.7793 6.28032 39.0345 6.90059 39.0345 7.54734C39.0237 8.19066 38.765 8.80456 38.3131 9.25953C37.8612 9.7145 37.2516 9.97494 36.6127 9.98591C35.9767 9.97631 35.37 9.71516 34.9236 9.25886C34.4772 8.80258 34.2271 8.18779 34.2271 7.54734C34.2398 6.90907 34.5006 6.30127 34.9533 5.85444C35.4062 5.40762 36.015 5.1574 36.649 5.15754L36.6127 5.10876Z" fill="white"/>
<path d="M33.9179 44.6077C33.8724 45.7171 34.0796 46.8223 34.5234 47.8387C34.8294 48.484 35.3166 49.0248 35.9245 49.3942C36.5325 49.7638 37.2347 49.9457 37.9444 49.9176C38.5852 49.9251 39.2141 49.7422 39.7524 49.392C40.2908 49.0418 40.7149 48.5398 40.9717 47.9485C41.1511 47.608 41.2854 47.2451 41.3713 46.8694C41.7018 45.4194 41.6581 43.9082 41.2441 42.4799C41.1041 41.8033 40.7542 41.1888 40.245 40.7254C39.7357 40.2618 39.0932 39.9733 38.4106 39.9011C37.6759 39.7451 36.9108 39.8343 36.2313 40.1557C35.5516 40.4769 34.9945 41.0125 34.6446 41.6813C34.1202 42.563 33.8674 43.5814 33.9179 44.6077ZM29.71 31.0247C30.3635 30.9913 31.0182 30.9913 31.6716 31.0247C32.2735 31.061 32.8373 31.3323 33.2434 31.781C33.6493 32.2296 33.8653 32.8201 33.8454 33.4268C33.8878 35.146 33.8454 36.3774 33.8454 38.1027C34.9654 36.7677 37.8959 35.4203 41.0261 36.6823C43.6054 37.7248 45.0344 39.7671 45.5732 42.4311C45.8923 43.7757 45.9213 45.1735 45.6581 46.5302C45.395 47.8869 44.8456 49.1709 44.0474 50.2957C42.1402 52.9719 39.4278 53.99 36.249 53.4596C33.0703 52.9292 31.0481 50.7834 30.1095 47.6742C29.9235 46.9265 29.7899 46.1667 29.71 45.4002V31.0247Z" fill="white"/>
<path d="M72.9345 43.8029C74.4542 43.7421 75.9618 43.6933 77.4149 43.6079C77.8762 43.5589 78.3298 43.4524 78.7651 43.2908C79.0037 43.2172 79.2108 43.0645 79.3526 42.8577C79.4943 42.6508 79.5626 42.4017 79.5462 42.1509C79.585 41.6568 79.455 41.1643 79.1774 40.755C78.8999 40.3457 78.4915 40.0444 78.0204 39.9013C75.3078 38.8649 72.7466 40.773 72.9345 43.8029ZM72.9345 46.6744C73.0482 47.5944 73.5128 48.434 74.23 49.0155C74.9215 49.5853 75.7633 49.9391 76.652 50.0336C78.0372 50.217 79.446 50.0773 80.7692 49.6252C81.4545 49.3405 82.1165 49.0022 82.749 48.6132C83.0032 49.3981 82.9708 50.2488 82.6579 51.0121C82.3449 51.7753 81.7719 52.4011 81.0417 52.7769C76.8033 54.7096 70.5428 53.5146 68.9322 47.4608C68.4848 45.9503 68.4285 44.3495 68.7686 42.8109C69.1088 41.2722 69.8341 39.8466 70.8758 38.6699C73.5156 35.6703 78.3775 35.2985 81.2657 37.798C82.0549 38.4636 82.661 39.3223 83.0257 40.2917C83.3903 41.261 83.5016 42.3084 83.3485 43.3335C83.29 43.909 83.0682 44.4553 82.7096 44.9073C82.351 45.3592 81.8708 45.6975 81.3263 45.8818C79.9185 46.3835 78.4358 46.6372 76.9426 46.6317C75.78 46.6744 74.6115 46.6317 73.4309 46.6317L72.9345 46.6744Z" fill="white"/>
<path d="M59.5599 31.0491C60.2251 31.003 60.8927 31.003 61.5579 31.0491C62.1386 31.1138 62.675 31.3924 63.0639 31.8313C63.453 32.2702 63.6669 32.8385 63.6649 33.4268C63.6649 33.8291 63.6649 34.2314 63.6649 34.646V47.4486C63.6649 49.2774 64.2159 49.8505 66.0202 49.9298C66.5288 49.9298 67.0313 49.9298 67.6247 49.9298C67.6086 50.5627 67.552 51.194 67.4552 51.8196C67.3638 52.2167 67.1466 52.5729 66.8363 52.8346C66.5261 53.0964 66.1399 53.2494 65.7356 53.2707C64.5269 53.4748 63.2856 53.3355 62.1512 52.8682C60.565 52.1794 59.8324 50.8625 59.6143 49.2105C59.5609 48.7491 59.5346 48.2849 59.5357 47.8204V31.0491H59.5599Z" fill="white"/>
<path d="M57.1019 49.9481C57.0474 50.6553 57.0474 51.2528 56.9567 51.8196C56.9245 52.2234 56.7418 52.6 56.4453 52.8736C56.1489 53.1473 55.7604 53.2979 55.3582 53.2951C54.5483 53.3591 53.7335 53.3119 52.9362 53.1548C52.0519 52.9593 51.2565 52.4749 50.6739 51.7769C50.0912 51.079 49.7542 50.2067 49.7152 49.2957C49.6607 48.7592 49.6425 48.229 49.6304 47.7047V36.8529C50.3752 36.8739 51.1177 36.9471 51.8525 37.0724C53.0635 37.3467 53.7355 38.2918 53.7476 39.7488C53.7476 42.3337 53.7476 44.9247 53.7476 47.5156C53.7355 47.739 53.7355 47.9628 53.7476 48.1863C53.8688 49.3506 54.3531 49.8505 55.5277 49.9359C56.006 49.9725 56.4782 49.9359 57.0656 49.9359L57.1019 49.9481Z" fill="white"/>
<path d="M51.7131 30.5248C52.3554 30.5248 52.9714 30.7818 53.4256 31.2391C53.8799 31.6963 54.1351 32.3166 54.1351 32.9634C54.1163 33.6009 53.8542 34.2064 53.4029 34.6539C52.9518 35.1013 52.3464 35.3562 51.7131 35.3654C51.0771 35.3557 50.4704 35.0946 50.024 34.6383C49.5777 34.182 49.3275 33.5673 49.3276 32.9269C49.3387 32.2874 49.5988 31.6782 50.0518 31.2301C50.5047 30.7819 51.1144 30.5308 51.7494 30.5309L51.7131 30.5248Z" fill="white"/>
<path d="M77.9295 18.1735C77.9295 18.1735 73.7579 18.1735 73.0253 18.1735C72.4232 18.1549 71.8376 18.3729 71.3924 18.7814C70.947 19.1898 70.6772 19.7568 70.6397 20.3621C70.6064 21.0222 70.6064 21.6834 70.6397 22.3435C70.6397 22.3435 74.8114 22.3435 75.544 22.3435C76.1456 22.3636 76.7311 22.147 77.1765 21.7395C77.622 21.332 77.8921 20.7657 77.9295 20.1609C77.963 19.4989 77.963 18.8356 77.9295 18.1735Z" fill="white"/>
</g>
<defs>
<clipPath id="clip0_1010_19973">
<rect width="99" height="61" fill="white" transform="translate(0.133301)"/>
</clipPath>
</defs>
</svg>
