<svg fill="none" xmlns="http://www.w3.org/2000/svg" viewBox="0 0 143 64">
  <path d="M49.5 15.5h-5v32h5v-32zM67.1 37.4c0 4.9-4 5.3-5.2 5.3-3 0-3.5-2.9-3.5-4.6V26h-4.9v12c0 3.1.8 5.6 2.5 7.2a9 9 0 0011.1.6v1.3H72V26h-4.9v11.4zM83 19h-5v7.2h-3.5v4.6H78v16.7h5V30.8h4v-4.6h-4V19zM102.7 41a6.2 6.2 0 01-4.2 1.6 6 6 0 01-6.1-6.1c0-3.6 2.5-6.1 6.1-6.1 1.6 0 3 .5 4.3 1.5l.7.7L107 29l-.9-.7c-2-1.9-4.8-3-7.6-2.9-6.4 0-11 4.6-11 11 0 6.3 4.8 11 11 11 2.8 0 5.6-1 7.7-2.9l.8-.8-3.5-3.4-.8.7zM125.5 27.8a8.8 8.8 0 00-11.1-.6V15.6h-4.9v32h4.9V35.8c0-5 4-5.3 5.2-5.3 3 0 3.5 2.9 3.5 4.6v12.4h4.9V35.2c0-3.1-.8-5.7-2.5-7.4z" fill="#DFDFDF"/>
  <path d="M98.3 40.5a3.8 3.8 0 100-7.5 3.8 3.8 0 000 7.5z" fill="#FF3D2E"/>
  <path d="M37.3 39.5a10.3 10.3 0 01-7.5 3.1c-5.7 0-9.9-4.5-9.9-10.6s4.2-10.6 10-10.6a10.5 10.5 0 017.3 3l.8.8 3.5-3.4-.8-.8a15 15 0 00-10.9-4.5C21.4 16.5 15 23.2 15 32c0 8.9 6.4 15.5 14.8 15.5a15.2 15.2 0 0011-4.5l.7-.8-3.4-3.5-.8.8z" fill="#DFDFDF"/>
</svg>
