<svg width="63" height="60" viewBox="0 0 63 60" fill="none" xmlns="http://www.w3.org/2000/svg">
<g clip-path="url(#clip0_1021_18016)">
<path d="M48.1739 9.52297C48.1911 9.22809 48.2255 8.9332 48.2427 8.65567C48.3288 7.21594 48.2771 5.74153 48.5353 4.3365C48.8624 2.5672 50.1705 1.40501 51.9607 1.33563C54.2672 1.23155 56.6081 1.21421 58.9146 1.37032C61.135 1.50909 62.512 3.19166 62.6325 5.60276C62.6669 6.19252 62.6497 6.76495 62.6497 7.35471C62.6497 22.7233 62.6497 38.0919 62.6497 53.4779C62.6497 54.7095 62.512 55.9063 61.8235 56.9644C61.0317 58.1613 59.7924 58.6644 58.4498 58.6991C56.2638 58.7684 54.0606 58.8205 51.8918 58.6123C49.6542 58.4042 48.5526 57.1032 48.3804 54.8309C48.2771 53.5126 48.2944 52.1943 48.2427 50.876C48.2427 50.7199 48.2083 50.5464 48.1911 50.2168C47.6403 50.8586 47.1755 51.379 46.728 51.9167C43.3199 56.0451 38.9823 58.5776 33.7325 59.5143C28.3621 60.4857 23.095 60.1214 18.0345 57.9879C13.3699 56.0104 9.51424 52.9922 6.51924 48.8638C3.45539 44.6487 1.78576 39.8959 1.04562 34.7962C0.202196 29.0199 0.839065 23.3825 2.88737 17.9185C4.90125 12.5065 8.24051 8.08325 12.9912 4.7528C18.482 0.919322 24.5925 -0.416325 31.1678 0.104057C35.6775 0.450978 39.7569 1.92539 43.3715 4.71811C44.9723 5.96703 46.2633 7.49348 47.537 9.03728C47.6919 9.21074 47.8468 9.3842 48.0017 9.55766C48.0534 9.55766 48.1222 9.54031 48.1739 9.52297ZM15.1256 29.8179C15.0567 33.6513 15.8313 36.7389 17.3116 39.6357C19.1189 43.1743 21.8729 45.6895 25.5909 47.0598C28.2588 48.0312 31.0301 48.2394 33.8529 47.9271C37.416 47.5282 40.497 46.0711 43.0961 43.5906C46.7796 40.0694 48.2427 35.5768 48.4837 30.6158C48.6386 27.4415 47.9845 24.3712 46.6764 21.4571C45.351 18.4735 43.2855 16.1145 40.5142 14.3972C37.2438 12.3504 33.6808 11.7259 29.8768 12.0555C23.904 12.5759 19.7041 15.6635 17.0534 20.9887C15.5731 23.9202 15.16 27.0945 15.1256 29.8179Z" fill="#1B51A4"/>
</g>
<defs>
<clipPath id="clip0_1021_18016">
<rect width="62" height="60" fill="white" transform="translate(0.666992)"/>
</clipPath>
</defs>
</svg>
