<svg fill="none" xmlns="http://www.w3.org/2000/svg" viewBox="0 0 143 64">
  <g clip-path="url(#clip0)" fill="#1976D2">
    <path d="M71.6 52v-5h-2.1v5a6 6 0 102 0zm-1 9a3 3 0 110-6.1 3 3 0 010 6.1zM56.6 52v-5h-2.1v5a6 6 0 102 0zm-1 9a3 3 0 110-6.1 3 3 0 010 6.1zM70.5 33.5a3.4 3.4 0 100-6.7 3.4 3.4 0 000 6.7zM54.5 36.1a7 7 0 017-7h3.4a5.7 5.7 0 014.4-4.6v-9.4a8.7 8.7 0 01-6.4-4.5 18 18 0 00-7.7 7.7 14.4 14.4 0 00-.7 28.6V36z"/>
    <path d="M88 47a12 12 0 00.9-24 18 18 0 00-10.5-13 8.7 8.7 0 01-6.7 5v9.5a5.7 5.7 0 014.5 4.6h4.2a6.1 6.1 0 016.1 6.1V47h-2V35.2a4 4 0 00-4.1-4h-4.2a5.7 5.7 0 01-4.5 4.6V47h12.7v5a6 6 0 102.1 0v-5H88zm.5 11a3 3 0 11-6.1 0 3 3 0 016.1 0zM64.9 31.2h-3.4a5 5 0 00-5 5V47h-1l1.3.1h12.5V35.8a5.7 5.7 0 01-4.4-4.6zM71.4 12.1A5.7 5.7 0 1069.6 1a5.7 5.7 0 001.8 11.2z"/>
  </g>
  <defs>
    <clipPath id="clip0">
      <path fill="#fff" d="M0 0h143v64H0z"/>
    </clipPath>
  </defs>
</svg>
