<svg width="144" height="63" viewBox="0 0 144 63" fill="none" xmlns="http://www.w3.org/2000/svg">
<g clip-path="url(#clip0_330:7876)">
<path d="M6.3111 49.0158L0.166626 42.8449L21.2953 21.8862L27.3079 28.0384L6.3111 49.0158Z" fill="#132E50"/>
<path d="M28.9479 31.1611L34.9227 25.0278L55.9949 45.9865L49.9069 52.0821C42.8955 45.0834 35.9028 38.0846 28.9479 31.1611Z" fill="#98B1CB"/>
<path d="M26.4041 33.8896L32.3413 39.816L15.0953 57.0119L8.76233 51.1043L26.4041 33.8896Z" fill="#DD0957"/>
<path d="M28.7604 48.658L34.9991 42.2236L47.42 54.2269L41.0493 60.7741L28.7604 48.658Z" fill="#3E9AD5"/>
<path d="M42.9904 4.70898L49.1726 10.8987L37.7506 22.187L31.6627 16.0914C35.4135 12.3286 39.1831 8.52819 42.9904 4.70898Z" fill="#DD0957"/>
<path d="M29.9662 13.3824L23.8783 19.4592L12.4752 8.18975L18.6197 2L29.9662 13.3824Z" fill="#3E9AD5"/>
<path d="M45.8344 30.3713L39.6334 24.4826L48.247 15.6777L54.3538 21.7734C51.5454 24.6143 48.6993 27.474 45.8344 30.3713Z" fill="#132E50"/>
<path d="M10.0052 10.7295L18.5811 19.4779L12.4178 25.3478L3.93616 16.7875L10.0052 10.7295Z" fill="#98B1CB"/>
<path d="M67.8121 20.6442V20.9264H63.4205V20.6442H63.7975C64.2122 20.6442 64.5326 20.5313 64.721 20.2679C64.8341 20.0986 64.9095 19.7223 64.9095 19.1014V12.5166C64.9284 12.1779 64.8907 11.8205 64.8153 11.5006C64.7587 11.3689 64.6457 11.2561 64.5137 11.1808C64.3064 11.0679 64.0614 10.9927 63.8163 10.9927H63.4394V10.7104H67.831V10.9927H67.454C67.0394 10.9927 66.7378 11.1055 66.5493 11.3689C66.4174 11.5194 66.3608 11.9145 66.3608 12.5354V19.1202C66.342 19.4589 66.3797 19.8163 66.4551 20.1362C66.5116 20.2867 66.6436 20.3996 66.7755 20.4748C66.9828 20.5877 67.2278 20.663 67.454 20.663L67.8121 20.6442Z" fill="#101113"/>
<path d="M70.809 15.2824C71.6194 14.3041 72.3922 13.8149 73.1273 13.8149C73.4665 13.8149 73.8058 13.909 74.1074 14.0971C74.409 14.3417 74.6351 14.6616 74.7671 15.0378C74.899 15.4894 74.9555 15.9597 74.9367 16.4301V19.365C74.9179 19.666 74.9555 19.9671 75.0498 20.2493C75.1063 20.3622 75.2006 20.475 75.3137 20.5315C75.521 20.6255 75.766 20.6632 75.9922 20.6444V20.9078H72.543V20.6444H72.6938C72.92 20.6632 73.165 20.6067 73.3723 20.4939C73.5042 20.381 73.5985 20.2305 73.6362 20.0611C73.6739 19.8166 73.6739 19.5908 73.6739 19.3462V16.5241C73.6739 15.9033 73.5985 15.4329 73.4289 15.1507C73.2592 14.8685 72.9388 14.6992 72.5995 14.718C71.9964 14.718 71.4121 15.0378 70.809 15.6963V19.3274C70.809 19.7977 70.8278 20.0799 70.8844 20.1928C70.9409 20.3245 71.054 20.4374 71.1671 20.5127C71.4121 20.6067 71.6571 20.6256 71.921 20.6067V20.8701H68.4907V20.6067H68.6414C68.9995 20.6067 69.2257 20.5127 69.3577 20.3433C69.4896 20.174 69.5461 19.8166 69.5461 19.3274V16.8063C69.565 16.2984 69.5461 15.7904 69.4896 15.2824C69.4708 15.1507 69.4142 15.0002 69.32 14.9061C69.2257 14.8309 69.1126 14.7933 68.9996 14.8121C68.8299 14.8121 68.6603 14.8497 68.4907 14.925L68.3776 14.6616L70.4509 13.8149H70.7713L70.809 15.2824Z" fill="#101113"/>
<path d="M78.6515 11.7644V14.0409H80.2725V14.5677H78.6515V19.0454C78.6515 19.4969 78.7081 19.7979 78.84 19.9484C78.9531 20.099 79.1416 20.193 79.3301 20.1742C79.4997 20.1742 79.6693 20.1178 79.8201 20.0237C79.9898 19.9108 80.1028 19.7603 80.1782 19.5722H80.4798C80.3479 20.0049 80.084 20.4 79.7259 20.6822C79.4432 20.9079 79.085 21.0585 78.7269 21.0585C78.4819 21.0585 78.2557 20.9832 78.0484 20.8703C77.8222 20.7386 77.6526 20.5505 77.5584 20.3247C77.4264 19.9673 77.3699 19.591 77.3887 19.2147V14.5489H76.2955V14.3043C76.6159 14.1726 76.8987 13.9845 77.1437 13.7399C77.4453 13.4577 77.7091 13.1378 77.9165 12.7992C78.1049 12.4605 78.2557 12.1031 78.4065 11.7456L78.6515 11.7644Z" fill="#101113"/>
<path d="M82.2299 16.6184C82.2299 17.6343 82.475 18.4433 82.9839 19.0265C83.4174 19.5721 84.0582 19.892 84.7556 19.892C85.1891 19.892 85.6037 19.7603 85.943 19.5157C86.2823 19.2711 86.565 18.8384 86.7912 18.2364L87.0173 18.3869C86.9043 19.083 86.5838 19.7415 86.0938 20.2683C85.6226 20.8139 84.9064 21.1337 84.1901 21.1149C83.3797 21.1149 82.588 20.7762 82.0603 20.1554C81.476 19.5157 81.1744 18.6503 81.1744 17.5591C81.1744 16.3738 81.476 15.4519 82.0791 14.7934C82.6634 14.1538 83.4928 13.7963 84.3409 13.7963C85.0571 13.7775 85.7545 14.0597 86.2446 14.5677C86.7535 15.0756 86.9985 15.7529 86.9985 16.6184H82.2299ZM82.2299 16.1857H85.4341C85.4341 15.8658 85.3776 15.546 85.2833 15.245C85.1702 14.9816 84.9629 14.737 84.7179 14.5865C84.4917 14.436 84.209 14.3419 83.9451 14.3419C83.5304 14.3419 83.1158 14.5112 82.8331 14.8311C82.4561 15.1885 82.2488 15.6777 82.2299 16.1857Z" fill="#101113"/>
<path d="M90.0721 13.8149V15.3577C90.6563 14.3229 91.2406 13.8149 91.8626 13.8149C92.1076 13.8149 92.3527 13.8902 92.5412 14.0595C92.7108 14.21 92.805 14.417 92.8239 14.6427C92.8239 14.8309 92.7485 15.0002 92.6354 15.1319C92.5223 15.2636 92.3527 15.3389 92.1642 15.3389C91.938 15.32 91.7307 15.226 91.5799 15.0755C91.448 14.9438 91.2783 14.8497 91.0899 14.8121C90.9768 14.8309 90.8637 14.8685 90.7883 14.9626C90.5056 15.2636 90.2605 15.6023 90.0909 15.9785V19.3086C90.0721 19.6096 90.1286 19.8918 90.2417 20.174C90.3171 20.3245 90.449 20.4374 90.581 20.5127C90.8071 20.6067 91.0522 20.6632 91.2972 20.6444V20.9078H87.7537V20.6444C88.0176 20.6632 88.3003 20.6067 88.5454 20.475C88.6773 20.381 88.7715 20.2493 88.8092 20.0988C88.8469 19.8542 88.8658 19.6096 88.8469 19.365V16.6935C88.8658 16.2231 88.8469 15.734 88.7904 15.2636C88.7715 15.1319 88.6961 15.019 88.6019 14.925C88.5077 14.8497 88.3946 14.8121 88.2815 14.8121C88.093 14.8121 87.9234 14.8497 87.7537 14.925L87.6783 14.6616L89.7705 13.8149H90.0721Z" fill="#101113"/>
<path d="M95.3311 15.2824C96.1416 14.3041 96.9144 13.8149 97.6494 13.8149C97.9887 13.8149 98.328 13.909 98.6295 14.0971C98.9311 14.3417 99.1573 14.6616 99.2704 15.0378C99.4023 15.4894 99.4588 15.9597 99.44 16.4301V19.365C99.4212 19.666 99.4588 19.9671 99.5531 20.2493C99.6096 20.381 99.7039 20.475 99.817 20.5503C100.024 20.6444 100.269 20.682 100.495 20.6632V20.9266H97.084V20.6632H97.2348C97.461 20.682 97.706 20.6255 97.9133 20.5127C98.0452 20.3998 98.1395 20.2493 98.1772 20.0799C98.2149 19.8354 98.2149 19.6096 98.2149 19.365V16.5429C98.2149 15.9221 98.1395 15.4517 97.9699 15.1695C97.8002 14.8873 97.4798 14.718 97.1405 14.7368C96.5374 14.7368 95.9531 15.0567 95.35 15.7151V19.3462C95.3311 19.6472 95.35 19.9294 95.4254 20.2116C95.4819 20.3433 95.595 20.4562 95.7081 20.5315C95.9531 20.6255 96.1981 20.6444 96.462 20.6255V20.8889H93.0317V20.6255H93.1825C93.5406 20.6255 93.7667 20.5315 93.8987 20.3622C94.0306 20.1928 94.0872 19.8354 94.0872 19.3462V16.8063C94.106 16.2984 94.0872 15.7904 94.0306 15.2824C94.0118 15.1507 93.9552 15.0002 93.861 14.9061C93.7667 14.8309 93.6537 14.7933 93.5406 14.8121C93.3709 14.8121 93.2013 14.8497 93.0317 14.925L92.9186 14.6616L94.9919 13.8149H95.3123L95.3311 15.2824Z" fill="#101113"/>
<path d="M105.077 19.9297C104.662 20.2684 104.21 20.5882 103.739 20.8704C103.475 21.0021 103.173 21.0586 102.872 21.0586C102.419 21.0774 102.005 20.8892 101.684 20.5694C101.364 20.212 101.194 19.7604 101.213 19.2713C101.213 18.9702 101.288 18.6692 101.439 18.4058C101.722 17.9919 102.08 17.6721 102.513 17.4463C103.324 17.0136 104.191 16.6373 105.058 16.3551V16.0917C105.058 15.4144 104.945 14.9253 104.738 14.6807C104.493 14.4173 104.134 14.2856 103.776 14.3044C103.494 14.2856 103.23 14.3797 103.022 14.5678C102.853 14.7183 102.74 14.9253 102.74 15.151L102.759 15.5837C102.777 15.7719 102.702 15.9788 102.589 16.1105C102.476 16.2422 102.306 16.2987 102.118 16.2987C101.948 16.2987 101.778 16.2234 101.665 16.0917C101.533 15.9412 101.477 15.7531 101.496 15.5649C101.496 15.1322 101.722 14.7371 102.155 14.3797C102.589 14.0222 103.211 13.8341 104.021 13.8341C104.549 13.8152 105.058 13.9281 105.529 14.1351C105.831 14.2856 106.057 14.549 106.189 14.8688C106.283 15.0758 106.321 15.5273 106.321 16.2046V18.5375C106.302 18.9326 106.321 19.3465 106.359 19.7416C106.359 19.8545 106.415 19.9486 106.49 20.0426C106.547 20.0991 106.622 20.1179 106.698 20.1179C106.773 20.1179 106.849 20.0991 106.905 20.0614C107.131 19.8921 107.32 19.704 107.508 19.5158V19.9297C106.943 20.6823 106.415 21.0586 105.887 21.0586C105.661 21.0774 105.454 20.9833 105.303 20.7952C105.171 20.6259 105.096 20.3436 105.077 19.9297ZM105.077 19.4406V16.8066C104.568 16.9948 104.078 17.2017 103.607 17.4463C103.267 17.6156 102.985 17.8414 102.759 18.1424C102.589 18.3682 102.495 18.6504 102.495 18.9326C102.476 19.2713 102.608 19.5911 102.815 19.8357C103.004 20.0614 103.267 20.1931 103.569 20.1931C103.965 20.1931 104.455 19.9486 105.077 19.4406Z" fill="#101113"/>
<path d="M110.164 11.7644V14.0409H111.785V14.5677H110.164V19.0454C110.164 19.4969 110.22 19.7979 110.352 19.9484C110.466 20.099 110.654 20.193 110.842 20.1742C111.012 20.1742 111.182 20.1178 111.333 20.0237C111.502 19.9108 111.615 19.7603 111.691 19.5722H111.992C111.86 20.0049 111.596 20.4 111.238 20.6822C110.956 20.9079 110.597 21.0585 110.239 21.0585C109.994 21.0585 109.768 20.9832 109.561 20.8703C109.335 20.7386 109.165 20.5505 109.071 20.3247C108.939 19.9673 108.882 19.591 108.92 19.2147V14.5489H107.827V14.3043C108.147 14.1726 108.43 13.9845 108.675 13.7399C108.977 13.4577 109.24 13.1378 109.448 12.7992C109.636 12.4605 109.787 12.1031 109.938 11.7456L110.164 11.7644Z" fill="#101113"/>
<path d="M114.952 13.8149V19.365C114.933 19.6472 114.971 19.9482 115.046 20.2304C115.103 20.3621 115.197 20.475 115.329 20.5502C115.537 20.6443 115.782 20.6819 116.008 20.6631V20.9265H112.653V20.6631C112.879 20.6819 113.124 20.6443 113.331 20.5691C113.463 20.4938 113.557 20.3809 113.614 20.2492C113.708 19.967 113.746 19.666 113.708 19.3838V16.7122C113.727 16.2231 113.708 15.7339 113.633 15.2636C113.614 15.1319 113.557 15.019 113.463 14.9249C113.369 14.8497 113.256 14.8308 113.162 14.8308C112.992 14.8308 112.804 14.8685 112.653 14.9437L112.54 14.6803L114.613 13.8337L114.952 13.8149ZM114.33 10.2026C114.745 10.2026 115.084 10.5413 115.084 10.9552C115.084 11.1621 115.009 11.3503 114.858 11.5008C114.726 11.6513 114.519 11.7266 114.311 11.7266C113.878 11.7266 113.539 11.3879 113.539 10.9552C113.539 10.7482 113.614 10.5601 113.765 10.4096C113.916 10.2779 114.123 10.2026 114.33 10.2026Z" fill="#101113"/>
<path d="M120.361 13.8152C121.341 13.7775 122.284 14.2291 122.887 15.0193C123.414 15.6777 123.697 16.5055 123.697 17.3522C123.697 18.0107 123.546 18.6503 123.245 19.2336C122.736 20.4188 121.567 21.1714 120.286 21.1526C119.306 21.1902 118.363 20.7198 117.798 19.9108C117.289 19.2336 117.006 18.4057 117.025 17.5591C117.025 16.9006 117.195 16.261 117.496 15.6777C118.005 14.5489 119.136 13.834 120.361 13.8152ZM120.135 14.3043C119.852 14.3043 119.569 14.3984 119.324 14.5489C119.023 14.7559 118.797 15.0381 118.665 15.3767C118.476 15.8659 118.401 16.3927 118.42 16.9006C118.401 17.8037 118.608 18.7068 119.023 19.4969C119.419 20.2307 119.946 20.5881 120.606 20.5881C121.077 20.5881 121.53 20.3624 121.812 19.9861C122.133 19.591 122.284 18.8949 122.284 17.9166C122.284 16.6937 122.02 15.7342 121.492 15.0193C121.19 14.5865 120.681 14.3043 120.135 14.3043Z" fill="#101113"/>
<path d="M126.845 15.2824C127.656 14.3041 128.429 13.8149 129.164 13.8149C129.503 13.8149 129.842 13.909 130.144 14.0971C130.445 14.3417 130.672 14.6616 130.785 15.0378C130.917 15.4894 130.973 15.9597 130.954 16.4301V19.365C130.936 19.666 130.973 19.9671 131.067 20.2493C131.124 20.381 131.218 20.475 131.331 20.5503C131.557 20.6444 131.784 20.682 132.029 20.6632V20.9266H128.598V20.6632H128.749C128.975 20.682 129.22 20.6255 129.428 20.5127C129.56 20.3998 129.654 20.2493 129.692 20.0799C129.729 19.8354 129.729 19.6096 129.729 19.365V16.5429C129.729 15.9221 129.654 15.4517 129.484 15.1695C129.315 14.8873 128.994 14.718 128.655 14.7368C128.052 14.7368 127.467 15.0567 126.864 15.7151V19.3462C126.845 19.6472 126.864 19.9294 126.94 20.2116C126.996 20.3433 127.109 20.4562 127.222 20.5315C127.467 20.6255 127.712 20.6444 127.976 20.6255V20.8889H124.565V20.6255H124.716C125.074 20.6255 125.3 20.5315 125.432 20.3622C125.564 20.1928 125.62 19.8354 125.62 19.3462V16.8063C125.639 16.2984 125.62 15.7904 125.564 15.2824C125.545 15.1507 125.488 15.0002 125.394 14.9061C125.3 14.8309 125.187 14.7933 125.074 14.8121C124.904 14.8121 124.734 14.8497 124.565 14.925L124.452 14.6616L126.525 13.8149H126.845V15.2824Z" fill="#101113"/>
<path d="M136.608 19.9297C136.193 20.2684 135.741 20.5882 135.27 20.8704C135.006 21.0021 134.704 21.0586 134.403 21.0586C133.95 21.0774 133.536 20.8892 133.215 20.5694C132.895 20.212 132.725 19.7604 132.744 19.2713C132.744 18.9702 132.82 18.6692 132.97 18.4058C133.253 17.9919 133.611 17.6721 134.045 17.4463C134.855 17.0136 135.722 16.6373 136.589 16.3551V16.0917C136.589 15.4144 136.476 14.9253 136.269 14.6807C136.024 14.4173 135.666 14.2856 135.308 14.3044C135.025 14.2856 134.761 14.3797 134.554 14.5678C134.384 14.7183 134.271 14.9253 134.271 15.151L134.29 15.5837C134.309 15.7719 134.233 15.9788 134.12 16.1105C134.007 16.2422 133.837 16.2987 133.649 16.2987C133.479 16.2987 133.31 16.2234 133.197 16.0917C133.065 15.9412 133.008 15.7531 133.027 15.5649C133.027 15.1322 133.253 14.7371 133.687 14.3797C134.12 14.0222 134.742 13.8341 135.553 13.8341C136.08 13.8152 136.589 13.9281 137.06 14.1351C137.362 14.2856 137.588 14.549 137.72 14.8688C137.814 15.0758 137.852 15.5273 137.852 16.2046V18.5375C137.833 18.9326 137.852 19.3465 137.89 19.7416C137.89 19.8545 137.946 19.9486 138.022 20.0426C138.078 20.0991 138.154 20.1179 138.229 20.1179C138.304 20.1179 138.38 20.0991 138.436 20.0614C138.663 19.8921 138.851 19.704 139.039 19.5158V19.9297C138.474 20.6823 137.946 21.0586 137.419 21.0586C137.192 21.0586 136.985 20.9645 136.834 20.7952C136.683 20.6259 136.608 20.3436 136.608 19.9297ZM136.608 19.4406V16.8066C136.099 16.9948 135.609 17.2017 135.138 17.4463C134.799 17.6156 134.516 17.8414 134.29 18.1424C134.12 18.3682 134.026 18.6504 134.026 18.9326C134.007 19.2713 134.139 19.5911 134.346 19.8357C134.535 20.0614 134.799 20.1931 135.1 20.1931C135.477 20.1931 135.986 19.9486 136.608 19.4406Z" fill="#101113"/>
<path d="M142.054 10.2217V19.384C142.035 19.6662 142.073 19.9672 142.148 20.2495C142.205 20.3812 142.318 20.494 142.431 20.5693C142.657 20.6634 142.921 20.701 143.166 20.6822V20.9456H139.773V20.6822C139.999 20.701 140.207 20.6634 140.414 20.5881C140.546 20.5128 140.64 20.4 140.697 20.2683C140.772 19.9861 140.81 19.685 140.791 19.4028V13.1002C140.81 12.6299 140.791 12.1407 140.734 11.6703C140.716 11.5386 140.659 11.407 140.565 11.3129C140.471 11.2376 140.376 11.2188 140.263 11.2188C140.094 11.2188 139.924 11.2753 139.773 11.3317L139.641 11.0683L141.696 10.2217H142.054Z" fill="#101113"/>
<path d="M71.9778 26.5146L72.0908 28.904H71.8081C71.7893 28.5842 71.695 28.2831 71.5819 28.0009C71.45 27.7375 71.2238 27.5118 70.96 27.3613C70.6395 27.2108 70.2814 27.1355 69.9422 27.1543H68.5097V34.9621C68.5097 35.5829 68.5851 35.978 68.717 36.1285C68.9432 36.3543 69.2825 36.4672 69.6029 36.4484H69.961V36.7306H65.6259V36.4484H65.9841C66.4176 36.4484 66.7191 36.3167 66.9076 36.0533C67.0207 35.8839 67.0773 35.5265 67.0773 34.9432V27.1355H65.8521C65.5129 27.1167 65.1736 27.1543 64.8343 27.2484C64.5516 27.3613 64.3254 27.5494 64.1558 27.794C63.9485 28.1326 63.8354 28.5089 63.8165 28.904H63.5338L63.6469 26.5146H71.9778Z" fill="#101113"/>
<path d="M74.559 29.6184V31.1612C75.1433 30.1264 75.7275 29.6184 76.3307 29.6184C76.5757 29.6184 76.8396 29.6937 77.0092 29.863C77.1788 30.0135 77.2731 30.2205 77.2731 30.4462C77.2731 30.6344 77.2165 30.8037 77.0846 30.9354C76.9715 31.0671 76.8019 31.1423 76.6134 31.1423C76.3872 31.1235 76.1799 31.0295 76.0291 30.879C75.8972 30.7473 75.7275 30.6532 75.5391 30.6156C75.426 30.6344 75.3129 30.672 75.2375 30.7661C74.9548 31.0671 74.7097 31.4057 74.5401 31.782V35.1121C74.5213 35.4131 74.5778 35.6953 74.6909 35.9775C74.7663 36.128 74.8794 36.2409 75.0302 36.3161C75.2563 36.4102 75.5014 36.4667 75.7464 36.4478V36.7112H72.203V36.4478C72.4668 36.4667 72.7496 36.4102 72.9946 36.2785C73.1265 36.1845 73.2208 36.0528 73.2584 35.9022C73.2961 35.6577 73.315 35.4131 73.2961 35.1685V32.4781C73.315 32.0078 73.2961 31.5186 73.2396 31.0483C73.2208 30.9166 73.1454 30.8037 73.0511 30.7096C72.9569 30.6344 72.8438 30.5967 72.7307 30.5967C72.5422 30.5967 72.3726 30.6344 72.203 30.7096L72.1276 30.4462L74.2197 29.5996H74.559V29.6184Z" fill="#101113"/>
<path d="M81.7214 35.7332C81.3067 36.0719 80.8543 36.3917 80.3831 36.6739C80.1193 36.8056 79.8177 36.8621 79.5161 36.8621C79.0638 36.8809 78.6491 36.6927 78.3287 36.3729C78.0083 36.0154 77.8386 35.5639 77.8575 35.0747C77.8575 34.7737 77.9329 34.4727 78.0837 34.2093C78.3475 33.7954 78.7245 33.4756 79.158 33.2498C79.9685 32.8171 80.8355 32.4408 81.7025 32.1586V31.8764C81.7025 31.1991 81.5894 30.7099 81.3821 30.4654C81.1371 30.202 80.7789 30.0703 80.4208 30.0891C80.1381 30.0703 79.8742 30.1643 79.6669 30.3525C79.4973 30.503 79.3842 30.7099 79.3842 30.9357L79.403 31.3684C79.4219 31.5566 79.3465 31.7635 79.2146 31.8952C79.1015 32.0269 78.9318 32.0833 78.7434 32.0833C78.5737 32.0833 78.4041 32.0269 78.291 31.8952C78.1591 31.7447 78.1025 31.5566 78.1214 31.3496C78.1214 30.9169 78.3475 30.5218 78.7811 30.1643C79.2146 29.8069 79.8365 29.6187 80.647 29.6187C81.1748 29.5999 81.6837 29.7128 82.1549 29.9197C82.4564 30.0703 82.6826 30.3337 82.8145 30.6535C82.9088 30.8604 82.9465 31.312 82.9465 31.9705V34.3222C82.9276 34.7173 82.9465 35.1312 82.9842 35.5263C82.9842 35.6392 83.0407 35.7332 83.1161 35.8273C83.1727 35.8837 83.248 35.9026 83.3234 35.9026C83.3988 35.9026 83.4742 35.8837 83.5308 35.8461C83.7569 35.6768 83.9454 35.4886 84.1339 35.3005V35.7144C83.5685 36.467 83.0219 36.8432 82.513 36.8432C82.2868 36.8621 82.0795 36.768 81.9287 36.5799C81.8156 36.4293 81.7402 36.1471 81.7214 35.7332ZM81.7214 35.2441V32.6101C81.2125 32.7983 80.7224 33.0052 80.2512 33.2498C79.9119 33.4191 79.6292 33.6449 79.403 33.9459C79.2334 34.1717 79.1392 34.4539 79.1392 34.7361C79.1203 35.0747 79.2523 35.3946 79.4596 35.6392C79.6481 35.8649 79.9308 35.9966 80.2135 35.9966C80.6093 35.9966 81.0994 35.752 81.7214 35.2441Z" fill="#101113"/>
<path d="M89.6746 35.9591C89.3919 36.2601 89.0527 36.5235 88.6945 36.7117C88.3741 36.8622 88.016 36.9374 87.6579 36.9374C86.8851 36.9374 86.1689 36.58 85.6789 35.9967C85.1134 35.3759 84.8307 34.5669 84.8307 33.5697C84.8307 32.5914 85.17 31.6319 85.7731 30.8605C86.3197 30.0704 87.2244 29.6188 88.1856 29.6376C88.7511 29.6188 89.2977 29.8258 89.6935 30.2209V28.9415C89.7123 28.4524 89.6935 27.9632 89.637 27.4929C89.6181 27.3424 89.5616 27.2107 89.4673 27.1166C89.3731 27.0413 89.2788 27.0225 89.1658 27.0225C88.9961 27.0413 88.8076 27.079 88.638 27.1354L88.5438 26.872L90.5982 26.0254H90.9375V33.9836C90.9186 34.4728 90.9375 34.9808 90.994 35.4699C91.0129 35.6204 91.0883 35.7521 91.1825 35.8462C91.2579 35.9215 91.371 35.9591 91.4652 35.9591C91.6537 35.9403 91.8422 35.9027 92.0118 35.8274L92.0872 36.0908L90.0328 36.9374H89.6935L89.6746 35.9591ZM89.6746 35.4323V31.8765C89.6558 31.5567 89.5616 31.2368 89.4108 30.9358C89.2788 30.6724 89.0715 30.4466 88.8076 30.2961C88.5815 30.1644 88.3364 30.0892 88.0726 30.0892C87.6014 30.108 87.1679 30.3149 86.8851 30.6912C86.4328 31.218 86.2066 31.9706 86.2066 32.9865C86.2066 34.0025 86.4328 34.7738 86.8663 35.3194C87.3186 35.865 87.8087 36.1284 88.3553 36.1284C88.8076 36.1096 89.2411 35.8838 89.6746 35.4323Z" fill="#101113"/>
<path d="M93.8041 32.4216C93.8041 33.4375 94.0492 34.2465 94.5581 34.8298C94.9916 35.3754 95.6324 35.6952 96.3298 35.6952C96.7633 35.6952 97.178 35.5635 97.5172 35.3189C97.8565 35.0743 98.1392 34.6416 98.3654 34.0396L98.5916 34.1901C98.4785 34.8862 98.158 35.5447 97.668 36.0715C97.1968 36.6171 96.4806 36.9369 95.7643 36.9181C94.9539 36.9181 94.1623 36.5606 93.6345 35.9586C93.0502 35.3189 92.7487 34.4535 92.7487 33.3623C92.7487 32.177 93.0502 31.2551 93.6534 30.5967C94.2377 29.957 95.067 29.5807 95.934 29.5995C96.6502 29.5807 97.3476 29.8629 97.8376 30.3709C98.3465 30.8789 98.5916 31.5562 98.5916 32.4216H93.8041ZM93.8041 31.9889H97.0083C97.0083 31.669 96.9518 31.3492 96.8575 31.0482C96.7444 30.7848 96.5371 30.5402 96.2921 30.3897C96.0659 30.2392 95.7832 30.1451 95.5193 30.1451C95.0858 30.1451 94.69 30.3144 94.3884 30.6343C94.0303 30.9917 93.8418 31.4809 93.8041 31.9889Z" fill="#101113"/>
<path d="M72.3359 42.0923L72.5621 45.5728H72.3359C72.0155 44.5381 71.582 43.7855 70.9977 43.334C70.4134 42.8825 69.6783 42.6379 68.9244 42.6567C68.2647 42.6567 67.6427 42.826 67.0773 43.1647C66.493 43.5598 66.0218 44.143 65.7768 44.8203C65.4375 45.7234 65.2867 46.664 65.3056 47.6236C65.2867 48.4514 65.4375 49.2792 65.7391 50.0317C66.003 50.6714 66.4742 51.217 67.0773 51.5933C67.6993 51.9696 68.3967 52.1577 69.1129 52.1389C69.7349 52.1577 70.338 52.0072 70.8658 51.7062C71.3747 51.424 71.9212 50.8595 72.5432 50.0129L72.7694 50.1634C72.2605 51.0665 71.6574 51.7438 70.9788 52.1577C70.2438 52.5904 69.3956 52.8162 68.5474 52.7974C66.8511 52.7974 65.5317 52.1765 64.6082 50.916C63.9108 49.9565 63.5339 48.79 63.5715 47.6047C63.5715 46.6264 63.7977 45.6669 64.2501 44.8015C64.6836 43.9737 65.3244 43.2964 66.1349 42.826C66.9265 42.3557 67.8312 42.1111 68.7736 42.1299C69.5275 42.1299 70.2815 42.318 70.96 42.6755C71.0919 42.7696 71.2427 42.826 71.4124 42.8448C71.5443 42.8448 71.6762 42.7884 71.7705 42.6943C71.9212 42.5438 72.0155 42.3369 72.0532 42.1299L72.3359 42.0923Z" fill="#101113"/>
<path d="M75.1049 48.2253C75.1049 49.2413 75.35 50.0503 75.8589 50.6335C76.2924 51.1791 76.9332 51.4989 77.6306 51.4989C78.0641 51.4989 78.4787 51.3672 78.818 51.1226C79.1573 50.8781 79.44 50.4453 79.6662 49.8433L79.8923 49.9938C79.7793 50.6899 79.4588 51.3484 78.9688 51.8752C78.4976 52.4208 77.7814 52.7406 77.0651 52.7218C76.2547 52.7218 75.463 52.3832 74.9353 51.7623C74.351 51.1226 74.0494 50.2572 74.0494 49.166C74.0494 47.9807 74.351 47.0588 74.9541 46.4004C75.5384 45.7607 76.3677 45.3844 77.2348 45.4032C77.951 45.3844 78.6484 45.6666 79.1384 46.1746C79.6473 46.6826 79.8923 47.3599 79.8923 48.2253H75.1049ZM75.1049 47.7926H78.3091C78.3091 47.4728 78.2526 47.1529 78.1583 46.8519C78.0452 46.5885 77.8379 46.3439 77.5929 46.1934C77.3667 46.0429 77.084 45.9488 76.8201 45.9488C76.3866 45.9488 75.9908 46.1182 75.6892 46.438C75.35 46.7955 75.1426 47.2846 75.1049 47.7926Z" fill="#101113"/>
<path d="M82.9483 46.8896C83.7588 45.9113 84.5316 45.4221 85.2666 45.4221C85.6059 45.4221 85.9452 45.5162 86.2467 45.7043C86.5483 45.9489 86.7745 46.2688 86.8876 46.645C87.0195 47.0966 87.0761 47.5669 87.0572 48.0373V50.9722C87.0384 51.2732 87.0761 51.5743 87.1703 51.8565C87.2268 51.9882 87.3211 52.0822 87.4342 52.1575C87.6415 52.2516 87.8865 52.2892 88.1127 52.2704V52.5338H84.7012V52.2704H84.852C85.0782 52.2892 85.3232 52.2327 85.5305 52.1199C85.6624 52.007 85.7567 51.8565 85.7944 51.6871C85.8321 51.4426 85.8321 51.2168 85.8321 50.9722V48.1501C85.8321 47.5293 85.7567 47.0589 85.5871 46.7767C85.4174 46.4945 85.097 46.3252 84.7577 46.344C84.1546 46.344 83.5703 46.6638 82.9672 47.3223V50.9534C82.9483 51.2544 82.9672 51.5366 83.0426 51.8188C83.0991 51.9505 83.2122 52.0634 83.3253 52.1387C83.5703 52.2327 83.8153 52.2516 84.0792 52.2327V52.4961H80.6489V52.2139H80.7996C81.1578 52.2139 81.3839 52.1199 81.5159 51.9505C81.6478 51.7812 81.7044 51.4237 81.7044 50.9346V48.3759C81.7232 47.8679 81.7043 47.36 81.6478 46.8708C81.629 46.7391 81.5724 46.5886 81.4782 46.4945C81.3839 46.4193 81.2708 46.3816 81.1578 46.4005C80.9881 46.4005 80.8185 46.4381 80.6489 46.5133L80.5358 46.2499L82.6091 45.4033H82.9295L82.9483 46.8896Z" fill="#101113"/>
<path d="M90.7889 43.3714V45.629H92.4099V46.1558H90.7889V50.6335C90.7889 51.085 90.8455 51.386 90.9774 51.5366C91.0905 51.6871 91.279 51.7811 91.4675 51.7623C91.6371 51.7623 91.8067 51.7059 91.9575 51.6118C92.1272 51.4989 92.2402 51.3484 92.3156 51.1603H92.6172C92.4853 51.593 92.2214 51.9881 91.8633 52.2703C91.5806 52.4961 91.2224 52.6466 90.8643 52.6466C90.6193 52.6466 90.3931 52.5713 90.1858 52.4584C89.9596 52.3267 89.79 52.1386 89.6958 51.9128C89.5638 51.5554 89.5261 51.1791 89.545 50.8028V46.1558H88.4518V45.9112C88.7722 45.7795 89.0549 45.5914 89.2999 45.3468C89.6015 45.0646 89.8654 44.7448 90.0727 44.4061C90.2612 44.0675 90.412 43.71 90.5628 43.3525L90.7889 43.3714Z" fill="#101113"/>
<path d="M95.2354 45.4221V46.9649C95.8197 45.9301 96.404 45.4221 97.026 45.4221C97.271 45.4221 97.5161 45.4974 97.7045 45.6667C97.8742 45.8172 97.9684 46.0242 97.9684 46.2499C97.9684 46.4381 97.9119 46.6074 97.7799 46.7391C97.6668 46.8708 97.4972 46.9461 97.3087 46.9461C97.0826 46.9272 96.8752 46.8332 96.7244 46.6827C96.5925 46.551 96.4229 46.4569 96.2344 46.4193C96.1213 46.4381 96.0082 46.4757 95.9328 46.5698C95.6501 46.8708 95.4051 47.2094 95.2354 47.5857V50.9158C95.2166 51.2168 95.2731 51.499 95.3862 51.7812C95.4616 51.9317 95.5935 52.0446 95.7255 52.1199C95.9517 52.2139 96.1967 52.2704 96.4417 52.2516V52.5149H92.8983V52.2516C93.1621 52.2704 93.4449 52.2139 93.6899 52.0822C93.8218 51.9882 93.9161 51.8565 93.9538 51.706C93.9915 51.4614 94.0103 51.2168 93.9915 50.9722V48.2818C94.0103 47.8115 93.9915 47.3223 93.9349 46.852C93.9161 46.7203 93.8407 46.6074 93.7464 46.5133C93.6522 46.4381 93.5391 46.4005 93.426 46.4005C93.2375 46.4005 93.0679 46.4381 92.8983 46.5133L92.8229 46.2499L94.915 45.4033H95.2354V45.4221Z" fill="#101113"/>
<path d="M99.6459 48.2253C99.6459 49.2413 99.891 50.0503 100.4 50.6335C100.833 51.1791 101.474 51.4989 102.172 51.4989C102.605 51.4989 103.02 51.3672 103.359 51.1226C103.698 50.8781 103.981 50.4453 104.207 49.8433L104.433 49.9938C104.32 50.6899 104 51.3484 103.51 51.8752C103.039 52.4208 102.322 52.7406 101.606 52.7218C100.796 52.7218 100.004 52.3832 99.4763 51.7623C98.892 51.1226 98.5905 50.2572 98.5905 49.166C98.5905 47.9807 98.892 47.0588 99.4952 46.4004C100.079 45.7607 100.909 45.3844 101.776 45.4032C102.492 45.3844 103.189 45.6666 103.679 46.1746C104.188 46.6826 104.433 47.3599 104.433 48.2253H99.6459ZM99.6459 47.7926H102.85C102.85 47.4728 102.794 47.1529 102.699 46.8519C102.586 46.5885 102.379 46.3439 102.134 46.1934C101.908 46.0429 101.625 45.9488 101.361 45.9488C100.928 45.9488 100.532 46.1182 100.23 46.438C99.8533 46.7955 99.6648 47.2846 99.6459 47.7926Z" fill="#101113"/>
</g>
<defs>
<clipPath id="clip0_330:7876">
<rect width="143" height="63" fill="white" transform="translate(0.166626)"/>
</clipPath>
</defs>
</svg>
