<svg width="144" height="26" viewBox="0 0 144 26" fill="none" xmlns="http://www.w3.org/2000/svg">
<path d="M6.51632 0.201341C9.10313 0.200073 11.6886 0.201341 14.2742 0.200073C14.2729 2.7486 14.2703 5.29713 14.2754 7.84566C13.6685 7.84566 13.0616 7.84439 12.4547 7.84566C12.4585 6.35152 12.4611 4.85738 12.4611 3.36324C9.1891 6.57837 5.89272 9.76815 2.61431 12.9769C2.61302 17.0373 2.61815 21.099 2.61174 25.1607C1.96375 25.1594 1.31577 25.1594 0.66907 25.1594C0.665221 20.8342 0.670353 16.5089 0.666504 12.1836C2.14981 10.6882 3.68444 9.24222 5.18571 7.76455C7.16816 5.84587 9.10826 3.8841 11.1164 1.99203C9.58302 1.99203 8.04967 1.9933 6.51632 1.9971C6.51889 1.39893 6.51889 0.799504 6.51632 0.201341ZM16.0885 5.2401C16.5466 4.78388 17.0034 4.32512 17.4628 3.87016C20.3421 6.65821 23.2022 9.46526 26.0726 12.2609C26.0726 16.5875 26.07 20.9127 26.0739 25.238C25.4233 25.238 24.7728 25.2367 24.1222 25.238C24.1274 21.1801 24.121 17.121 24.1261 13.0631C21.4469 10.455 18.7716 7.84313 16.0885 5.2401Z" fill="#5712AA"/>
<path d="M8.45081 25.2469C8.45209 21.3944 8.45594 17.5418 8.44824 13.6892C11.7241 13.6905 14.9999 13.6905 18.2771 13.6892C18.2706 17.5418 18.2732 21.3944 18.2758 25.2469C17.6163 25.2469 16.958 25.2457 16.2998 25.2469C16.301 22.0407 16.3023 18.8332 16.2998 15.6256C14.3417 15.6269 12.3836 15.6269 10.4256 15.6256C10.4256 18.8332 10.4243 22.0394 10.4268 25.2469C9.76859 25.2469 9.11034 25.2469 8.45081 25.2469Z" fill="#5712AA"/>
<path d="M75.5949 5.44733C76.1197 5.37003 76.6599 5.32567 77.1872 5.40805C77.4541 5.46381 77.399 5.79837 77.4169 5.99861C77.4118 11.0716 77.4144 16.1458 77.4156 21.2188C77.3733 21.6738 77.5324 22.1896 77.2848 22.6014C76.7946 22.6775 76.2878 22.6724 75.7976 22.604C75.5718 22.2415 75.7206 21.7752 75.686 21.3722C74.7621 22.4342 73.3378 23.0412 71.92 22.9297C69.5706 22.8815 67.4944 20.8576 67.3854 18.5436C67.3546 17.1102 67.3841 15.6744 67.3713 14.2411C67.3482 12.899 67.9448 11.5684 68.9611 10.68C70.3007 9.47733 72.328 9.14023 74.0076 9.78908C74.5902 9.99565 75.1034 10.3442 75.591 10.7155C75.5846 8.96027 75.5782 7.2038 75.5949 5.44733ZM71.5992 11.2731C70.2493 11.5861 69.201 12.8597 69.2036 14.236C69.1997 15.5553 69.1997 16.8745 69.2036 18.1938C69.2138 19.4345 70.0697 20.5991 71.2438 21.0275C72.2356 21.3962 73.4161 21.2492 74.2733 20.6257C75.1458 20.0288 75.6167 18.9668 75.5872 17.9315C75.559 16.5754 75.6398 15.2144 75.5436 13.8609C75.3447 12.0651 73.3468 10.7877 71.5992 11.2731ZM30.7634 6.91739C31.1227 6.78179 31.5179 6.83755 31.8951 6.82615C32.1274 6.84262 32.3981 6.79066 32.5829 6.96935C32.6304 7.15058 32.6316 7.34067 32.6368 7.52696C32.6278 11.9739 32.6342 16.4221 32.6329 20.869C34.4832 20.8703 36.3335 20.869 38.1825 20.8678C38.3891 20.8868 38.6983 20.8234 38.7368 21.106C38.7856 21.5661 38.7894 22.0362 38.724 22.495C38.6226 22.6876 38.3621 22.6204 38.1863 22.6471C35.9601 22.6344 33.7326 22.6547 31.5063 22.6369C31.0136 22.6623 30.653 22.1921 30.7082 21.7295C30.7056 16.9544 30.7121 12.1779 30.7056 7.4015C30.7044 7.23802 30.7236 7.07581 30.7634 6.91739ZM137.809 7.28871C137.923 6.94781 138.375 7.08468 138.651 7.04539C138.95 7.09355 139.468 6.9212 139.593 7.29885C139.653 8.11245 139.595 8.93239 139.614 9.74853C141.016 9.78402 142.428 9.67756 143.823 9.79922C144.123 10.1769 143.944 10.7446 143.963 11.1983C143.974 11.4987 143.615 11.4683 143.41 11.4898C142.145 11.4974 140.88 11.4873 139.614 11.4911C139.613 13.7608 139.618 16.0305 139.612 18.3002C139.616 18.7577 139.575 19.2292 139.726 19.6702C139.927 20.2886 140.502 20.7613 141.15 20.8627C142.084 20.9983 143.038 20.8437 143.968 21.0122C143.972 21.5014 144.01 21.9944 143.949 22.481C143.778 22.7408 143.398 22.6103 143.137 22.6483C141.961 22.5888 140.706 22.8283 139.609 22.2948C138.474 21.7676 137.799 20.5345 137.79 19.3204C137.781 16.6996 137.788 14.0789 137.786 11.4568C137.179 11.4594 136.567 11.4961 135.969 11.3846C135.954 10.8802 135.957 10.3758 135.951 9.87146C136.541 9.66869 137.174 9.76374 137.786 9.7498C137.805 8.92986 137.746 8.10612 137.809 7.28871ZM44.4455 9.64335C46.5537 9.03251 49.0096 9.96651 50.099 11.8636C50.8945 13.0993 50.8612 14.62 50.8034 16.028C50.8021 16.5108 50.3363 16.8606 49.8667 16.8137C47.4467 16.8162 45.028 16.8124 42.608 16.8137C42.6119 17.5094 42.5618 18.2331 42.821 18.8959C43.2355 20.0364 44.38 20.8792 45.6093 20.9248C46.6833 20.9476 47.7572 20.9235 48.8299 20.9286C49.0263 20.9337 49.2316 20.9324 49.4125 21.0237C49.5447 21.5508 49.4792 22.1047 49.4009 22.6369C48.096 22.6445 46.791 22.6521 45.4874 22.6357C43.179 22.5634 41.1273 20.6726 40.8488 18.4168C40.7398 17.5817 40.7924 16.7389 40.7808 15.9C40.7872 14.7924 40.7013 13.6366 41.1414 12.5898C41.6957 11.1679 42.9519 10.0349 44.4455 9.64335ZM43.1097 12.6443C42.6132 13.3755 42.5875 14.2829 42.6055 15.1333C44.7355 15.1358 46.8667 15.1345 48.9968 15.1345C48.9968 14.421 49.0186 13.6733 48.6926 13.0169C48.25 12.0208 47.2427 11.301 46.1456 11.197C44.9651 11.0538 43.7295 11.6381 43.1097 12.6443ZM57.971 9.72952C59.0925 9.3392 60.3602 9.343 61.4778 9.74473C62.6865 10.187 63.6373 11.2515 63.9273 12.4922C64.1198 13.2311 64.0646 13.9978 64.0698 14.7518C64.071 17.1647 64.0646 19.5777 64.0736 21.9906C64.0544 22.187 64.1082 22.424 63.9453 22.5748C63.4166 22.6496 62.8803 22.6014 62.3478 22.6166C62.2798 22.3683 62.2297 22.1148 62.2362 21.8575C62.2464 19.2368 62.2387 16.616 62.2413 13.9965C62.249 13.0688 61.8961 12.055 61.0505 11.562C59.6442 10.7383 57.5938 11.1121 56.6673 12.4757C56.0527 13.3134 55.9821 14.3868 55.9847 15.3867C55.9873 17.6311 55.9834 19.8755 55.9886 22.1199C55.9719 22.2795 56.0142 22.481 55.8513 22.5812C55.3585 22.6395 54.8556 22.6344 54.3615 22.5888C54.1498 22.5153 54.1999 22.2846 54.187 22.1135C54.1909 18.1811 54.1896 14.25 54.1883 10.3188C54.1896 10.1553 54.205 9.99312 54.2358 9.83217C54.7709 9.6915 55.3444 9.71812 55.8872 9.80429C56.0951 10.2605 55.9424 10.794 55.9809 11.2794C56.4749 10.5862 57.1498 10.0058 57.971 9.72952ZM83.0935 9.70037C84.9412 9.16558 86.9943 9.56224 88.593 10.5938C88.4558 11.1033 88.2428 11.5962 87.9361 12.0271C87.6487 12.0373 87.4087 11.856 87.1585 11.7445C86.1127 11.1882 84.8424 10.917 83.6838 11.268C83.0217 11.4543 82.4635 12.0246 82.4276 12.7229C82.298 13.5048 82.733 14.3007 83.4438 14.6517C84.8476 15.3272 86.4284 15.6364 87.7385 16.5019C88.5392 17.0456 89.0729 17.9517 89.0601 18.9225C89.1089 19.9224 88.7996 20.9742 88.0439 21.6712C87.2522 22.4456 86.1307 22.7966 85.0388 22.8574C83.685 22.9322 82.2877 22.7104 81.0918 22.059C80.8865 21.9361 80.653 21.8182 80.5465 21.5939C80.7018 21.0858 80.9507 20.594 81.3305 20.2126C82.3467 20.7613 83.4477 21.2594 84.6346 21.2226C85.3826 21.234 86.1961 21.0642 86.7376 20.518C87.4562 19.7944 87.4254 18.3953 86.4887 17.858C84.9412 16.9607 83.0525 16.6946 81.6461 15.5464C80.5298 14.6289 80.3733 13.0017 80.798 11.7078C81.1342 10.6901 82.085 9.99692 83.0935 9.70037ZM96.0468 9.68517C97.5635 9.21753 99.3598 9.47987 100.561 10.5469C100.987 10.9106 101.283 11.3935 101.519 11.8941C101.882 11.1311 102.421 10.4202 103.189 10.0159C104.254 9.4203 105.559 9.36581 106.726 9.66489C107.911 9.97158 108.923 10.8523 109.376 11.9777C109.66 12.6532 109.716 13.3945 109.719 14.1182C109.717 16.4842 109.716 18.849 109.719 21.215C109.647 21.6662 109.9 22.2833 109.52 22.6141C109.018 22.6711 108.506 22.6711 108.007 22.6052C107.85 22.4354 107.899 22.1908 107.885 21.983C107.894 19.6993 107.885 17.4169 107.89 15.1333C107.888 14.2018 107.956 13.1956 107.447 12.3668C106.506 10.8726 104.105 10.8004 102.903 12.0195C102.189 12.6988 101.909 13.6949 101.868 14.6479C101.826 17.2585 101.902 19.8742 101.832 22.4836C101.798 22.5165 101.729 22.5824 101.694 22.6166C101.227 22.6699 100.751 22.6661 100.285 22.6204C100.026 22.6103 100.037 22.3049 100.03 22.1224C100.028 19.4104 100.031 16.6971 100.031 13.9838C100.032 13.1322 99.7319 12.221 99.0147 11.6976C98.2936 11.1654 97.3235 11.0589 96.46 11.2363C95.463 11.4454 94.6494 12.2274 94.3094 13.1639C94.0002 13.9521 94.0194 14.8101 94.031 15.6415C94.0335 17.754 94.0271 19.8666 94.0348 21.9792C94.0053 22.1921 94.0977 22.4925 93.8539 22.6103C93.3535 22.6737 92.8415 22.6673 92.3411 22.6128C92.1845 22.4924 92.2089 22.2871 92.1999 22.1148C92.2038 18.4789 92.2025 14.8418 92.2012 11.2059C92.2076 10.7877 92.1717 10.367 92.2295 9.95257C92.3257 9.70671 92.6247 9.77008 92.8364 9.74346C93.2111 9.7422 93.6037 9.70798 93.963 9.84485C94.0823 10.2922 94.022 10.7611 94.0258 11.2199C94.5173 10.5152 95.2115 9.94116 96.0468 9.68517ZM113.58 11.282C115.137 9.36581 118.077 8.99069 120.26 10.0007C121.557 10.5938 122.442 11.941 122.451 13.3553C122.456 16.2307 122.446 19.1075 122.456 21.983C122.438 22.1908 122.488 22.4342 122.336 22.6052C121.919 22.6699 121.489 22.6699 121.072 22.6192C120.909 22.6052 120.829 22.5191 120.834 22.3581C120.787 21.8512 120.824 21.3392 120.819 20.831C120.049 21.8613 118.898 22.623 117.615 22.8486C116.311 23.0716 114.851 22.917 113.798 22.0628C112.201 20.8437 112.105 18.1963 113.576 16.8454C114.265 16.1775 115.203 15.8252 116.139 15.6681C117.248 15.4932 118.364 15.3728 119.473 15.2017C119.909 15.1333 120.388 14.9368 120.555 14.4971C120.877 13.5986 120.65 12.4783 119.863 11.8801C118.396 10.737 115.923 10.9765 114.855 12.5455C114.691 12.7457 114.48 13.0828 114.174 12.9535C113.82 12.7799 113.456 12.5784 113.198 12.2781C113.016 11.9017 113.376 11.5646 113.58 11.282ZM116.708 17.1369C116.105 17.2192 115.489 17.3776 115 17.7502C114.062 18.4548 114.067 20.039 114.99 20.755C115.539 21.2074 116.281 21.357 116.982 21.3126C118.438 21.2505 119.748 20.2658 120.372 18.9922C120.777 18.2546 120.779 17.4005 120.752 16.5856C119.404 16.7693 118.055 16.9455 116.708 17.1369ZM129.352 11.6976C130.554 10.8638 131.656 9.56731 133.255 9.6142C133.539 9.64588 134.12 9.49634 134.119 9.93102C134.144 10.3809 134.157 10.8384 134.096 11.2858C133.566 11.5265 132.905 11.306 132.37 11.5874C131.243 12.1285 130.348 13.0232 129.349 13.7532C129.351 16.1458 129.349 18.5385 129.349 20.9311C130.267 20.9476 131.187 20.9007 132.105 20.9514C132.343 20.959 132.347 21.2796 132.366 21.4558C132.347 21.8335 132.463 22.2808 132.215 22.6052C131.798 22.6749 131.372 22.6395 130.952 22.6445C129.239 22.6395 127.526 22.6458 125.814 22.6445C125.637 22.628 125.397 22.68 125.336 22.4633C125.283 21.9881 125.263 21.4951 125.366 21.0249C126.058 20.8209 126.806 20.9806 127.521 20.9324C127.521 17.754 127.521 14.5757 127.521 11.396C126.842 11.396 126.165 11.3985 125.486 11.3935C125.442 11.3479 125.352 11.2566 125.307 11.211C125.311 10.7928 125.275 10.3695 125.334 9.95383C125.428 9.70037 125.735 9.77261 125.949 9.74726C126.805 9.75487 127.662 9.72952 128.518 9.75994C128.913 9.75107 129.313 10.0539 129.339 10.4557C129.369 10.8688 129.347 11.2845 129.352 11.6976Z" fill="black"/>
</svg>
