<svg width="143" height="63" viewBox="0 0 143 63" fill="none" xmlns="http://www.w3.org/2000/svg">
<g clip-path="url(#clip0_655_34156)">
<path d="M-0.285645 46.6596C-0.0166111 46.4204 -0.0166111 46.0766 -0.0166111 45.7777C-0.00166484 45.0454 0.357046 44.9258 1.01468 44.9258C6.14126 44.9557 11.2678 44.9407 16.3795 44.9407C31.8041 44.9706 47.2137 45.0005 62.6383 45.0155C69.9769 45.0304 77.3155 45.0304 84.6392 45.0454C85.4613 45.0454 85.3716 45.0155 85.1325 45.8226C84.8036 46.8688 84.2058 47.1079 83.1147 47.1079C55.6135 47.078 28.1123 47.093 0.611133 47.093C0.312207 47.093 0.0132815 47.1079 -0.285645 47.1229C-0.285645 46.9585 -0.285645 46.809 -0.285645 46.6596Z" fill="#02577A"/>
<path d="M88.3908 47.1233C88.3908 47.1681 88.3908 47.2129 88.3908 47.2578C87.2399 47.2578 86.104 47.2578 84.9531 47.2578C84.9531 47.2129 84.9531 47.1681 84.9531 47.1083C86.104 46.7496 87.2399 46.7048 88.3908 47.1233Z" fill="#FBD9C5"/>
<path d="M115.802 34.1484C116.296 32.5791 116.774 31.0545 117.252 29.53C117.372 29.1564 117.506 28.7827 117.626 28.409C118 27.2731 118 27.2731 119.15 27.2731C120.66 27.2731 122.185 27.2582 123.694 27.2881C124.277 27.303 124.337 27.0938 124.083 26.6304C123.38 25.4048 122.17 25.0013 120.899 24.8518C119.001 24.6276 117.088 24.523 115.19 24.3885C112.395 24.1942 109.585 24.0148 106.79 23.8056C106.61 23.7906 106.252 23.9401 106.327 23.5664C106.371 23.2974 106.341 22.8789 106.835 22.8789C106.984 22.8789 107.134 22.8789 107.283 22.8789C112.604 22.8789 117.925 22.8789 123.246 22.8789C126.16 22.8789 128.073 24.807 128.088 27.7215C128.088 28.9322 128.118 30.1428 128.103 31.3535C128.088 31.8018 128.223 31.9214 128.671 31.9812C131.885 32.3698 135.053 32.9677 138.192 33.6701C139.702 34.0139 140.703 34.8808 141.391 36.211C142.317 38.0195 142.526 39.9775 142.676 41.9504C142.781 43.3553 142.646 44.7603 142.586 46.1652C142.571 46.5538 142.422 46.6585 142.048 46.6585C141.63 46.6585 141.63 46.4492 141.63 46.1503C141.555 44.1923 141.376 42.2643 140.838 40.3661C140.12 37.8402 138.521 36.2558 135.995 35.5085C133.663 34.8061 131.272 34.6118 128.866 34.4772C124.696 34.2381 120.525 34.1484 116.355 34.1783C116.161 34.1933 116.027 34.1634 115.802 34.1484Z" fill="#02577A"/>
<path d="M88.3907 47.1226C87.2398 47.1226 86.1039 47.1226 84.953 47.1077C85.6107 45.2992 86.5373 43.6102 87.3444 41.8615C87.5686 41.3683 87.5836 40.9797 87.3743 40.4865C85.8349 36.8246 84.3253 33.1329 82.8157 29.4561C82.726 29.2319 82.6513 29.0077 82.5317 28.6938C83.6378 28.6938 84.684 28.7088 85.7153 28.6938C86.1488 28.6789 86.1637 29.0226 86.2683 29.2767C87.2697 31.6681 88.2711 34.0596 89.2576 36.4659C89.3323 36.6303 89.407 36.8097 89.5266 37.0787C90.4084 35.1506 91.2604 33.3122 92.0974 31.4738C92.4561 30.6817 92.8148 29.9045 93.1735 29.1123C93.2781 28.8881 93.3678 28.6938 93.6966 28.6938C94.7279 28.7237 95.7742 28.7088 96.9101 28.7088C96.0432 30.5771 95.2212 32.3706 94.3991 34.1642C92.4561 38.379 90.5131 42.6088 88.5551 46.8237C88.5252 46.9134 88.4505 47.018 88.3907 47.1226Z" fill="#F26B1C"/>
<path d="M88.8242 47.0925C89.1082 46.4647 89.3623 45.8968 89.6164 45.3437C89.7359 45.0747 89.9601 45.1046 90.1843 45.1046C96.7009 45.1195 103.218 45.1494 109.719 45.1644C112.051 45.1644 114.397 45.1494 116.729 45.1793C117.162 45.1793 117.327 44.9252 117.551 44.6712C119.853 41.8613 123.455 40.7702 126.623 41.9509C128.566 42.6684 129.837 44.6263 129.717 46.659C129.702 47.0177 129.568 47.1074 129.239 47.1223C128.208 47.1672 128.178 47.1821 127.984 46.1658C127.759 45.0299 127.057 44.4021 125.951 44.1779C123.455 43.6548 121.377 44.5217 119.673 46.2704C119.016 46.943 118.373 47.1373 117.476 47.1373C108.225 47.1074 98.9728 47.1223 89.721 47.1223C89.452 47.0925 89.1979 47.0925 88.8242 47.0925Z" fill="#02577A"/>
<path d="M9.78838 33.074C9.78838 30.2492 9.80333 27.4393 9.77344 24.6144C9.77344 24.0465 9.9229 23.8821 10.4759 23.9269C11.1933 23.9717 11.9257 23.9717 12.6431 23.9269C13.1961 23.8821 13.3456 24.0465 13.3456 24.6144C13.3157 29.0684 13.3456 33.5224 13.3157 37.9764C13.3157 38.6789 13.4502 38.933 14.1975 38.8882C15.3932 38.8284 16.589 38.8882 17.7697 38.8583C18.233 38.8433 18.4423 38.933 18.4124 39.4561C18.3676 40.2184 18.3825 40.9956 18.4124 41.7578C18.4273 42.1166 18.2928 42.2212 17.9491 42.2212C15.3932 42.2062 12.8225 42.2062 10.2667 42.2212C9.74354 42.2212 9.78838 41.9521 9.78838 41.6084C9.78838 38.7686 9.78838 35.9288 9.78838 33.074Z" fill="#02577A"/>
<path d="M100.303 36.8247C100.676 34.4781 101.035 32.1316 101.424 29.8C102.141 25.4057 102.888 21.0265 103.606 16.6323C103.815 15.3917 104.279 14.9583 105.549 15.0031C108.747 15.1077 111.961 15.1825 115.159 15.3319C118.971 15.5113 122.588 18.3959 123.574 21.983C122.782 21.983 122.005 21.983 121.213 21.983C120.869 21.983 120.779 21.6841 120.63 21.4749C119.539 19.8607 118.194 18.5454 116.265 17.9326C115.249 17.6187 114.203 17.6935 113.157 17.5888C111.273 17.4095 109.39 17.3347 107.507 17.1853C106.715 17.1255 106.356 17.5739 106.162 18.2016C105.594 20.0101 105.041 21.8336 104.488 23.657C103.128 28.2007 101.439 33.8504 100.079 38.3941C100.079 37.7215 100.172 37.6468 100.303 36.8247Z" fill="#02577A"/>
<path d="M76.4486 36.855C76.4486 35.3155 76.4337 33.791 76.4635 32.2515C76.4785 31.7433 76.3589 31.5042 75.8209 31.5939C75.3426 31.6686 75.223 31.4295 75.2529 30.996C75.2828 30.6074 75.2678 30.2039 75.2529 29.8153C75.2379 29.1875 75.0735 28.4701 76.1497 28.6793C76.5084 28.7541 76.4337 28.4253 76.4337 28.216C76.4635 27.3043 76.4038 26.3926 76.5532 25.4808C76.7475 24.2403 77.4799 23.4481 78.6905 23.209C79.7368 22.9997 80.7681 23.1193 81.7695 23.4631C81.904 23.5079 82.1132 23.5229 82.1431 23.6723C82.2627 24.4495 82.2328 25.2417 82.173 26.0338C82.1581 26.2281 81.9488 26.1534 81.7994 26.1385C81.5303 26.1086 81.2613 26.0338 80.9923 26.0338C80.1702 26.0189 79.9311 26.258 79.9161 27.0801C79.8862 28.6644 79.8862 28.6793 81.4855 28.6943C81.9488 28.6943 82.1282 28.8139 82.0684 29.2772C82.0535 29.4267 82.0684 29.5761 82.0684 29.7256C82.0385 30.3085 82.3075 31.0409 81.9638 31.4594C81.635 31.8778 80.8877 31.5939 80.3346 31.6088C79.7966 31.6088 79.9012 31.9526 79.9012 32.2515C79.9012 35.3155 79.8713 38.3795 79.9161 41.4584C79.9311 42.146 79.7069 42.2954 79.0792 42.2506C78.3916 42.1908 77.6891 42.2207 76.9867 42.2506C76.5682 42.2655 76.4337 42.146 76.4337 41.7125C76.4635 40.0834 76.4486 38.4692 76.4486 36.855Z" fill="#F26B1C"/>
<path d="M70.3508 35.4495C70.3508 33.4168 70.3807 31.3841 70.3358 29.3664C70.3209 28.7835 70.5002 28.6489 71.0532 28.6788C71.7258 28.7237 72.3984 28.7237 73.071 28.6788C73.6389 28.634 73.8183 28.7984 73.8183 29.3962C73.7884 32.9535 73.8034 36.5256 73.8034 40.0829C73.8034 40.6209 73.7735 41.1739 73.8183 41.712C73.8482 42.1155 73.6987 42.2202 73.3101 42.2052C72.5628 42.1753 71.8155 42.1604 71.0682 42.2052C70.5301 42.2351 70.3508 42.1006 70.3508 41.5177C70.3657 39.5149 70.3508 37.4822 70.3508 35.4495Z" fill="#02577A"/>
<path d="M72.0843 27.5278C70.8438 27.5278 69.8872 26.5563 69.8872 25.3008C69.8872 24.0453 70.8587 23.0887 72.1142 23.1037C73.3099 23.1186 74.2665 24.0901 74.2814 25.3008C74.2964 26.5563 73.3398 27.5278 72.0843 27.5278Z" fill="#02577A"/>
<path d="M101.334 16.3331C95.1463 16.5125 88.9585 16.647 82.7708 16.7815C79.0192 16.8712 75.2677 16.931 71.5162 17.0206C64.7904 17.185 58.0496 17.3495 51.3237 17.5139C47.5274 17.6035 43.7161 17.6633 39.9197 17.768C33.1191 17.9324 26.3036 18.0968 19.5031 18.2612C16.6932 18.3359 14.9295 18.3061 12.1196 18.3658C11.2975 18.3833 9.80291 18.4406 8.45774 18.4406C8.15882 18.4406 4.7959 18.4406 4.7959 18.7395C11.0733 18.889 21.5059 18.874 27.7534 18.9637C32.596 19.0234 37.4386 19.0982 42.2812 19.158C49.8142 19.2476 57.3321 19.3224 64.8651 19.412C67.1818 19.4419 69.4835 19.4718 71.8002 19.5017C72.8016 19.5017 73.788 19.5017 74.7894 19.5017C75.3873 19.5017 75.9851 19.5017 76.583 19.5017C76.9417 19.5017 77.3004 19.5017 77.6591 19.5017C77.5844 19.5466 75.4022 19.6362 74.8044 19.6512C73.803 19.7708 70.9632 19.7857 70.5297 19.8006C63.0865 20.0398 55.6432 20.2939 48.185 20.5031C42.6698 20.6526 26.767 20.5031 26.0196 21.3551C35.7347 21.3551 51.9164 21.3785 54.4027 21.3999C62.4139 21.4597 70.4251 21.5045 78.4214 21.5494C80.3644 21.5643 82.3074 21.5793 84.2355 21.5942C89.6311 21.639 95.0267 21.6689 100.422 21.7287C100.856 21.7287 101.005 21.6241 101.095 21.1757C101.349 19.8156 101.618 18.4555 101.962 17.1253C102.156 16.4527 102.022 16.3182 101.334 16.3331Z" fill="#02577A"/>
<path d="M67.3466 23.9853C67.3466 23.6266 67.2868 23.4472 66.8683 23.4622C66.0462 23.4921 65.2242 23.4921 64.4021 23.4622C64.0135 23.4472 63.894 23.5668 63.894 23.9554C63.9238 25.1212 63.9089 26.287 63.9089 27.4528C63.9089 28.3048 63.9089 29.1567 63.9089 30.0983C63.5801 29.8442 63.3858 29.6649 63.1616 29.5005C60.8599 27.7667 57.5717 27.9759 55.4941 29.9489C53.8202 31.5332 53.2074 33.4762 53.2671 35.7181C53.3419 38.543 54.5525 40.7102 57.0934 41.9507C59.4848 43.1315 61.7716 42.713 63.9089 40.8447C63.9089 41.1586 63.9388 41.323 63.9089 41.4874C63.7893 42.145 64.0883 42.2646 64.6861 42.2347C65.4035 42.1899 66.1359 42.2048 66.8533 42.2347C67.227 42.2497 67.3615 42.145 67.3615 41.7415C67.3316 35.8078 67.3316 29.8891 67.3466 23.9853ZM63.2812 37.9451C62.3545 39.2156 60.7552 39.7237 59.2307 39.2455C57.6763 38.7522 56.6599 37.2128 56.6749 35.3744C56.6898 33.5808 57.6763 32.131 59.2008 31.6527C60.7702 31.1595 62.4292 31.7275 63.3559 33.0427C64.2975 34.4178 64.2676 36.6 63.2812 37.9451Z" fill="#02577A"/>
<path d="M50.4573 30.9357C50.4573 30.2034 50.7861 29.2318 50.3228 28.8133C49.9192 28.4546 48.9627 28.6938 48.2452 28.6938C47.0794 28.6788 47.0794 28.6938 47.0346 29.8745C47.0346 29.9044 46.9748 29.9343 46.93 29.9792C46.8253 29.8895 46.7058 29.7998 46.6011 29.7101C44.0154 27.6625 40.6824 27.8568 38.3956 30.2034C36.5722 32.0716 36.1686 34.3734 36.5273 36.8096C36.9458 39.6494 38.9636 41.8615 41.5792 42.4145C43.5969 42.8479 45.4204 42.3696 47.0645 40.8003C47.0645 41.159 47.0944 41.3383 47.0645 41.5028C46.9598 42.1006 47.2289 42.2501 47.7968 42.2202C48.4395 42.1753 49.0972 42.1753 49.7399 42.2202C50.3377 42.265 50.532 42.1305 50.532 41.4729C50.4423 37.9605 50.4722 34.4481 50.4573 30.9357ZM46.5712 37.7064C45.8239 38.9768 44.6432 39.5 43.1784 39.3953C41.2504 39.2608 39.8604 37.6018 39.8604 35.4346C39.8604 33.5364 40.8319 32.1165 42.461 31.6232C44.0154 31.1599 45.7342 31.7428 46.5563 33.1179C47.4531 34.6275 47.4381 36.2118 46.5712 37.7064Z" fill="#02577A"/>
<path d="M27.0509 28.3205C23.1201 28.3504 20.0112 31.4891 20.0112 35.4499C20.0112 39.4705 23.0453 42.5345 27.036 42.5345C31.1612 42.5345 34.2999 39.4406 34.27 35.3901C34.2551 31.4592 31.0117 28.2906 27.0509 28.3205ZM27.1406 39.3808C25.0332 39.4107 23.4638 37.7815 23.4489 35.5695C23.4339 33.2229 24.9585 31.5489 27.0958 31.5489C29.248 31.534 30.7875 33.1631 30.7875 35.435C30.8025 37.6919 29.263 39.3658 27.1406 39.3808Z" fill="#02577A"/>
</g>
<defs>
<clipPath id="clip0_655_34156">
<rect width="143" height="63" fill="white"/>
</clipPath>
</defs>
</svg>
