<svg width="142" height="24" viewBox="0 0 142 24" fill="none" xmlns="http://www.w3.org/2000/svg">
<g clip-path="url(#clip0_1010_20187)">
<path d="M0.253906 23.3053V7.974C4.2496 7.974 7.40899 11.2261 7.40899 15.1286V23.3053H0.253906Z" fill="#EE332E"/>
<path d="M16.0511 23.3053V7.974C12.0554 7.974 8.896 11.2261 8.896 15.1286V23.3053H16.0511Z" fill="#EE332E"/>
<path d="M36.215 23.3053V14.1994L31.7547 21.7257H30.175L25.7147 14.4781V23.3053H22.4624V8.25269H25.343L31.0113 17.5444L36.5867 8.25269H39.4674V23.3053H36.215Z" fill="#131718"/>
<path d="M57.2156 20.5178V23.3053H45.5073V8.25269H56.9369V11.0402H49.0384V14.2923H56.0076V16.9869H49.0384V20.5178H57.2156Z" fill="#131718"/>
<path d="M72.641 15.5003H75.8004V21.6329C74.9641 22.2833 74.0349 22.7479 72.9198 23.0266C71.8047 23.3983 70.7825 23.4912 69.6675 23.4912C68.0878 23.4912 66.6939 23.1195 65.4859 22.4691C64.2779 21.8187 63.2558 20.8895 62.5124 19.6816C61.769 18.4737 61.4902 17.1728 61.4902 15.6861C61.4902 14.1995 61.8619 12.8057 62.5124 11.6907C63.2558 10.4828 64.185 9.55361 65.4859 8.90319C66.7869 8.25277 68.1807 7.8811 69.7604 7.8811C71.0613 7.8811 72.2693 8.06694 73.3844 8.53152C74.4995 8.99611 75.3358 9.64653 76.0792 10.4828L73.849 12.527C72.7339 11.412 71.433 10.8545 69.9462 10.8545C69.017 10.8545 68.0878 11.0403 67.3444 11.412C66.601 11.7836 66.0435 12.3411 65.5789 13.0845C65.2072 13.8278 64.9284 14.6641 64.9284 15.5932C64.9284 16.5224 65.1142 17.3587 65.5789 18.102C65.9505 18.8453 66.601 19.4028 67.3444 19.7745C68.0878 20.1462 68.9241 20.4249 69.8533 20.4249C70.8755 20.4249 71.8047 20.2391 72.5481 19.7745V15.5003H72.641Z" fill="#131718"/>
<path d="M91.5045 20.0532H84.5353L83.2344 23.3053H79.6104L86.3008 8.25269H89.739L96.5224 23.3053H92.8984L91.5045 20.0532ZM90.3894 17.4515L87.9734 11.6906L85.5574 17.4515H90.3894Z" fill="#131718"/>
<path d="M102.655 21.7257C101.54 20.6107 100.982 18.9382 100.982 16.8011V8.25269H102.562V16.8011C102.562 18.5665 102.934 19.8673 103.77 20.7036C104.606 21.5399 105.722 22.0044 107.208 22.0044C108.695 22.0044 109.903 21.5399 110.646 20.7036C111.483 19.8673 111.854 18.5665 111.854 16.8011V8.25269H113.434V16.894C113.434 19.0311 112.877 20.7036 111.762 21.8186C110.646 22.9336 109.16 23.4911 107.208 23.4911C105.35 23.3982 103.77 22.8407 102.655 21.7257Z" fill="#131718"/>
<path d="M133.32 8.25269V23.3053H132.019L122.355 11.0402V23.3053H120.775V8.25269H122.076L131.74 20.4248V8.25269H133.32Z" fill="#131718"/>
<path d="M142.334 8.25269H140.754V23.3053H142.334V8.25269Z" fill="#131718"/>
<path d="M5.36475 3.60685C5.36475 2.02726 6.66567 0.819336 8.15244 0.819336C9.73214 0.819336 10.9401 2.12018 10.9401 3.60685C10.9401 5.18645 9.63921 6.39437 8.15244 6.39437C6.57275 6.48729 5.36475 5.18645 5.36475 3.60685Z" fill="#EE332E"/>
</g>
<defs>
<clipPath id="clip0_1010_20187">
<rect width="142.08" height="22.7647" fill="white" transform="translate(0.253906 0.819336)"/>
</clipPath>
</defs>
</svg>
