<svg fill="none" xmlns="http://www.w3.org/2000/svg" viewBox="0 0 143 64">
  <path fill-rule="evenodd" clip-rule="evenodd" d="M94.9 22.1h-3.8V33L80.2 21.8v19.8h3.7V30.7L94.8 42h.1V22zm-50.7 0h15.7v3.6h-6v16h-3.8v-16h-6V22zm19.5 0h12v3.7h-8.1V30h7v3.4h-7V38h8.2v3.7h-12V22.1zm44.8-.3c2.8 0 4.8.9 6.6 2.9l-2.4 3a5.3 5.3 0 00-4.2-2.3 5 5 0 00-4 1.9 6.8 6.8 0 00-1.6 4.5c0 2 .5 3.5 1.6 4.7 1 1.2 2.5 1.8 4.2 1.8 1.1 0 2.1-.3 3-1V34h-3.9v-3.4h7.8v8.6a9.3 9.3 0 01-6.9 2.7c-2.8 0-5-1-7-2.9-1.7-2-2.6-4.4-2.6-7.3 0-2.8.8-5.3 2.6-7.2 1.8-1.9 4-2.8 6.8-2.8zm19.2.3h-7.2v19.5h3.8v-6.9h2.5l3.8 7h4.5l-4.3-7.6c2-1 3.4-3 3.4-5.7 0-2-.6-3.5-2-4.6a6.6 6.6 0 00-4.5-1.7zm-.4 3.5h-3v5.6h3c1.8 0 3-1 3-2.8 0-1.8-1.2-2.8-3-2.8zm15.2-3.5h-3.9v19.5h3.9V22.1z" fill="#7C006F"/>
  <path d="M9.7 30L0 38.3l9.7-5 6.1-3v-5.7l-6 5.2z" fill="#7C006F"/>
  <path d="M23.6 32L20 28.6l-4.2 2.2v5l4.2 3.3h11.6l-8-7.3z" fill="#00BAE8"/>
  <path d="M15.8 35.3v-5l-6.3 3.1v5l6.3-3.1z" fill="#9FA29F"/>
</svg>
