<svg fill="none" xmlns="http://www.w3.org/2000/svg" viewBox="0 0 143 64">
  <path fill-rule="evenodd" clip-rule="evenodd" d="M0 17v-2h24.3v6.8h-6v26.6h-6c0-.5-.2-1-.5-1.1v-28c.3-.2.6-.5.6-1 0-.7-.6-1.3-1.3-1.3-.4 0-.8.3-1 .6h-9c-.3-.3-.7-.6-1-.6zm61.6 11.2h-6v-6.5h6v6.5zM64.8 15c1.8 0 3.3 1.5 3.3 3.4v10c0 .8-.4 1.6-1 2.2-.5.6-1.3 1-2.2 1 1.7 0 3.2 1.5 3.2 3.4v13.2h-6.5V34.9h-6v13.3H49V15h15.7zm27.8 0v33.2H99V15h-6.4zM77.3 41.5h6V35h-6v6.6zm6-13.3h-6v-6.5h6v6.5zM86.5 15c1.8 0 3.3 1.5 3.3 3.4v10c0 .8-.4 1.6-1 2.2-.5.6-1.3 1-2.2 1h-1.3 1.2c1.8 0 3.3 1.6 3.3 3.4v10c0 .8-.4 1.6-1 2.3a3 3 0 01-2.2 1h-3.3v-.1H70.8V15H86.5zm34.2 3.4c0-1.9-1.4-3.4-3.2-3.4H101.8v33.2h6.4V21.7h6.1v26.5h6.4V18.4zM29 15h17.5v6.7H33.7v6.6H43V35h-9.4v6.5h12.7v6.7H27.3V15h1.6zm101.4 6.7H143V15h-19.1v33.2H143v-6.7h-12.7V35h9.4v-6.7h-9.4v-6.6z" fill="#DFDFDF"/>
  <path d="M1 19c-.2.3-.6.6-1 .6v2.2h7.9v26.6h2c0-.5.2-.9.5-1.1v-28l-.3-.3h-9z" fill="#F7941D"/>
</svg>
