<svg width="143" height="34" viewBox="0 0 143 34" fill="none" xmlns="http://www.w3.org/2000/svg">
<path d="M0.666504 8.73169H31.2754V14.822H0.666504V8.73169Z" fill="black"/>
<path d="M12.322 33.3028L12.322 14.822L19.6198 14.822V33.3028H12.322Z" fill="black"/>
<path d="M74.5894 33.3028L74.5894 8.7317H81.8872L81.8872 33.3028H74.5894Z" fill="black"/>
<path d="M101.996 13.9294L81.8872 13.9294V8.7317L101.996 8.7317V13.9294Z" fill="black"/>
<path d="M101.996 23.5899L81.8872 23.5899V18.3921H101.996V23.5899Z" fill="black"/>
<path d="M101.996 33.2503L81.8872 33.2503V28.0526H101.996V33.2503Z" fill="black"/>
<path d="M93.4639 3.95399L85.0898 6.63161L83.6198 3.95399L91.6264 0.200073L93.4639 3.95399Z" fill="black"/>
<path d="M37.523 33.3028L37.5229 8.73169L44.8208 8.73169L44.8208 33.3028H37.523Z" fill="black"/>
<path d="M61.044 33.3028L61.044 8.73169L68.3418 8.73169L68.3418 33.3028H61.044Z" fill="black"/>
<path d="M61.044 24.6399L44.8208 24.6399V17.3421L61.044 17.3421L61.044 24.6399Z" fill="black"/>
<path d="M128.939 8.52173H118.063L104.988 33.2503H113.724L115.776 28.6677H132.295L134.186 33.2503H142.175L128.939 8.52173ZM118.107 22.7674L123.457 13.6461L129.041 22.7674H118.107Z" fill="black"/>
</svg>
