<svg fill="none" xmlns="http://www.w3.org/2000/svg" viewBox="0 0 143 64">
  <path d="M127.7 38.4l2.5-6.4 2.6 6.4h-5.1zm-10.1 9h6.6l1.6-4h8.8l1.6 4h6.8l-9.7-22.9h-6l-9.7 23zm-12.4.5c5 0 7.9-2.2 10-5.1l-4.7-3.4c-1.4 1.6-2.8 2.7-5.2 2.7-3.1 0-5.4-2.6-5.4-6V36c0-3.3 2.3-6 5.4-6 2.2 0 3.7 1 5 2.6l4.8-3.7c-2-2.7-5-4.7-9.7-4.7-6.9 0-12 5.2-12 11.9 0 6.8 5.3 11.8 11.8 11.8zm-24.9-.5h6.3V24.7h-6.3v22.7zM60.5 36v-6h3c2.3 0 3.7 1 3.7 3 0 1.8-1.4 3-3.6 3h-3zm-6.3 11.4h6.3V41h3.2c5.6 0 9.7-2.9 9.7-8.3 0-5-3.7-8-9.4-8h-9.8v22.7zm-18.7-5.2c-3.5 0-5.8-2.9-5.8-6.1V36c0-3.3 2.3-6 5.7-6 3.5 0 5.9 2.8 5.9 6v.1c0 3.3-2.3 6.1-5.8 6.1zm0 5.7a12 12 0 0012.2-11.8V36c0-6.5-5.2-11.8-12.2-11.8a12 12 0 00-12.3 11.9c0 6.6 5.2 11.8 12.2 11.8z" fill="#fff"/>
  <path d="M0 24.7v5.5h6.8v17.2H13V30.2h6.8v-5.5H0zM20 21.5a5.2 5.2 0 003.6-9 5.2 5.2 0 10-5.6 8.6c.6.2 1.3.4 2 .4z" fill="#FEDA6A"/>
</svg>
