<svg width="55" height="54" viewBox="0 0 55 54" fill="none" xmlns="http://www.w3.org/2000/svg">
<path d="M14.6782 44.4985C15.4551 44.4985 16.0693 43.8843 16.0693 43.1074V33.6768C16.521 33.4961 18.0747 32.8999 20.4775 32.8999C26.7827 32.8999 30.7935 36.0073 36.8096 36.0073C39.4653 36.0073 40.5312 35.7002 41.832 35.104C43.0244 34.5801 43.7832 33.6406 43.7832 32.0869V14.8154C43.7832 13.8398 42.9702 13.2437 41.9224 13.2437C41.0371 13.2437 39.4834 13.9482 36.6108 13.9482C30.6128 13.9482 26.5659 10.8589 20.2788 10.8589C17.623 10.8589 16.5752 11.1479 15.2563 11.7441C14.064 12.2861 13.3052 13.1714 13.3052 14.7432V43.1074C13.3052 43.8662 13.9375 44.4985 14.6782 44.4985Z" fill="#EC1C24"/>
</svg>
