<svg width="55" height="54" viewBox="0 0 55 54" fill="none" xmlns="http://www.w3.org/2000/svg">
<path d="M18.7412 10.1621H35.8672C35.7744 8.64062 34.9023 7.84277 33.251 7.84277H21.376C19.7246 7.84277 18.8525 8.64062 18.7412 10.1621ZM15.6982 15.0977H38.9102C38.6504 13.4834 37.8711 12.5742 36.0713 12.5742H18.5557C16.7559 12.5742 15.958 13.4834 15.6982 15.0977ZM17.4609 48.8486H37.7041C40.9326 48.8486 42.8066 46.9932 42.8066 43.3379V23.4473C42.8066 19.7734 40.9141 17.918 37.2031 17.918H17.4609C13.75 17.918 11.8574 19.7734 11.8574 23.4473V43.3379C11.8574 46.9932 13.75 48.8486 17.4609 48.8486Z" fill="#00C05B"/>
</svg>
