<svg width="55" height="54" viewBox="0 0 55 54" fill="none" xmlns="http://www.w3.org/2000/svg">
<path d="M13.668 21.6171C13.668 22.8595 14.661 23.8582 15.8963 23.8582H25.4396V33.1393C25.4396 34.3573 26.4327 35.3317 27.668 35.3317C28.9033 35.3317 29.8721 34.3573 29.8721 33.1393V23.8582H39.4638C40.6749 23.8582 41.668 22.8595 41.668 21.6171C41.668 20.3991 40.6749 19.4004 39.4638 19.4004H29.8721V10.1924C29.8721 8.97439 28.9033 8 27.668 8C26.4327 8 25.4396 8.97439 25.4396 10.1924V19.4004H15.8963C14.661 19.4004 13.668 20.3991 13.668 21.6171ZM13.668 44.7589C13.668 46.0013 14.6853 47 15.8963 47H39.4638C40.6749 47 41.668 46.0013 41.668 44.7589C41.668 43.5166 40.6749 42.5178 39.4638 42.5178H15.8963C14.6853 42.5178 13.668 43.5166 13.668 44.7589Z" fill="#5159F6"/>
</svg>
