<svg width="370" height="450" viewBox="0 0 370 450" fill="none" xmlns="http://www.w3.org/2000/svg">
<path fill-rule="evenodd" clip-rule="evenodd" d="M101.166 139.899L50.2793 167.173L-0.000549316 329.514L11.9146 325.789L101.166 139.899ZM29.7403 366.403L161.769 245.331L153.626 188.012L12.4711 370.675L29.7403 366.403ZM202.93 155.463L196.792 204.491L248.668 167.173L330.846 194.365L296.942 129.97L369.279 62.4569L269.599 78.6631L276.256 0L220.534 77.0255L164.613 57.6668L195.769 108.019L160.173 159.68L202.93 155.463Z" fill="#EC1C24"/>
<path fill-rule="evenodd" clip-rule="evenodd" d="M137.946 391.476L122.576 405.597L61.2798 403.407L63.9726 399.783L137.946 391.476ZM78.6095 377.489L135.621 346.851L154.168 356.465L75.0909 382.875L78.6095 377.489ZM171.145 343.513L153.715 339.764L172.624 326.503L173.185 295.206L191.063 314.458L222.7 297.812L205.268 329.91L232.853 337.016L199.962 346.855L199.871 368.254L186.447 351.615L164.599 357.607L171.145 343.513Z" fill="#EC1C24"/>
</svg>
