<svg width="240" height="80" viewBox="0 0 240 80" fill="none" xmlns="http://www.w3.org/2000/svg">
<path d="M34.8256 20.8234C34.1756 21.4732 34.1401 22.5601 34.8256 23.1863C35.83 24.0961 36.8581 23.5171 37.189 23.1863C38.4771 21.8985 40.1788 21.2015 41.9987 21.2015C43.8185 21.2015 45.5202 21.9103 46.8083 23.1863C47.4583 23.8361 48.51 23.8361 49.1718 23.1863C49.8217 22.5365 49.8217 21.485 49.1718 20.8234C47.2574 18.9094 44.7167 17.8579 42.0105 17.8579C39.2807 17.8579 36.74 18.9094 34.8256 20.8234Z" fill="#FFCE3E"/>
<path d="M53.32 19.0157C54.0054 18.4013 53.97 17.3144 53.32 16.6527C47.0805 10.4146 36.9176 10.4146 30.678 16.6527C30.0281 17.3025 30.0281 18.354 30.678 19.0157C31.328 19.6655 32.3797 19.6655 33.0415 19.0157C37.9811 14.0771 45.9697 14.1362 50.9684 19.0157C51.4529 19.5119 52.4456 19.7954 53.32 19.0157Z" fill="#FFCE3E"/>
<path d="M28.87 14.8569C32.3798 11.3479 37.0358 9.42216 41.9991 9.42216C46.9624 9.42216 51.5711 11.407 55.1282 14.8569C55.5181 15.235 56.5581 15.743 57.4916 14.8569C58.1534 14.2189 58.1416 13.1556 57.4916 12.494C53.3556 8.35884 47.8605 6.07861 42.0109 6.07861C36.1613 6.07861 30.6663 8.35884 26.5302 12.494C25.8802 13.1438 25.8802 14.1953 26.5302 14.8569C27.1565 15.5067 28.2201 15.5067 28.87 14.8569Z" fill="#FFCE3E"/>
<path d="M55.0334 27.4752H18.2696V25.3486C18.2696 24.427 17.5251 23.6827 16.6034 23.6827C15.6816 23.6827 14.9371 24.427 14.9371 25.3486V27.4752H10.872V10.722C10.872 9.80048 10.1275 9.05615 9.20571 9.05615C8.28396 9.05615 7.53947 9.80048 7.53947 10.722V27.4752H4.99874C2.2453 27.4752 0 29.72 0 32.4846V61.1115C0 63.8643 2.2453 66.1091 4.99874 66.1091H55.0215C57.775 66.1091 60.0203 63.8643 60.0203 61.1115V32.4846C60.0321 29.72 57.7868 27.4752 55.0334 27.4752ZM56.6996 61.1115C56.6996 62.0331 55.9551 62.7774 55.0334 62.7774H4.99874C4.07698 62.7774 3.33249 62.0331 3.33249 61.1115V46.804H5.93231C6.85406 46.804 7.59855 46.0596 7.59855 45.1381C7.59855 44.2166 6.85406 43.4722 5.93231 43.4722H3.33249V40.4477H10.9429C11.8646 40.4477 12.6091 39.7034 12.6091 38.7818C12.6091 37.8603 11.8646 37.116 10.9429 37.116H3.33249V32.4846C3.33249 31.5631 4.07698 30.8187 4.99874 30.8187H55.0215C55.9433 30.8187 56.6878 31.5631 56.6878 32.4846V61.1115H56.6996Z" fill="#FFCE3E"/>
<path d="M10.9428 56.5981H9.20567C8.28392 56.5981 7.53943 57.3425 7.53943 58.264C7.53943 59.1856 8.28392 59.9299 9.20567 59.9299H10.9428C11.8646 59.9299 12.6091 59.1856 12.6091 58.264C12.6091 57.3425 11.8646 56.5981 10.9428 56.5981Z" fill="#FFCE3E"/>
<path d="M20.9168 56.5981H19.1797C18.2579 56.5981 17.5134 57.3425 17.5134 58.264C17.5134 59.1856 18.2579 59.9299 19.1797 59.9299H20.9168C21.8386 59.9299 22.5831 59.1856 22.5831 58.264C22.5831 57.3425 21.8386 56.5981 20.9168 56.5981Z" fill="#FFCE3E"/>
<path d="M30.8903 56.5981H29.1532C28.2314 56.5981 27.4869 57.3425 27.4869 58.264C27.4869 59.1856 28.2314 59.9299 29.1532 59.9299H30.8903C31.8121 59.9299 32.5566 59.1856 32.5566 58.264C32.5566 57.3425 31.8121 56.5981 30.8903 56.5981Z" fill="#FFCE3E"/>
<path d="M40.8642 56.5981H39.1152C38.1935 56.5981 37.449 57.3425 37.449 58.264C37.449 59.1856 38.1935 59.9299 39.1152 59.9299H40.8524C41.7741 59.9299 42.5186 59.1856 42.5186 58.264C42.5304 57.3425 41.7741 56.5981 40.8642 56.5981Z" fill="#FFCE3E"/>
<path d="M50.8265 56.5981H49.0893C48.1676 56.5981 47.4231 57.3425 47.4231 58.264C47.4231 59.1856 48.1676 59.9299 49.0893 59.9299H50.8265C51.7482 59.9299 52.4927 59.1856 52.4927 58.264C52.5046 57.3425 51.7482 56.5981 50.8265 56.5981Z" fill="#FFCE3E"/>
<path d="M30.0158 37.4346C24.9462 37.4346 21.1292 39.8093 21.1292 42.952C21.1292 46.0947 24.9462 48.4695 30.0158 48.4695C35.0736 48.4695 38.9024 46.0947 38.9024 42.952C38.9024 39.8093 35.0736 37.4346 30.0158 37.4346ZM30.0158 45.1259C26.5769 45.1259 24.4735 43.72 24.4735 42.952C24.4735 42.1841 26.5769 40.7781 30.0158 40.7781C33.4546 40.7781 35.5581 42.1841 35.5581 42.952C35.5581 43.72 33.4546 45.1259 30.0158 45.1259Z" fill="#FFCE3E"/>
<path d="M80.115 10.7512V17.055H86.1612C88.1478 17.055 89.3139 15.8893 89.3139 13.9031C89.3139 11.9169 88.1478 10.7512 86.1612 10.7512H80.115V10.7512ZM89.9185 21.3296C91.1278 22.9703 92.337 24.6111 93.5894 26.2086C94.7987 27.8062 96.0079 29.4469 97.2171 31.0877H89.3139C87.7592 29.0152 86.2476 26.9427 84.7361 24.8701C83.2245 22.8408 81.6698 20.7683 80.115 18.6958V31.0877H73.637V4.66315H86.1612C91.0846 4.66315 95.2737 8.41958 95.2737 13.385C95.2737 16.8823 93.1144 19.9479 89.9185 21.3296V21.3296ZM114.794 20.2933C114.622 17.1414 113.196 15.2848 109.914 15.2848C109.007 15.2848 108.23 15.4143 107.582 15.6734C105.595 16.5801 104.861 18.264 104.861 20.3365C104.861 21.0274 104.948 21.675 105.164 22.2363C105.811 24.4815 107.755 25.3019 109.914 25.3019C113.196 25.3019 114.794 23.5316 114.794 20.2933V20.2933ZM123 31.0877H116.522C116.09 30.0082 115.701 28.9288 115.442 27.8062C113.974 30.2241 111.728 31.3036 108.964 31.3036C102.788 31.3036 98.3832 26.1223 98.3832 20.207C98.3832 13.385 103.479 9.28312 109.914 9.28312C116.781 9.28312 121.1 13.6872 121.272 20.2933C121.316 20.8546 121.316 21.5023 121.316 22.2795C121.316 25.3019 121.791 28.3243 123 31.0877V31.0877ZM125.375 9.49901H131.853V31.0877H125.375V9.49901ZM128.614 7.46968C126.412 7.46968 124.857 5.91529 124.857 3.71325C124.857 1.46803 126.412 0 128.614 0C130.86 0 132.328 1.46803 132.328 3.71325C132.328 6.00165 130.903 7.46968 128.614 7.46968ZM136.042 0.863547H142.52V31.0877H136.042V0.863547ZM168.13 23.7044V30.3537C165.453 31.0877 162.775 31.3899 160.011 31.3899C151.892 31.3899 146.451 25.82 146.451 17.9186C146.451 9.80125 152.108 4.44726 159.968 4.44726C162.689 4.44726 165.539 4.66315 168.13 5.48352V12.1328C166.014 11.0966 162.689 10.708 160.357 10.708C155.088 10.708 152.929 12.8668 152.929 17.8754C152.929 23.1862 155.477 25.1292 160.4 25.1292C162.602 25.1292 166.187 24.7838 168.13 23.7044ZM186.744 20.2933C186.571 17.1414 185.146 15.2848 181.864 15.2848C180.957 15.2848 180.18 15.4143 179.532 15.6734C177.545 16.5801 176.811 18.264 176.811 20.3365C176.811 21.0274 176.897 21.675 177.113 22.2363C177.761 24.4815 179.705 25.3019 181.864 25.3019C185.146 25.3019 186.744 23.5316 186.744 20.2933V20.2933ZM194.95 31.0877H188.472C188.04 30.0082 187.651 28.9288 187.392 27.8062C185.924 30.2241 183.678 31.3036 180.914 31.3036C174.738 31.3036 170.333 26.1223 170.333 20.207C170.333 13.385 175.429 9.28312 181.864 9.28312C188.731 9.28312 193.049 13.6872 193.222 20.2933C193.265 20.8546 193.265 21.5023 193.265 22.2795C193.265 25.3019 193.74 28.3243 194.95 31.0877V31.0877ZM232.091 19.4298V31.0877H225.613V19.4298C225.613 16.9687 224.446 15.2848 221.855 15.2848C219.307 15.2848 218.055 17.0119 218.055 19.4298V31.0877H211.577V19.4298C211.577 16.9687 210.324 15.2848 207.733 15.2848C205.185 15.2848 204.019 17.0119 204.019 19.4298V31.0877H197.541V19.4298C197.541 13.1691 201.816 9.28312 207.819 9.28312C210.886 9.28312 213.261 10.708 214.816 13.3418C216.37 10.708 218.746 9.28312 221.812 9.28312C228.031 9.28312 232.091 13.385 232.091 19.4298V19.4298Z" fill="#111111"/>
<path d="M96.3363 61.9032V68.6579C93.6163 69.4035 90.8963 69.7105 88.0885 69.7105C79.8407 69.7105 74.3129 64.0524 74.3129 56.0258C74.3129 47.7798 80.06 42.341 88.0446 42.341C90.8085 42.341 93.704 42.5603 96.3363 43.3937V50.1483C94.1866 49.0956 90.8085 48.7009 88.4395 48.7009C83.0872 48.7009 80.8936 50.894 80.8936 55.9819C80.8936 61.3769 83.482 63.3506 88.4833 63.3506C90.7208 63.3506 94.3621 62.9997 96.3363 61.9032ZM99.6267 47.4728H106.207V69.4035H99.6267V47.4728ZM102.917 45.4113C100.68 45.4113 99.1002 43.8323 99.1002 41.5953C99.1002 39.3145 100.68 37.8232 102.917 37.8232C105.198 37.8232 106.69 39.3145 106.69 41.5953C106.69 43.92 105.242 45.4113 102.917 45.4113ZM123.186 48.2184V54.3152H117.044V58.4381C117.044 61.8155 119.281 63.5261 122.528 63.5261C122.922 63.5261 123.273 63.4822 123.58 63.4383C123.888 63.3945 124.151 63.3506 124.458 63.3068V69.4035C124.063 69.4474 123.756 69.5351 123.537 69.579C123.273 69.6228 122.835 69.6228 122.264 69.6228C115.64 69.6228 110.463 65.1051 110.463 58.4381V42.2094H117.044V48.2184H123.186V48.2184ZM142.138 58.4381V47.4728H148.719V68.2631C148.719 75.2371 143.717 79.4916 137.093 79.4916C134.768 79.4916 132.443 79.2723 130.205 78.5267V71.772C132.092 72.7808 134.636 73.1317 136.742 73.1317C139.111 73.1317 140.997 72.4299 141.875 70.1492C142.05 69.5351 142.138 68.8772 142.138 68.2192V67.2104C140.646 68.8772 138.716 69.6228 136.523 69.6228C130.293 69.6228 126.344 64.2717 126.344 58.4381V47.4728H132.925V58.4381C132.925 61.4207 134.11 63.5261 137.312 63.5261C140.427 63.5261 142.138 61.4646 142.138 58.4381V58.4381ZM174.515 61.9032V68.6579C171.795 69.4035 169.075 69.7105 166.267 69.7105C158.02 69.7105 152.492 64.0524 152.492 56.0258C152.492 47.7798 158.239 42.341 166.223 42.341C168.987 42.341 171.883 42.5603 174.515 43.3937V50.1483C172.366 49.0956 168.987 48.7009 166.618 48.7009C161.266 48.7009 159.072 50.894 159.072 55.9819C159.072 61.3769 161.661 63.3506 166.662 63.3506C168.9 63.3506 172.541 62.9997 174.515 61.9032ZM193.424 58.4381C193.248 55.2362 191.801 53.3502 188.466 53.3502C187.545 53.3502 186.755 53.4818 186.097 53.745C184.079 54.666 183.333 56.3766 183.333 58.482C183.333 59.1838 183.421 59.8417 183.64 60.4119C184.299 62.6927 186.273 63.5261 188.466 63.5261C191.801 63.5261 193.424 61.7277 193.424 58.4381V58.4381ZM201.759 69.4035H195.179C194.74 68.307 194.345 67.2104 194.082 66.07C192.59 68.5263 190.309 69.6228 187.501 69.6228C181.228 69.6228 176.753 64.3594 176.753 58.3504C176.753 51.4203 181.929 47.2535 188.466 47.2535C195.442 47.2535 199.829 51.7273 200.005 58.4381C200.048 59.0083 200.048 59.6663 200.048 60.4558C200.048 63.5261 200.531 66.5964 201.759 69.4035V69.4035ZM239.489 57.5609V69.4035H232.908V57.5609C232.908 55.0608 231.724 53.3502 229.091 53.3502C226.503 53.3502 225.231 55.1047 225.231 57.5609V69.4035H218.65V57.5609C218.65 55.0608 217.378 53.3502 214.745 53.3502C212.157 53.3502 210.972 55.1047 210.972 57.5609V69.4035H204.392V57.5609C204.392 51.201 208.735 47.2535 214.833 47.2535C217.948 47.2535 220.361 48.7009 221.94 51.3764C223.52 48.7009 225.933 47.2535 229.047 47.2535C235.365 47.2535 239.489 51.4203 239.489 57.5609V57.5609Z" fill="#111111"/>
</svg>
