<svg width="312" height="139" viewBox="0 0 312 139" fill="none" xmlns="http://www.w3.org/2000/svg">
<path d="M108 34.228H97.0909V103.771H108V34.228Z" fill="#111111"/>
<path d="M146.396 81.8786C146.396 92.4351 137.695 93.2748 135.037 93.2748C128.39 93.2748 127.423 87.0968 127.423 83.3781V57.0469H116.729V83.3181C116.668 89.8559 118.541 95.2541 122.167 98.8529C125.369 102.032 129.84 103.771 135.037 103.771C139.116 103.767 143.091 102.487 146.396 100.112V102.872H157.091V57.0469H146.396V81.8786Z" fill="#111111"/>
<path d="M180.952 41.8345H170.128V57.4249H162.545V67.5556H170.128V103.771H180.952V67.5556H189.818V57.4249H180.952V41.8345Z" fill="#111111"/>
<path d="M224.121 89.8428C221.599 92.0604 218.336 93.264 214.97 93.2189C207.212 93.2189 201.515 87.5519 201.515 79.7747C201.515 71.9976 207.03 66.5717 214.97 66.5717C218.344 66.5263 221.618 67.7051 224.182 69.8875L225.879 71.3344L233.394 63.8588L231.515 62.1707C226.965 58.1318 221.068 55.9187 214.97 55.961C201.03 55.961 190.909 65.9688 190.909 79.7145C190.909 93.4601 201.273 103.769 214.97 103.769C221.122 103.851 227.078 101.611 231.636 97.4994L233.455 95.8113L225.818 88.3356L224.121 89.8428Z" fill="#111111"/>
<path d="M273.833 61.065C270.631 57.8176 266.16 56.0407 260.963 56.0407C256.884 56.0453 252.909 57.3531 249.604 59.7783V34.228H238.909V103.771H249.604V78.4049C249.604 67.6211 258.305 66.7633 260.963 66.7633C267.61 66.7633 268.577 73.0742 268.577 76.8731V103.771H279.271V76.9344C279.332 70.2558 277.459 64.7413 273.833 61.065Z" fill="#111111"/>
<path d="M214.364 88.5585C218.882 88.5585 222.545 84.9098 222.545 80.4089C222.545 75.908 218.882 72.2593 214.364 72.2593C209.845 72.2593 206.182 75.908 206.182 80.4089C206.182 84.9098 209.845 88.5585 214.364 88.5585Z" fill="#FF3D2E"/>
<path d="M81.2945 86.4457C79.1883 88.5785 76.6683 90.271 73.8848 91.4222C71.1013 92.5734 68.1113 93.1598 65.0932 93.1463C52.5506 93.1463 43.4343 83.4274 43.4343 70.0865C43.4343 56.7457 52.5506 46.9664 65.0932 46.9664C68.0966 46.9657 71.0704 47.5522 73.8428 48.6919C76.6152 49.8317 79.1312 51.5021 81.2456 53.6066L82.9587 55.2969L90.4843 47.8719L88.8323 46.1816C85.7486 43.0559 82.0558 40.5782 77.9761 38.8975C73.8963 37.2169 69.5141 36.3682 65.0932 36.4024C46.6159 36.4024 32.7273 50.8902 32.7273 70.1469C32.7273 89.4036 46.677 103.771 65.0932 103.771C69.528 103.8 73.9229 102.943 78.0132 101.252C82.1035 99.5613 85.8046 97.0709 88.8935 93.9311L90.5455 92.2408L83.0811 84.6951L81.2945 86.4457Z" fill="#111111"/>
</svg>
