<svg width="230" height="114" viewBox="0 0 230 114" fill="none" xmlns="http://www.w3.org/2000/svg">
<path d="M10.4934 113.678C9.04027 113.678 7.68059 113.386 6.41433 112.803C5.14807 112.221 4.02712 111.419 3.05148 110.399C2.09659 109.359 1.34929 108.151 0.809576 106.778C0.269859 105.404 0 103.916 0 102.313C0 100.794 0.269859 99.3678 0.809576 98.0357C1.34929 96.6828 2.10697 95.4964 3.08262 94.4765C4.05826 93.4566 5.19997 92.6552 6.50775 92.0724C7.81552 91.4896 9.23747 91.1982 10.7736 91.1982C12.8287 91.1982 14.6035 91.6458 16.0981 92.5408C17.5927 93.415 18.7137 94.5806 19.461 96.0376L16.2538 98.4104C15.6933 97.328 14.9045 96.4955 13.8873 95.9127C12.8909 95.3091 11.8011 95.0072 10.6179 95.0072C9.3724 95.0072 8.27221 95.3507 7.31732 96.0376C6.3832 96.7244 5.64628 97.6298 5.10656 98.7538C4.5876 99.8778 4.32812 101.106 4.32812 102.438C4.32812 103.832 4.60836 105.092 5.16883 106.216C5.72931 107.34 6.49737 108.235 7.47301 108.901C8.46941 109.546 9.60074 109.869 10.867 109.869C13.0051 109.869 14.9356 108.859 16.6586 106.84V105.279H12.2059V102.126H20.2083V113.522H16.6586V111.024C14.8734 112.793 12.8183 113.678 10.4934 113.678Z" fill="#323A45"/>
<path d="M37.1349 113.678C35.3705 113.678 33.8655 113.386 32.62 112.803C31.3952 112.2 30.3988 111.378 29.6308 110.337C28.8835 109.296 28.3334 108.12 27.9805 106.809C27.6276 105.477 27.4511 104.093 27.4511 102.656V91.3543H31.7481V102.656C31.7481 103.885 31.9142 105.05 32.2463 106.153C32.5785 107.256 33.1389 108.151 33.9278 108.838C34.7166 109.525 35.7752 109.869 37.1038 109.869C38.4738 109.869 39.5533 109.525 40.3421 108.838C41.1309 108.131 41.6914 107.225 42.0235 106.122C42.3557 105.019 42.5217 103.864 42.5217 102.656V91.3543H46.7876V102.656C46.7876 104.176 46.6007 105.602 46.2271 106.934C45.8742 108.266 45.3033 109.442 44.5145 110.462C43.7465 111.461 42.7501 112.252 41.5253 112.835C40.3006 113.397 38.8371 113.678 37.1349 113.678Z" fill="#323A45"/>
<path d="M60.1356 91.3543H64.4949L72.6217 113.522H68.2002L66.1451 107.995H58.423L56.3991 113.522H51.9776L60.1356 91.3543ZM65.3667 104.967L62.3152 95.819L59.1392 104.967H65.3667Z" fill="#323A45"/>
<path d="M78.9388 113.522V91.3543H88.716C89.7331 91.3543 90.6673 91.5625 91.5183 91.9788C92.3902 92.3951 93.1375 92.957 93.7602 93.6647C94.4038 94.3724 94.8916 95.1634 95.2237 96.0376C95.5766 96.9118 95.7531 97.8068 95.7531 98.7226C95.7531 100.138 95.3898 101.439 94.6632 102.625C93.9575 103.812 92.9922 104.665 91.7674 105.185L96.8117 113.522H92.0788L87.5327 106.091H83.2358V113.522H78.9388ZM83.2358 102.313H88.6226C89.4321 102.313 90.0964 101.97 90.6154 101.283C91.1551 100.575 91.4249 99.7217 91.4249 98.7226C91.4249 98.0357 91.2796 97.4217 90.989 96.8805C90.6984 96.3394 90.3247 95.9127 89.8681 95.6005C89.4321 95.2882 88.9547 95.1321 88.4357 95.1321H83.2358V102.313Z" fill="#323A45"/>
<path d="M103.539 113.522V91.3543H111.572C113.98 91.3543 115.994 91.8539 117.613 92.853C119.232 93.8312 120.446 95.1634 121.256 96.8493C122.065 98.5145 122.47 100.367 122.47 102.407C122.47 104.655 122.024 106.611 121.131 108.276C120.239 109.941 118.972 111.232 117.333 112.148C115.693 113.064 113.773 113.522 111.572 113.522H103.539ZM118.142 102.407C118.142 100.971 117.883 99.7113 117.364 98.6289C116.845 97.5258 116.097 96.6724 115.122 96.0688C114.146 95.4444 112.963 95.1321 111.572 95.1321H107.836V109.744H111.572C112.984 109.744 114.177 109.432 115.153 108.807C116.129 108.162 116.866 107.288 117.364 106.185C117.883 105.061 118.142 103.801 118.142 102.407Z" fill="#323A45"/>
<path d="M129.72 113.522V91.3543H139.497C140.514 91.3543 141.448 91.5625 142.299 91.9788C143.171 92.3951 143.918 92.957 144.541 93.6647C145.185 94.3724 145.673 95.1634 146.005 96.0376C146.358 96.9118 146.534 97.8068 146.534 98.7226C146.534 100.138 146.171 101.439 145.444 102.625C144.738 103.812 143.773 104.665 142.548 105.185L147.593 113.522H142.86L138.314 106.091H134.017V113.522H129.72ZM134.017 102.313H139.404C140.213 102.313 140.877 101.97 141.396 101.283C141.936 100.575 142.206 99.7217 142.206 98.7226C142.206 98.0357 142.061 97.4217 141.77 96.8805C141.479 96.3394 141.106 95.9127 140.649 95.6005C140.213 95.2882 139.736 95.1321 139.217 95.1321H134.017V102.313Z" fill="#323A45"/>
<path d="M160.329 91.3543H164.688L172.815 113.522H168.394L166.339 107.995H158.617L156.593 113.522H152.171L160.329 91.3543ZM165.56 104.967L162.509 95.819L159.333 104.967H165.56Z" fill="#323A45"/>
<path d="M179.132 113.522V91.3543H183.429V113.522H179.132Z" fill="#323A45"/>
<path d="M191.934 113.522V91.3543H196.231V109.744H207.503V113.522H191.934Z" fill="#323A45"/>
<path d="M227.181 97.1615C226.994 96.9534 226.6 96.6828 225.998 96.3498C225.396 95.9959 224.669 95.6837 223.818 95.4131C222.988 95.1217 222.127 94.976 221.234 94.976C218.888 94.976 217.715 95.8086 217.715 97.4737C217.715 98.0774 217.902 98.5561 218.276 98.9099C218.65 99.2638 219.21 99.5656 219.957 99.8153C220.705 100.065 221.639 100.336 222.76 100.627C224.213 101.002 225.469 101.439 226.527 101.938C227.607 102.438 228.427 103.104 228.987 103.937C229.568 104.748 229.859 105.831 229.859 107.184C229.859 108.765 229.475 110.046 228.707 111.024C227.96 111.981 226.963 112.679 225.718 113.116C224.472 113.553 223.123 113.771 221.67 113.771C220.009 113.771 218.359 113.522 216.719 113.022C215.1 112.502 213.657 111.794 212.391 110.899L214.29 107.184C214.477 107.371 214.809 107.621 215.287 107.933C215.764 108.224 216.345 108.526 217.03 108.838C217.715 109.13 218.463 109.379 219.272 109.588C220.082 109.796 220.902 109.9 221.732 109.9C224.099 109.9 225.282 109.14 225.282 107.621C225.282 106.975 225.043 106.455 224.566 106.06C224.088 105.664 223.414 105.331 222.542 105.061C221.691 104.79 220.694 104.488 219.553 104.155C218.141 103.76 216.968 103.323 216.034 102.844C215.121 102.344 214.436 101.73 213.979 101.002C213.522 100.252 213.294 99.3054 213.294 98.1606C213.294 96.6412 213.647 95.3715 214.353 94.3516C215.079 93.3109 216.055 92.5304 217.279 92.01C218.504 91.4688 219.864 91.1982 221.358 91.1982C222.895 91.1982 224.327 91.448 225.655 91.9476C226.984 92.4471 228.126 93.0195 229.081 93.6647L227.181 97.1615Z" fill="#323A45"/>
<path d="M114.365 0.595032C114.356 0.613802 113.71 0.651342 112.933 0.688882C112.166 0.726422 111.361 0.773347 111.155 0.792117C109.769 0.942277 108.15 1.21444 106.943 1.50538C106.531 1.60861 106.119 1.71185 106.025 1.73062C105.361 1.88078 103.461 2.51896 102.45 2.9319C100.681 3.65454 98.1633 4.91213 97.714 5.3063C97.6391 5.38138 97.5362 5.43769 97.4987 5.43769C97.3958 5.43769 95.8607 6.47943 94.9622 7.15515C94.2041 7.72764 92.7346 8.97584 92.0794 9.60464L91.7144 9.9425L92.3696 10.6088L93.0247 11.2658L93.5676 10.7684C93.8671 10.4962 94.2041 10.1959 94.307 10.102C95.3272 9.17293 97.1711 7.8121 98.6593 6.90176C99.4268 6.43251 101.654 5.29692 102.684 4.84644C103.723 4.39596 106.297 3.56069 107.411 3.31668C107.776 3.23222 108.993 2.99759 109.273 2.95067C109.432 2.92251 109.666 2.88497 109.797 2.85682C110.191 2.78174 111.426 2.64096 112.325 2.57527C112.961 2.52834 115.629 2.52834 116.396 2.57527C117.903 2.66912 119.504 2.91313 121.45 3.33545C124.015 3.88917 127.562 5.35323 130.192 6.94868C131.166 7.54932 133 8.82568 133.309 9.126C133.375 9.1917 133.534 9.3137 133.656 9.39817C133.777 9.48263 134.198 9.83926 134.592 10.1959C138.195 13.4431 140.853 17.1877 142.632 21.533C143.175 22.875 143.923 25.1744 144.082 25.9909C144.111 26.1222 144.195 26.5164 144.27 26.8824C144.344 27.2391 144.438 27.7083 144.466 27.9054C144.504 28.1025 144.541 28.3559 144.569 28.4685C144.616 28.675 144.663 29.1254 144.756 30.1203C144.784 30.4581 144.831 30.918 144.85 31.1526C144.906 31.6969 144.897 34.3998 144.85 35.1412C144.794 35.8827 144.719 36.6804 144.672 36.9713C144.644 37.1027 144.607 37.3936 144.578 37.6283C144.55 37.8629 144.504 38.1351 144.485 38.2383C144.466 38.3415 144.419 38.6137 144.382 38.8483C144.344 39.0829 144.232 39.6085 144.129 40.0214C144.026 40.4344 143.923 40.8567 143.905 40.9693C143.858 41.2509 143.128 43.5314 142.978 43.8693C142.912 44.0195 142.707 44.5262 142.51 44.9955C141.246 48.0456 139.29 51.1239 137.035 53.6203C134.882 55.9947 132.205 58.172 129.593 59.6549C129.21 59.8707 126.467 61.2409 126.13 61.3817C124.661 61.9917 122.162 62.7988 121.001 63.0241C120.496 63.1179 118.708 63.4276 118.409 63.4746C116.34 63.7561 113.495 63.803 111.295 63.5778C101.823 62.6111 93.2962 57.2054 88.3168 49.031C87.5399 47.7641 86.4354 45.5304 85.9768 44.3104C85.7896 43.813 85.5931 43.3156 85.5556 43.2123C85.2655 42.5648 84.4512 39.402 84.3014 38.3321C84.264 38.1257 84.2265 37.8535 84.1984 37.7221C84.1329 37.3936 84.0768 36.8493 84.0113 36.0328C83.9738 35.648 83.9364 35.1975 83.9083 35.0474C83.8615 34.672 83.8615 31.6969 83.9177 31.1057C83.9364 30.8429 83.9832 30.3455 84.0113 29.9889C84.0393 29.6322 84.0768 29.3131 84.0955 29.285C84.1142 29.2568 84.161 28.9565 84.1891 28.628C84.2265 28.2902 84.2733 27.9899 84.292 27.9617C84.3201 27.9242 84.3576 27.7552 84.3763 27.5769C84.498 26.798 84.5167 26.7135 85.1251 24.3766C85.2467 23.9074 85.8832 22.143 86.1734 21.4673L86.501 20.6883L86.0985 20.3317C85.6211 19.9188 85.0034 19.4683 84.966 19.5246C84.6758 19.9375 83.1689 24.1702 82.991 25.0899C82.963 25.2025 82.8881 25.5591 82.8038 25.897C82.729 26.2349 82.6447 26.629 82.6166 26.7886C82.5886 26.9387 82.523 27.286 82.4762 27.5582C82.4201 27.8303 82.3546 28.2526 82.3265 28.4967C82.2984 28.7407 82.2516 29.0316 82.2329 29.1348C82.1955 29.3225 82.1206 30.0733 82.0457 31.1057C81.9802 31.8846 81.9895 34.3529 82.0457 35.0943C82.158 36.4364 82.1767 36.6616 82.2329 37.159C82.5137 39.7023 83.3373 42.8369 84.4324 45.5023C87.9143 54.0145 95.14 60.8468 103.807 63.8312C104.537 64.0752 106.091 64.5445 106.428 64.6102C106.503 64.6289 106.756 64.6852 106.99 64.7509C107.224 64.8166 107.514 64.8823 107.645 64.9011C107.776 64.9199 108.066 64.9762 108.3 65.0325C108.674 65.1076 109.067 65.1733 109.657 65.2671C110.153 65.3516 111.211 65.4548 112.371 65.5487C112.999 65.5956 115.938 65.605 116.349 65.558C116.527 65.5299 117.023 65.4923 117.435 65.4548C117.856 65.4267 118.306 65.3797 118.418 65.361C118.54 65.3422 118.848 65.3046 119.092 65.2671C119.335 65.239 119.756 65.1733 120.028 65.117C120.72 64.9762 120.861 64.948 121.123 64.9105C122.377 64.6852 125.447 63.7092 127.066 63.0147C130.211 61.6633 133.169 59.7863 135.771 57.4963C136.641 56.7361 138.204 55.1595 138.813 54.4368C139.047 54.1553 139.281 53.8831 139.328 53.8268C140.601 52.419 142.529 49.3971 143.624 47.1071C144.672 44.8923 145.786 41.6169 146.076 39.8807C146.104 39.7493 146.188 39.3082 146.273 38.8952C146.357 38.4823 146.422 38.0787 146.422 38.0037C146.422 37.9286 146.45 37.6752 146.488 37.4406C146.535 37.2059 146.591 36.6991 146.628 36.3144C146.656 35.9296 146.703 35.4228 146.722 35.1882C146.769 34.5969 146.778 31.7814 146.722 31.1057C146.638 29.9889 146.581 29.3225 146.535 29.0879C146.507 28.9565 146.469 28.7031 146.45 28.5248C146.385 27.9805 146.198 26.9106 146.104 26.4601C146.048 26.2255 145.992 25.9721 145.973 25.897C145.964 25.8219 145.898 25.5685 145.833 25.3339C145.767 25.0993 145.702 24.8271 145.683 24.7145C145.664 24.6019 145.477 23.9731 145.262 23.3067C144.129 19.7311 142.379 16.3712 140.105 13.4056C137.765 10.3461 134.826 7.65256 131.653 5.66293C129.93 4.58366 128.76 3.95486 127.066 3.23222C125.41 2.51896 122.611 1.62738 121.123 1.34583C120.992 1.32706 120.571 1.2426 120.187 1.16752C119.223 0.979817 119.092 0.961047 118.352 0.885967C117.997 0.848427 117.622 0.801502 117.529 0.782732C117.426 0.763962 116.733 0.726422 115.984 0.698267C115.236 0.660727 114.571 0.623187 114.505 0.604417C114.449 0.585647 114.384 0.585647 114.365 0.595032Z" fill="#323A45"/>
<path d="M87.6336 11.8949C86.5385 12.2891 85.7616 13.0681 85.4059 14.1473C84.6478 16.3997 86.2577 18.7272 88.6163 18.8023C90.741 18.868 92.3322 17.2725 92.2573 15.1234C92.2011 13.2651 90.7691 11.8292 88.8784 11.7542C88.3262 11.726 87.9986 11.7635 87.6336 11.8949ZM112.231 12.0076C111.95 12.0451 111.464 12.1014 111.155 12.1389C110.34 12.2328 108.665 12.627 107.645 12.9554C104.228 14.0629 101.392 15.8179 98.8372 18.3894C97.6205 19.6282 97.1899 20.1537 96.1978 21.6272C94.7376 23.7951 93.5302 26.6012 93.0435 28.9475C92.978 29.2572 92.9218 29.5481 92.9031 29.6044C92.8938 29.6514 92.8563 29.9048 92.8189 30.1675C92.7814 30.4209 92.7253 30.74 92.7066 30.8714C92.4538 32.373 92.5006 35.4231 92.8189 37.2532C94.2135 45.4463 100.017 52.0815 107.916 54.5216C108.459 54.6906 109.002 54.8407 109.133 54.8595C109.264 54.8876 109.451 54.9252 109.535 54.9533C109.807 55.0378 110.163 55.0941 111.342 55.2724C112.203 55.3944 112.942 55.432 114.524 55.4132C115.657 55.3944 116.668 55.3663 116.771 55.3381C116.874 55.31 117.173 55.263 117.426 55.2349C119.438 54.9627 121.787 54.2307 123.79 53.2359C126.009 52.1472 127.712 50.9178 129.509 49.1252C131.728 46.9104 133.244 44.6486 134.395 41.8049C134.741 40.9415 135.294 39.2428 135.397 38.6704C136.155 34.7286 136.145 32.2792 135.369 28.7879L135.209 28.0653L134.414 28.5533C133.834 28.9193 133.618 29.0976 133.628 29.2384C133.637 29.4261 133.731 30.008 133.805 30.3458C134.133 31.8193 134.18 34.9539 133.89 36.6432C133.749 37.4878 133.656 37.9759 133.487 38.661C133.422 38.8956 133.366 39.1584 133.337 39.2428C133.216 39.759 132.542 41.4859 132.121 42.368C131.643 43.3535 130.792 44.7706 130.296 45.4182C128.152 48.1867 125.868 50.1201 123.088 51.5278C121.114 52.5132 119.373 53.0576 116.911 53.433C115.544 53.6488 112.699 53.6582 111.576 53.4517C111.445 53.4236 111.173 53.3767 110.968 53.3485C110.762 53.311 110.556 53.2734 110.5 53.264C110.453 53.2453 110.237 53.2077 110.032 53.1702C109.292 53.0294 108.094 52.6634 106.962 52.2317C102.225 50.4298 97.8638 46.1408 95.917 41.3826C95.2805 39.8247 94.747 37.9102 94.5879 36.6057C94.5504 36.3241 94.5036 36.0144 94.4849 35.9018C94.4568 35.7892 94.4194 34.982 94.41 34.0999C94.382 32.3167 94.5036 30.9746 94.8593 29.2947C95.1214 28.0465 95.7766 26.2258 96.4318 24.9119C96.9465 23.8702 97.5362 22.866 97.6485 22.8191C97.686 22.8003 97.7234 22.744 97.7234 22.6971C97.7234 22.3686 100.101 19.6469 101.289 18.624C103.835 16.4091 106.943 14.87 110.172 14.213C111.847 13.8658 112.587 13.7907 114.337 13.8001C118.951 13.8001 123.341 15.4331 126.992 18.4926C127.413 18.8492 127.806 19.1402 127.862 19.1402C127.909 19.1402 128.283 18.9055 128.676 18.6052L129.388 18.0796L129.163 17.9013C129.041 17.7981 128.835 17.6292 128.704 17.5165C126.748 15.8366 125.213 14.8324 123.173 13.8846C121.937 13.3121 120 12.6551 118.923 12.4393C117.8 12.214 117.735 12.1953 117.332 12.1483C117.126 12.1202 116.808 12.0732 116.63 12.0451C116.125 11.9606 112.802 11.9419 112.231 12.0076Z" fill="#323A45"/>
<path d="M131.428 19.6654C129.912 19.9751 128.77 21.3078 128.657 22.8751C128.526 24.9586 130.127 26.676 132.205 26.6666C134.563 26.6572 136.248 24.3579 135.574 22.068C135.078 20.3599 133.244 19.2994 131.428 19.6654ZM113.335 23.1942C111.595 23.3537 109.938 23.9637 108.337 25.0149C107.579 25.5123 106.091 27.0233 105.548 27.8491C105.146 28.4592 104.565 29.529 104.5 29.7918C104.481 29.8388 104.369 30.186 104.238 30.552C103.845 31.6782 103.732 32.5604 103.76 34.1089C103.798 35.8827 104.032 36.8681 104.818 38.5668C105.426 39.8901 106.746 41.4855 108.019 42.4334C109.227 43.3344 110.93 44.0852 112.371 44.3386C112.577 44.3761 112.849 44.423 112.98 44.4512C113.401 44.5263 115.048 44.5451 115.544 44.47C115.806 44.4324 116.171 44.3761 116.349 44.3574C116.93 44.2917 118.334 43.813 119.064 43.447C121.263 42.3396 123.042 40.5377 124.015 38.4354C124.792 36.7555 125.073 35.3665 125.016 33.4989C124.96 31.5844 124.511 30.0265 123.528 28.2902C122.808 27.0326 121.282 25.5217 119.859 24.6582C119.082 24.1984 117.753 23.6071 117.267 23.5133C117.145 23.4945 116.714 23.41 116.303 23.3256C115.404 23.1472 114.318 23.1003 113.335 23.1942Z" fill="#323A45"/>
</svg>
