<svg width="267" height="66" viewBox="0 0 267 66" fill="none" xmlns="http://www.w3.org/2000/svg">
<g clip-path="url(#clip0_438_1639)">
<path d="M45.266 42.5551C45.242 54.6962 36.6267 64.4977 25.244 65.8275C11.118 67.4775 -1.03482 55.5581 0.0721699 41.1022C0.360949 37.2357 1.61232 33.6895 3.58564 30.3648C3.97068 29.7245 4.21133 29.6507 4.86108 30.0447C10.2998 33.3447 15.7865 36.5462 21.2252 39.8708C22.2359 40.4865 23.006 40.5357 24.0167 39.8954C29.4073 36.5954 34.87 33.3939 40.2846 30.1186C40.9584 29.6999 41.3435 29.6507 41.7766 30.4387C44.0628 34.3298 45.3623 38.4917 45.266 42.5551Z" fill="#273852"/>
<path d="M77.6574 33.8369C77.6574 28.0249 77.6815 22.1884 77.6334 16.3764C77.6334 15.3913 77.7778 14.9973 78.8366 15.0712C80.4008 15.1697 81.965 15.1451 83.5293 15.0712C84.4437 15.0219 84.6603 15.3175 84.6603 16.2287C84.6362 25.6115 84.6603 34.9943 84.6122 44.3772C84.6122 45.3622 84.8047 45.6824 85.8395 45.6578C90.7728 45.5839 95.7061 45.6578 100.615 45.6085C101.506 45.6085 101.795 45.8301 101.746 46.766C101.674 48.3667 101.698 49.9675 101.746 51.5682C101.77 52.2085 101.65 52.5286 100.904 52.504C93.4199 52.4794 85.9117 52.4794 78.4275 52.504C77.489 52.504 77.6574 51.9376 77.6574 51.3958C77.6574 45.5592 77.6574 39.6981 77.6574 33.8369Z" fill="#273852"/>
<path d="M139.191 33.9361C139.191 39.748 139.167 45.5846 139.215 51.3965C139.215 52.2338 139.047 52.554 138.181 52.5047C136.544 52.4309 134.884 52.4309 133.247 52.5047C132.429 52.5294 132.261 52.2585 132.261 51.4704C132.285 46.0525 132.285 40.6346 132.285 35.2413C132.285 29.0107 132.333 22.7801 132.237 16.5495C132.213 15.2443 132.598 14.9734 133.777 15.0473C135.221 15.1458 136.665 15.1212 138.108 15.0473C139.023 14.998 139.239 15.2935 139.239 16.2047C139.167 22.1398 139.191 28.0503 139.191 33.9361Z" fill="#273852"/>
<path d="M200.773 26.7698C197.356 19.2094 191.629 15.0967 183.302 15.0967C180.174 15.0967 177.045 15.146 173.917 15.0721C172.858 15.0475 172.497 15.2691 172.521 16.4512C172.593 22.2385 172.545 28.0012 172.545 33.7885C172.545 39.6497 172.569 45.5109 172.521 51.3721C172.521 52.2833 172.738 52.5542 173.652 52.5295C176.973 52.4803 180.294 52.4557 183.639 52.5295C188.019 52.628 191.797 51.1258 195.166 48.3922C201.664 43.0975 204.07 34.1086 200.773 26.7698ZM195.19 34.478C194.95 39.6743 191.099 44.3534 186.07 45.4616C184.096 45.9049 182.075 45.5601 180.078 45.6586C179.332 45.6833 179.524 45.1169 179.524 44.7228C179.524 41.0781 179.524 37.4333 179.524 33.7885C179.524 30.2176 179.572 26.6713 179.5 23.1004C179.476 22.0907 179.813 21.8445 180.703 21.9183C182.821 22.0415 184.939 21.6967 187.032 22.3616C192.062 23.9624 195.431 28.9616 195.19 34.478Z" fill="#273852"/>
<path d="M263.077 21.967C257.133 13.6432 245.39 12.2887 237.93 19.1596C232.756 23.9372 230.71 29.9708 231.769 37.0141C233.044 45.4611 240.095 52.8491 249.096 52.7506C253.981 52.8491 258.168 51.0267 261.489 47.4805C268.251 40.314 268.829 30.02 263.077 21.967ZM255.425 43.8111C250.491 47.6529 243.464 46.1999 240.336 40.7081C239.085 38.5409 238.411 36.2014 238.459 33.6894C238.555 29.5521 240.047 26.0551 243.272 23.5678C247.315 20.4402 253.235 21.0805 256.796 25.0454C261.537 30.3155 260.936 39.5506 255.425 43.8111Z" fill="#273852"/>
<path d="M38.1188 24.5776C34.3406 18.5933 30.6105 12.5843 26.8564 6.57537C25.5088 4.40821 24.1371 2.24104 22.7413 0C22.5488 0.221642 22.4285 0.320149 22.3563 0.443284C17.3026 8.5209 12.2731 16.5985 7.19538 24.6515C6.71408 25.4396 6.9788 25.6612 7.58042 26.0306C12.3693 28.8627 17.1342 31.6948 21.899 34.5515C22.4525 34.8716 22.8857 34.9209 23.4392 34.5761C28.204 31.7194 32.993 28.8873 37.7819 26.0798C38.4797 25.6366 38.576 25.3164 38.1188 24.5776ZM32.5117 25.0455C29.5276 26.794 26.5436 28.5672 23.5836 30.3649C22.9098 30.7836 22.4285 30.7836 21.7546 30.3649C18.6743 28.4687 15.5459 26.6216 12.4175 24.8239C11.6955 24.4052 11.6474 24.1097 12.0806 23.4201C15.4978 18.0269 18.8669 12.609 22.2359 7.19104C22.3322 7.01866 22.4766 6.89552 22.6932 6.62463C23.9927 8.66866 25.22 10.6142 26.4473 12.5597C28.6372 16.0321 30.803 19.5045 32.993 23.0015C33.8593 24.3067 33.8352 24.2821 32.5117 25.0455Z" fill="#273852"/>
</g>
<defs>
<clipPath id="clip0_438_1639">
<rect width="267" height="66" fill="white"/>
</clipPath>
</defs>
</svg>
