<svg width="272" height="67" viewBox="0 0 272 67" fill="none" xmlns="http://www.w3.org/2000/svg">
<g clip-path="url(#clip0_52_2613)">
<path d="M46.1136 42.7059C46.0891 54.8469 37.3125 64.6484 25.7167 65.9783C11.3261 67.6283 -1.05429 55.7089 0.0734226 41.2529C0.367609 37.3865 1.64242 33.8402 3.65269 30.5156C4.04494 29.8753 4.2901 29.8014 4.95202 30.1954C10.4925 33.4954 16.0821 36.6969 21.6226 40.0216C22.6522 40.6372 23.4367 40.6865 24.4664 40.0462C29.9579 36.7462 35.5229 33.5447 41.0389 30.2693C41.7253 29.8507 42.1176 29.8014 42.5589 30.5895C44.8878 34.4805 46.2117 38.6425 46.1136 42.7059Z" fill="#273852"/>
<path d="M79.1114 33.9874C79.1114 28.1755 79.1359 22.3389 79.0869 16.527C79.0869 15.5419 79.234 15.1479 80.3127 15.2218C81.9062 15.3203 83.4997 15.2956 85.0932 15.2218C86.0248 15.1725 86.2454 15.468 86.2454 16.3792C86.2209 25.7621 86.2455 35.1449 86.1964 44.5277C86.1964 45.5128 86.3925 45.833 87.4467 45.8083C92.4724 45.7344 97.4981 45.8083 102.499 45.7591C103.406 45.7591 103.701 45.9807 103.651 46.9165C103.578 48.5173 103.602 50.118 103.651 51.7188C103.676 52.3591 103.553 52.6792 102.793 52.6546C95.1691 52.63 87.5203 52.63 79.8959 52.6546C78.9398 52.6546 79.1114 52.0882 79.1114 51.5464C79.1114 45.7098 79.1114 39.8486 79.1114 33.9874Z" fill="#273852"/>
<path d="M141.798 34.0862C141.798 39.8982 141.773 45.7347 141.822 51.5467C141.822 52.384 141.651 52.7041 140.768 52.6549C139.101 52.581 137.41 52.581 135.743 52.6549C134.909 52.6795 134.737 52.4086 134.737 51.6206C134.762 46.2026 134.762 40.7847 134.762 35.3914C134.762 29.1609 134.811 22.9303 134.713 16.6997C134.688 15.3944 135.081 15.1235 136.282 15.1974C137.753 15.2959 139.224 15.2713 140.695 15.1974C141.626 15.1482 141.847 15.4437 141.847 16.3549C141.773 22.29 141.798 28.2004 141.798 34.0862Z" fill="#273852"/>
<path d="M204.533 26.9198C201.052 19.3594 195.217 15.2467 186.735 15.2467C183.548 15.2467 180.361 15.2959 177.174 15.222C176.095 15.1974 175.727 15.4191 175.752 16.6011C175.825 22.3885 175.776 28.1511 175.776 33.9385C175.776 39.7997 175.801 45.6608 175.752 51.522C175.752 52.4332 175.972 52.7041 176.904 52.6795C180.287 52.6302 183.67 52.6056 187.078 52.6795C191.54 52.778 195.389 51.2758 198.821 48.5422C205.44 43.2474 207.892 34.2586 204.533 26.9198ZM198.845 34.628C198.6 39.8243 194.678 44.5034 189.554 45.6116C187.544 46.0549 185.484 45.7101 183.45 45.8086C182.69 45.8332 182.886 45.2668 182.886 44.8728C182.886 41.228 182.886 37.5832 182.886 33.9385C182.886 30.3676 182.935 26.8213 182.861 23.2504C182.837 22.2407 183.18 21.9944 184.087 22.0683C186.244 22.1914 188.402 21.8467 190.535 22.5116C195.658 24.1123 199.09 29.1116 198.845 34.628Z" fill="#273852"/>
<path d="M268.004 22.1175C261.948 13.7937 249.985 12.4392 242.385 19.3101C237.114 24.0877 235.03 30.1213 236.109 37.1646C237.408 45.6116 244.591 52.9996 253.76 52.9011C258.737 52.9996 263.003 51.1772 266.386 47.631C273.275 40.4646 273.863 30.1705 268.004 22.1175ZM260.208 43.9616C255.182 47.8034 248.024 46.3504 244.837 40.8586C243.562 38.6914 242.875 36.3519 242.924 33.8399C243.022 29.7026 244.542 26.2056 247.828 23.7183C251.946 20.5907 257.977 21.231 261.605 25.1959C266.435 30.4661 265.822 39.7011 260.208 43.9616Z" fill="#273852"/>
<path d="M38.8326 24.728C34.9837 18.7437 31.1838 12.7347 27.3594 6.72576C25.9865 4.5586 24.5891 2.39144 23.1672 0.150391C22.9711 0.372032 22.8485 0.47054 22.775 0.593674C17.6267 8.67129 12.503 16.7489 7.33017 24.8019C6.83986 25.5899 7.10953 25.8116 7.72242 26.181C12.601 29.0131 17.4551 31.8452 22.3092 34.7019C22.873 35.022 23.3143 35.0713 23.8782 34.7265C28.7322 31.8698 33.6108 29.0377 38.4894 26.2302C39.2004 25.787 39.2984 25.4668 38.8326 24.728ZM33.1205 25.1959C30.0806 26.9444 27.0407 28.7176 24.0253 30.5153C23.3388 30.934 22.8485 30.934 22.1621 30.5153C19.0241 28.619 15.8371 26.772 12.65 24.9743C11.9146 24.5556 11.8655 24.2601 12.3068 23.5705C15.788 18.1773 19.2202 12.7593 22.6524 7.34144C22.7504 7.16905 22.8975 7.04591 23.1182 6.77502C24.442 8.81905 25.6923 10.7646 26.9426 12.7101C29.1735 16.1825 31.3799 19.6549 33.6108 23.1519C34.4934 24.4571 34.4689 24.4325 33.1205 25.1959Z" fill="#273852"/>
</g>
<defs>
<clipPath id="clip0_52_2613">
<rect width="272" height="66" fill="white" transform="translate(0 0.150391)"/>
</clipPath>
</defs>
</svg>
