<svg width="279" height="67" viewBox="0 0 279 67" fill="none" xmlns="http://www.w3.org/2000/svg">
<path d="M87.8913 50.6132L87.8519 34.0968L79.751 47.7032H76.8803L68.8187 34.4507V50.6132H62.8413V23.0858H68.1108L78.414 40.1921L88.5598 23.0858H93.79L93.8686 50.6132H87.8913Z" fill="#111111"/>
<path d="M125.646 45.501V50.6132H104.332V23.0858H125.135V28.198H110.663V34.1754H123.444V39.1303H110.663V45.501H125.646Z" fill="#111111"/>
<path d="M153.171 36.4169H158.992V47.5852C157.497 48.7125 155.767 49.5777 153.801 50.1806C151.834 50.7836 149.855 51.0851 147.863 51.0851C145.005 51.0851 142.436 50.4821 140.155 49.2762C137.874 48.044 136.078 46.353 134.767 44.2033C133.483 42.0273 132.841 39.576 132.841 36.8495C132.841 34.123 133.483 31.6848 134.767 29.5351C136.078 27.3591 137.887 25.6681 140.194 24.4622C142.501 23.23 145.097 22.6139 147.981 22.6139C150.393 22.6139 152.582 23.0202 154.548 23.833C156.514 24.6457 158.166 25.8254 159.503 27.3722L155.413 31.1474C153.447 29.0763 151.074 28.0407 148.295 28.0407C146.539 28.0407 144.979 28.4078 143.616 29.1418C142.252 29.8759 141.19 30.9114 140.43 32.2485C139.67 33.5855 139.29 35.1192 139.29 36.8495C139.29 38.5536 139.67 40.0741 140.43 41.4112C141.19 42.7482 142.239 43.7969 143.576 44.5572C144.939 45.2912 146.486 45.6583 148.217 45.6583C150.052 45.6583 151.703 45.265 153.171 44.4785V36.4169Z" fill="#111111"/>
<path d="M186.971 44.7145H174.19L171.752 50.6132H165.224L177.493 23.0858H183.785L196.094 50.6132H189.409L186.971 44.7145ZM184.965 39.8775L180.6 29.3384L176.235 39.8775H184.965Z" fill="#111111"/>
<path d="M215.147 51.0439C211.581 51.0439 208.802 50.0214 206.81 47.9765C204.817 45.9316 203.821 42.9561 203.821 39.0498V23.2805H206.731V38.9318C206.731 42.1302 207.452 44.516 208.894 46.0889C210.336 47.6619 212.42 48.4484 215.147 48.4484C217.899 48.4484 219.997 47.6619 221.439 46.0889C222.881 44.516 223.601 42.1302 223.601 38.9318V23.2805H226.433V39.0498C226.433 42.9561 225.437 45.9316 223.444 47.9765C221.478 50.0214 218.712 51.0439 215.147 51.0439Z" fill="#111111"/>
<path d="M262.336 23.2805V50.8079H259.937L242.241 28.4714V50.8079H239.331V23.2805H241.73L259.465 45.617V23.2805H262.336Z" fill="#111111"/>
<path d="M275.45 23.2805H278.36V50.8079H275.45V23.2805Z" fill="#111111"/>
<path d="M63.8235 57.5702V61.193H68.5924V62.0361H63.8235V65.9487H62.8486V56.7271H69.1721V57.5702H63.8235Z" fill="#111111"/>
<path d="M77.535 66.0278C76.3406 66.0278 75.4096 65.6853 74.7421 65.0002C74.0747 64.3152 73.7409 63.3184 73.7409 62.0098V56.7271H74.7158V61.9702C74.7158 63.0417 74.9573 63.8409 75.4403 64.3679C75.9234 64.8948 76.6216 65.1583 77.535 65.1583C78.4572 65.1583 79.1598 64.8948 79.6428 64.3679C80.1258 63.8409 80.3674 63.0417 80.3674 61.9702V56.7271H81.3159V62.0098C81.3159 63.3184 80.9821 64.3152 80.3147 65.0002C79.656 65.6853 78.7294 66.0278 77.535 66.0278Z" fill="#111111"/>
<path d="M88.4998 57.5702H85.2591V56.7271H92.7155V57.5702H89.4747V65.9487H88.4998V57.5702Z" fill="#111111"/>
<path d="M100.443 66.0278C99.2481 66.0278 98.3172 65.6853 97.6497 65.0002C96.9822 64.3152 96.6485 63.3184 96.6485 62.0098V56.7271H97.6233V61.9702C97.6233 63.0417 97.8649 63.8409 98.3479 64.3679C98.8309 64.8948 99.5292 65.1583 100.443 65.1583C101.365 65.1583 102.067 64.8948 102.55 64.3679C103.033 63.8409 103.275 63.0417 103.275 61.9702V56.7271H104.223V62.0098C104.223 63.3184 103.89 64.3152 103.222 65.0002C102.564 65.6853 101.637 66.0278 100.443 66.0278Z" fill="#111111"/>
<path d="M116.093 65.9487L113.985 62.9846C113.748 63.011 113.502 63.0241 113.247 63.0241H110.771V65.9487H109.796V56.7271H113.247C114.424 56.7271 115.346 57.0081 116.014 57.5702C116.681 58.1323 117.015 58.9051 117.015 59.8888C117.015 60.6089 116.831 61.2193 116.462 61.7199C116.102 62.2118 115.584 62.5675 114.907 62.787L117.16 65.9487H116.093ZM113.221 62.1942C114.134 62.1942 114.833 61.9922 115.316 61.5882C115.799 61.1842 116.04 60.6177 116.04 59.8888C116.04 59.1423 115.799 58.5714 115.316 58.1762C114.833 57.7722 114.134 57.5702 113.221 57.5702H110.771V62.1942H113.221Z" fill="#111111"/>
<path d="M128.472 65.1056V65.9487H121.951V56.7271H128.274V57.5702H122.926V60.8505H127.695V61.6804H122.926V65.1056H128.472Z" fill="#111111"/>
<path d="M145.778 65.9487L143.67 62.9846C143.433 63.011 143.187 63.0241 142.932 63.0241H140.456V65.9487H139.481V56.7271H142.932C144.109 56.7271 145.031 57.0081 145.699 57.5702C146.366 58.1323 146.7 58.9051 146.7 59.8888C146.7 60.6089 146.516 61.2193 146.147 61.7199C145.787 62.2118 145.268 62.5675 144.592 62.787L146.845 65.9487H145.778ZM142.906 62.1942C143.819 62.1942 144.518 61.9922 145.001 61.5882C145.484 61.1842 145.725 60.6177 145.725 59.8888C145.725 59.1423 145.484 58.5714 145.001 58.1762C144.518 57.7722 143.819 57.5702 142.906 57.5702H140.456V62.1942H142.906Z" fill="#111111"/>
<path d="M158.157 65.1056V65.9487H151.636V56.7271H157.959V57.5702H152.611V60.8505H157.379V61.6804H152.611V65.1056H158.157Z" fill="#111111"/>
<path d="M168.866 63.4852H163.729L162.622 65.9487H161.608L165.823 56.7271H166.785L171 65.9487H169.973L168.866 63.4852ZM168.511 62.6948L166.297 57.7414L164.084 62.6948H168.511Z" fill="#111111"/>
<path d="M175.161 56.7271H178.915C179.89 56.7271 180.751 56.9247 181.497 57.3199C182.244 57.7063 182.823 58.2508 183.236 58.9534C183.649 59.6473 183.855 60.4421 183.855 61.3379C183.855 62.2337 183.649 63.0329 183.236 63.7355C182.823 64.4294 182.244 64.9739 181.497 65.3691C180.751 65.7555 179.89 65.9487 178.915 65.9487H175.161V56.7271ZM178.863 65.1056C179.671 65.1056 180.378 64.9475 180.984 64.6314C181.59 64.3064 182.059 63.8629 182.393 63.3008C182.727 62.7299 182.894 62.0756 182.894 61.3379C182.894 60.6002 182.727 59.9502 182.393 59.3882C182.059 58.8173 181.59 58.3738 180.984 58.0576C180.378 57.7327 179.671 57.5702 178.863 57.5702H176.136V65.1056H178.863Z" fill="#111111"/>
<path d="M191.442 62.7607V65.9487H190.481V62.7607L186.792 56.7271H187.833L190.994 61.9044L194.156 56.7271H195.131L191.442 62.7607Z" fill="#111111"/>
<path d="M0 22.6921L-5.6983e-06 66.1461L20.2523 66.1461L20.2523 42.9445C20.2523 31.7594 11.185 22.6921 0 22.6921Z" fill="#E51E20"/>
<path d="M44.437 22.6921L44.437 66.1461L24.1847 66.1461L24.1847 42.9445C24.1847 31.7594 33.252 22.6921 44.437 22.6921Z" fill="#E51E20"/>
<circle r="8.94641" transform="matrix(-1 -8.74228e-08 -8.74228e-08 1 21.3336 9.81262)" fill="#E51E20"/>
</svg>
