<svg width="439" height="124" viewBox="0 0 439 124" fill="none" xmlns="http://www.w3.org/2000/svg">
<path fill-rule="evenodd" clip-rule="evenodd" d="M88.1205 19.5801V62.3434L71.5832 49.2278L55.0506 62.3434V19.5801L71.5832 6.46449L88.1205 19.5801ZM20.8305 89.4815L4.29779 102.597V59.8339L20.8305 46.7183V89.4815ZM96.9619 44.6755H96.9574V76.388L71.5832 96.5126L46.209 76.388V44.6755V26.5936L29.6719 39.7092V82.4726L29.7685 82.3933V84.3701L71.5832 117.536L113.398 84.3701V82.3933L113.495 82.4726V39.7092L96.9619 26.5936V44.6755ZM122.336 89.4815V46.7183L138.873 59.8339V102.597L122.336 89.4815Z" fill="url(#paint0_linear_1306_607)"/>
<path d="M196.773 54.4967C196.773 59.4042 194.142 62.3485 188.531 62.3485H179.236V46.8235H188.531C194.142 46.8235 196.773 49.8571 196.773 54.4967ZM164.241 34.1535V96.7892H179.236V73.1447H182.831L195.633 96.7892H212.557L198.351 71.9848C207.822 69.1296 212.031 61.724 212.031 53.8722C212.031 42.9868 204.49 34.1535 189.407 34.1535H164.241Z" fill="#101113"/>
<path d="M269.32 71.8956C269.32 56.1028 258.272 46.2881 243.892 46.2881C229.599 46.2881 218.462 56.1028 218.462 71.8956C218.462 87.6883 229.336 97.5032 243.716 97.5032C258.097 97.5032 269.32 87.6883 269.32 71.8956ZM233.72 71.8956C233.72 63.4193 238.455 59.4933 243.892 59.4933C249.152 59.4933 254.063 63.4193 254.063 71.8956C254.063 80.2827 249.065 84.2978 243.716 84.2978C238.28 84.2978 233.72 80.2827 233.72 71.8956Z" fill="#101113"/>
<path d="M274.295 71.8956C274.295 87.6883 284.466 97.5032 298.847 97.5032C311.124 97.5032 319.804 90.2759 322.347 78.7659H306.388C305.073 82.4241 302.706 84.4762 298.584 84.4762C293.235 84.4762 289.553 80.1935 289.553 71.8956C289.553 63.5977 293.235 59.3149 298.584 59.3149C302.706 59.3149 305.16 61.5455 306.388 65.0252H322.347C319.804 53.1585 311.124 46.2881 298.847 46.2881C284.466 46.2881 274.295 56.192 274.295 71.8956Z" fill="#101113"/>
<path d="M330.367 96.7892H345.363V47.0019H330.367V96.7892ZM337.909 41.8268C343.171 41.8268 346.765 38.1686 346.765 33.6182C346.765 28.9784 343.171 25.3203 337.909 25.3203C332.559 25.3203 328.964 28.9784 328.964 33.6182C328.964 38.1686 332.559 41.8268 337.909 41.8268Z" fill="#101113"/>
<path d="M356.229 96.7892H371.224V71.4495V59.5826V46.3772H396.302V34.1535H356.229V96.7892Z" fill="#101113"/>
<path d="M404.182 96.7892H419.178V47.0019H404.182V96.7892ZM411.724 41.8268C416.986 41.8268 420.581 38.1686 420.581 33.6182C420.581 28.9784 416.986 25.3203 411.724 25.3203C406.374 25.3203 402.78 28.9784 402.78 33.6182C402.78 38.1686 406.374 41.8268 411.724 41.8268Z" fill="#101113"/>
<path d="M392.974 61.4117V73.4422H371.285L374.972 64.4696C375.747 62.5823 377.244 61.4117 378.868 61.4117H392.974Z" fill="url(#paint1_linear_1306_607)"/>
<defs>
<linearGradient id="paint0_linear_1306_607" x1="71.584" y1="-61.212" x2="71.584" y2="130.755" gradientUnits="userSpaceOnUse">
<stop offset="0.373822" stop-color="#B36EFD"/>
<stop offset="1" stop-color="#4876FB"/>
</linearGradient>
<linearGradient id="paint1_linear_1306_607" x1="363.257" y1="67.4264" x2="418.783" y2="67.4264" gradientUnits="userSpaceOnUse">
<stop stop-color="#B36EFD"/>
<stop offset="0.9959" stop-color="#4876FB"/>
</linearGradient>
</defs>
</svg>
