<svg width="32" height="31" viewBox="0 0 32 31" fill="none" xmlns="http://www.w3.org/2000/svg">
<path fill-rule="evenodd" clip-rule="evenodd" d="M31.3504 9.78667C30.6761 15.8207 30.2339 16.1712 23.6006 15.8214L19.0752 20.1996L18.7408 15.46C15.3776 15.0079 15.1305 13.9737 14.5523 10.0545C13.5724 3.40868 13.8064 3.32704 22.0739 2.48864C31.4099 1.54106 32.2409 1.81419 31.3504 9.78667ZM18.4918 30.9778C18.4918 30.9778 10.5689 31.2122 4.02428 19.5969C-2.52036 7.982 1.89052 0.179688 1.89052 0.179688L8.03229 1.64893L7.92764 10.1191L5.57788 12.6527L10.3728 20.9127L13.7097 20.1776L20.7632 24.2998L18.4918 30.9778Z" fill="#111111"/>
</svg>
